<svg width="50" height="50" viewBox="0 0 50 50" fill="none" xmlns="http://www.w3.org/2000/svg">
<path d="M15.5469 40.0781C10.3125 36.7969 7.18749 31.1719 7.18749 25C7.18749 15.1562 15.1562 7.18751 25 7.18751C27.4219 7.18751 29.8438 7.65626 32.0312 8.67188C32.5781 8.90626 33.2031 8.67187 33.4375 8.125C33.6719 7.57812 33.4375 6.95313 32.8906 6.71875C30.3906 5.625 27.7344 5.07812 25 5.07812C14.0625 5.07812 5.07812 13.9844 5.07812 25C5.07812 31.875 8.59375 38.2031 14.4531 41.875C14.6094 41.9531 14.8437 42.0312 15 42.0312C15.3125 42.0312 15.7031 41.875 15.8594 41.5625C16.1719 41.0156 16.0156 40.3906 15.5469 40.0781Z" fill="#2F89FE"/>
<path d="M43.3594 17.4219C43.1251 16.875 42.5001 16.6407 42.0313 16.875C41.4844 17.1094 41.2501 17.7344 41.4844 18.2032C42.3438 20.3907 42.8126 22.6563 42.8126 25C42.8126 34.8438 34.8438 42.8125 25.0001 42.8125C23.2032 42.8125 21.4063 42.5 19.6875 42.0313C19.1407 41.875 18.5157 42.1876 18.3594 42.7344C18.2032 43.2813 18.5157 43.9063 19.0626 44.0625C21.0157 44.6875 22.9688 45 25.0001 45C35.9376 45 44.9219 36.0938 44.9219 25.0782C44.8438 22.3438 44.3751 19.8438 43.3594 17.4219Z" fill="#2F89FE"/>
<path d="M35.7812 10.8594C37.1875 11.9531 38.4375 13.2812 39.5312 14.7656C39.7656 15.0781 40.0781 15.2344 40.3906 15.2344C40.625 15.2344 40.7812 15.1562 41.0156 15.0781C41.4844 14.7656 41.5625 14.0625 41.25 13.5937C40.0781 11.9531 38.6719 10.4687 37.1094 9.29687C36.6406 8.98437 36.0156 9.06251 35.625 9.53126C35.2344 9.84376 35.3125 10.4687 35.7812 10.8594Z" fill="#2F89FE"/>
<path d="M25 0C11.25 0 0 11.25 0 25C0 38.75 11.25 50 25 50C38.75 50 50 38.75 50 25C50 11.1719 38.75 0 25 0ZM25 46.875C12.9688 46.875 3.125 37.0312 3.125 25C3.125 12.9688 12.9688 3.125 25 3.125C37.0312 3.125 46.875 12.9688 46.875 25C46.875 37.0312 37.0312 46.875 25 46.875Z" fill="#2F89FE"/>
<path d="M30.2418 21.7468C30.1036 20.0898 28.6701 19.5201 26.8566 19.3475L26.8739 17.0345L25.475 17.0173L25.4577 19.2612C25.095 19.2612 24.715 19.2612 24.3351 19.2612L24.3523 17H22.9534L22.9361 19.2957C22.6252 19.2957 22.3316 19.2957 22.038 19.2957L20.1036 19.2785L20.0864 20.7802C20.0864 20.7802 21.1226 20.7629 21.1054 20.7802C21.6753 20.7802 21.848 21.1254 21.8998 21.4016L21.8826 24.0253C21.9171 24.0253 21.9689 24.0253 22.038 24.0426C21.9862 24.0426 21.9344 24.0426 21.8826 24.0426L21.848 27.7192C21.8135 27.8918 21.7098 28.1853 21.3126 28.1853C21.3299 28.2025 20.2936 28.168 20.2936 28.168L20 29.8423L21.8307 29.8596C22.1762 29.8596 22.5043 29.8769 22.8325 29.8769L22.8152 32.2071L24.2142 32.2244L24.2314 29.9114C24.6114 29.9287 24.9914 29.9287 25.3541 29.9287L25.3368 32.2417H26.753L26.7703 29.9114C29.1364 29.7906 30.7945 29.2209 31.019 27.0115C31.1917 25.2336 30.3627 24.4223 29.0328 24.0944C29.8446 23.6974 30.3454 22.9724 30.2418 21.7468ZM28.2383 26.7181C28.2211 28.4614 25.2332 28.2371 24.2832 28.2198L24.3178 25.13C25.2677 25.1473 28.2556 24.9056 28.2383 26.7181ZM27.6166 22.351C27.5993 23.939 25.1123 23.7319 24.3178 23.7146L24.3351 20.9183C25.1468 20.9356 27.6339 20.6939 27.6166 22.351Z" fill="#2F89FE"/>
</svg>
