<svg width="50" height="39" viewBox="0 0 50 39" fill="none" xmlns="http://www.w3.org/2000/svg">
<path d="M6.88406 38.4058C3.11594 38.4058 0 35.2899 0 31.5218C0 27.7536 3.11594 24.6377 6.88406 24.6377C10.6522 24.6377 13.7681 27.7536 13.7681 31.5218C13.7681 35.2899 10.7246 38.4058 6.88406 38.4058ZM6.88406 27.5362C4.71014 27.5362 2.89855 29.3478 2.89855 31.5218C2.89855 33.6957 4.71014 35.5073 6.88406 35.5073C9.05797 35.5073 10.8696 33.6957 10.8696 31.5218C10.8696 29.3478 9.13043 27.5362 6.88406 27.5362Z" fill="#2F89FE"/>
<path d="M17.7536 19.5652C13.9854 19.5652 10.8695 16.4493 10.8695 12.6812C10.8695 8.91306 13.9854 5.79712 17.7536 5.79712C21.5217 5.79712 24.6376 8.91306 24.6376 12.6812C24.6376 16.4493 21.5941 19.5652 17.7536 19.5652ZM17.7536 8.69567C15.5797 8.69567 13.7681 10.5073 13.7681 12.6812C13.7681 14.8551 15.5797 16.6667 17.7536 16.6667C19.9275 16.6667 21.7391 14.8551 21.7391 12.6812C21.7391 10.5073 19.9999 8.69567 17.7536 8.69567Z" fill="#2F89FE"/>
<path d="M35.1449 36.9565C31.3768 36.9565 28.2609 33.8406 28.2609 30.0725C28.2609 26.3044 31.3768 23.1884 35.1449 23.1884C38.913 23.1884 42.029 26.3044 42.029 30.0725C42.029 33.8406 38.9855 36.9565 35.1449 36.9565ZM35.1449 26.087C32.971 26.087 31.1594 27.8986 31.1594 30.0725C31.1594 32.2464 32.971 34.058 35.1449 34.058C37.3188 34.058 39.1304 32.2464 39.1304 30.0725C39.1304 27.8986 37.3913 26.087 35.1449 26.087Z" fill="#2F89FE"/>
<path d="M43.116 13.7681C39.3479 13.7681 36.2319 10.6522 36.2319 6.88406C36.2319 3.11594 39.3479 0 43.116 0C46.8841 0 50 3.11594 50 6.88406C50 10.6522 46.9566 13.7681 43.116 13.7681ZM43.116 2.89855C40.9421 2.89855 39.1305 4.71014 39.1305 6.88406C39.1305 9.05797 40.9421 10.8696 43.116 10.8696C45.2899 10.8696 47.1015 9.05797 47.1015 6.88406C47.1015 4.71014 45.3624 2.89855 43.116 2.89855Z" fill="#2F89FE"/>
<path d="M41.4493 6.73913C41.3043 6.73913 41.1594 6.66662 41.0145 6.59415C40.6522 6.37676 40.5797 5.94196 40.7971 5.57964C41.4493 4.56515 42.6087 3.98547 43.7681 3.98547C44.2029 3.98547 44.4927 4.27533 44.4927 4.71011C44.4927 5.14489 44.2029 5.43475 43.7681 5.43475C43.0435 5.43475 42.3913 5.7971 41.9565 6.37681C41.9565 6.5942 41.7391 6.73913 41.4493 6.73913Z" fill="#2F89FE"/>
<path d="M13.8551 16.8155L9.15649 26.857L11.7817 28.0854L16.4804 18.0439L13.8551 16.8155Z" fill="#2F89FE"/>
<path d="M23.3236 14.7235L21.2407 16.7391L30.9158 26.737L32.9987 24.7214L23.3236 14.7235Z" fill="#2F89FE"/>
<path d="M40.0844 12.5422L35.8999 24.5892L38.6379 25.5402L42.8223 13.4932L40.0844 12.5422Z" fill="#2F89FE"/>
</svg>
