<svg width="49" height="49" viewBox="0 0 49 49" fill="none" xmlns="http://www.w3.org/2000/svg">
<path d="M43.6341 0H5.20546C2.29652 0 0 2.29691 0 5.20629V43.7937C0 46.7031 2.29652 49 5.20546 49H43.7872C46.6961 49 48.9927 46.7031 48.9927 43.7937V5.20629C48.8396 2.29691 46.543 0 43.6341 0ZM45.7775 43.7937C45.7775 45.0187 44.8589 45.9375 43.6341 45.9375H15.7695V44.4062C15.7695 43.9469 15.4633 43.6406 15.004 43.6406C14.5447 43.6406 14.2385 43.9469 14.2385 44.4062V45.9375H5.05236C3.82755 45.9375 2.90893 45.0187 2.90893 43.7937V32.1562L7.50199 29.4C7.8082 29.7063 8.26751 29.8594 8.87992 29.8594C9.79853 29.8594 10.7171 29.2469 10.8702 28.3281H13.1668C13.473 28.7875 13.7792 29.0938 14.2385 29.4V29.5531V31.0844C14.2385 31.5437 14.5447 31.85 15.004 31.85C15.4633 31.85 15.7695 31.5437 15.7695 31.0844V29.5531V29.4C16.535 29.0938 17.1474 28.3281 17.1474 27.5625L20.0564 26.1843C20.3626 26.4906 20.8219 26.4906 21.2812 26.4906C22.0467 26.4906 22.8122 26.0312 23.1184 25.2656H25.568C25.8743 25.8781 26.6398 26.4906 27.4053 26.4906C27.5584 26.4906 27.7115 26.4906 27.8646 26.4906L31.9983 32.6156C31.6921 32.9219 31.3859 33.5344 31.3859 33.9938C31.3859 35.2188 32.3045 36.1375 33.5294 36.1375C34.7542 36.1375 35.6728 35.2188 35.6728 33.9938C35.6728 33.6875 35.6728 33.3812 35.5197 33.075L38.8879 29.7063C39.1941 29.8594 39.5003 29.8594 39.8065 29.8594C40.7252 29.8594 41.6438 29.2469 41.7969 28.3281H46.0837V43.7937H45.7775ZM8.2675 27.7156C8.2675 27.4093 8.57371 27.1031 8.87992 27.1031C9.18612 27.1031 9.49233 27.4093 9.49233 27.7156C9.49233 28.0218 9.18612 28.3281 8.87992 28.3281C8.57371 28.3281 8.2675 28.0218 8.2675 27.7156ZM14.3916 27.4094C14.3916 27.1032 14.6978 26.7969 15.004 26.7969C15.3102 26.7969 15.6164 27.1032 15.6164 27.4094C15.6164 27.7157 15.3102 28.0219 15.004 28.0219C14.6978 28.0219 14.3916 27.7157 14.3916 27.4094ZM20.5157 24.3469C20.5157 24.0407 20.8219 23.7344 21.1281 23.7344C21.4343 23.7344 21.7405 24.0407 21.7405 24.3469C21.7405 24.6532 21.4343 24.9594 21.1281 24.9594C20.8219 24.9594 20.5157 24.6532 20.5157 24.3469ZM26.6398 24.3469C26.6398 24.0407 26.946 23.7344 27.2522 23.7344C27.5584 23.7344 27.8646 24.0407 27.8646 24.3469C27.8646 24.6532 27.5584 24.9594 27.2522 24.9594C26.946 24.9594 26.6398 24.6532 26.6398 24.3469ZM32.7638 33.8406C32.7638 33.5343 33.07 33.2281 33.3763 33.2281C33.6825 33.2281 33.9887 33.5343 33.9887 33.8406C33.9887 34.1468 33.6825 34.4531 33.3763 34.4531C33.07 34.4531 32.7638 34.1468 32.7638 33.8406ZM38.8879 27.7156C38.8879 27.4093 39.1941 27.1031 39.5003 27.1031C39.8065 27.1031 40.1127 27.4093 40.1127 27.7156C40.1127 28.0218 39.8065 28.3281 39.5003 28.3281C39.1941 28.3281 38.8879 28.0218 38.8879 27.7156ZM45.7775 26.7969H41.3376C41.0314 26.1844 40.2658 25.5719 39.5003 25.5719C38.2755 25.5719 37.3569 26.4906 37.3569 27.7156C37.3569 28.0218 37.3569 28.3281 37.51 28.6344L34.1418 32.0032C33.8356 31.85 33.5294 31.85 33.2232 31.85H33.0701L28.7832 25.5719C28.9363 25.2656 29.0894 24.8063 29.0894 24.3469C29.0894 23.1219 28.1708 22.2031 26.946 22.2031C26.0274 22.2031 25.1087 22.8156 24.9556 23.7344H22.8122C22.506 22.8156 21.7405 22.2031 20.8219 22.2031C19.5971 22.2031 18.6785 23.1219 18.6785 24.3469C18.6785 24.5 18.6785 24.6531 18.6785 24.8063L16.2288 26.0312C15.7695 25.5719 15.3102 25.2656 14.6978 25.2656C13.7792 25.2656 12.8606 25.8781 12.7075 26.7969H10.4109C10.1047 26.1844 9.33923 25.5719 8.57372 25.5719C7.3489 25.5719 6.43028 26.4906 6.43028 27.7156C6.43028 27.8687 6.43028 27.8687 6.43028 28.0219L2.60273 30.3187V13.0156H26.3336V15.0062C26.3336 15.4656 26.6398 15.7719 27.0991 15.7719C27.5584 15.7719 27.8646 15.4656 27.8646 15.0062V13.0156H45.4713V26.7969H45.7775ZM45.7775 11.4844H2.90893V5.20629C2.90893 3.98129 3.82755 3.0625 5.05236 3.0625H43.6341C44.8589 3.0625 45.7775 3.98129 45.7775 5.20629V11.4844Z" fill="#2F89FE"/>
<path d="M7.34894 5.35938C6.12412 5.35938 5.20551 6.27816 5.20551 7.50315C5.20551 8.72814 6.12412 9.64683 7.34894 9.64683C8.57375 9.64683 9.49237 8.72814 9.49237 7.50315C9.49237 6.27816 8.57375 5.35938 7.34894 5.35938ZM7.34894 8.11559C7.04273 8.11559 6.73653 7.8094 6.73653 7.50315C6.73653 7.1969 7.04273 6.89061 7.34894 6.89061C7.65514 6.89061 7.96135 7.1969 7.96135 7.50315C7.96135 7.8094 7.65514 8.11559 7.34894 8.11559Z" fill="#2F89FE"/>
<path d="M12.7075 5.35938C11.4827 5.35938 10.5641 6.27816 10.5641 7.50315C10.5641 8.72814 11.4827 9.64683 12.7075 9.64683C13.9323 9.64683 14.851 8.72814 14.851 7.50315C14.851 6.27816 13.9323 5.35938 12.7075 5.35938ZM12.7075 8.11559C12.4013 8.11559 12.0951 7.8094 12.0951 7.50315C12.0951 7.1969 12.4013 6.89061 12.7075 6.89061C13.0137 6.89061 13.3199 7.1969 13.3199 7.50315C13.3199 7.8094 13.0137 8.11559 12.7075 8.11559Z" fill="#2F89FE"/>
<path d="M18.066 5.35938C16.8412 5.35938 15.9226 6.27816 15.9226 7.50315C15.9226 8.72814 16.8412 9.64683 18.066 9.64683C19.2909 9.64683 20.2095 8.72814 20.2095 7.50315C20.2095 6.27816 19.2909 5.35938 18.066 5.35938ZM18.066 8.11559C17.7598 8.11559 17.4536 7.8094 17.4536 7.50315C17.4536 7.1969 17.7598 6.89061 18.066 6.89061C18.3722 6.89061 18.6785 7.1969 18.6785 7.50315C18.6785 7.8094 18.3722 8.11559 18.066 8.11559Z" fill="#2F89FE"/>
<path d="M15.004 32.9218C14.5447 32.9218 14.2385 33.228 14.2385 33.6874V36.4437C14.2385 36.903 14.5447 37.2093 15.004 37.2093C15.4633 37.2093 15.7695 36.903 15.7695 36.4437V33.6874C15.7695 33.228 15.4633 32.9218 15.004 32.9218Z" fill="#2F89FE"/>
<path d="M15.004 38.2812C14.5447 38.2812 14.2385 38.5875 14.2385 39.0469V41.803C14.2385 42.2624 14.5447 42.5686 15.004 42.5686C15.4633 42.5686 15.7695 42.2624 15.7695 41.803V39.0469C15.7695 38.5875 15.4633 38.2812 15.004 38.2812Z" fill="#2F89FE"/>
<path d="M27.4053 16.8436C26.946 16.8436 26.6398 17.1499 26.6398 17.6093V20.3655C26.6398 20.8249 26.946 21.1312 27.4053 21.1312C27.8647 21.1312 28.1709 20.8249 28.1709 20.3655V17.6093C28.1709 17.1499 27.8647 16.8436 27.4053 16.8436Z" fill="#2F89FE"/>
</svg>
