<svg width="49" height="49" viewBox="0 0 49 49" fill="none" xmlns="http://www.w3.org/2000/svg">
<path d="M47.3926 15.824C47.0861 15.0578 46.2433 14.5981 45.4005 14.9046C44.6343 15.2111 44.1746 16.0539 44.4811 16.8967C46.4732 22.26 46.3199 28.083 43.9448 33.2931C41.5696 38.5032 37.3555 42.4874 31.9922 44.4795C26.6289 46.4715 20.8059 46.3183 15.5958 43.9432C13.7569 43.1003 12.0713 42.0276 10.5389 40.7251C11.7648 40.7251 13.144 40.7252 14.5231 40.4187C15.3659 40.2655 15.9023 39.4992 15.749 38.6564C15.5958 37.8136 14.8296 37.2773 13.9868 37.4306C11.2285 37.8903 8.54685 37.5071 7.01448 37.2007C6.47814 36.9708 5.86519 37.0475 5.40548 37.354C5.25224 37.5072 5.099 37.6604 5.02238 37.8902V37.9668C5.02238 38.0435 4.94577 38.1201 4.94577 38.1967C4.86915 38.5032 4.86915 38.8097 4.94577 39.1161C5.32886 40.4187 6.24829 44.173 5.86519 46.4715C5.71196 47.3143 6.3249 48.0806 7.16771 48.2338C7.24433 48.2338 7.32095 48.2338 7.39757 48.2338C8.16376 48.2338 8.77671 47.6975 8.92995 46.9313C9.08318 45.782 9.08318 44.5561 8.92995 43.3302C10.6156 44.7093 12.4544 45.8586 14.3699 46.778C17.5879 48.2338 21.0357 49 24.4836 49C27.3951 49 30.3066 48.4637 33.1415 47.391C39.271 45.0924 44.098 40.4953 46.8563 34.5956C49.4613 28.6193 49.6912 21.9535 47.3926 15.824Z" fill="#2F89FE"/>
<path d="M4.94571 15.6708C9.84932 4.86752 22.568 0.117155 33.2947 4.94414C35.0569 5.78695 36.7425 6.78299 38.1983 8.0089C36.9724 8.0089 35.5932 8.00891 34.2907 8.31539C33.4479 8.46863 32.9116 9.23476 33.0648 10.0776C33.2181 10.9204 33.9843 11.4568 34.8271 11.3035C37.8152 10.7672 40.6501 11.2268 42.1059 11.6099H42.1825C42.2591 11.6099 42.3357 11.6099 42.4123 11.6099H42.4889C42.4889 11.6099 42.4889 11.6099 42.5656 11.6099C42.6422 11.6099 42.7188 11.6099 42.7188 11.6099C42.7954 11.6099 42.7954 11.6099 42.872 11.6099C42.9487 11.6099 43.0253 11.61 43.0253 11.5333C43.0253 11.5333 43.1019 11.5334 43.1019 11.4567C43.1785 11.4567 43.1785 11.3801 43.2551 11.3801C43.3317 11.3801 43.3317 11.3035 43.4084 11.3035C43.4084 11.3035 43.4084 11.3035 43.485 11.3035L43.5616 11.2268L43.6382 11.1502C43.7148 11.0736 43.7915 10.9204 43.8681 10.8438C43.9447 10.7671 43.9447 10.614 43.9447 10.5374V10.4607C43.9447 10.384 43.9447 10.3075 43.9447 10.1543V10.0776C43.9447 9.92433 43.9447 9.84771 43.8681 9.69447C43.485 8.46857 42.5656 4.63765 42.9487 2.33908C43.1019 1.49628 42.4889 0.730143 41.6461 0.576905C40.8033 0.423668 40.0371 1.03658 39.8839 1.87939C39.7307 3.02867 39.7307 4.25454 39.8839 5.48044C38.2749 4.17792 36.5127 3.10531 34.5972 2.18588C22.2616 -3.40729 7.70398 2.10926 2.18743 14.4449C-0.494233 20.4212 -0.724092 27.087 1.57447 33.2165C1.80433 33.8295 2.41729 34.2125 3.03024 34.2125C3.18348 34.2125 3.41333 34.2125 3.56657 34.1359C4.33276 33.8294 4.79247 32.9866 4.48599 32.1438C2.41728 26.7039 2.57053 20.8809 4.94571 15.6708Z" fill="#2F89FE"/>
<path d="M19.2735 42.1808C20.9591 42.6405 22.6447 42.947 24.4069 42.947C31.5325 42.947 38.2749 38.8096 41.2631 32.0672C43.3318 27.5467 43.485 22.5664 41.7228 17.9693C41.4929 17.4329 40.9566 17.2031 40.4202 17.3563C39.8839 17.5861 39.6541 18.1225 39.8073 18.6589C41.3397 22.7963 41.1864 27.2402 39.4242 31.2244C36.053 38.6564 27.7015 42.4873 19.8864 40.2653C19.3501 40.1121 18.7371 40.4186 18.5839 40.9549C18.4306 41.4913 18.7371 42.0276 19.2735 42.1808Z" fill="#2F89FE"/>
<path d="M28.7741 8.62187C29.3104 8.77511 29.8468 8.46861 30 7.93228C30.1533 7.39595 29.8468 6.85964 29.3104 6.7064C20.4993 4.33122 11.3816 8.62181 7.62732 16.8967C5.55861 21.4172 5.40537 26.3974 7.1676 30.9945C7.32084 31.3776 7.70393 31.6841 8.16365 31.6841C8.31688 31.6841 8.3935 31.6841 8.54674 31.6075C9.08307 31.3777 9.31293 30.8413 9.15969 30.305C7.62732 26.1675 7.78055 21.7236 9.54279 17.7394C12.8374 10.3074 20.959 6.47654 28.7741 8.62187Z" fill="#2F89FE"/>
</svg>
