<svg width="44" height="50" viewBox="0 0 44 50" fill="none" xmlns="http://www.w3.org/2000/svg">
<path d="M40.625 3.125V46.875H3.125V3.125H40.625ZM40.9375 0H3.43752C1.71877 0 0 1.17184 0 2.89059V46.6406C0 48.3593 1.71877 50 3.43752 50H40.9375C42.6563 50 43.75 48.3593 43.75 46.6406V2.89059C43.75 1.17184 42.6563 0 40.9375 0Z" fill="#2F89FE"/>
<path d="M36.7188 17.1875H6.25C5.78125 17.1875 5.46875 16.875 5.46875 16.4062V7.03125C5.46875 6.5625 5.78125 6.25 6.25 6.25H36.7188C37.1875 6.25 37.5 6.5625 37.5 7.03125V16.4062C37.5 16.7969 37.1875 17.1875 36.7188 17.1875ZM7.03125 15.625H35.9375V7.8125H7.03125V15.625Z" fill="#2F89FE"/>
<path d="M10.9375 24.2188H6.25C5.78125 24.2188 5.46875 23.9062 5.46875 23.4375V20.3125C5.46875 19.8437 5.78125 19.5312 6.25 19.5312H10.9375C11.4062 19.5312 11.7188 19.8437 11.7188 20.3125V23.4375C11.7188 23.8281 11.4062 24.2188 10.9375 24.2188ZM7.03125 22.6562H10.1562V21.0938H7.03125V22.6562Z" fill="#2F89FE"/>
<path d="M19.5312 24.2188H14.8438C14.375 24.2188 14.0625 23.9062 14.0625 23.4375V20.3125C14.0625 19.8437 14.375 19.5312 14.8438 19.5312H19.5312C20 19.5312 20.3125 19.8437 20.3125 20.3125V23.4375C20.3125 23.8281 20 24.2188 19.5312 24.2188ZM15.625 22.6562H18.75V21.0938H15.625V22.6562Z" fill="#2F89FE"/>
<path d="M28.125 24.2188H23.4375C22.9687 24.2188 22.6562 23.9062 22.6562 23.4375V20.3125C22.6562 19.8437 22.9687 19.5312 23.4375 19.5312H28.125C28.5938 19.5312 28.9062 19.8437 28.9062 20.3125V23.4375C28.9062 23.8281 28.5938 24.2188 28.125 24.2188ZM24.2188 22.6562H27.3438V21.0938H24.2188V22.6562Z" fill="#2F89FE"/>
<path d="M36.7188 24.2188H32.0312C31.5625 24.2188 31.25 23.9062 31.25 23.4375V20.3125C31.25 19.8437 31.5625 19.5312 32.0312 19.5312H36.7188C37.1875 19.5312 37.5 19.8437 37.5 20.3125V23.4375C37.5 23.8281 37.1875 24.2188 36.7188 24.2188ZM32.8125 22.6562H35.9375V21.0938H32.8125V22.6562Z" fill="#2F89FE"/>
<path d="M10.9375 30.4688H6.25C5.78125 30.4688 5.46875 30.1562 5.46875 29.6875V26.5625C5.46875 26.0937 5.78125 25.7812 6.25 25.7812H10.9375C11.4062 25.7812 11.7188 26.0937 11.7188 26.5625V29.6875C11.7188 30.0781 11.4062 30.4688 10.9375 30.4688ZM7.03125 28.9062H10.1562V27.3438H7.03125V28.9062Z" fill="#2F89FE"/>
<path d="M19.5312 30.4688H14.8438C14.375 30.4688 14.0625 30.1562 14.0625 29.6875V26.5625C14.0625 26.0937 14.375 25.7812 14.8438 25.7812H19.5312C20 25.7812 20.3125 26.0937 20.3125 26.5625V29.6875C20.3125 30.0781 20 30.4688 19.5312 30.4688ZM15.625 28.9062H18.75V27.3438H15.625V28.9062Z" fill="#2F89FE"/>
<path d="M28.125 30.4688H23.4375C22.9687 30.4688 22.6562 30.1562 22.6562 29.6875V26.5625C22.6562 26.0937 22.9687 25.7812 23.4375 25.7812H28.125C28.5938 25.7812 28.9062 26.0937 28.9062 26.5625V29.6875C28.9062 30.0781 28.5938 30.4688 28.125 30.4688ZM24.2188 28.9062H27.3438V27.3438H24.2188V28.9062Z" fill="#2F89FE"/>
<path d="M36.7188 30.4688H32.0312C31.5625 30.4688 31.25 30.1562 31.25 29.6875V26.5625C31.25 26.0937 31.5625 25.7812 32.0312 25.7812H36.7188C37.1875 25.7812 37.5 26.0937 37.5 26.5625V29.6875C37.5 30.0781 37.1875 30.4688 36.7188 30.4688ZM32.8125 28.9062H35.9375V27.3438H32.8125V28.9062Z" fill="#2F89FE"/>
<path d="M10.9375 36.7188H6.25C5.78125 36.7188 5.46875 36.4062 5.46875 35.9375V32.8125C5.46875 32.3437 5.78125 32.0312 6.25 32.0312H10.9375C11.4062 32.0312 11.7188 32.3437 11.7188 32.8125V35.9375C11.7188 36.3281 11.4062 36.7188 10.9375 36.7188ZM7.03125 35.1562H10.1562V33.5938H7.03125V35.1562Z" fill="#2F89FE"/>
<path d="M19.5312 36.7188H14.8438C14.375 36.7188 14.0625 36.4062 14.0625 35.9375V32.8125C14.0625 32.3437 14.375 32.0312 14.8438 32.0312H19.5312C20 32.0312 20.3125 32.3437 20.3125 32.8125V35.9375C20.3125 36.3281 20 36.7188 19.5312 36.7188ZM15.625 35.1562H18.75V33.5938H15.625V35.1562Z" fill="#2F89FE"/>
<path d="M28.125 36.7188H23.4375C22.9687 36.7188 22.6562 36.4062 22.6562 35.9375V32.8125C22.6562 32.3437 22.9687 32.0312 23.4375 32.0312H28.125C28.5938 32.0312 28.9062 32.3437 28.9062 32.8125V35.9375C28.9062 36.3281 28.5938 36.7188 28.125 36.7188ZM24.2188 35.1562H27.3438V33.5938H24.2188V35.1562Z" fill="#2F89FE"/>
<path d="M36.7188 42.9688H32.0312C31.5625 42.9688 31.25 42.6562 31.25 42.1875V32.8125C31.25 32.3437 31.5625 32.0312 32.0312 32.0312H36.7188C37.1875 32.0312 37.5 32.3437 37.5 32.8125V42.1875C37.5 42.5781 37.1875 42.9688 36.7188 42.9688ZM32.8125 41.4062H35.9375V33.5938H32.8125V41.4062Z" fill="#2F89FE"/>
<path d="M10.9375 42.9688H6.25C5.78125 42.9688 5.46875 42.6562 5.46875 42.1875V39.0625C5.46875 38.5937 5.78125 38.2812 6.25 38.2812H10.9375C11.4062 38.2812 11.7188 38.5937 11.7188 39.0625V42.1875C11.7188 42.5781 11.4062 42.9688 10.9375 42.9688ZM7.03125 41.4062H10.1562V39.8438H7.03125V41.4062Z" fill="#2F89FE"/>
<path d="M19.5312 42.9688H14.8438C14.375 42.9688 14.0625 42.6562 14.0625 42.1875V39.0625C14.0625 38.5937 14.375 38.2812 14.8438 38.2812H19.5312C20 38.2812 20.3125 38.5937 20.3125 39.0625V42.1875C20.3125 42.5781 20 42.9688 19.5312 42.9688ZM15.625 41.4062H18.75V39.8438H15.625V41.4062Z" fill="#2F89FE"/>
<path d="M28.125 42.9688H23.4375C22.9687 42.9688 22.6562 42.6562 22.6562 42.1875V39.0625C22.6562 38.5937 22.9687 38.2812 23.4375 38.2812H28.125C28.5938 38.2812 28.9062 38.5937 28.9062 39.0625V42.1875C28.9062 42.5781 28.5938 42.9688 28.125 42.9688ZM24.2188 41.4062H27.3438V39.8438H24.2188V41.4062Z" fill="#2F89FE"/>
<path d="M8.59375 12.5C8.125 12.5 7.8125 12.1875 7.8125 11.7188V9.375C7.8125 8.90625 8.125 8.59375 8.59375 8.59375H12.5C12.9688 8.59375 13.2812 8.90625 13.2812 9.375C13.2812 9.84375 12.9688 10.1562 12.5 10.1562H9.375V11.7188C9.375 12.1094 9.0625 12.5 8.59375 12.5Z" fill="#2F89FE"/>
</svg>
