<svg width="50" height="50" viewBox="0 0 50 50" fill="none" xmlns="http://www.w3.org/2000/svg">
<path d="M15.5469 40.0781C10.3125 36.7969 7.18749 31.1719 7.18749 25C7.18749 15.1562 15.1562 7.18751 25 7.18751C27.4219 7.18751 29.8438 7.65626 32.0312 8.67188C32.5781 8.90626 33.2031 8.67187 33.4375 8.125C33.6719 7.57812 33.4375 6.95313 32.8906 6.71875C30.3906 5.625 27.7344 5.07812 25 5.07812C14.0625 5.07812 5.07812 13.9844 5.07812 25C5.07812 31.875 8.59375 38.2031 14.4531 41.875C14.6094 41.9531 14.8437 42.0312 15 42.0312C15.3125 42.0312 15.7031 41.875 15.8594 41.5625C16.1719 41.0156 16.0156 40.3906 15.5469 40.0781Z" fill="#2F89FE"/>
<path d="M43.3594 17.4219C43.125 16.875 42.5 16.6407 42.0312 16.875C41.4844 17.1094 41.25 17.7344 41.4844 18.2032C42.3438 20.3907 42.8125 22.6563 42.8125 25C42.8125 34.8438 34.8438 42.8125 25 42.8125C23.2031 42.8125 21.4062 42.5 19.6875 42.0313C19.1406 41.875 18.5156 42.1876 18.3594 42.7344C18.2031 43.2813 18.5156 43.9063 19.0625 44.0625C21.0156 44.6875 22.9688 45 25 45C35.9375 45 44.9219 36.0938 44.9219 25.0782C44.8437 22.3438 44.375 19.8438 43.3594 17.4219Z" fill="#2F89FE"/>
<path d="M35.7812 10.8594C37.1874 11.9531 38.4374 13.2812 39.5312 14.7656C39.7656 15.0781 40.078 15.2344 40.3905 15.2344C40.6249 15.2344 40.7812 15.1562 41.0156 15.0781C41.4843 14.7656 41.5624 14.0625 41.2499 13.5937C40.078 11.9531 38.6718 10.4687 37.1093 9.29687C36.6406 8.98437 36.0156 9.06251 35.6249 9.53126C35.2343 9.84376 35.3124 10.4687 35.7812 10.8594Z" fill="#2F89FE"/>
<path d="M25 0C11.25 0 0 11.25 0 25C0 38.75 11.25 50 25 50C38.75 50 50 38.75 50 25C50 11.1719 38.75 0 25 0ZM25 46.875C12.9688 46.875 3.125 37.0312 3.125 25C3.125 12.9688 12.9688 3.125 25 3.125C37.0312 3.125 46.875 12.9688 46.875 25C46.875 37.0312 37.0312 46.875 25 46.875Z" fill="#2F89FE"/>
<path d="M25.26 29.814V35L31 25.9535L25.26 29.814Z" fill="#2F89FE"/>
<path d="M30.792 24.2791L25.2599 14V21.4884L30.792 24.2791Z" fill="#2F89FE"/>
<path d="M25.2599 22.0698V28.4651L30.7504 24.8605L25.2599 22.0698Z" fill="#2F89FE"/>
<path d="M19.2288 24.2791L24.7608 14V21.4884L19.2288 24.2791Z" fill="#2F89FE"/>
<path d="M24.7609 22.0698V28.4651L19.2704 24.8605L24.7609 22.0698Z" fill="#2F89FE"/>
<path d="M24.7608 29.814V35L19 25.9535L24.7608 29.814Z" fill="#2F89FE"/>
</svg>
