<svg width="20" height="32" viewBox="0 0 20 32" fill="none" xmlns="http://www.w3.org/2000/svg">
<path d="M13.0824 15.9932L1.11126 27.9649C0.781635 28.2937 0.600304 28.7334 0.600304 29.2022C0.600304 29.6713 0.781635 30.1107 1.11126 30.4401L2.16024 31.4885C2.48934 31.8184 2.92928 32 3.39809 32C3.8669 32 4.30632 31.8184 4.63568 31.4885L18.8892 17.2353C19.2199 16.9048 19.401 16.4634 19.3997 15.994C19.401 15.5226 19.2201 15.0816 18.8892 14.751L4.64895 0.511482C4.31959 0.181595 3.88017 1.90735e-06 3.4111 1.90735e-06C2.94229 1.90735e-06 2.50287 0.181595 2.17324 0.511482L1.12453 1.55994C0.442123 2.24234 0.442123 3.35324 1.12453 4.03538L13.0824 15.9932Z" fill="white"/>
</svg>
