<svg width="20" height="32" viewBox="0 0 20 32" fill="none" xmlns="http://www.w3.org/2000/svg">
<path d="M6.91762 16.0068L18.8887 4.03512C19.2184 3.70628 19.3997 3.2666 19.3997 2.79779C19.3997 2.32872 19.2184 1.8893 18.8887 1.55993L17.8398 0.51148C17.5107 0.181593 17.0707 0 16.6019 0C16.1331 0 15.6937 0.181593 15.3643 0.51148L1.11079 14.7647C0.780121 15.0952 0.599048 15.5366 0.600349 16.006C0.599048 16.4774 0.779861 16.9184 1.11079 17.249L15.351 31.4885C15.6804 31.8184 16.1198 32 16.5889 32C17.0577 32 17.4971 31.8184 17.8268 31.4885L18.8755 30.4401C19.5579 29.7577 19.5579 28.6468 18.8755 27.9646L6.91762 16.0068Z" fill="white"/>
</svg>
