<svg width="33" height="32" viewBox="0 0 33 32" fill="none" xmlns="http://www.w3.org/2000/svg">
<g clip-path="url(#clip0)">
<path d="M21.3787 11.5938C20.964 11.5938 20.6279 11.9292 20.6279 12.3432V26.5071C20.6279 26.9207 20.964 27.2565 21.3787 27.2565C21.7934 27.2565 22.1295 26.9207 22.1295 26.5071V12.3432C22.1295 11.9292 21.7934 11.5938 21.3787 11.5938Z" fill="#383838"/>
<path d="M12.5193 11.5938C12.1046 11.5938 11.7686 11.9292 11.7686 12.3432V26.5071C11.7686 26.9207 12.1046 27.2565 12.5193 27.2565C12.934 27.2565 13.2701 26.9207 13.2701 26.5071V12.3432C13.2701 11.9292 12.934 11.5938 12.5193 11.5938Z" fill="#383838"/>
<path d="M6.06296 9.52671V27.9906C6.06296 29.082 6.46386 30.1069 7.16418 30.8422C7.86128 31.5796 8.83141 31.9982 9.8467 32H24.0514C25.067 31.9982 26.0371 31.5796 26.7339 30.8422C27.4342 30.1069 27.8351 29.082 27.8351 27.9906V9.52671C29.2273 9.15786 30.1294 7.81535 29.9432 6.38942C29.7566 4.96378 28.5399 3.89733 27.0993 3.89704H23.2555V2.96028C23.2599 2.17252 22.9478 1.41608 22.3892 0.859581C21.8305 0.303376 21.0715 -0.00634179 20.2823 9.84666e-05H13.6158C12.8266 -0.00634179 12.0676 0.303376 11.5089 0.859581C10.9503 1.41608 10.6382 2.17252 10.6426 2.96028V3.89704H6.79877C5.35824 3.89733 4.14147 4.96378 3.95495 6.38942C3.76873 7.81535 4.67082 9.15786 6.06296 9.52671ZM24.0514 30.5012H9.8467C8.56307 30.5012 7.56449 29.4005 7.56449 27.9906V9.59257H26.3336V27.9906C26.3336 29.4005 25.335 30.5012 24.0514 30.5012ZM12.1442 2.96028C12.1392 2.57006 12.2928 2.19447 12.5703 1.919C12.8474 1.64354 13.2246 1.49219 13.6158 1.49892H20.2823C20.6736 1.49219 21.0507 1.64354 21.3278 1.919C21.6053 2.19418 21.7589 2.57006 21.7539 2.96028V3.89704H12.1442V2.96028ZM6.79877 5.39587H27.0993C27.8457 5.39587 28.4507 5.99979 28.4507 6.74481C28.4507 7.48983 27.8457 8.09375 27.0993 8.09375H6.79877C6.0524 8.09375 5.44739 7.48983 5.44739 6.74481C5.44739 5.99979 6.0524 5.39587 6.79877 5.39587Z" fill="#383838"/>
<path d="M16.949 11.5938C16.5343 11.5938 16.1982 11.9292 16.1982 12.3432V26.5071C16.1982 26.9207 16.5343 27.2565 16.949 27.2565C17.3637 27.2565 17.6998 26.9207 17.6998 26.5071V12.3432C17.6998 11.9292 17.3637 11.5938 16.949 11.5938Z" fill="#383838"/>
</g>
<defs>
<clipPath id="clip0">
<rect x="0.927734" width="32.0578" height="32" fill="white"/>
</clipPath>
</defs>
</svg>
