<svg width="40" height="20" viewBox="0 0 40 20" fill="none" xmlns="http://www.w3.org/2000/svg">
<path d="M1.24997 2.49994H38.7499C39.44 2.49994 39.9999 1.93989 39.9999 1.24997C39.9999 0.55994 39.4398 0 38.7499 0H1.24997C0.55994 0 0 0.560044 0 1.24997C0 1.93989 0.560044 2.49994 1.24997 2.49994Z" fill="white"/>
<path d="M38.7499 8.75H1.24997C0.55994 8.75 0 9.31004 0 9.99995C0 10.6899 0.560044 11.2499 1.24997 11.2499H38.7499C39.44 11.2499 39.9999 10.6899 39.9999 9.99995C39.9999 9.31004 39.44 8.75 38.7499 8.75Z" fill="white"/>
<path d="M38.7502 17.5H13.7502C13.0602 17.5 12.5002 18.06 12.5002 18.75C12.5002 19.44 13.0603 19.9999 13.7502 19.9999H38.7502C39.4402 19.9999 40.0002 19.4399 40.0002 18.75C40.0003 18.0599 39.4402 17.5 38.7502 17.5Z" fill="white"/>
</svg>
