<svg width="24" height="22" viewBox="0 0 24 22" fill="none" xmlns="http://www.w3.org/2000/svg">
<path d="M16.1357 2.09523H7.86503C7.71643 2.09523 7.57388 2.04004 7.46881 1.94181C7.36375 1.84357 7.30469 1.71034 7.30469 1.57142C7.30469 1.43249 7.36375 1.29926 7.46881 1.20103C7.57388 1.1028 7.71643 1.04761 7.86503 1.04761H16.1357C16.2843 1.04761 16.4268 1.1028 16.5319 1.20103C16.637 1.29926 16.696 1.43249 16.696 1.57142C16.696 1.71034 16.637 1.84357 16.5319 1.94181C16.4268 2.04004 16.2843 2.09523 16.1357 2.09523Z" fill="#363636"/>
<path fill-rule="evenodd" clip-rule="evenodd" d="M20.9707 1.61536H19.296C19.1855 1.12149 18.9103 0.686786 18.5214 0.391635C18.1324 0.0964816 17.6559 -0.0391584 17.1801 0.00979646C16.7042 0.0587511 16.2611 0.288989 15.9327 0.657937C15.6043 1.02689 15.4129 1.50959 15.3938 2.01679C15.3747 2.52399 15.5292 3.02139 15.8287 3.417C16.1283 3.81262 16.5527 4.0797 17.0234 4.16885C17.494 4.25801 17.9792 4.1632 18.3891 3.90198C18.7991 3.64075 19.1061 3.23077 19.2533 2.74784H20.9707C21.4912 2.74784 21.9904 2.96739 22.3585 3.35817C22.7266 3.74895 22.9333 4.27896 22.9333 4.83161V18.7894C22.9319 19.3411 22.7245 19.8696 22.3566 20.2592C21.9887 20.6488 21.4903 20.8675 20.9707 20.8675H3.02933C2.50972 20.8675 2.01132 20.6488 1.6434 20.2592C1.27548 19.8696 1.06808 19.3411 1.06667 18.7894V4.83161C1.06667 4.27896 1.27345 3.74895 1.64152 3.35817C2.00959 2.96739 2.5088 2.74784 3.02933 2.74784H4.62933C4.77414 3.22846 5.07788 3.63721 5.48443 3.89857C5.89099 4.15993 6.37291 4.25626 6.84117 4.16975C7.30939 4.08324 7.73237 3.81974 8.03184 3.42793C8.33136 3.03612 8.4872 2.54247 8.47056 2.03818C8.45392 1.53388 8.26597 1.053 7.94139 0.68438C7.61685 0.315759 7.1776 0.0843001 6.7048 0.0327598C6.232 -0.0187805 5.7576 0.11308 5.36923 0.403982C4.98088 0.694884 4.7048 1.12518 4.592 1.61536H3.02933C2.22634 1.61686 1.45663 1.95619 0.888827 2.55904C0.321024 3.16187 0.00141001 3.97907 0 4.83161V18.7894C0.00141286 19.6414 0.321197 20.4581 0.889152 21.06C1.45711 21.662 2.22683 22 3.02933 22H20.9707C21.7732 22 22.5429 21.662 23.1108 21.06C23.6788 20.4581 23.9986 19.6414 24 18.7894V4.83161C23.9986 3.97907 23.679 3.16187 23.1111 2.55904C22.5434 1.95619 21.7737 1.61686 20.9707 1.61536ZM17.3867 3.07056C17.2084 3.07056 17.0341 3.01444 16.8859 2.90929C16.7377 2.80414 16.6222 2.65468 16.5539 2.47983C16.4857 2.30496 16.4679 2.11256 16.5027 1.92693C16.5375 1.7413 16.6233 1.57078 16.7493 1.43695C16.8754 1.30312 17.036 1.21198 17.2108 1.17506C17.3857 1.13814 17.5669 1.15708 17.7316 1.22952C17.8963 1.30194 18.0371 1.4246 18.1361 1.58197C18.2352 1.73934 18.288 1.92435 18.288 2.11362C18.288 2.36742 18.193 2.61082 18.024 2.79028C17.855 2.96974 17.6257 3.07056 17.3867 3.07056ZM6.99144 1.31795C6.84322 1.2128 6.66898 1.15667 6.49069 1.15667C6.25165 1.15667 6.02237 1.2575 5.85336 1.43695C5.68434 1.61642 5.58936 1.85982 5.58936 2.11362C5.58936 2.30288 5.64221 2.4879 5.74125 2.64527C5.84029 2.80264 5.98109 2.92529 6.14578 2.99772C6.31048 3.07015 6.4917 3.0891 6.66653 3.05218C6.84136 3.01525 7.002 2.92411 7.12802 2.79028C7.2541 2.65645 7.33992 2.48594 7.37469 2.30031C7.40946 2.11468 7.39165 1.92227 7.32344 1.74741C7.25517 1.57255 7.13965 1.4231 6.99144 1.31795Z" fill="#363636"/>
<path d="M11.5441 15.7144H13.565V7.3335H10.4346V9.18241H11.5441V15.7144Z" fill="#363636"/>
</svg>
