<svg width="32" height="32" viewBox="0 0 32 32" fill="none" xmlns="http://www.w3.org/2000/svg">
<path d="M31.9173 18.3396L30.2976 15.8613C29.5823 14.7661 28.3671 14.1122 27.0461 14.1122H22.8571V11.7016C22.8571 10.2298 21.6602 9.0329 20.1884 9.0329H12.3465C11.9065 6.73478 9.88363 4.99121 7.45908 4.99121C4.71366 4.99121 2.48035 7.22481 2.48035 9.96994C2.48035 11.6961 3.3642 13.2188 4.70232 14.1122H0.508045C0.227283 14.1122 0 14.3395 0 14.6202C0 14.901 0.227283 15.1283 0.508045 15.1283H5.58733V16.1441H3.55544C3.27497 16.1441 3.04769 16.3714 3.04769 16.6521C3.04769 16.9329 3.27497 17.1599 3.55544 17.1599H5.58733V18.1757H0.508045C0.227283 18.1757 0 18.403 0 18.6837C0 18.9645 0.227283 19.1918 0.508045 19.1918H5.58733V21.4413C4.69186 21.8363 4.06349 22.7298 4.06349 23.7697V24.2711C4.06349 24.5518 4.29106 24.7791 4.57153 24.7791H9.07651C9.36541 26.0219 10.4797 26.952 11.8094 26.952C13.1394 26.952 14.2535 26.0219 14.5424 24.7791H24.3147C24.6039 26.0219 25.7182 26.952 27.0476 26.952C28.377 26.952 29.4916 26.0219 29.7805 24.7791H31.4921C31.7729 24.7791 31.9999 24.5518 31.9999 24.2711V18.6175C31.9999 18.5186 31.9711 18.4219 31.9173 18.3396ZM3.49615 9.96994C3.49615 7.78488 5.27402 6.00701 7.45908 6.00701C9.64443 6.00701 11.422 7.78488 11.422 9.96994C11.422 12.155 9.64443 13.9329 7.45908 13.9329C5.27402 13.9329 3.49615 12.155 3.49615 9.96994ZM6.60313 19.1918H7.61893C7.89969 19.1918 8.12698 18.9645 8.12698 18.6837C8.12698 18.403 7.89969 18.1757 7.61893 18.1757H6.60313V17.1599H10.1589C10.4393 17.1599 10.6666 16.9329 10.6666 16.6521C10.6666 16.3714 10.4393 16.1441 10.1589 16.1441H6.60313V15.1283H13.2063C13.4867 15.1283 13.7143 14.901 13.7143 14.6202C13.7143 14.3395 13.4867 14.1122 13.2063 14.1122H10.2158C11.5333 13.2324 12.4073 11.742 12.434 10.0487H20.1887C21.0999 10.0487 21.8413 10.7904 21.8413 11.7016V21.2234H6.60953C6.60749 21.2234 6.60546 21.2239 6.60313 21.2239V19.1918ZM21.8413 23.763H14.5886C14.5086 23.1788 14.2494 22.6522 13.8666 22.2392H21.8413V23.763ZM6.60953 22.2392H9.75226C9.36977 22.6522 9.11022 23.1788 9.03059 23.763H5.07929C5.08278 22.9225 5.76811 22.2392 6.60953 22.2392ZM11.8094 25.9362C10.8215 25.9362 10.0173 25.1322 10.0173 24.144C10.0173 23.1561 10.8215 22.3519 11.8094 22.3519C12.7976 22.3519 13.6015 23.1561 13.6015 24.144C13.6015 25.1322 12.7976 25.9362 11.8094 25.9362ZM27.0476 25.9362C26.0597 25.9362 25.2555 25.1322 25.2555 24.144C25.2555 23.1561 26.0597 22.3519 27.0476 22.3519C28.0358 22.3519 28.8397 23.1561 28.8397 24.144C28.8397 25.1322 28.0358 25.9362 27.0476 25.9362ZM30.9841 23.763H29.8267C29.6398 22.395 28.4662 21.3361 27.0476 21.3361C25.629 21.3361 24.4556 22.395 24.2684 23.763H22.8571V15.1283H27.0461C28.0224 15.1283 28.9202 15.6099 29.4474 16.4167L30.9841 18.7686V23.763Z" fill="white"/>
<path d="M27.8787 24.1439C27.8787 24.6029 27.5067 24.9749 27.0477 24.9749C26.5888 24.9749 26.2168 24.6029 26.2168 24.1439C26.2168 23.685 26.5888 23.313 27.0477 23.313C27.5067 23.313 27.8787 23.685 27.8787 24.1439Z" fill="white"/>
<path d="M12.6404 24.1439C12.6404 24.6029 12.2683 24.9749 11.8094 24.9749C11.3508 24.9749 10.9788 24.6029 10.9788 24.1439C10.9788 23.685 11.3508 23.313 11.8094 23.313C12.2683 23.313 12.6404 23.685 12.6404 24.1439Z" fill="white"/>
<path d="M8.12699 9.96976V7.7475C8.12699 7.46674 7.8997 7.23975 7.61894 7.23975C7.33847 7.23975 7.11119 7.46674 7.11119 7.7475V9.80409L6.07446 11.2262C5.90908 11.4529 5.95878 11.7703 6.18549 11.9354C6.27617 12.0016 6.3808 12.0333 6.48456 12.0333C6.64121 12.0333 6.79584 11.961 6.89524 11.8244L8.02962 10.2688C8.09269 10.1822 8.12699 10.0776 8.12699 9.96976Z" fill="white"/>
<path d="M26.8764 15.6357H25.9048C25.624 15.6357 25.3967 15.863 25.3967 16.1438V19.6992C25.3967 19.98 25.624 20.2073 25.9048 20.2073H29.3233C29.6419 20.2073 29.927 20.0425 30.0868 19.7672C30.2467 19.492 30.247 19.1624 30.0895 18.8878L28.9033 16.8117C28.4892 16.0868 27.7123 15.6357 26.8764 15.6357ZM26.4128 19.1915V16.6518H26.8764C27.3487 16.6518 27.7873 16.9061 28.0212 17.316L29.0928 19.1915H26.4128Z" fill="white"/>
</svg>
