<svg width="40" height="40" viewBox="0 0 40 40" fill="none" xmlns="http://www.w3.org/2000/svg">
<path d="M39.8966 22.9243L37.8719 19.8264C36.9779 18.4574 35.4589 17.64 33.8077 17.64H28.5714V14.6267C28.5714 12.787 27.0753 11.2909 25.2355 11.2909H15.4332C14.8831 8.41823 12.3545 6.23877 9.32385 6.23877C5.89207 6.23877 3.10044 9.03076 3.10044 12.4622C3.10044 14.6198 4.20525 16.5232 5.8779 17.64H0.635056C0.284104 17.64 0 17.9241 0 18.275C0 18.626 0.284104 18.9101 0.635056 18.9101H6.98417V20.1799H4.4443C4.09371 20.1799 3.80961 20.464 3.80961 20.8149C3.80961 21.1659 4.09371 21.4496 4.4443 21.4496H6.98417V22.7194H0.635056C0.284104 22.7194 0 23.0035 0 23.3544C0 23.7054 0.284104 23.9895 0.635056 23.9895H6.98417V26.8014C5.86482 27.2952 5.07936 28.412 5.07936 29.7119V30.3386C5.07936 30.6895 5.36383 30.9736 5.71442 30.9736H11.3456C11.7068 32.5271 13.0997 33.6897 14.7618 33.6897C16.4243 33.6897 17.8168 32.5271 18.1779 30.9736H30.3933C30.7548 32.5271 32.1477 33.6897 33.8095 33.6897C35.4712 33.6897 36.8645 32.5271 37.2256 30.9736H39.3651C39.7161 30.9736 39.9998 30.6895 39.9998 30.3386V23.2716C39.9998 23.1481 39.9639 23.0271 39.8966 22.9243ZM4.37019 12.4622C4.37019 9.73085 6.59252 7.50852 9.32385 7.50852C12.0555 7.50852 14.2775 9.73085 14.2775 12.4622C14.2775 15.1935 12.0555 17.4158 9.32385 17.4158C6.59252 17.4158 4.37019 15.1935 4.37019 12.4622ZM8.25391 23.9895H9.52366C9.87462 23.9895 10.1587 23.7054 10.1587 23.3544C10.1587 23.0035 9.87462 22.7194 9.52366 22.7194H8.25391V21.4496H12.6986C13.0492 21.4496 13.3333 21.1659 13.3333 20.8149C13.3333 20.464 13.0492 20.1799 12.6986 20.1799H8.25391V18.9101H16.5078C16.8584 18.9101 17.1429 18.626 17.1429 18.275C17.1429 17.9241 16.8584 17.64 16.5078 17.64H12.7698C14.4166 16.5403 15.5091 14.6772 15.5425 12.5606H25.2359C26.3748 12.5606 27.3016 13.4878 27.3016 14.6267V26.529H8.26191C8.25936 26.529 8.25682 26.5297 8.25391 26.5297V23.9895ZM27.3016 29.7035H18.2357C18.1358 28.9733 17.8117 28.315 17.3333 27.7987H27.3016V29.7035ZM8.26191 27.7987H12.1903C11.7122 28.315 11.3878 28.9733 11.2882 29.7035H6.34911C6.35347 28.6528 7.21014 27.7987 8.26191 27.7987ZM14.7618 32.4199C13.5269 32.4199 12.5217 31.415 12.5217 30.1798C12.5217 28.9449 13.5269 27.9397 14.7618 27.9397C15.997 27.9397 17.0019 28.9449 17.0019 30.1798C17.0019 31.415 15.997 32.4199 14.7618 32.4199ZM33.8095 32.4199C32.5746 32.4199 31.5693 31.415 31.5693 30.1798C31.5693 28.9449 32.5746 27.9397 33.8095 27.9397C35.0447 27.9397 36.0496 28.9449 36.0496 30.1798C36.0496 31.415 35.0447 32.4199 33.8095 32.4199ZM38.7301 29.7035H37.2834C37.0498 27.9934 35.5828 26.6699 33.8095 26.6699C32.0362 26.6699 30.5695 27.9934 30.3356 29.7035H28.5714V18.9101H33.8077C35.028 18.9101 36.1502 19.5121 36.8093 20.5206L38.7301 23.4605V29.7035Z" fill="#383838"/>
<path d="M34.8484 30.1799C34.8484 30.7536 34.3833 31.2186 33.8097 31.2186C33.236 31.2186 32.771 30.7536 32.771 30.1799C32.771 29.6063 33.236 29.1412 33.8097 29.1412C34.3833 29.1412 34.8484 29.6063 34.8484 30.1799Z" fill="#383838"/>
<path d="M15.8006 30.1799C15.8006 30.7536 15.3356 31.2186 14.762 31.2186C14.1887 31.2186 13.7236 30.7536 13.7236 30.1799C13.7236 29.6063 14.1887 29.1412 14.762 29.1412C15.3356 29.1412 15.8006 29.6063 15.8006 30.1799Z" fill="#383838"/>
<path d="M10.1584 12.4621V9.68425C10.1584 9.3333 9.87432 9.04956 9.52337 9.04956C9.17278 9.04956 8.88868 9.3333 8.88868 9.68425V12.255L7.59277 14.0326C7.38605 14.316 7.44817 14.7127 7.73155 14.9191C7.8449 15.0019 7.97569 15.0415 8.10539 15.0415C8.30121 15.0415 8.49449 14.9511 8.61874 14.7803L10.0367 12.8359C10.1156 12.7277 10.1584 12.5969 10.1584 12.4621Z" fill="#383838"/>
<path d="M33.5957 19.5448H32.3812C32.0302 19.5448 31.7461 19.8289 31.7461 20.1799V24.6242C31.7461 24.9751 32.0302 25.2592 32.3812 25.2592H36.6543C37.0525 25.2592 37.4089 25.0532 37.6087 24.7092C37.8086 24.3651 37.8089 23.9531 37.612 23.6098L36.1294 21.0147C35.6117 20.1086 34.6405 19.5448 33.5957 19.5448ZM33.0162 23.9895V20.8149H33.5957C34.186 20.8149 34.7343 21.1328 35.0267 21.6451L36.3662 23.9895H33.0162Z" fill="#383838"/>
</svg>
