<svg width="40" height="40" viewBox="0 0 40 40" fill="none" xmlns="http://www.w3.org/2000/svg">
<path d="M37.3403 20.5182C37.1793 20.1889 37.1793 19.8113 37.3403 19.4821L38.8321 16.4301C39.6628 14.7308 39.0047 12.7055 37.3339 11.819L34.3331 10.2268C34.0094 10.0551 33.7874 9.74946 33.7241 9.38861L33.1372 6.04261C32.8104 4.17965 31.0871 2.92779 29.2147 3.19271L25.8512 3.66848C25.4882 3.71973 25.1292 3.60302 24.8658 3.34825L22.4244 0.986391C21.0649 -0.328758 18.9352 -0.328836 17.5759 0.986391L15.1343 3.34849C14.8709 3.60333 14.5119 3.71981 14.1489 3.66872L10.7854 3.19294C8.91241 2.92786 7.18976 4.17989 6.86296 6.04285L6.27609 9.38869C6.21273 9.74962 5.99078 10.0552 5.66711 10.227L2.66635 11.8191C0.995576 12.7055 0.337454 14.7311 1.16807 16.4304L2.65986 19.4822C2.8208 19.8115 2.8208 20.1892 2.65986 20.5184L1.168 23.5702C0.337376 25.2695 0.995497 27.2949 2.66627 28.1814L5.66703 29.7736C5.99078 29.9453 6.21273 30.2509 6.27609 30.6118L6.86296 33.9578C7.16046 35.6537 8.61467 36.8431 10.286 36.8429C10.4506 36.8429 10.6176 36.8313 10.7855 36.8076L14.149 36.3318C14.5117 36.2803 14.871 36.3973 15.1344 36.652L17.5759 39.0139C18.2557 39.6716 19.1277 40.0003 20.0001 40.0002C20.8722 40.0002 21.7448 39.6714 22.4243 39.0139L24.8658 36.652C25.1293 36.3973 25.4883 36.2809 25.8512 36.3318L29.2147 36.8076C31.088 37.0726 32.8104 35.8206 33.1372 33.9577L33.7241 30.6118C33.7875 30.2509 34.0094 29.9454 34.3331 29.7736L37.3339 28.1814C39.0047 27.295 39.6628 25.2695 38.8321 23.5702L37.3403 20.5182ZM15.386 9.61853C17.7181 9.61853 19.6155 11.5159 19.6155 13.8481C19.6155 16.1803 17.7181 18.0777 15.386 18.0777C13.0538 18.0777 11.1564 16.1803 11.1564 13.8481C11.1564 11.5159 13.0538 9.61853 15.386 9.61853ZM13.2028 28.4286C12.9776 28.6538 12.6824 28.7665 12.3872 28.7665C12.0921 28.7665 11.7968 28.6539 11.5716 28.4286C11.1211 27.9781 11.1211 27.2477 11.5716 26.7973L26.7972 11.5716C27.2476 11.1212 27.9781 11.1212 28.4285 11.5716C28.879 12.0221 28.879 12.7525 28.4285 13.203L13.2028 28.4286ZM24.614 30.3818C22.2819 30.3818 20.3844 28.4844 20.3844 26.1523C20.3844 23.8201 22.2819 21.9227 24.614 21.9227C26.9462 21.9227 28.8436 23.8201 28.8436 26.1523C28.8436 28.4844 26.9462 30.3818 24.614 30.3818Z" fill="#D42D2D"/>
</svg>
