<svg width="90" height="90" viewBox="0 0 90 90" fill="none" xmlns="http://www.w3.org/2000/svg">
<path d="M89.7475 74.1732L78.7857 57.7245L80.7071 57.1245C81.498 56.8775 81.9388 56.0364 81.6919 55.2455C81.6818 55.2129 81.6705 55.1807 81.6581 55.149L78.2877 46.4806L85.1516 40.0982C85.7579 39.5338 85.7921 38.5847 85.2277 37.9783C85.2033 37.9521 85.1778 37.9268 85.1516 37.9022L78.2877 31.5213L81.6596 22.8529C81.9598 22.0808 81.5773 21.2115 80.8052 20.9112C80.7733 20.8988 80.7411 20.8875 80.7086 20.8774L71.6848 18.0634L70.8958 8.80856C70.8609 8.39663 70.6588 8.01714 70.3363 7.75858C70.0155 7.50077 69.6022 7.38714 69.1948 7.44508L59.8034 8.74557L54.9946 0.729665C54.5688 0.0190488 53.6475 -0.211761 52.937 0.214046C52.9187 0.225109 52.9007 0.236359 52.8827 0.248171L45.0003 5.43661L37.1194 0.248171C36.4277 -0.207636 35.4973 -0.0163883 35.0415 0.675291C35.0297 0.693103 35.0185 0.71129 35.0074 0.729665L30.1985 8.74856L20.8086 7.44808C19.9881 7.33408 19.2304 7.90689 19.1164 8.72738C19.1127 8.75381 19.1098 8.78044 19.1076 8.80706L18.3171 18.0619L9.30072 20.8759C8.50986 21.1228 8.06905 21.964 8.31599 22.7548C8.32611 22.7875 8.33736 22.8197 8.34974 22.8514L11.7202 31.5198L4.84878 37.9022C4.24241 38.4666 4.20829 39.4157 4.77265 40.022C4.79703 40.0483 4.82253 40.0736 4.84878 40.0982L11.7127 46.4791L8.34073 55.1475C8.04055 55.9196 8.42305 56.7888 9.19516 57.0892C9.22704 57.1016 9.25929 57.1128 9.29172 57.123L11.2822 57.7425L0.222837 75.7137C-0.211408 76.4193 0.00833938 77.3431 0.713893 77.7773C1.02926 77.9714 1.4052 78.0421 1.76932 77.9757L16.8184 75.2397L19.5304 88.7996C19.6493 89.3943 20.1145 89.8589 20.7094 89.9771C20.8054 89.9941 20.9029 90.0016 21.0004 89.9995C21.5018 89.9995 21.9701 89.7492 22.2484 89.3321L32.7722 73.5463L35.0057 77.2707C35.2161 77.6217 35.5607 77.8715 35.9597 77.9622C36.0714 77.9879 36.1856 78.0005 36.3002 77.9997C36.5934 77.9997 36.8803 77.9136 37.1252 77.7522L45.0001 72.5638L52.881 77.7522C53.5727 78.208 54.503 78.0168 54.9588 77.3251C54.9707 77.3073 54.9819 77.2891 54.993 77.2707L57.2279 73.5448L67.7518 89.3321C68.03 89.7492 68.4984 89.9995 68.9998 89.9995C69.0975 89.9997 69.195 89.9902 69.2908 89.9711C69.8857 89.8529 70.3509 89.3883 70.4698 88.7936L73.1997 75.1152L88.3645 76.4997C89.1895 76.5743 89.9189 75.9661 89.9937 75.1411C90.0246 74.7999 89.9378 74.4582 89.7475 74.1732ZM21.7656 84.6536L19.4706 73.1998C19.3103 72.3976 18.537 71.8719 17.7321 72.0178L4.53978 74.4177L14.2372 58.6649L18.3156 59.9369L19.1046 69.1918C19.1395 69.6037 19.3416 69.9832 19.6641 70.2418C19.9855 70.4983 20.3981 70.6117 20.8056 70.5553L30.197 69.2548L31.0654 70.7038L21.7656 84.6536ZM57.7396 66.8653L53.2247 74.3922L45.8253 69.5143C45.3246 69.1847 44.6759 69.1847 44.1753 69.5143L36.7744 74.3862L32.2594 66.8578C31.9887 66.406 31.5006 66.1292 30.974 66.1289C30.9046 66.1287 30.8354 66.1337 30.767 66.1438L21.9606 67.3618L21.2196 58.6784C21.1676 58.0704 20.7525 57.5544 20.1696 57.3735L11.7202 54.7365L14.8702 46.6186C15.0931 46.0456 14.9438 45.3948 14.4937 44.9761L8.07374 39.0002L14.5012 33.0243C14.9513 32.6056 15.1006 31.9548 14.8777 31.3818L11.7277 23.2609L20.1801 20.6254C20.763 20.4445 21.1781 19.9285 21.2301 19.3204L21.9711 10.637L30.7775 11.8565C31.3759 11.942 31.9673 11.66 32.2774 11.141L36.7924 3.61413L44.1753 8.48607C44.6759 8.81569 45.3246 8.81569 45.8253 8.48607L53.2262 3.61413L57.7411 11.1425C58.0524 11.6561 58.6385 11.9364 59.2336 11.8565L68.04 10.6385L68.781 19.3219C68.8329 19.93 69.248 20.446 69.831 20.6269L78.2834 23.2639L75.1244 31.3818C74.9015 31.9548 75.0507 32.6056 75.5009 33.0243L81.9268 39.0002L75.4994 44.9761C75.0492 45.3948 74.9 46.0456 75.1229 46.6186L78.2729 54.7395L69.828 57.375C69.245 57.5559 68.8299 58.0719 68.778 58.6799L68.037 67.3633L59.2321 66.1498C58.6364 66.0702 58.0505 66.3512 57.7396 66.8653ZM72.1349 71.9998C71.3748 71.9409 70.6886 72.4541 70.53 73.1998L68.2395 84.6491L58.9396 70.6993L59.8066 69.2533L69.1965 70.5538C70.017 70.6678 70.7746 70.095 70.8886 69.2745C70.8924 69.2481 70.8952 69.2214 70.8975 69.1948L71.6879 59.9399L75.8054 58.6559L85.5118 73.2223L72.1349 71.9998Z" fill="#383838"/>
<path d="M67.5 31.5003C67.5 29.015 65.4853 27.0003 63 27.0003H52.5001V21.0004C52.5043 16.8625 49.1531 13.5046 45.0152 13.5005C45.0102 13.5005 45.0053 13.5005 45.0002 13.5005C44.1719 13.5005 43.5002 14.1721 43.5002 15.0005V22.1464L40.8003 27.5343L35.9733 31.3968C35.9246 30.617 35.2816 30.0074 34.5003 30.0003H24.0005C23.1721 30.0003 22.5005 30.6719 22.5005 31.5003V54C22.5005 54.8283 23.1721 55.5 24.0005 55.5H34.5003C35.3287 55.5 36.0003 54.8283 36.0003 54H58.5001C60.9803 53.9876 62.9876 51.9803 63 49.5C62.9949 48.7264 62.7881 47.9674 62.4 47.2981C62.6768 47.1254 62.9325 46.921 63.162 46.6891C64.6164 45.2746 64.9207 43.0514 63.9 41.2981C64.1767 41.1255 64.4325 40.9211 64.662 40.6891C66.1164 39.2747 66.4207 37.0515 65.4 35.2982C65.6767 35.1255 65.9325 34.9212 66.162 34.6892C67.023 33.8522 67.5061 32.7008 67.5 31.5003ZM33.0006 52.5H25.5006V33.0002H33.0006V52.5ZM64.041 32.5683C63.7674 32.8482 63.3913 33.0042 63 33.0002H57.0001V36.0002H61.5C62.3284 36.0002 63 36.6718 63 37.5002C63.0013 37.9044 62.8352 38.2911 62.541 38.5682C62.2675 38.8481 61.8913 39.0041 61.5 39.0002H55.5001V42.0001H60C60.8284 42.0001 61.5 42.6717 61.5 43.5001C61.5013 43.9044 61.3352 44.291 61.041 44.5681C60.7675 44.848 60.3914 45.004 60 45.0001H54.0001V48.0001H58.5001C59.3284 48.0001 60 48.6717 60 49.5C60.0014 49.9043 59.8352 50.2909 59.541 50.568C59.2675 50.848 58.8914 51.004 58.5001 51H36.0003V35.2202L42.9377 29.6718C43.1072 29.5359 43.2454 29.365 43.3427 29.1708L46.3427 23.1709C46.4466 22.9626 46.5004 22.7331 46.5002 22.5004V16.7569C48.3013 17.389 49.505 19.0917 49.5002 21.0004V28.5003C49.5002 29.3287 50.1718 30.0003 51.0002 30.0003H63C63.8284 30.0003 64.5 30.6719 64.5 31.5003C64.5015 31.9043 64.3352 32.2909 64.041 32.5683Z" fill="#383838"/>
</svg>
