<svg width="102" height="102" viewBox="0 0 102 73" fill="none" xmlns="http://www.w3.org/2000/svg">
<path d="M101.736 58.4567L96.5735 50.557C94.2935 47.0663 90.4202 44.9818 86.2095 44.9818H72.857V37.298C72.857 32.6066 69.0419 28.7916 64.3505 28.7916H39.3546C37.952 21.4663 31.5041 15.9087 23.7758 15.9087C15.0248 15.9087 7.90612 23.0283 7.90612 31.7784C7.90612 37.2804 10.7234 42.134 14.9887 44.9818H1.61939C0.724466 44.9818 0 45.7063 0 46.6012C0 47.4961 0.724466 48.2206 1.61939 48.2206H17.8096V51.4585H11.333C10.439 51.4585 9.71451 52.1829 9.71451 53.0779C9.71451 53.9728 10.439 54.6963 11.333 54.6963H17.8096V57.9342H1.61939C0.724466 57.9342 0 58.6586 0 59.5536C0 60.4485 0.724466 61.173 1.61939 61.173H17.8096V68.3435C14.9553 69.6025 12.9524 72.4504 12.9524 75.7651V77.3632C12.9524 78.2581 13.6778 78.9826 14.5718 78.9826H28.9314C29.8522 82.944 33.4042 85.9086 37.6426 85.9086C41.8819 85.9086 45.4329 82.944 46.3537 78.9826H77.503C78.4248 82.944 81.9767 85.9086 86.2142 85.9086C90.4517 85.9086 94.0045 82.944 94.9254 78.9826H100.381C101.276 78.9826 102 78.2581 102 77.3632V59.3423C102 59.0274 101.908 58.7189 101.736 58.4567ZM11.144 31.7784C11.144 24.8135 16.8109 19.1466 23.7758 19.1466C30.7416 19.1466 36.4076 24.8135 36.4076 31.7784C36.4076 38.7433 30.7416 44.4102 23.7758 44.4102C16.8109 44.4102 11.144 38.7433 11.144 31.7784ZM21.0475 61.173H24.2853C25.1803 61.173 25.9047 60.4485 25.9047 59.5536C25.9047 58.6586 25.1803 57.9342 24.2853 57.9342H21.0475V54.6963H32.3814C33.2754 54.6963 33.9999 53.9728 33.9999 53.0779C33.9999 52.1829 33.2754 51.4585 32.3814 51.4585H21.0475V48.2206H42.095C42.989 48.2206 43.7144 47.4961 43.7144 46.6012C43.7144 45.7063 42.989 44.9818 42.095 44.9818H32.563C36.7625 42.1775 39.5482 37.4268 39.6335 32.0294H64.3514C67.2558 32.0294 69.6191 34.3937 69.6191 37.298V67.6487H21.0679C21.0614 67.6487 21.0549 67.6505 21.0475 67.6505V61.173ZM69.6191 75.7438H46.5011C46.2463 73.8817 45.4199 72.203 44.1998 70.8865H69.6191V75.7438ZM21.0679 70.8865H31.0853C29.8661 72.203 29.0388 73.8817 28.785 75.7438H16.1902C16.2013 73.0646 18.3859 70.8865 21.0679 70.8865ZM37.6426 82.6707C34.4936 82.6707 31.9302 80.1082 31.9302 76.9583C31.9302 73.8094 34.4936 71.246 37.6426 71.246C40.7924 71.246 43.3549 73.8094 43.3549 76.9583C43.3549 80.1082 40.7924 82.6707 37.6426 82.6707ZM86.2142 82.6707C83.0653 82.6707 80.5018 80.1082 80.5018 76.9583C80.5018 73.8094 83.0653 71.246 86.2142 71.246C89.364 71.246 91.9265 73.8094 91.9265 76.9583C91.9265 80.1082 89.364 82.6707 86.2142 82.6707ZM98.7617 75.7438H95.0727C94.477 71.3831 90.7361 68.0081 86.2142 68.0081C81.6923 68.0081 77.9523 71.3831 77.3557 75.7438H72.857V48.2206H86.2095C89.3214 48.2206 92.1831 49.7557 93.8637 52.3274L98.7617 59.8241V75.7438Z" fill="#383838"/>
<path d="M88.863 76.9587C88.863 78.4215 87.6772 79.6074 86.2143 79.6074C84.7515 79.6074 83.5657 78.4215 83.5657 76.9587C83.5657 75.4959 84.7515 74.3101 86.2143 74.3101C87.6772 74.3101 88.863 75.4959 88.863 76.9587Z" fill="#383838"/>
<path d="M40.2913 76.9587C40.2913 78.4215 39.1054 79.6074 37.6426 79.6074C36.1807 79.6074 34.9949 78.4215 34.9949 76.9587C34.9949 75.4959 36.1807 74.3101 37.6426 74.3101C39.1054 74.3101 40.2913 75.4959 40.2913 76.9587Z" fill="#383838"/>
<path d="M25.9047 31.7786V24.6951C25.9047 23.8002 25.1803 23.0767 24.2853 23.0767C23.3913 23.0767 22.6669 23.8002 22.6669 24.6951V31.2505L19.3623 35.7835C18.8352 36.5061 18.9936 37.5178 19.7162 38.044C20.0052 38.2552 20.3387 38.3562 20.6695 38.3562C21.1688 38.3562 21.6617 38.1255 21.9785 37.6901L25.5944 32.7319C25.7954 32.4558 25.9047 32.1223 25.9047 31.7786Z" fill="#383838"/>
<path d="M85.6686 49.8389H82.5715C81.6766 49.8389 80.9521 50.5633 80.9521 51.4583V62.7912C80.9521 63.6862 81.6766 64.4106 82.5715 64.4106H93.4682C94.4835 64.4106 95.3923 63.8854 95.9019 63.008C96.4114 62.1307 96.4123 61.0801 95.9102 60.2047L92.1295 53.5872C90.8093 51.2767 88.333 49.8389 85.6686 49.8389ZM84.1909 61.1728V53.0777H85.6686C87.174 53.0777 88.572 53.8883 89.3178 55.1945L92.7335 61.1728H84.1909Z" fill="#383838"/>
</svg>
