<svg width="76" height="88" viewBox="0 0 76 88" fill="none" xmlns="http://www.w3.org/2000/svg">
<path d="M70.933 51.0312C70.3902 51.0312 69.8544 51.1184 69.3411 51.29L66.3992 52.2702C65.9577 51.643 65.4078 51.0959 64.7694 50.6698L66.3331 42.6894C66.35 42.688 66.3655 42.6866 66.3823 42.6852C69.3917 42.5473 71.75 40.0836 71.75 37.0756C71.75 35.5428 71.113 34.0564 70.0034 32.9975C68.8812 31.9259 67.4047 31.3775 65.8705 31.4464C64.1661 31.5252 62.4786 31.6489 60.8108 31.8134C61.9203 29.6619 62.8639 27.7114 63.1845 25.7173H63.3125V25.6048C68.0755 24.9186 71.75 20.8222 71.75 15.8736V8.84375H70.3438C69.8656 8.84375 69.3988 8.89016 68.9375 8.95625V4.625H67.5312C65.8606 4.625 64.2856 5.04688 62.8977 5.78375C61.0963 4.14406 58.7464 3.21875 56.2812 3.21875H54.875V8.95625C54.4137 8.89016 53.9469 8.84375 53.4688 8.84375H52.0625V15.875C52.0625 20.7716 55.6611 24.8342 60.3509 25.5837C60.0078 27.2333 59.0839 29.0347 58.0377 31.0555C57.8408 31.4366 57.6369 31.8388 57.4344 32.2353C50.5775 33.1578 44.0595 34.7539 38 36.8309V35.5625V34.1562V32.75H42.2188C46.0958 32.75 49.25 29.5958 49.25 25.7188V24.3125H42.2188C40.6297 24.3125 39.1784 24.8623 38 25.7553V22.9062V22.7938C42.763 22.1075 46.4375 18.0111 46.4375 13.0625V6.03125H45.0312C44.5531 6.03125 44.0863 6.07766 43.625 6.14375V1.8125H42.2188C40.5481 1.8125 38.9731 2.23437 37.5852 2.97125C35.7837 1.33156 33.4339 0.40625 30.9688 0.40625H29.5625V6.14375C29.1012 6.07766 28.6344 6.03125 28.1562 6.03125H26.75V13.0625C26.75 18.0111 30.4245 22.1075 35.1875 22.7938V22.9062V28.5678C34.0091 27.6748 32.5578 27.125 30.9688 27.125H23.9375V28.5312C23.9375 32.4083 27.0917 35.5625 30.9688 35.5625H35.1875V37.8533C28.5275 40.3508 22.4609 43.3784 17.1523 46.6423C16.6911 45.9097 16.2228 45.1855 15.7503 44.4767C13.6564 41.3408 11.6877 38.3469 11.3516 34.0339C16.0794 33.3167 19.7188 29.2372 19.7188 24.3125V17.2812H18.3125C17.8344 17.2812 17.3675 17.3277 16.9062 17.3937V13.0625H15.5C13.8294 13.0625 12.2544 13.4844 10.8664 14.2213C9.065 12.5816 6.71516 11.6562 4.25 11.6562H2.84375V17.3937C2.3825 17.3277 1.91562 17.2812 1.4375 17.2812H0.03125V24.3125C0.03125 29.2611 3.70578 33.3575 8.46875 34.0438V34.1562H8.54328C8.58406 34.7202 8.64734 35.2644 8.73312 35.7889C8.18891 35.6553 7.63344 35.5625 7.0625 35.5625H0.03125V36.9688C0.03125 40.8458 3.18547 44 7.0625 44H12.0828C12.5187 44.6905 12.9645 45.3683 13.4103 46.0377C13.8631 46.7155 14.3188 47.4088 14.7772 48.1358C10.3939 51.0045 6.58297 53.9998 3.45969 56.9164C2.17438 58.1173 1.4375 59.8034 1.4375 61.5416V61.7216C1.4375 65.1317 4.21906 67.9062 7.63625 67.9062H7.72344C8.84562 67.9062 9.92703 67.5758 10.8791 67.0175L14.3089 87.5938H58.8786L60.2652 79.2716L60.8319 82.6719L69.2483 78.463L64.1633 63.1095L69.3383 64.835C69.8544 65.0066 70.3902 65.0938 70.933 65.0938C73.7103 65.0938 75.9688 62.8353 75.9688 60.058V56.067C75.9688 53.2897 73.7103 51.0312 70.933 51.0312ZM68.9375 15.875C68.9375 19.2711 66.5173 22.1117 63.3125 22.7642V18.6875C63.3125 15.2914 65.7327 12.4508 68.9375 11.7983V15.875ZM66.125 9.80703C64.3686 10.6452 62.9019 11.9839 61.9062 13.6433C61.6053 13.1413 61.2636 12.6687 60.8811 12.23C61.6813 9.86609 63.702 8.08578 66.125 7.58234V9.80703ZM57.6875 6.17328C58.7436 6.38844 59.728 6.85813 60.5802 7.51766C59.7786 8.32063 59.1134 9.26 58.6255 10.3175C58.3217 10.1319 58.0095 9.96172 57.6875 9.80703V6.17328ZM54.875 15.875V11.7983C58.0798 12.4522 60.5 15.2914 60.5 18.6875V22.7642C57.2952 22.1117 54.875 19.2711 54.875 15.875ZM42.2188 27.125H46.197C45.6162 28.7619 44.0525 29.9375 42.2188 29.9375H38.2405C38.8213 28.3006 40.385 27.125 42.2188 27.125ZM43.625 13.0625C43.625 16.4586 41.2048 19.2992 38 19.9517V15.875C38 12.4789 40.4202 9.63828 43.625 8.98578V13.0625ZM40.8125 6.99453C39.0561 7.83266 37.5894 9.17141 36.5938 10.8308C36.2928 10.3288 35.9511 9.85625 35.5686 9.4175C36.3688 7.05359 38.3895 5.27328 40.8125 4.76984V6.99453ZM32.375 3.36078C33.4311 3.57594 34.4155 4.04563 35.2677 4.70516C34.4661 5.50813 33.8009 6.4475 33.313 7.505C33.0092 7.31938 32.697 7.14922 32.375 6.99453V3.36078ZM29.5625 13.0625V8.98578C32.7673 9.63969 35.1875 12.4789 35.1875 15.875V19.9517C31.9827 19.2992 29.5625 16.4586 29.5625 13.0625ZM30.9688 32.75C29.135 32.75 27.5712 31.5744 26.9905 29.9375H30.9688C32.8025 29.9375 34.3662 31.1131 34.947 32.75H30.9688ZM16.9062 24.3125C16.9062 27.7086 14.4861 30.5492 11.2812 31.2017V27.125C11.2812 23.7289 13.7014 20.8883 16.9062 20.2358V24.3125ZM14.0938 18.2445C12.3373 19.0827 10.8706 20.4214 9.875 22.0808C9.57406 21.5788 9.23234 21.1063 8.84984 20.6675C9.65 18.3036 11.6708 16.5219 14.0938 16.0184V18.2445ZM5.65625 14.6108C6.71234 14.8259 7.69672 15.2956 8.54891 15.9552C7.74734 16.7581 7.08219 17.6975 6.59422 18.755C6.29047 18.5694 5.97828 18.3992 5.65625 18.2445V14.6108ZM2.84375 24.3125V20.2358C6.04859 20.8897 8.46875 23.7289 8.46875 27.125V31.2017C5.26391 30.5492 2.84375 27.7086 2.84375 24.3125ZM7.0625 41.1875C5.22875 41.1875 3.665 40.0119 3.08422 38.375H7.0625C8.01453 38.375 8.92297 38.7083 9.66547 39.2947C9.91297 39.95 10.1886 40.5814 10.4895 41.1875H7.0625ZM58.6058 69.3125H56.7692L57.2305 66.5436L57.6875 66.9247L58.1445 66.5436L58.6058 69.3125ZM14.5522 63.6875H40.9672C41.8714 64.5537 43.092 65.0938 44.4406 65.0938C44.9834 65.0938 45.5192 65.0066 46.0339 64.8336L51.2103 63.1081L49.1572 69.3125H14.1134L13.3695 64.8463C13.7548 64.4595 14.1416 64.0742 14.5522 63.6875ZM50.0319 60.5375L45.1438 62.1673C44.9159 62.2433 44.6797 62.2812 44.4406 62.2812C43.2158 62.2812 42.2188 61.2842 42.2188 60.058V56.067C42.2188 54.8408 43.2158 53.8438 44.442 53.8438C44.6811 53.8438 44.9173 53.8817 45.1452 53.9591L47.9366 54.8886C47.8916 55.1952 47.8438 55.5017 47.8438 55.8195C47.8438 57.6434 48.6439 59.3562 50.0319 60.5375ZM53.9441 63.8056L54.7273 64.4581L52.3944 78.4531L49.5608 77.037L53.9441 63.8056ZM57.6875 63.2628L51.8741 58.4197C51.0992 57.7742 50.6562 56.8264 50.6562 55.8195C50.6562 53.9548 52.1736 52.4375 54.0383 52.4375H54.297C55.2013 52.4375 56.0506 52.7891 56.6033 53.3347L57.5961 54.5173L58.6845 53.4289C59.3244 52.7891 60.1737 52.4375 61.078 52.4375H61.3367C63.2014 52.4375 64.7188 53.9548 64.7188 55.8195C64.7188 56.8264 64.2758 57.7742 63.5023 58.4183L57.6875 63.2628ZM62.0919 49.7009C61.8416 49.67 61.5955 49.625 61.3367 49.625H61.078C59.8742 49.625 58.7211 49.9653 57.6987 50.6403C56.6975 49.9794 55.5247 49.625 54.297 49.625H54.0383C51.9444 49.625 50.098 50.6755 48.9758 52.2702L46.0353 51.2914C45.5206 51.1184 44.9848 51.0312 44.442 51.0312C41.6647 51.0312 39.4062 53.2897 39.4062 56.067V60.058C39.4062 60.3378 39.4442 60.6078 39.4892 60.875H17.7711C28.0606 52.4234 43.9836 44.4683 63.425 42.8989L62.0919 49.7009ZM7.72484 65.0938H7.63766C5.76875 65.0938 4.25 63.5806 4.25 61.7216V61.5416C4.25 60.5797 4.66203 59.6431 5.38062 58.9723C17.3155 47.825 39.5089 35.4795 65.9998 34.2575C66.0434 34.2547 66.0884 34.2547 66.132 34.2547C66.852 34.2547 67.5327 34.5275 68.06 35.0323C68.6253 35.5723 68.9375 36.298 68.9375 37.077C68.9375 38.5775 67.7591 39.8066 66.253 39.8755C40.6634 41.0483 20.5259 53.1223 10.2153 64.0306C9.56562 64.7155 8.68109 65.0938 7.72484 65.0938ZM16.6911 84.7812L14.5817 72.125H48.2248L46.1253 78.463L54.5417 82.6719L56.2995 72.125H58.6044L56.495 84.7812H16.6911ZM62.9806 78.4531L60.6477 64.4581L61.4309 63.8056L65.8128 77.0384L62.9806 78.4531ZM73.1562 60.058C73.1562 61.2842 72.1592 62.2812 70.933 62.2812C70.6939 62.2812 70.4577 62.2433 70.2298 62.1673L65.3417 60.5375C66.7311 59.3577 67.5312 57.6434 67.5312 55.8195C67.5312 55.5003 67.4834 55.1937 67.437 54.8886L70.2298 53.9577C70.4577 53.8817 70.6939 53.8438 70.933 53.8438C72.1592 53.8438 73.1562 54.8408 73.1562 56.067V60.058Z" fill="#383838"/>
</svg>
