<svg width="11" height="8" viewBox="0 0 11 8" fill="none" xmlns="http://www.w3.org/2000/svg">
<path fill-rule="evenodd" clip-rule="evenodd" d="M4.26358 7.53946L9.97411 1.7552C10.0675 1.66093 10.1199 1.53288 10.1199 1.39933C10.1199 1.26578 10.0675 1.13773 9.97411 1.04346L9.27121 0.336797C9.17829 0.242315 9.05206 0.189209 8.92042 0.189209C8.78878 0.189209 8.66256 0.242315 8.56963 0.336797L3.91174 5.05466L1.73674 2.84666C1.54235 2.65093 1.22849 2.65093 1.03411 2.84666L0.331475 3.56266C0.138206 3.75949 0.138206 4.07757 0.331475 4.2744L3.56069 7.54373C3.65379 7.63828 3.78019 7.69141 3.912 7.69141C4.04381 7.69141 4.17021 7.63828 4.26332 7.54373L4.26358 7.53946Z" fill="white"/>
</svg>
