<svg width="56" height="56" viewBox="0 0 56 56" fill="none" xmlns="http://www.w3.org/2000/svg">
<circle cx="29" cy="28.3333" r="27" fill="#D42D2D"/>
<path d="M40.2709 14.2826L40.2709 14.2826C39.7372 13.7611 39.4274 13.4436 39.2335 13.2449C39.1805 13.1906 39.1362 13.1451 39.0983 13.1068L39.0982 13.1067C39.0238 13.0315 38.9364 12.9431 38.8466 12.8846C38.7871 12.8458 38.7167 12.8123 38.6328 12.7939C38.5624 12.7785 38.5006 12.7785 38.479 12.7786C38.4781 12.7786 38.4772 12.7786 38.4765 12.7786C38.2983 12.7786 38.1175 12.8467 37.9802 12.984L37.9793 12.9849C35.784 15.192 34.5031 16.4634 33.7549 17.206C33.568 17.3915 33.4144 17.544 33.2881 17.6698C32.9815 17.9751 32.8161 18.1424 32.7323 18.2429C32.6958 18.2867 32.6197 18.3794 32.5842 18.5083C32.5636 18.583 32.5628 18.6455 32.5642 18.6825C32.5644 18.6903 32.5648 18.6969 32.565 18.7005L40.2709 14.2826ZM40.2709 14.2826L40.2749 14.2866M40.2709 14.2826L40.2749 14.2866M40.2749 14.2866C40.8438 14.8552 41.2172 15.9313 41.3774 17.2455M40.2749 14.2866L41.3774 17.2455M32.7685 19.1844L32.7704 19.1864L32.7704 19.1864L34.0731 20.4886C35.9527 22.3682 35.96 25.4103 34.0851 27.2984L34.0791 27.3045L34.0791 27.3045L28.8863 32.7153C28.8807 32.7208 28.8761 32.7255 28.8728 32.7288L28.8632 32.7386C26.9842 34.6176 23.7081 34.6236 21.8231 32.7386L20.5208 31.4363C20.2469 31.1624 19.8022 31.1624 19.5283 31.4363L19.5274 31.4373C17.3318 33.6445 16.0508 34.9158 15.3026 35.6583C15.1159 35.8436 14.9624 35.996 14.8362 36.1217C14.5297 36.427 14.3642 36.5943 14.2804 36.6948C14.2439 36.7386 14.1678 36.8313 14.1323 36.9602C14.1117 37.0349 14.1109 37.0974 14.1123 37.1344C14.1125 37.1422 14.1129 37.1488 14.1131 37.1524C14.1131 37.1524 14.1131 37.1525 14.1131 37.1526C14.1158 37.338 14.1891 37.5075 14.3165 37.6363L14.3185 37.6383L15.6211 38.9405C16.1899 39.5093 17.266 39.8827 18.5801 40.043C19.924 40.2068 21.6142 40.1599 23.5117 39.7984L23.5118 39.7984C26.0409 39.3164 30.9075 37.8891 35.0656 33.7311C39.2235 29.5731 40.6508 24.7065 41.1325 22.1773L32.7685 19.1844ZM32.7685 19.1844C32.6407 19.0552 32.5677 18.8851 32.565 18.7007L32.7685 19.1844ZM41.3774 17.2455C41.5412 18.5895 41.4941 20.2797 41.1325 22.1772L41.3774 17.2455ZM43.3724 22.6037L43.3724 22.6037C43.7958 20.3809 43.8517 18.3117 43.5816 16.5846C43.3141 14.8738 42.7343 13.5418 41.9216 12.7085L41.8873 12.6742L40.5852 11.3716C40.5852 11.3716 40.5851 11.3716 40.5851 11.3715C39.4225 10.2094 37.5303 10.2095 36.3682 11.3716L31.1588 16.581L31.1588 16.581C29.9929 17.7465 29.9928 19.6323 31.1588 20.7983L32.4611 22.1006C33.4531 23.0926 33.4531 24.7059 32.4611 25.698L32.4612 25.6981L32.4535 25.7055L32.447 25.7122L32.447 25.7122L32.4448 25.7146L27.2486 31.1286L27.2437 31.1338L27.2386 31.1387C26.7275 31.642 26.0164 31.8737 25.3348 31.8718C24.6531 31.8698 23.9433 31.634 23.4355 31.1262L22.1332 29.8239C21.5691 29.2598 20.8221 28.9505 20.0246 28.9505C19.227 28.9505 18.4801 29.2598 17.9159 29.8239L12.7065 35.0333C12.1427 35.5971 11.8331 36.3441 11.8331 37.1416C11.8331 37.9391 12.1427 38.6865 12.7065 39.2502L14.0092 40.5529C15.0587 41.6025 16.7018 42.1429 18.5483 42.3292C20.3829 42.5143 22.3429 42.3417 23.9382 42.038C26.7287 41.5067 32.0926 39.9284 36.678 35.3431C41.2633 30.7577 42.8411 25.3938 43.3724 22.6037Z" fill="white" stroke="#D42D2D"/>
</svg>
