<svg width="24" height="24" viewBox="0 0 24 24" fill="none" xmlns="http://www.w3.org/2000/svg">
<path d="M22.9417 22.2889L16.201 15.5481C17.6011 13.9935 18.4616 11.9439 18.4616 9.69205C18.4615 4.85676 14.5277 0.922852 9.69234 0.922852C4.857 0.922852 0.923096 4.85676 0.923096 9.6921C0.923096 14.5274 4.857 18.4613 9.69234 18.4613C11.9442 18.4613 13.9938 17.6008 15.5484 16.2007L22.2891 22.9415C22.3792 23.0316 22.4974 23.0767 22.6154 23.0767C22.7335 23.0767 22.8516 23.0316 22.9418 22.9415C23.122 22.7612 23.122 22.4691 22.9417 22.2889ZM9.69234 17.5382C5.36633 17.5382 1.8462 14.0185 1.8462 9.6921C1.8462 5.36565 5.36633 1.84591 9.69234 1.84591C14.0184 1.84591 17.5385 5.36561 17.5385 9.6921C17.5385 14.0186 14.0184 17.5382 9.69234 17.5382Z" fill="white" stroke="white"/>
</svg>
