<svg width="32" height="32" viewBox="0 0 32 32" fill="none" xmlns="http://www.w3.org/2000/svg">
<path d="M30.5889 29.7187L21.6012 20.731C23.468 18.6583 24.6154 15.9255 24.6154 12.923C24.6153 6.47592 19.3702 1.23071 12.923 1.23071C6.47592 1.23071 1.23071 6.47592 1.23071 12.923C1.23071 19.3702 6.47592 24.6154 12.923 24.6154C15.9255 24.6154 18.6583 23.468 20.7311 21.6012L29.7187 30.5889C29.8389 30.7091 29.9964 30.7692 30.1538 30.7692C30.3113 30.7692 30.4687 30.7091 30.5889 30.5889C30.8293 30.3485 30.8293 29.9591 30.5889 29.7187ZM12.923 23.3846C7.15502 23.3846 2.46152 18.6916 2.46152 12.923C2.46152 7.15444 7.15502 2.46146 12.923 2.46146C18.6911 2.46146 23.3846 7.15439 23.3846 12.923C23.3846 18.6917 18.6911 23.3846 12.923 23.3846Z" fill="#383838" stroke="#383838"/>
</svg>
