<svg width="17" height="17" viewBox="0 0 17 17" fill="none" xmlns="http://www.w3.org/2000/svg">
<path d="M8.07657 0.857152C12.0548 0.857152 15.2958 4.0972 15.2958 8.07438C15.2958 12.0516 12.0548 15.2916 8.07657 15.2916C4.0983 15.3087 0.857385 12.0687 0.857385 8.09152C0.857385 4.11433 4.0983 0.857152 8.07657 0.857152ZM8.07657 0C3.61817 0 0 3.61719 0 8.09152C0 12.5487 3.61817 16.1659 8.07657 16.1659C12.535 16.1659 16.1531 12.5487 16.1531 8.09152C16.1703 3.61719 12.5521 0 8.07657 0Z" fill="white"/>
<path d="M13.0493 9.37724C12.7578 8.16009 11.5746 7.71436 11.4717 7.68008C11.6089 7.61151 11.7804 7.49151 11.969 7.30294C12.4149 6.80579 12.6035 6.01721 12.3634 5.34863C12.0719 4.52576 11.266 4.21718 10.7172 3.99432C10.2543 3.82289 9.84271 3.77147 9.56835 3.75433V0.891437L8.4709 0.668579V3.80575H7.42489V0.720006L6.31029 0.942864V3.82289H3.82387V4.95434H4.78414C4.97276 4.95434 5.14424 5.02291 5.26428 5.16006C5.38431 5.2972 5.47005 5.46863 5.47005 5.64006V10.8001C5.47005 10.903 5.43575 10.9887 5.36716 11.0573C5.29857 11.1258 5.21283 11.1601 5.10995 11.1601H4.01249L3.82387 12.463H6.31029V15.223L7.40774 15.4973V12.4973H8.4366V15.5145L9.5512 15.343V12.463C9.70553 12.4801 9.9456 12.4801 10.22 12.463C10.6658 12.4287 11.506 12.3601 12.1405 11.8458C12.7407 11.383 13.3065 10.423 13.0493 9.37724ZM7.52777 5.07434L8.72811 5.05719C8.89959 5.05719 9.20825 5.09148 9.53405 5.26291C9.70553 5.34863 9.92845 5.46863 10.0828 5.72578C10.2886 6.06864 10.2886 6.58292 10.0313 6.90864C9.85986 7.1315 9.5512 7.23437 9.13966 7.35437C8.89959 7.42294 8.67667 7.45723 8.53949 7.47437H7.52777V5.07434ZM10.5115 10.543C10.3057 10.783 9.9456 10.8858 9.44831 11.023C9.1568 11.1087 8.89959 11.143 8.72811 11.1601H7.51062V8.58867L8.93388 8.57152C9.13966 8.57152 9.49976 8.60581 9.89416 8.77724C10.0999 8.86295 10.3743 9.0001 10.5458 9.27439C10.803 9.65154 10.803 10.2001 10.5115 10.543Z" fill="white"/>
</svg>
