<svg width="16" height="18" viewBox="0 0 16 18" fill="none" xmlns="http://www.w3.org/2000/svg">
<path d="M11.8981 3.46591C11.7483 2.22503 10.6783 1.81853 9.30868 1.73295L9.26586 0L8.21724 0.0213945L8.23866 1.71156C7.96046 1.71156 7.68225 1.73295 7.40404 1.73295L7.38265 0.0427889L6.33403 0.0641834L6.37682 1.79714C6.14141 1.79714 5.92741 1.81853 5.71341 1.81853L4.25818 1.83992L4.2796 2.97383L5.05001 2.95244C5.47801 2.95244 5.62782 3.18778 5.67062 3.40172L5.71341 5.37001C5.73481 5.37001 5.77761 5.37001 5.82041 5.37001C5.77761 5.37001 5.75621 5.37001 5.71341 5.37001V8.1299C5.69201 8.25827 5.6278 8.47221 5.3282 8.49361C5.3496 8.515 4.55779 8.515 4.55779 8.515L4.36518 9.77728L5.73481 9.75588C5.99161 9.75588 6.24841 9.75588 6.48382 9.75588L6.52663 11.5102L7.57523 11.4888L7.53244 9.75588C7.83204 9.75588 8.11025 9.75588 8.36706 9.75588L8.40985 11.4888L9.45847 11.4674L9.41568 9.71309C11.1919 9.58473 12.4117 9.11405 12.5401 7.44528C12.6471 6.09742 12.0051 5.51977 10.9779 5.28444C11.6413 4.94212 12.0051 4.38587 11.8981 3.46591ZM10.4857 7.23133C10.5071 8.5364 8.26005 8.42942 7.55383 8.45082L7.51104 6.14021C8.23866 6.11882 10.4643 5.88348 10.4857 7.23133ZM9.92927 3.97937C9.95067 5.17746 8.08886 5.07049 7.48965 5.07049L7.44683 2.97383C8.04604 2.95244 9.90787 2.73849 9.92927 3.97937Z" fill="white"/>
<path d="M11.2131 17.9072C11.4271 16.7305 11.6197 15.5752 11.8123 14.3985C11.8337 14.2274 11.8123 13.992 11.9193 13.9065C12.0477 13.7995 12.2617 13.8851 12.4543 13.8851C12.8609 13.8851 12.8609 13.8851 12.7967 14.2916C12.7325 14.6339 12.6897 14.9976 12.6041 15.3399C12.5827 15.4683 12.6041 15.4897 12.7325 15.4897C13.0963 15.4897 13.4387 15.4897 13.8025 15.4897C13.9309 15.4897 13.9737 15.4469 13.9951 15.3399C14.0593 14.912 14.1449 14.4841 14.2091 14.0348C14.2305 13.9279 14.2733 13.8851 14.3803 13.8851C14.5943 13.8851 14.8297 13.8851 15.0437 13.8851C15.1508 13.8851 15.1935 13.9279 15.1721 14.0348C15.0009 14.9976 14.8298 15.9817 14.6586 16.9445C14.6158 17.2226 14.5515 17.5007 14.5087 17.7575C14.4873 17.8644 14.4659 17.9072 14.3589 17.9072C14.1449 17.9072 13.9309 17.9072 13.7169 17.9072C13.5671 17.9072 13.5457 17.8644 13.5671 17.7361C13.6527 17.3082 13.7169 16.8803 13.8025 16.431C13.8239 16.2812 13.8239 16.1957 13.6313 16.2171C13.3103 16.2385 12.9679 16.2385 12.6469 16.2171C12.4971 16.2171 12.4543 16.2599 12.4329 16.3882C12.3687 16.8161 12.2831 17.244 12.2189 17.6719C12.1975 17.843 12.1547 17.9286 11.9407 17.9072C11.7267 17.9072 11.4699 17.9072 11.2131 17.9072Z" fill="white"/>
<path d="M8.45227 16.6021C8.49507 16.6021 8.51647 16.6021 8.55927 16.6021C8.79467 16.5593 8.94447 16.6021 8.98728 16.9017C9.00868 17.137 9.26546 17.244 9.58647 17.2226C9.86467 17.2012 10.0787 17.03 10.1001 16.7947C10.1215 16.6235 10.0573 16.4952 9.90747 16.4096C9.75767 16.324 9.58648 16.2598 9.41528 16.1742C9.20128 16.0887 8.98726 15.9817 8.81606 15.8319C8.21685 15.3399 8.25966 14.5269 8.90167 14.099C9.41528 13.7567 9.99309 13.6925 10.5923 13.885C11.0631 14.0348 11.3413 14.4413 11.3841 14.912C11.3841 15.0189 11.3627 15.0617 11.2557 15.0403C11.1059 15.0403 10.9347 15.0189 10.7849 15.0403C10.5709 15.0617 10.4211 15.0403 10.3783 14.7836C10.3355 14.5697 10.0573 14.4841 9.77908 14.5483C9.52227 14.6125 9.32967 14.805 9.35107 15.0189C9.37247 15.1901 9.47948 15.2757 9.62928 15.3399C9.84329 15.4468 10.0573 15.5324 10.2713 15.618C10.6137 15.7891 10.9133 16.0245 11.0203 16.4096C11.1701 16.9658 10.9133 17.5007 10.3997 17.7574C9.86468 18.0142 9.30826 18.0356 8.75185 17.8002C8.25964 17.6077 8.02425 17.2226 7.98145 16.7091C7.98145 16.6021 8.00284 16.5807 8.10984 16.5807C8.21684 16.6235 8.32387 16.6021 8.45227 16.6021Z" fill="white"/>
<path d="M3.95837 15.2968C3.93697 15.2968 3.91556 15.2968 3.89416 15.2968C3.76576 15.2968 3.61597 15.3396 3.53037 15.2754C3.42337 15.2326 3.48756 15.0615 3.44476 14.9545C3.31636 14.5908 2.78134 14.4838 2.43894 14.762C2.18214 14.9759 2.09656 15.2968 2.03236 15.6177C1.96816 15.9387 1.92536 16.2596 1.92536 16.5805C1.92536 16.9656 2.07514 17.1795 2.33194 17.2223C2.69574 17.2865 3.01676 17.1368 3.14516 16.7944C3.20936 16.6019 3.29495 16.5591 3.48755 16.5591C3.65876 16.5805 3.82996 16.5591 4.00116 16.5591C4.12957 16.5591 4.15096 16.6019 4.12956 16.7089C4.00116 17.3935 3.38055 17.9283 2.63155 17.9925C2.01094 18.0353 1.49735 17.907 1.17635 17.3293C0.919547 16.8586 0.940936 16.3666 1.00514 15.8531C1.09074 15.2754 1.28335 14.7406 1.71135 14.3341C2.24636 13.842 2.86696 13.735 3.55177 13.9704C4.12957 14.1843 4.36497 14.6978 4.40777 15.2326C4.40777 15.3182 4.36497 15.3182 4.32217 15.3182C4.21517 15.2968 4.08678 15.2968 3.95837 15.2968Z" fill="white"/>
<path d="M7.53225 16.8589C7.36105 15.939 7.18984 14.9976 7.01864 14.0777C6.99724 13.9493 6.95444 13.9065 6.82603 13.9065C6.63343 13.9279 6.44084 13.9279 6.24824 13.9065C6.11984 13.9065 6.05564 13.9493 6.01284 14.0563C5.34943 15.2971 4.70741 16.538 4.04401 17.7789C4.02261 17.8217 3.95841 17.8645 4.00122 17.9287C4.12962 17.9287 4.25801 17.9287 4.36501 17.9287C4.57901 17.9287 4.83582 17.9928 4.98562 17.9073C5.13542 17.8217 5.17823 17.5649 5.28523 17.3724C5.30663 17.351 5.30662 17.3296 5.32802 17.2868C5.34942 17.1798 5.41362 17.1585 5.52063 17.1585C5.84163 17.1585 6.18403 17.1585 6.50503 17.1585C6.63343 17.1585 6.67624 17.1798 6.67624 17.3082C6.67624 17.458 6.71905 17.6291 6.74045 17.7789C6.74045 17.8645 6.78324 17.9073 6.89024 17.9073C7.16845 17.9073 7.44665 17.9073 7.74625 17.9073C7.66065 17.5436 7.59645 17.2012 7.53225 16.8589ZM6.50503 16.3669C6.41943 16.4738 6.20543 16.3883 6.05563 16.4096C5.94863 16.4096 5.86303 16.4096 5.73463 16.4096C5.94863 15.9604 6.14124 15.5539 6.33384 15.126C6.35524 15.126 6.35523 15.126 6.37663 15.126C6.41944 15.3827 6.46224 15.6394 6.48364 15.9176C6.50504 16.0673 6.59063 16.2813 6.50503 16.3669Z" fill="white"/>
</svg>
