<svg width="12" height="16" viewBox="0 0 12 16" fill="none" xmlns="http://www.w3.org/2000/svg">
<path d="M10.7237 5.11744C10.5856 3.46036 9.15206 2.89074 7.33858 2.71813L7.35585 0.405128L5.95689 0.387866L5.93962 2.63182C5.57693 2.63182 5.19696 2.63182 4.81699 2.63182L4.83427 0.370605H3.4353L3.41803 2.66635C3.10715 2.66635 2.81354 2.66635 2.51993 2.66635L0.58556 2.64909L0.568289 4.15081C0.568289 4.15081 1.60456 4.13355 1.58729 4.15081C2.15724 4.15081 2.32995 4.49604 2.38176 4.77222L2.36449 7.39592C2.39903 7.39592 2.45085 7.39592 2.51993 7.41318C2.46812 7.41318 2.4163 7.41318 2.36449 7.41318L2.32995 11.0898C2.2954 11.2624 2.19178 11.5559 1.79454 11.5559C1.81181 11.5731 0.775543 11.5386 0.775543 11.5386L0.481934 13.213L2.31268 13.2302C2.6581 13.2302 2.98625 13.2475 3.3144 13.2475L3.29713 15.5777L4.6961 15.595L4.71337 13.282C5.09333 13.2993 5.4733 13.2993 5.83599 13.2993L5.81872 15.6123H7.23496L7.25223 13.282C9.61838 13.1612 11.2764 12.5915 11.5009 10.3821C11.6736 8.60421 10.8446 7.79293 9.51475 7.46497C10.3265 7.06796 10.8274 6.34299 10.7237 5.11744ZM8.72028 10.0887C8.703 11.8321 5.71509 11.6077 4.76518 11.5904L4.79972 8.50064C5.74964 8.5179 8.73755 8.27624 8.72028 10.0887ZM8.09851 5.72158C8.08124 7.30962 5.5942 7.10248 4.79972 7.08522L4.81699 4.2889C5.62874 4.30616 8.11579 4.06451 8.09851 5.72158Z" fill="white"/>
</svg>
