<svg width="18" height="18" viewBox="0 0 18 18" fill="none" xmlns="http://www.w3.org/2000/svg">
<path fill-rule="evenodd" clip-rule="evenodd" d="M10.282 15.9116C6.77169 16.4658 3.30753 14.2952 2.29137 10.8777C1.41378 8.06055 2.38375 5.01248 4.64701 3.16517V6.02851C4.64701 6.39797 4.97033 6.72125 5.33984 6.72125C5.70935 6.72125 6.03267 6.39797 6.03267 6.02851L6.07887 1.68735C6.07887 1.31789 5.75554 0.994608 5.38603 0.994608L1.04427 0.948408C0.674763 0.948408 0.35144 1.27169 0.35144 1.64115C0.35144 2.01061 0.674763 2.33389 1.04427 2.33389H3.44609C0.998083 4.55066 0.0281226 8.01436 0.998089 11.2471C2.10662 14.8956 5.52459 17.3433 9.2197 17.3433C9.6354 17.3433 10.0973 17.2971 10.513 17.2509C10.8825 17.2047 11.1596 16.8353 11.1134 16.4658C10.9749 16.0964 10.6516 15.8654 10.282 15.9116ZM17.3489 15.0341H14.9471C17.3951 12.8174 18.3651 9.35367 17.3951 6.12088C16.148 2.0568 12.0372 -0.529433 7.88023 0.117125C7.51072 0.163308 7.23358 0.532775 7.27977 0.902237C7.32596 1.2717 7.69547 1.54879 8.06498 1.50261C11.5753 0.948414 15.0395 3.11901 16.0557 6.53653C16.9332 9.35368 15.9633 12.4017 13.7 14.249V11.3857C13.7 11.0163 13.3767 10.693 13.0072 10.693C12.6377 10.693 12.3144 11.0163 12.3144 11.3857L12.2682 15.7269C12.2682 16.0963 12.5915 16.4196 12.961 16.4196L17.3028 16.4658C17.6723 16.4658 17.9956 16.1425 17.9956 15.7731C18.0418 15.3574 17.7185 15.0341 17.3489 15.0341Z" fill="#9B9BBB" fill-opacity="0.7"/>
</svg>
