<svg width="12" height="16" viewBox="0 0 12 16" fill="none" xmlns="http://www.w3.org/2000/svg">
<path d="M10.2418 4.74683C10.1036 3.08976 8.67012 2.52014 6.85665 2.34753L6.87392 0.0345226L5.47496 0.017261L5.45769 2.26122C5.09499 2.26122 4.71503 2.26122 4.33506 2.26122L4.35233 0H2.95337L2.9361 2.29574C2.62522 2.29574 2.33161 2.29574 2.038 2.29574L0.103627 2.27848L0.0863558 3.78021C0.0863558 3.78021 1.12262 3.76295 1.10535 3.78021C1.6753 3.78021 1.84801 4.12543 1.89983 4.40161L1.88256 7.02532C1.9171 7.02532 1.96891 7.02532 2.038 7.04258C1.98618 7.04258 1.93437 7.04258 1.88256 7.04258L1.84801 10.7192C1.81347 10.8918 1.70984 11.1853 1.31261 11.1853C1.32988 11.2025 0.293609 11.168 0.293609 11.168L0 12.8423L1.83074 12.8596C2.17617 12.8596 2.50432 12.8769 2.83247 12.8769L2.8152 15.2071L4.21416 15.2244L4.23143 12.9114C4.6114 12.9287 4.99136 12.9287 5.35406 12.9287L5.33679 15.2417H6.75302L6.77029 12.9114C9.13644 12.7906 10.7945 12.2209 11.019 10.0115C11.1917 8.2336 10.3627 7.42232 9.03282 7.09436C9.84456 6.69735 10.3454 5.97238 10.2418 4.74683ZM8.23834 9.71807C8.22107 11.4614 5.23316 11.2371 4.28325 11.2198L4.31779 8.13003C5.2677 8.1473 8.25561 7.90564 8.23834 9.71807ZM7.61658 5.35098C7.59931 6.93901 5.11226 6.73187 4.31779 6.71461L4.33506 3.9183C5.14681 3.93556 7.63385 3.6939 7.61658 5.35098Z" fill="#9B9BBB" fill-opacity="0.8"/>
</svg>
