<svg width="17" height="18" viewBox="0 0 17 18" fill="none" xmlns="http://www.w3.org/2000/svg">
<path d="M17 16.9765C16.1658 16.9765 15.4218 17 14.7003 16.953C14.565 16.953 14.4297 16.7882 14.3396 16.6706C13.1446 15.3294 11.9271 13.9882 10.7321 12.6471C9.9881 11.8235 9.10879 11.4471 8.02656 11.6353C7.37272 11.7529 6.8316 12.0824 6.38067 12.5765C5.14062 13.9647 3.90057 15.353 2.66051 16.6941C2.50269 16.8588 2.25468 16.953 2.05176 16.9765C1.42046 17.0235 0.789161 17 0.022583 17C0.157862 16.7882 0.225501 16.6706 0.315686 16.5765C1.93903 14.7647 3.53982 12.953 5.18571 11.1647C6.98943 9.21177 9.85282 9.11766 11.7016 11.0471C13.4377 12.8588 15.0836 14.7647 16.752 16.6235C16.8197 16.6941 16.8648 16.7882 17 16.9765Z" fill="#9B9BBB" fill-opacity="0.8"/>
<path d="M0 1.02355C0.856764 1.02355 1.6008 1.02355 2.34483 1.04708C2.45756 1.04708 2.57029 1.21179 2.66048 1.30591C3.87798 2.64708 5.09549 3.9412 6.2679 5.3059C7.44032 6.64708 9.49204 6.69414 10.7095 5.3059C11.9045 3.96473 13.0995 2.64708 14.317 1.35296C14.4748 1.16473 14.7679 1.04708 15.0159 1.02355C15.6472 0.976494 16.2785 1.00002 16.9775 1.00002C16.8873 1.18826 16.8647 1.28238 16.7971 1.35296C15.1737 3.1412 13.5279 4.92943 11.9271 6.7412C9.98806 8.92943 6.8992 8.85885 4.87003 6.55296C3.33687 4.78826 1.75862 3.09414 0.202918 1.35296C0.157825 1.30591 0.112732 1.21179 0 1.02355Z" fill="#9B9BBB" fill-opacity="0.8"/>
</svg>
