<svg width="17" height="15" viewBox="0 0 17 15" fill="none" xmlns="http://www.w3.org/2000/svg">
<path d="M10.227 8.06896C10.119 8.06896 9.63333 8.09483 8.52698 8.09483C7.63651 8.09483 7.01587 8.06896 6.8 8.06896C3.37302 7.91379 0.809524 7.34483 0.809524 6.67241C0.809524 6 3.37302 5.43103 6.77302 5.27586V7.5C6.98889 7.52586 7.63651 7.55172 8.52698 7.55172C9.57937 7.55172 10.119 7.5 10.227 7.5V5.27586C13.627 5.40517 16.1905 5.97414 16.1905 6.67241C16.1905 7.34483 13.627 7.91379 10.227 8.06896ZM10.227 5.0431V3.05172H14.9762V0H2.02381V3.05172H6.77302V5.0431C2.91429 5.19828 0 5.94828 0 6.82759C0 7.7069 2.91429 8.43103 6.77302 8.61207V15H10.227V8.61207C14.0857 8.43103 17 7.7069 17 6.82759C17 5.94828 14.0857 5.19828 10.227 5.0431Z" fill="#9B9BBB" fill-opacity="0.8"/>
</svg>
