<svg width="17" height="17" viewBox="0 0 17 17" fill="none" xmlns="http://www.w3.org/2000/svg">
<path d="M8.49099 0.901379C12.6734 0.901379 16.0806 4.30859 16.0806 8.49099C16.0806 12.6734 12.6914 16.0986 8.49099 16.0986C4.30859 16.0986 0.901379 12.6914 0.901379 8.49099C0.901379 4.29056 4.30859 0.901379 8.49099 0.901379ZM8.49099 0C3.80382 0 0 3.80382 0 8.49099C0 13.1782 3.80382 16.982 8.49099 16.982C13.1782 16.982 16.982 13.1782 16.982 8.49099C17 3.80382 13.1962 0 8.49099 0Z" fill="#9B9BBB" fill-opacity="0.8"/>
<path d="M13.7189 9.86109C13.4124 8.58113 12.1685 8.11242 12.0604 8.07636C12.2046 8.00425 12.3849 7.87806 12.5832 7.67976C13.0519 7.15696 13.2502 6.32769 12.9978 5.62461C12.6913 4.75929 11.844 4.43479 11.2672 4.20043C10.7804 4.02016 10.3478 3.96608 10.0593 3.94805V0.919417L8.90555 0.685059V4.02016H7.80587V0.775196L6.63408 1.00955V4.03819H4.02008V5.22801H5.02962C5.22793 5.22801 5.4082 5.30012 5.5344 5.44434C5.67862 5.58856 5.75073 5.76883 5.75073 5.94911V11.3754C5.75073 11.4836 5.71467 11.5737 5.64256 11.6458C5.57045 11.7179 5.48031 11.754 5.37215 11.754H4.21838L4.02008 13.1241H6.63408V16.0265L7.78784 16.315V13.1421H8.8695V16.315L10.0413 16.1347V13.1061C10.2035 13.1241 10.4559 13.1241 10.7444 13.1061C11.2131 13.07 12.0964 12.9979 12.7635 12.4571C13.3944 11.9703 13.9893 10.9608 13.7189 9.86109ZM7.91404 5.33617L9.17597 5.31814C9.35624 5.31814 9.68074 5.3542 10.0233 5.53448C10.2035 5.62461 10.4379 5.75081 10.6001 6.02122C10.8165 6.38177 10.8165 6.9226 10.5461 7.26512C10.3658 7.49948 10.0413 7.60765 9.60863 7.73384C9.35624 7.80595 9.12188 7.842 8.97766 7.86003H7.91404V5.33617ZM11.0508 11.087C10.8345 11.3394 10.4559 11.4475 9.93312 11.5917C9.62666 11.6819 9.35624 11.7179 9.17597 11.736H7.89601V9.03182L9.3923 9.0138C9.60863 9.0138 9.98721 9.04985 10.4018 9.23013C10.6182 9.32027 10.9066 9.46449 11.0869 9.75293C11.3573 10.1495 11.3573 10.7264 11.0508 11.087Z" fill="#9B9BBB" fill-opacity="0.8"/>
</svg>
