<svg width="12" height="19" viewBox="0 0 12 19" fill="none" xmlns="http://www.w3.org/2000/svg">
<path d="M11.9808 14.8006C11.9042 14.4919 11.8466 14.2037 11.7891 13.8949L11.5016 12.6186C11.3674 11.9805 11.2332 11.3218 11.0799 10.6836C10.9649 10.169 10.869 9.67497 10.754 9.16035L10.6581 8.64572C10.6006 8.41928 10.5623 8.19285 10.5048 7.96641C10.3898 7.4312 10.2556 6.87541 10.1597 6.31961C10.1022 5.96966 9.96805 5.66089 9.73802 5.35211C9.29712 4.71398 8.85623 4.05525 8.4345 3.39653L8.01278 2.7584C7.55272 2.07909 7.09265 1.3792 6.63259 0.699892L6.2492 0.12351L6.03834 0H5.94249L5.71246 0.12351L5.46326 0.514626C5.27157 0.802817 5.09904 1.07042 4.90735 1.35861L4.67732 1.70856C3.94888 2.84074 3.20128 3.95233 2.47284 5.06392C2.4345 5.12568 2.39617 5.16685 2.377 5.2286C2.14696 5.55796 1.89776 5.92849 1.85942 6.40195C1.85942 6.44312 1.84026 6.46371 1.84026 6.50488L1.62939 7.4312C1.41853 8.3987 1.20767 9.38678 0.996805 10.3543C0.747604 11.4865 0.498403 12.6186 0.249201 13.7508C0.191693 13.9978 0.134185 14.2449 0.0958466 14.4713L0 14.8006V14.9859L0.134185 15.2535L1.72524 16.2828C2.45367 16.7562 3.20128 17.2503 3.92971 17.7237L4.71565 18.2384C5.02236 18.4442 5.32907 18.6295 5.63578 18.8353C5.65495 18.8559 5.69329 18.8765 5.71246 18.8971C5.73163 18.9177 5.7508 18.9382 5.76997 18.9382L5.94249 19H6.01917L6.19169 18.9382L6.2492 18.8971C6.26837 18.8765 6.30671 18.8559 6.32588 18.8353C6.72843 18.5677 7.13099 18.3207 7.53355 18.0531L8.377 17.5179C8.72204 17.2914 9.04792 17.0856 9.39297 16.8592L10.1981 16.3239C10.7348 15.974 11.2524 15.6446 11.7891 15.2947C11.9617 15.1918 12.0383 15.0065 11.9808 14.8006ZM6.61342 15.3359L6 17.3738L5.40575 15.3359H6.61342ZM9.68051 10.4366C9.48882 10.0867 9.31629 9.73673 9.1246 9.38678C9.29712 8.72806 9.48882 8.06934 9.68051 7.4312L10.7732 12.5157L9.68051 10.4366ZM8.68371 8.33694L8.6262 8.50163C8.60703 8.48104 8.60703 8.46045 8.58786 8.43987L7.99361 7.34886C7.74441 6.89599 7.49521 6.44312 7.24601 6.01083C7.13099 5.80498 7.01597 5.57855 6.88179 5.3727C6.70927 5.06392 6.53674 4.77573 6.38339 4.46696C6.36422 4.42579 6.36422 4.4052 6.36422 4.4052C6.36422 3.45829 6.36422 2.53196 6.36422 1.58505L8.35783 4.56988C8.68371 5.06392 9.00958 5.53738 9.33546 6.03142C9.10543 6.79307 8.89457 7.55471 8.68371 8.33694ZM8.05112 8.93391C8.07029 8.97508 8.08946 9.01625 8.10863 9.05742C8.16613 9.16035 8.22364 9.28386 8.30032 9.38678C8.33866 9.42795 8.35783 9.44854 8.30032 9.61322C7.80192 11.26 7.32268 12.9274 6.82428 14.5742C6.26837 14.5742 5.73163 14.5742 5.17572 14.5742C5.00319 14.039 4.84984 13.4832 4.69649 12.948L4.46645 12.1452C4.35144 11.7541 4.23642 11.3835 4.12141 10.9924L3.89137 10.2308C3.8147 9.98375 3.73802 9.73673 3.68051 9.48971C4.00639 8.87216 4.35144 8.27519 4.67732 7.67822L5.23323 6.64897C5.46326 6.23727 5.69329 5.80498 5.92332 5.3727L6 5.24919C6.15335 5.51679 6.28754 5.76381 6.42173 6.01083C6.88179 6.85482 7.36102 7.69881 7.82109 8.5428L8.05112 8.93391ZM5.63578 4.34345C5.63578 4.36403 5.63578 4.38461 5.61661 4.38461C4.98403 5.53738 4.35144 6.71073 3.69968 7.86349L3.35463 8.48104C3.35463 8.46045 3.33546 8.43987 3.33546 8.41928L3.1246 7.67822C2.97125 7.12243 2.81789 6.58722 2.66454 6.01083C3.43131 4.83749 4.21725 3.68472 4.98403 2.51138C5.19489 2.18202 5.40575 1.87324 5.61661 1.54388C5.63578 2.49079 5.63578 3.41712 5.63578 4.34345ZM2.68371 8.62514L2.76038 8.91333C2.76038 8.93391 2.76038 8.9545 2.77955 8.97508C2.79872 9.03684 2.81789 9.11918 2.85623 9.20152C2.91374 9.30444 2.91374 9.38678 2.77955 9.61322C2.26198 10.5807 1.76358 11.5276 1.24601 12.4951L2.35783 7.4312C2.47284 7.82232 2.56869 8.23402 2.68371 8.62514ZM0.958466 14.5742L3.18211 10.3749L4.42811 14.5742H0.958466ZM4.65815 15.3359L5.36741 17.7855L1.61022 15.3359H4.65815ZM10.3898 15.3359L6.61342 17.7855L7.34185 15.3359H10.3898ZM7.57189 14.5742L8.81789 10.3749L11.0415 14.5742H7.57189Z" fill="#9B9BBB" fill-opacity="0.8"/>
</svg>
