<svg width="14" height="13" viewBox="0 0 14 13" fill="none" xmlns="http://www.w3.org/2000/svg">
<path d="M8.43107 6.92046C8.34232 6.92046 7.94295 6.94263 7.03329 6.94263C6.30111 6.94263 5.79081 6.92046 5.61331 6.92046C2.79556 6.78737 0.709987 6.29939 0.709987 5.72268C0.709987 5.14598 2.81775 4.658 5.61331 4.52492V6.43247C5.79081 6.45465 6.3233 6.47684 7.05547 6.47684C7.92076 6.47684 8.3645 6.43247 8.45325 6.43247V4.52492C11.2488 4.658 13.3566 5.14598 13.3566 5.72268C13.3122 6.29939 11.2266 6.78737 8.43107 6.92046ZM8.43107 4.32528V2.61735H12.336V0H1.66403V2.61735H5.56893V4.32528C2.39619 4.48055 0 5.10162 0 5.85577C0 6.60993 2.39619 7.23098 5.56893 7.38625V12.8649H8.43107V7.38625C11.6038 7.23098 14 6.60993 14 5.85577C13.9778 5.10162 11.6038 4.45837 8.43107 4.32528Z" fill="white"/>
</svg>
