<svg width="15" height="13" viewBox="0 0 15 13" fill="none" xmlns="http://www.w3.org/2000/svg">
<path d="M14.4292 12.9952C13.7212 12.9952 13.0897 13.0143 12.4773 12.9761C12.3625 12.9761 12.2476 12.8422 12.1711 12.7465C11.1568 11.656 10.1234 10.5655 9.10919 9.47498C8.47767 8.80537 7.73134 8.49926 6.81276 8.65232C6.25779 8.74798 5.79851 9.01582 5.41577 9.41759C4.36324 10.5272 3.32985 11.656 2.25818 12.7465C2.12423 12.8804 1.91372 12.957 1.74149 12.9761C1.20565 13.0143 0.66982 12.9952 0.019165 12.9952C0.133986 12.823 0.191395 12.7274 0.267942 12.6508C1.6458 11.1777 3.00453 9.70456 4.40152 8.25055C5.93247 6.66262 8.36285 6.58609 9.93208 8.15489C11.4056 9.62803 12.8026 11.1777 14.2187 12.6891C14.2762 12.7656 14.3144 12.8422 14.4292 12.9952Z" fill="white"/>
<path d="M0 0.0430461C0.727206 0.0430461 1.35872 0.0430462 1.99024 0.0621779C2.08593 0.0621779 2.18162 0.1961 2.25816 0.272627C3.29156 1.36313 4.32496 2.41538 5.32008 3.52502C6.31521 4.61553 8.05668 4.65379 9.09008 3.52502C10.0852 2.43451 11.0995 1.36313 12.1329 0.291759C12.2668 0.138705 12.5156 0.0430464 12.7261 0.0239147C13.2619 -0.0143488 13.7978 0.00478289 14.4102 0.00478289C14.3336 0.157837 14.3145 0.234364 14.2571 0.291759C12.8792 1.74577 11.4822 3.19978 10.1043 4.67292C8.45855 6.45217 5.83679 6.39478 4.11446 4.51987C2.81314 3.08499 1.47354 1.70751 0.172226 0.31089C0.133952 0.253495 0.095685 0.1961 0 0.0430461Z" fill="white"/>
</svg>
