<svg width="100" height="100" viewBox="0 0 100 100" fill="none" xmlns="http://www.w3.org/2000/svg">
<path d="M98.3336 0H86.6669H75.5002H56.6668H25.3333H14.1667H1.66658C0.666594 0 0 0.666592 0 1.66658V14.1666V33V51.8334V70.8334V89.6667V98.3334C0 99.3334 0.666594 100 1.66658 100H11.8333H27.6667H46.6667H54.1667H73.1667H89.0001H98.3334C99.3334 100 100 99.3334 100 98.3334V88.8333V70.0004C100 70.0002 100 70.0002 100 70V51.1666V51.1664V32.3334C100 32.3092 99.9978 32.2871 99.997 32.2639C99.9986 32.2315 100 32.1992 100 32.1668V13.3334V1.66658C100 0.666592 99.3336 0 98.3336 0ZM85.3335 73.5001L82.6989 70.8655C82.6157 70.6751 82.4946 70.4944 82.3336 70.3336L74.0835 62.0835L81.0834 55.0835L96.6668 70.6669V84.8336L85.3335 73.5001ZM47.3335 96.6668L43.4168 92.7501L71.6669 64.5L78.6771 71.5103L70.8533 79.4738C70.6675 79.5568 70.491 79.6758 70.3335 79.8332L53.5003 96.6668H47.3335ZM14.8335 3.49996H24.6668L48.0001 26.8333L41.3451 33.4883L41.029 33.8044L21 13.6666C20.839 13.5056 20.6585 13.3845 20.468 13.3013L12.6667 5.49993L14.8335 3.49996ZM86.0003 3.33336L96.667 14.1666V28.1667L74.0003 5.49993L76.1668 3.33336H86.0003ZM96.667 66L96.6656 65.9986L82.5796 51.809C82.5111 51.7005 82.4303 51.5965 82.3338 51.5L74.0839 43.2499L81.0838 36.25L96.6672 51.8334V66H96.667ZM12.7119 24.3786L19.7442 17.4108L48.0001 45.6667L41.0002 52.6666L21 32.6666L12.7119 24.3786ZM19.7442 36.2442L48.0001 64.5L41.0002 71.4999L21 51.5L12.7119 43.212L19.7442 36.2442ZM43.3437 73.8436L51.6667 65.6666L71.6669 45.6667L78.5836 52.5834L50.3335 80.8334L43.3437 73.8436ZM50.3335 62.0001L43.4168 55.0833L51.6669 46.8332L71.6669 26.8333L78.5836 33.75L50.3335 62.0001ZM50.3371 43.1631L43.356 36.1441L71.5835 7.9167L78.5834 14.9166L50.3371 43.1631ZM3.33337 52.6668L10.3333 45.6669L17.3332 52.6668L3.33317 66.6668V52.6668H3.33337ZM12.6667 62.1667L19.6666 55.1667L47.9167 83.4168L41 90.3335L21 70.3334C20.839 70.1723 20.6585 70.0512 20.468 69.968L12.6667 62.1667ZM3.33337 14.8334L10.3333 7.8335L17.4166 14.9168L9.16671 23.1667C9.16671 23.1667 9.16671 23.1667 9.16651 23.1669L3.33317 29.0002V14.8334H3.33337ZM3.33337 33.6714L10.3674 26.7018L17.3332 33.8336L9.16651 42.0003L3.33317 47.8336V33.6714H3.33337ZM3.33337 71.5001L10.3333 64.6668L17.3332 71.6667L9.16651 79.8334L3.33317 85.6668V71.5001H3.33337ZM82.5794 32.9756C82.5109 32.8672 82.4301 32.7631 82.3336 32.6666L74.0835 24.4165L81.0834 17.4166L96.6668 33V47.1666L82.5794 32.9756ZM96.667 3.33336V9.33329L90.6671 3.33336H96.667ZM50.3335 24.3333L43.3334 17.3334L57.3334 3.33336H71.5001L50.3335 24.3333ZM52.5001 3.33336L40.9168 14.9166L29.3335 3.33336H52.5001ZM3.33337 3.33336H10.1667L9.16671 4.33335L3.33337 10.1667V3.33336ZM3.33337 90.3381L10.368 83.368L17.4168 90.4167L11.1667 96.6668H3.33337V90.3381ZM16 96.6668L19.8334 92.8335L23.6668 96.6668H16ZM28.5001 96.6668L12.8791 80.8797L19.8572 73.9658L39.8334 93.8335L42.6668 96.6668H28.5001ZM71.6669 83.3334L78.7502 90.4167L72.5003 96.6666H58.3336L71.6669 83.3334ZM77.1668 96.6668L81.0836 92.7501L85.0003 96.6668H77.1668ZM96.667 96.6668H89.8337L82.3338 89.1669C82.1727 89.0059 81.9922 88.8848 81.8018 88.8016L74.0005 81.0002L81.0838 73.9169L96.6672 89.5003V96.6668H96.667Z" fill="black" fill-opacity="0.4"/>
</svg>
