<svg width="100" height="100" viewBox="0 0 100 100" fill="none" xmlns="http://www.w3.org/2000/svg">
<path d="M12.1542 54.4767C12.8051 55.1271 13.8603 55.1271 14.5112 54.4767L24.5111 44.4833C24.55 44.4444 24.5868 44.4035 24.6217 44.361C24.6374 44.342 24.6511 44.3217 24.6658 44.3023C24.6837 44.2785 24.7021 44.2551 24.7188 44.2303C24.7347 44.2067 24.7482 44.1822 24.7627 44.158C24.776 44.1356 24.7901 44.1138 24.8026 44.0908C24.8159 44.066 24.827 44.0406 24.8389 44.0152C24.8503 43.9911 24.8622 43.9675 24.8725 43.9429C24.8826 43.9183 24.891 43.8933 24.8999 43.8683C24.9094 43.8419 24.9194 43.8161 24.9277 43.7891C24.9352 43.7641 24.9408 43.7389 24.9472 43.7137C24.9541 43.6861 24.9619 43.6592 24.9674 43.631C24.9732 43.6022 24.9765 43.573 24.9807 43.5441C24.9843 43.5193 24.9891 43.4949 24.9914 43.4699C25.0022 43.3607 25.0022 43.2506 24.9914 43.1414C24.9891 43.1162 24.9843 43.092 24.9807 43.0672C24.9765 43.0382 24.9732 43.0091 24.9674 42.9803C24.9619 42.9523 24.9541 42.9251 24.9472 42.8976C24.9408 42.8724 24.9352 42.847 24.9277 42.8221C24.9196 42.7952 24.9094 42.7694 24.8999 42.743C24.891 42.718 24.8828 42.693 24.8725 42.6684C24.8624 42.6438 24.8503 42.6201 24.8389 42.5961C24.827 42.5709 24.8157 42.5453 24.8026 42.5205C24.7903 42.4975 24.7762 42.4755 24.7627 42.4532C24.7482 42.429 24.7345 42.4046 24.7188 42.381C24.7021 42.3562 24.6837 42.3328 24.6658 42.309C24.6511 42.2893 24.6374 42.2693 24.6217 42.2502C24.552 42.1653 24.4742 42.0875 24.3892 42.0179C24.3701 42.0022 24.3499 41.9885 24.3302 41.9738C24.3064 41.956 24.2829 41.9375 24.2583 41.921C24.2347 41.9052 24.2101 41.8915 24.1856 41.877C24.1632 41.8637 24.1414 41.8496 24.1183 41.8373C24.0935 41.824 24.0681 41.8129 24.0429 41.801C24.0189 41.7897 23.9952 41.7778 23.9706 41.7674C23.9458 41.7571 23.9206 41.749 23.8955 41.7401C23.8693 41.7307 23.8435 41.7206 23.8167 41.7125C23.7915 41.7049 23.7661 41.6994 23.7407 41.6928C23.7135 41.6859 23.6864 41.6783 23.6587 41.6728C23.6293 41.667 23.5997 41.6635 23.5701 41.6593C23.5459 41.6559 23.522 41.6512 23.4974 41.6488C23.4428 41.6434 23.3878 41.6404 23.333 41.6404C21.1281 41.6404 20.0243 38.9744 21.5839 37.4158L24.5113 34.4903C25.1622 33.8398 25.1622 32.7853 24.5113 32.1348C23.8604 31.4844 22.8052 31.4844 22.1543 32.1348L12.1544 42.1282C12.1155 42.1671 12.0787 42.208 12.0438 42.2504C12.0281 42.2695 12.0144 42.2897 11.9997 42.3092C11.9818 42.333 11.9634 42.3564 11.9467 42.3812C11.9308 42.4048 11.9173 42.4292 11.9028 42.4534C11.8895 42.4759 11.8754 42.4977 11.8629 42.5207C11.8496 42.5455 11.8385 42.5709 11.8266 42.5963C11.8152 42.6203 11.8033 42.644 11.793 42.6686C11.7829 42.6932 11.7745 42.7182 11.7656 42.7432C11.7561 42.7696 11.7461 42.7954 11.7378 42.8223C11.7303 42.8473 11.7247 42.8726 11.7183 42.8978C11.7114 42.9253 11.7036 42.9523 11.6981 42.9805C11.6923 43.0093 11.689 43.0384 11.6848 43.0674C11.6812 43.0922 11.6764 43.1166 11.6741 43.1416C11.6633 43.2508 11.6633 43.3609 11.6741 43.4701C11.6764 43.4953 11.6812 43.5195 11.6848 43.5443C11.689 43.5732 11.6923 43.6024 11.6981 43.6312C11.7036 43.6592 11.7114 43.6863 11.7183 43.7139C11.7247 43.7391 11.7303 43.7645 11.7378 43.7893C11.7459 43.8163 11.7561 43.8421 11.7656 43.8685C11.7745 43.8935 11.7827 43.9185 11.793 43.9431C11.8031 43.9677 11.8152 43.9913 11.8266 44.0154C11.8385 44.0406 11.8498 44.0662 11.8629 44.091C11.8752 44.114 11.8893 44.136 11.9028 44.1582C11.9173 44.1824 11.931 44.2069 11.9467 44.2305C11.9634 44.2553 11.9818 44.2787 11.9997 44.3025C12.0144 44.3221 12.0281 44.3422 12.0438 44.3612C12.1135 44.4462 12.1913 44.524 12.2763 44.5936C12.2954 44.6093 12.3156 44.623 12.3353 44.6377C12.3591 44.6555 12.3825 44.674 12.4072 44.6904C12.4308 44.7063 12.4554 44.72 12.4798 44.7345C12.5023 44.7478 12.5241 44.7619 12.5472 44.7742C12.5718 44.7873 12.5972 44.7986 12.6224 44.8103C12.6466 44.8216 12.6703 44.8337 12.6951 44.844C12.7197 44.8542 12.7447 44.8625 12.7698 44.8714C12.7962 44.8809 12.822 44.8909 12.849 44.8992C12.8742 44.9067 12.8996 44.9123 12.925 44.9189C12.9522 44.9258 12.9792 44.9333 13.007 44.9389C13.0364 44.9446 13.066 44.9482 13.0956 44.9524C13.1198 44.9558 13.1437 44.9605 13.1683 44.9629C13.2229 44.9683 13.2779 44.9712 13.3327 44.9712C15.5375 44.9712 16.6413 47.6372 15.0817 49.1958L12.1542 52.1214C11.5033 52.7717 11.5033 53.8262 12.1542 54.4767Z" fill="black" fill-opacity="0.4"/>
<path d="M61.6668 53.3199C60.7462 53.3199 60.0002 54.0656 60.0002 54.9854C60.0002 58.3662 59.2899 60.4117 57.812 62.4735C57.614 62.7497 56.5882 64.0848 56.3183 64.4755C55.8408 65.167 55.496 65.8233 55.2781 66.506C55.2479 66.6008 55.1609 66.6667 55.0615 66.6667C54.9435 66.6667 54.8458 66.5746 54.84 66.4568C54.7627 64.8691 54.9135 63.5505 55.2635 61.8643C55.2572 61.8952 55.4347 61.0518 55.4818 60.8167C55.564 60.4065 55.6241 60.0642 55.6702 59.7275C55.9206 57.9002 55.7147 56.2915 54.863 54.324C54.4975 53.4796 53.5163 53.0915 52.6716 53.4566C51.8267 53.8219 51.4383 54.8024 51.8037 55.6466C52.4095 57.0462 52.537 58.0411 52.3678 59.2752C52.3321 59.5352 52.2832 59.814 52.2133 60.1628C52.1701 60.3787 51.9965 61.2033 51.9999 61.1872C51.6223 63.0053 51.4421 64.5099 51.4952 66.2398C51.5023 66.4718 51.318 66.6665 51.0859 66.6665C50.9493 66.6665 50.8211 66.5982 50.75 66.4815C50.1975 65.574 49.9884 64.7055 49.9657 63.5925C49.958 63.2126 49.9663 62.9049 49.9987 62.1476C50.1445 58.7299 49.8198 56.8259 48.0718 54.0892C47.5766 53.3139 46.546 53.0865 45.7702 53.5814C44.9944 54.0763 44.7668 55.1062 45.2621 55.8815C46.5694 57.9284 46.7877 59.2081 46.6685 62.0059C46.6332 62.8342 46.6236 63.1866 46.6332 63.6605C46.6566 64.809 46.8326 65.8429 47.2193 66.8388C47.7644 68.2427 48.3335 69.6723 48.3335 71.1783V80.0129C48.3335 85.5221 43.8463 90.0064 38.3334 90.0064H33.3335C27.8206 90.0064 23.3334 85.5221 23.3334 80.0129C23.3334 78.1373 25.1873 76.6284 26.1724 75.0324C26.4859 74.5246 26.6667 73.9263 26.6667 73.2856C26.6667 69.6061 29.6539 66.6232 33.3335 66.6232C35.1742 66.6232 36.6668 65.1327 36.6668 63.292V23.3181C36.6668 21.4774 35.1742 19.9869 33.3335 19.9869C32.413 19.9869 31.6669 19.2408 31.6669 18.3204V4.99669C31.6669 2.23799 29.4274 0 26.6669 0H9.9999C7.2394 0 4.99995 2.23799 4.99995 4.99669V18.3204C4.99995 19.2408 4.2538 19.9869 3.33337 19.9869C1.49264 19.9869 0 21.4774 0 23.3181V63.2922C0 65.1329 1.49264 66.6234 3.33337 66.6234C7.0129 66.6234 10.0001 69.6063 10.0001 73.2858C10.0001 73.9265 10.1809 74.5248 10.4944 75.0326C11.4796 76.6286 13.3335 78.1375 13.3335 80.0131C13.3335 91.0347 22.3048 100 33.3335 100H38.3334C49.3623 100 58.3334 91.0345 58.3334 80.0131V68.3324C58.3334 68.3286 58.3328 68.325 58.3328 68.3213C58.3328 68.3175 58.3334 68.3139 58.3334 68.3101C58.3334 67.6571 58.5377 67.1264 59.0616 66.3678C59.272 66.063 60.2734 64.7595 60.5214 64.4136C62.3904 61.8065 63.3332 59.0911 63.3332 54.9856C63.3334 54.0656 62.5873 53.3199 61.6668 53.3199ZM8.33332 4.99669C8.33332 4.07772 9.08053 3.33119 9.9999 3.33119H26.6665C27.5861 3.33119 28.3331 4.07792 28.3331 4.99669V12.7927C28.3331 16.766 25.1121 19.9869 21.1389 19.9869H15.5276C11.5543 19.9869 8.33332 16.766 8.33332 12.7927V4.99669ZM3.33337 26.6515C3.33337 24.8105 4.82576 23.3181 6.66673 23.3181H30.0001C31.8411 23.3181 33.3335 24.8105 33.3335 26.6515V56.098C33.3335 60.0712 30.1125 63.2922 26.1392 63.2922H25.0001H11.6667H10.5276C6.55435 63.2922 3.33337 60.0712 3.33337 56.098V26.6515ZM20.0022 66.6234C21.8419 66.6234 23.3334 68.1148 23.3334 69.9546V71.6192C23.3334 72.5396 22.5872 73.2858 21.6668 73.2858H15C14.0796 73.2858 13.3335 72.5396 13.3335 71.6192V69.9546C13.3335 68.1148 14.8249 66.6234 16.6647 66.6234H20.0022ZM55.0002 80.0131C55.0001 80.0131 55 80.0132 55 80.0133C54.9999 89.1951 47.5211 96.6688 38.3334 96.6688H33.3335C24.1455 96.6688 16.6668 89.1948 16.6668 80.0131V78.2837C16.6668 77.3632 17.413 76.617 18.3335 76.617C19.254 76.617 20.0002 77.3632 20.0002 78.2837V80.0131C20.0002 87.362 25.9797 93.3378 33.3337 93.3378H38.3336C45.6874 93.3378 51.6671 87.3622 51.6671 80.0131V71.6645C51.6671 70.7441 52.4133 69.9979 53.3338 69.9979C54.2542 69.9979 55.0004 70.7441 55.0004 71.6645V80.0129C55.0004 80.013 55.0004 80.0131 55.0002 80.0131Z" fill="black" fill-opacity="0.4"/>
<path d="M80.0001 0.0439453H70C58.9711 0.0439453 49.9999 9.00941 49.9999 20.0309V33.3322V33.3324V33.3326C49.9999 33.9857 49.7956 34.5163 49.2718 35.2749C49.0613 35.5795 48.0599 36.8833 47.8119 37.2292C45.943 39.8363 45 42.5517 45 46.6572C45 47.5772 45.7462 48.3227 46.6666 48.3227C47.5869 48.3227 48.3332 47.577 48.3332 46.6572C48.3332 43.2764 49.0434 41.2309 50.5214 39.1691C50.7194 38.8929 51.7452 37.5578 52.015 37.1671C52.4869 36.4839 52.8288 35.835 53.0469 35.1609C53.0781 35.0645 53.1668 34.9975 53.2681 34.9975C53.3888 34.9975 53.4888 35.0918 53.4945 35.2123C53.5691 36.7888 53.4179 38.1023 53.0698 39.7789C53.0762 39.7486 52.8987 40.5915 52.8516 40.8265C52.7694 41.2368 52.7092 41.5789 52.6631 41.9157C52.4128 43.7425 52.6189 45.3511 53.4703 47.3184C53.8359 48.1627 54.8168 48.5509 55.6617 48.1858C56.5066 47.8206 56.895 46.84 56.5297 45.9958C55.9238 44.5964 55.7964 43.6016 55.9655 42.3677C56.0013 42.1078 56.0501 41.829 56.12 41.4801C56.1633 41.2644 56.3369 40.4403 56.3337 40.4558C56.7091 38.6479 56.8896 37.1497 56.8393 35.4314C56.8324 35.1953 57.02 34.9973 57.2562 34.9973C57.3958 34.9973 57.5269 35.0674 57.599 35.1869C58.14 36.0846 58.3452 36.9467 58.3678 38.0485C58.3756 38.4289 58.3672 38.7369 58.3349 39.4953C58.1891 42.9131 58.5138 44.8171 60.262 47.5531C60.7574 48.3284 61.7878 48.5557 62.5636 48.0605C63.3394 47.5654 63.5667 46.5357 63.0713 45.7604C61.7639 43.7143 61.5459 42.4348 61.665 39.637C61.7004 38.8074 61.7101 38.4545 61.7002 37.9799C61.6765 36.8327 61.5007 35.7998 61.1144 34.805C60.5692 33.4008 59.9999 31.9709 59.9999 30.4646V20.0303C59.9999 14.521 64.4871 10.0367 70 10.0367H80.0001C85.5129 10.0367 90.0002 14.521 90.0002 20.0303V98.3128C90.0002 99.2327 90.7464 99.9783 91.6667 99.9783H98.3335C99.254 99.9783 100 99.2325 100 98.3128V20.0309C100 9.00921 91.0289 0.0439453 80.0001 0.0439453ZM96.6667 96.6477C94.8257 96.6477 93.3333 95.1553 93.3333 93.3143V20.0309C93.3333 12.6819 87.3538 6.70613 79.9999 6.70613H69.9998C62.646 6.70613 56.6663 12.6817 56.6663 20.0309V30.0001C56.6663 30.9205 55.9201 31.6667 54.9996 31.6667C54.0791 31.6667 53.3329 30.9205 53.3329 30.0001V20.0309C53.3329 10.8489 60.8118 3.37514 69.9996 3.37514H79.9997C89.1876 3.37514 96.6663 10.8491 96.6663 20.0309V96.6473C96.6663 96.6475 96.6665 96.6477 96.6667 96.6477Z" fill="black" fill-opacity="0.4"/>
</svg>
