<svg width="100" height="110" viewBox="0 0 100 110" fill="none" xmlns="http://www.w3.org/2000/svg">
<path d="M96.7534 74.3896C95.2269 72.9 93.3353 71.9206 91.2857 71.5262V2.14844C91.2857 0.961761 90.3128 0 89.1123 0H24.1179C22.9174 0 21.9444 0.961761 21.9444 2.14844C21.9444 3.33511 22.9174 4.29688 24.1179 4.29688H43.4694V7.77718C42.4778 7.97691 41.7306 8.84384 41.7306 9.88281C41.7306 10.9218 42.4778 11.7896 43.4694 11.9884V20.6686C42.4778 20.8675 41.7306 21.7345 41.7306 22.7734C41.7306 23.8124 42.4778 24.6802 43.4694 24.8791V33.5584C42.4778 33.7582 41.7306 34.6251 41.7306 35.6641C41.7306 36.703 42.4778 37.57 43.4694 37.7689V46.4491C42.4778 46.6488 41.7306 47.5157 41.7306 48.5547C41.7306 49.5937 42.4778 50.4606 43.4694 50.6603V59.3397C42.4778 59.5394 41.7306 60.4063 41.7306 61.4453C41.7306 62.4843 42.4778 63.3521 43.4694 63.5509V105.703H4.34694V102.266H9.12857C10.3291 102.266 11.302 101.304 11.302 100.117C11.302 98.9305 10.3291 97.9688 9.12857 97.9688H4.34694V89.375H9.12857C10.3291 89.375 11.302 88.4132 11.302 87.2266C11.302 86.0407 10.3291 85.0781 9.12857 85.0781H4.34694V76.4844H9.12857C10.3291 76.4844 11.302 75.5226 11.302 74.3359C11.302 73.1493 10.3291 72.1875 9.12857 72.1875H4.34694V63.5938H9.12857C10.3291 63.5938 11.302 62.632 11.302 61.4453C11.302 60.2586 10.3291 59.2969 9.12857 59.2969H4.34694V50.7031H9.12857C10.3291 50.7031 11.302 49.7414 11.302 48.5547C11.302 47.368 10.3291 46.4062 9.12857 46.4062H4.34694V37.8125H9.12857C10.3291 37.8125 11.302 36.8507 11.302 35.6641C11.302 34.4774 10.3291 33.5156 9.12857 33.5156H4.34694V24.9219H9.12857C10.3291 24.9219 11.302 23.9601 11.302 22.7734C11.302 21.5868 10.3291 20.625 9.12857 20.625H4.34694V12.0312H9.12857C10.3291 12.0312 11.302 11.0695 11.302 9.88281C11.302 8.69614 10.3291 7.73438 9.12857 7.73438H4.34694V4.29688H9.12857C10.3291 4.29688 11.302 3.33511 11.302 2.14844C11.302 0.961761 10.3291 0 9.12857 0H2.17347C0.972967 0 0 0.961761 0 2.14844V107.852C0 109.038 0.972967 110 2.17347 110H45.6429C46.8434 110 47.8163 109.038 47.8163 107.852V90.659C49.6341 92.011 51.8924 92.8133 54.3368 92.8133C54.3427 92.8133 54.3478 92.8125 54.3529 92.8125H54.3571H89.1106C89.1182 92.8133 89.125 92.8133 89.1327 92.8133C95.125 92.8133 100 87.9945 100 82.0712C100 79.1615 98.847 76.4332 96.7534 74.3896ZM47.8163 82.0712V63.5938H50.8592C52.0597 63.5938 53.0327 62.632 53.0327 61.4453C53.0327 60.2586 52.0597 59.2969 50.8592 59.2969H47.8163V50.7031H50.8592C52.0597 50.7031 53.0327 49.7414 53.0327 48.5547C53.0327 47.368 52.0597 46.4062 50.8592 46.4062H47.8163V37.8125H50.8592C52.0597 37.8125 53.0327 36.8507 53.0327 35.6641C53.0327 34.4774 52.0597 33.5156 50.8592 33.5156H47.8163V24.9219H50.8592C52.0597 24.9219 53.0327 23.9601 53.0327 22.7734C53.0327 21.5868 52.0597 20.625 50.8592 20.625H47.8163V12.0312H50.8592C52.0597 12.0312 53.0327 11.0695 53.0327 9.88281C53.0327 8.69614 52.0597 7.73438 50.8592 7.73438H47.8163V4.29688H86.9388V7.73438H85.6347C84.4351 7.73438 83.4613 8.69614 83.4613 9.88281C83.4613 11.0695 84.4351 12.0312 85.6347 12.0312H86.9388V20.625H85.6347C84.4351 20.625 83.4613 21.5868 83.4613 22.7734C83.4613 23.9601 84.4351 24.9219 85.6347 24.9219H86.9388V33.5156H85.6347C84.4351 33.5156 83.4613 34.4774 83.4613 35.6641C83.4613 36.8507 84.4351 37.8125 85.6347 37.8125H86.9388V46.4062H85.6347C84.4351 46.4062 83.4613 47.368 83.4613 48.5547C83.4613 49.7414 84.4351 50.7031 85.6347 50.7031H86.9388V59.2969H85.6347C84.4351 59.2969 83.4613 60.2586 83.4613 61.4453C83.4613 62.632 84.4351 63.5938 85.6347 63.5938H86.9388V71.329H54.3571C54.3554 71.329 54.3546 71.329 54.3529 71.329C54.3478 71.329 54.3418 71.329 54.3368 71.329C53.1362 71.329 52.1633 72.2907 52.1633 73.4774C52.1633 74.6632 53.1362 75.6258 54.3368 75.6258C54.3673 75.6258 54.3979 75.6275 54.4293 75.6275C54.5142 75.6292 54.5991 75.63 54.6832 75.6351C54.7052 75.6359 54.7281 75.6384 54.7502 75.6401C54.8385 75.6451 54.9268 75.651 55.0143 75.6602C55.027 75.6611 55.0389 75.6636 55.0508 75.6644C55.1484 75.6754 55.2452 75.6871 55.3411 75.7014C55.3428 75.7022 55.3454 75.703 55.3479 75.703C58.1412 76.1353 60.3537 78.329 60.7816 81.0918C60.8308 81.4115 60.8572 81.738 60.8572 82.0703C60.8572 82.2927 60.8453 82.5117 60.8232 82.7283C60.8173 82.7879 60.8079 82.8474 60.8003 82.907C60.7935 82.954 60.7892 83.0019 60.7816 83.0489C60.3537 85.8108 58.142 88.0045 55.3488 88.4376C55.3479 88.4384 55.3462 88.4384 55.3454 88.4384C55.2511 88.4535 55.156 88.4644 55.0601 88.4753C55.0457 88.477 55.0321 88.4795 55.0177 88.4804C54.9336 88.4896 54.8479 88.4955 54.7621 88.5005C54.7366 88.503 54.712 88.5056 54.6857 88.5064C54.6084 88.5106 54.5303 88.5123 54.4522 88.5131C54.4132 88.5139 54.375 88.5165 54.3359 88.5165C50.7412 88.5165 47.8163 85.6245 47.8163 82.0712ZM89.1352 88.5165C89.1276 88.5156 89.1199 88.5156 89.1123 88.5156H63.0247C63.0994 88.4183 63.1699 88.3184 63.2412 88.2177C63.2539 88.2001 63.2675 88.1816 63.2802 88.164C63.3431 88.0733 63.4042 87.9819 63.4645 87.8896C63.4899 87.851 63.5154 87.8123 63.54 87.7737C63.5952 87.6865 63.6504 87.5975 63.7039 87.5085C63.7302 87.4641 63.7557 87.4196 63.7812 87.3751C63.8321 87.2861 63.883 87.1972 63.9323 87.1074C63.9544 87.0654 63.9756 87.0235 63.9968 86.9815C64.0851 86.8128 64.1683 86.6416 64.2481 86.4687C64.2719 86.415 64.2974 86.363 64.3203 86.3093C64.3551 86.2304 64.3865 86.1507 64.4196 86.0709C64.4476 86.0013 64.4765 85.9325 64.5028 85.862C64.5317 85.7856 64.5606 85.7092 64.5877 85.632C64.6157 85.5548 64.6421 85.4768 64.6675 85.3987C64.6913 85.3265 64.7159 85.2535 64.738 85.1797C64.766 85.0874 64.7923 84.995 64.8178 84.9019C64.8348 84.8406 64.8535 84.7794 64.8696 84.7173C64.9086 84.5662 64.9443 84.4126 64.9766 84.2582C64.9868 84.2112 64.9944 84.1634 65.0037 84.1164C65.0267 84.0005 65.0479 83.8856 65.0666 83.7689C65.0768 83.7093 65.0844 83.6497 65.0929 83.5902C65.109 83.4827 65.1226 83.3745 65.1353 83.2662C65.1421 83.2058 65.1481 83.1454 65.154 83.0858C65.165 82.9691 65.1735 82.8516 65.1812 82.7341C65.1846 82.683 65.188 82.6326 65.1905 82.5814C65.199 82.4119 65.2041 82.2424 65.2041 82.0712C65.2041 81.9008 65.199 81.7304 65.1905 81.5617C65.188 81.5105 65.1837 81.4594 65.1812 81.4082C65.1735 81.2907 65.165 81.174 65.154 81.0574C65.1481 80.9969 65.1421 80.9373 65.1353 80.8769C65.1226 80.7687 65.109 80.6604 65.0929 80.553C65.0844 80.4934 65.0768 80.433 65.0666 80.3734C65.0479 80.2576 65.0267 80.1426 65.0037 80.0268C64.9944 79.9798 64.9868 79.9319 64.9766 79.8841C64.9443 79.7305 64.9086 79.577 64.8696 79.425C64.8535 79.3638 64.8356 79.3025 64.8178 79.2413C64.7923 79.1481 64.766 79.0549 64.738 78.9635C64.7159 78.8896 64.6913 78.8166 64.6675 78.7436C64.6421 78.6664 64.6149 78.5883 64.5877 78.5111C64.5606 78.4339 64.5325 78.3575 64.5028 78.2812C64.4757 78.2107 64.4476 78.141 64.4196 78.0722C64.3865 77.9925 64.3551 77.9119 64.3203 77.8339C64.2974 77.7802 64.2719 77.7273 64.2481 77.6744C64.1683 77.5007 64.0851 77.3295 63.9968 77.1616C63.9756 77.1197 63.9544 77.0769 63.9323 77.0358C63.883 76.9451 63.8321 76.8562 63.7812 76.768C63.7557 76.7236 63.7302 76.6791 63.7039 76.6346C63.6504 76.5456 63.5952 76.4567 63.54 76.3694C63.5146 76.3308 63.4899 76.2922 63.4645 76.2536C63.4042 76.1613 63.3431 76.0698 63.2802 75.9792C63.2675 75.9607 63.2539 75.9431 63.2412 75.9246C63.1699 75.8247 63.0994 75.7249 63.0247 75.6267H89.1123H89.1352H89.1598C89.187 75.6258 89.2142 75.6258 89.2413 75.6258C90.9122 75.6258 92.493 76.2712 93.6986 77.4487C94.9594 78.6781 95.6531 80.3205 95.6531 82.072C95.6531 85.6245 92.7282 88.5165 89.1352 88.5165Z" fill="black" fill-opacity="0.4"/>
<path d="M15.3727 4.29687H15.4313C16.6318 4.29687 17.6047 3.33511 17.6047 2.14844C17.6047 0.961761 16.6318 0 15.4313 0H15.3727C14.1722 0 13.1992 0.961761 13.1992 2.14844C13.1992 3.33511 14.1722 4.29687 15.3727 4.29687Z" fill="black" fill-opacity="0.4"/>
<path d="M23.0368 12.0312H29.9919C31.1924 12.0312 32.1653 11.0695 32.1653 9.88281C32.1653 8.69614 31.1924 7.73438 29.9919 7.73438H23.0368C21.8362 7.73438 20.8633 8.69614 20.8633 9.88281C20.8633 11.0695 21.8362 12.0312 23.0368 12.0312Z" fill="black" fill-opacity="0.4"/>
<path d="M23.0368 24.9219H29.9919C31.1924 24.9219 32.1653 23.9601 32.1653 22.7734C32.1653 21.5868 31.1924 20.625 29.9919 20.625H23.0368C21.8362 20.625 20.8633 21.5868 20.8633 22.7734C20.8633 23.9601 21.8362 24.9219 23.0368 24.9219Z" fill="black" fill-opacity="0.4"/>
<path d="M23.0368 37.8125H29.9919C31.1924 37.8125 32.1653 36.8507 32.1653 35.6641C32.1653 34.4774 31.1924 33.5156 29.9919 33.5156H23.0368C21.8362 33.5156 20.8633 34.4774 20.8633 35.6641C20.8633 36.8507 21.8362 37.8125 23.0368 37.8125Z" fill="black" fill-opacity="0.4"/>
<path d="M23.0368 50.7031H29.9919C31.1924 50.7031 32.1653 49.7414 32.1653 48.5547C32.1653 47.368 31.1924 46.4062 29.9919 46.4062H23.0368C21.8362 46.4062 20.8633 47.368 20.8633 48.5547C20.8633 49.7414 21.8362 50.7031 23.0368 50.7031Z" fill="black" fill-opacity="0.4"/>
<path d="M23.0368 63.5942H29.9919C31.1924 63.5942 32.1653 62.6325 32.1653 61.4458C32.1653 60.2591 31.1924 59.2974 29.9919 59.2974H23.0368C21.8362 59.2974 20.8633 60.2591 20.8633 61.4458C20.8633 62.6325 21.8362 63.5942 23.0368 63.5942Z" fill="black" fill-opacity="0.4"/>
<path d="M23.0368 76.4844H29.9919C31.1924 76.4844 32.1653 75.5226 32.1653 74.3359C32.1653 73.1493 31.1924 72.1875 29.9919 72.1875H23.0368C21.8362 72.1875 20.8633 73.1493 20.8633 74.3359C20.8633 75.5226 21.8362 76.4844 23.0368 76.4844Z" fill="black" fill-opacity="0.4"/>
<path d="M23.0368 89.375H29.9919C31.1924 89.375 32.1653 88.4132 32.1653 87.2266C32.1653 86.0407 31.1924 85.0781 29.9919 85.0781H23.0368C21.8362 85.0781 20.8633 86.0407 20.8633 87.2266C20.8633 88.4132 21.8362 89.375 23.0368 89.375Z" fill="black" fill-opacity="0.4"/>
<path d="M23.0368 102.266H29.9919C31.1924 102.266 32.1653 101.304 32.1653 100.117C32.1653 98.9305 31.1924 97.9688 29.9919 97.9688H23.0368C21.8362 97.9688 20.8633 98.9305 20.8633 100.117C20.8633 101.304 21.8362 102.266 23.0368 102.266Z" fill="black" fill-opacity="0.4"/>
<path d="M64.7672 12.0312H71.7223C72.9228 12.0312 73.8958 11.0695 73.8958 9.88281C73.8958 8.69614 72.9228 7.73438 71.7223 7.73438H64.7672C63.5667 7.73438 62.5938 8.69614 62.5938 9.88281C62.5938 11.0695 63.5667 12.0312 64.7672 12.0312Z" fill="black" fill-opacity="0.4"/>
<path d="M64.7672 24.9219H71.7223C72.9228 24.9219 73.8958 23.9601 73.8958 22.7734C73.8958 21.5868 72.9228 20.625 71.7223 20.625H64.7672C63.5667 20.625 62.5938 21.5868 62.5938 22.7734C62.5938 23.9601 63.5667 24.9219 64.7672 24.9219Z" fill="black" fill-opacity="0.4"/>
<path d="M64.7672 37.8125H71.7223C72.9228 37.8125 73.8958 36.8507 73.8958 35.6641C73.8958 34.4774 72.9228 33.5156 71.7223 33.5156H64.7672C63.5667 33.5156 62.5938 34.4774 62.5938 35.6641C62.5938 36.8507 63.5667 37.8125 64.7672 37.8125Z" fill="black" fill-opacity="0.4"/>
<path d="M64.7672 50.7031H71.7223C72.9228 50.7031 73.8958 49.7414 73.8958 48.5547C73.8958 47.368 72.9228 46.4062 71.7223 46.4062H64.7672C63.5667 46.4062 62.5938 47.368 62.5938 48.5547C62.5938 49.7414 63.5667 50.7031 64.7672 50.7031Z" fill="black" fill-opacity="0.4"/>
<path d="M64.7672 63.5942H71.7223C72.9228 63.5942 73.8958 62.6325 73.8958 61.4458C73.8958 60.2591 72.9228 59.2974 71.7223 59.2974H64.7672C63.5667 59.2974 62.5938 60.2591 62.5938 61.4458C62.5938 62.6325 63.5667 63.5942 64.7672 63.5942Z" fill="black" fill-opacity="0.4"/>
<path d="M89.1111 79.9219H89.0602C87.8597 79.9219 86.8867 80.8845 86.8867 82.0703C86.8867 83.257 87.8597 84.2187 89.0602 84.2187H89.1111C90.3116 84.2187 91.2846 83.257 91.2846 82.0703C91.2846 80.8845 90.3116 79.9219 89.1111 79.9219Z" fill="black" fill-opacity="0.4"/>
<path d="M82.815 79.9219H73.8961C72.6956 79.9219 71.7227 80.8836 71.7227 82.0703C71.7227 83.257 72.6956 84.2187 73.8961 84.2187H82.815C84.0146 84.2187 84.9885 83.257 84.9885 82.0703C84.9885 80.8836 84.0146 79.9219 82.815 79.9219Z" fill="black" fill-opacity="0.4"/>
</svg>
