<svg width="90" height="90" viewBox="0 0 90 90" fill="none" xmlns="http://www.w3.org/2000/svg">
<path d="M60.9688 27.2725C59.9985 27.2725 59.2109 28.058 59.2109 29.0296C59.2109 30.0005 59.9985 30.7874 60.9688 30.7874C61.9411 30.7874 62.7267 30.0005 62.7267 29.0296C62.7267 28.058 61.9411 27.2725 60.9688 27.2725Z" fill="black" fill-opacity="0.4"/>
<path d="M29.0313 59.21C28.059 59.21 27.2734 59.9975 27.2734 60.9678C27.2734 61.9401 28.059 62.7256 29.0313 62.7256C30.0016 62.7256 30.7892 61.9401 30.7892 60.9678C30.7892 59.9975 30.0016 59.21 29.0313 59.21Z" fill="black" fill-opacity="0.4"/>
<path d="M87.8157 10.8142C87.2224 10.6761 86.5989 10.8554 86.1705 11.2879L78.8829 18.633H75.3891L71.5431 14.6484V11.106L78.7263 3.81586C79.1514 3.38465 79.3244 2.7646 79.1836 2.17478C79.0435 1.58563 78.6096 1.11047 78.0355 0.91684C76.231 0.308471 74.3426 0.000166767 72.422 0.000166767C66.6966 0.000166767 61.4951 2.66985 58.151 7.32462C55.0212 11.6821 54.0564 17.0221 55.4387 22.1328L42.4902 35.0809L20.9179 13.4598V9.21633C20.9179 8.59904 20.5938 8.02637 20.0644 7.70914L7.63504 0.250793C6.94288 -0.164628 6.05777 -0.0554515 5.48784 0.515152L0.516373 5.48578C-0.0535601 6.05639 -0.16274 6.94147 0.252007 7.63361L7.7092 20.0626C8.02644 20.592 8.59844 20.9154 9.21575 20.9161L13.458 20.9175L35.0323 42.5386L22.1333 55.4372C17.0225 54.0557 11.6795 55.0218 7.31986 58.1536C2.6677 61.4955 0 66.6955 0 72.4207C0 74.3406 0.308313 76.2296 0.9167 78.0334C1.11103 78.6109 1.59101 79.0469 2.18429 79.1842C2.77825 79.3222 3.40106 79.143 3.83023 78.7104L11.1171 71.3661H14.6301L18.6327 75.3685V78.8814L11.2881 86.1681C10.8555 86.5972 10.6763 87.22 10.8143 87.814C10.9516 88.4072 11.3877 88.8872 11.9652 89.0815C13.769 89.6899 15.6581 89.9982 17.578 89.9982C23.3034 89.9982 28.5028 87.3299 31.8455 82.6779C34.9774 78.3183 35.9436 72.9762 34.562 67.8655L44.9217 57.5061L47.2948 60.0838L46.2058 61.1721C45.5191 61.8587 45.5191 62.9718 46.2058 63.6585C46.8925 64.3444 48.0049 64.3444 48.6922 63.6585L49.6783 62.6724L71.9441 86.8575C71.9606 86.8753 71.9778 86.8925 71.9949 86.9097C76.1149 91.0295 82.79 91.0309 86.9121 86.909C91.0224 82.7967 91.0224 76.1053 86.9121 71.993C86.8942 71.9751 86.8757 71.9579 86.8571 71.9408L62.6336 49.7182L63.6087 48.7431C64.2953 48.0572 64.2953 46.9441 63.6087 46.2575C62.922 45.5708 61.8096 45.5708 61.1222 46.2575L60.0407 47.3396L57.4582 44.9693L67.868 34.5598C69.3478 34.9553 70.875 35.1558 72.422 35.1558C82.115 35.1558 90 27.2703 90 17.5783C90 15.6578 89.6917 13.7695 89.0833 11.965C88.889 11.3875 88.409 10.9515 87.8157 10.8142ZM15.4315 17.9182C15.1019 17.5879 14.6548 17.4197 14.1879 17.4197L10.2121 17.4183L3.97305 7.0019L7.00331 3.97173L17.4022 10.212V14.1877C17.4022 14.6532 17.5869 15.0995 17.9158 15.4291L40.0045 37.5673L37.5181 40.0529L15.4315 17.9182ZM60.1451 52.2066L84.451 74.504C87.1661 77.2479 87.1579 81.6905 84.4256 84.424C81.6872 87.1623 77.2541 87.1706 74.5047 84.448L52.166 60.184L60.1451 52.2066ZM57.5523 49.8273L49.7826 57.5954L47.4095 55.0177L54.9697 47.457L57.5523 49.8273ZM72.422 31.6401C70.8846 31.6401 69.3725 31.3936 67.9292 30.9075C67.2967 30.6953 66.5977 30.8587 66.1253 31.3305C57.3126 40.1429 38.3235 59.1307 31.3312 66.1235C30.8588 66.5959 30.6947 67.2949 30.9082 67.928C32.3695 72.2669 31.6704 76.8949 28.9897 80.6269C26.3165 84.3478 22.1567 86.4826 17.578 86.4826C17.0637 86.4826 16.5521 86.4544 16.0453 86.4002L21.6286 80.8603C21.961 80.5307 22.1484 80.0816 22.1484 79.6127V74.64C22.1484 74.1738 21.963 73.7267 21.6334 73.3972L16.6008 68.3647C16.2712 68.0351 15.8242 67.8497 15.358 67.8497H10.3851C9.91615 67.8497 9.46707 68.0372 9.13678 68.3695L3.59745 73.9527C3.54251 73.4459 3.51505 72.9344 3.51505 72.4201C3.51505 67.8408 5.64921 63.6818 9.37094 61.0087C13.1023 58.328 17.7311 57.6283 22.0708 59.0902C22.7033 59.3037 23.4023 59.1396 23.8747 58.6672C23.9715 58.5711 58.6441 23.8989 58.6688 23.8742C59.1412 23.4018 59.3046 22.7034 59.0918 22.0703C57.6299 17.7314 58.3275 13.1048 61.0062 9.37563C63.6814 5.65127 67.842 3.5158 72.4213 3.5158C72.9514 3.5158 73.4781 3.54532 74 3.603L68.5327 9.15179C68.2086 9.48069 68.0274 9.92358 68.0274 10.385V15.3577C68.0274 15.8136 68.2038 16.251 68.5204 16.5786L73.3772 21.611C73.7082 21.9543 74.1648 22.1479 74.642 22.1479H79.6149C80.0832 22.1479 80.5322 21.9612 80.8625 21.6281L86.4019 16.0457C86.4568 16.5525 86.4843 17.064 86.4843 17.5783C86.4843 25.3319 80.1759 31.6401 72.422 31.6401Z" fill="black" fill-opacity="0.4"/>
<path d="M54.756 32.7581L32.7586 54.7549C32.0726 55.4408 32.0726 56.5539 32.7586 57.2405C33.4453 57.9272 34.5584 57.9272 35.245 57.2405L57.2424 35.2438C57.9291 34.5578 57.9291 33.4448 57.2424 32.7581C56.5557 32.0715 55.4427 32.0715 54.756 32.7581Z" fill="black" fill-opacity="0.4"/>
<path d="M76.969 79.4532C77.6556 80.1378 78.7687 80.1378 79.4554 79.4491C80.1407 78.7618 80.1386 77.6487 79.4513 76.9634L63.6064 61.1699C62.9191 60.4846 61.8053 60.4867 61.1207 61.174C60.4347 61.862 60.4368 62.9744 61.1241 63.6597L76.969 79.4532Z" fill="black" fill-opacity="0.4"/>
</svg>
