<svg width="90" height="100" viewBox="0 0 90 100" fill="none" xmlns="http://www.w3.org/2000/svg">
<path d="M72.3921 7.8125C71.3121 7.8125 70.4355 8.68749 70.4355 9.76561C70.4355 10.8437 71.3121 11.7187 72.3921 11.7187C73.4721 11.7187 74.3486 10.8437 74.3486 9.76561C74.3486 8.68749 73.4721 7.8125 72.3921 7.8125Z" fill="black" fill-opacity="0.4"/>
<path d="M43.0434 88.2803C41.9634 88.2803 41.0869 89.1553 41.0869 90.2334C41.0869 91.3115 41.9634 92.1865 43.0434 92.1865C44.1234 92.1865 45 91.3115 45 90.2334C45 89.1553 44.1234 88.2803 43.0434 88.2803Z" fill="black" fill-opacity="0.4"/>
<path d="M84.1304 11.7187H82.1739V5.85933C82.1739 2.62849 79.5408 0 76.3043 0H9.78261C6.54613 0 3.91304 2.62849 3.91304 5.85933V11.7187H1.95652C0.875935 11.7187 0 12.5933 0 13.6718C0 14.7503 0.875935 15.6249 1.95652 15.6249H3.91304V22.0701C3.91304 25.301 6.54613 27.9295 9.78261 27.9295H76.3043C79.5408 27.9295 82.1739 25.301 82.1739 22.0701V15.6249H84.1304C85.2093 15.6249 86.087 16.501 86.087 17.578V30.4373C86.087 31.4087 85.3893 32.2208 84.428 32.3683C84.4133 32.3706 84.3985 32.373 84.3836 32.3755L46.0399 39.1649C43.1683 39.6173 41.087 42.0475 41.087 44.9528V47.4606H35.2174C33.6502 47.4606 32.1764 48.0701 31.0674 49.1773C29.9585 50.2844 29.3478 51.7554 29.3478 53.3199C29.3478 56.4615 31.8377 59.0329 34.9511 59.1724L31.412 86.6925V86.6927C31.412 86.6934 31.4118 86.694 31.4118 86.6946L31.4104 86.7056C31.4102 86.7065 31.4104 86.7075 31.4102 86.7083C31.3402 87.2309 31.3045 87.7598 31.3045 88.2803C31.3045 94.742 36.5707 99.999 43.0437 99.999C49.5166 99.999 54.7828 94.742 54.7828 88.2803C54.7828 87.7606 54.7472 87.2325 54.6773 86.7106C54.6772 86.7089 54.6772 86.7073 54.677 86.7056L51.1362 59.1726C52.6034 59.1075 53.974 58.5066 55.0197 57.4624C56.1285 56.3556 56.7391 54.8843 56.7391 53.3199C56.7391 50.089 54.106 47.4606 50.8696 47.4606H45V44.9528C45 43.9813 45.6977 43.1692 46.6589 43.0217C46.6736 43.0194 46.6885 43.017 46.7033 43.0145L85.0471 36.2251C87.9181 35.7726 90 33.3425 90 30.4373V17.578C90 14.3471 87.3669 11.7187 84.1304 11.7187ZM78.2609 22.0701C78.2609 23.1471 77.3832 24.0232 76.3043 24.0232H9.78261C8.70378 24.0232 7.82609 23.1471 7.82609 22.0701V5.85933C7.82609 4.78238 8.70378 3.90622 9.78261 3.90622H76.3043C77.3832 3.90622 78.2609 4.78238 78.2609 5.85933V22.0701ZM43.0435 96.093C38.7282 96.093 35.2174 92.5883 35.2174 88.2805C35.2174 87.929 35.2418 87.5708 35.2898 87.2159C35.2902 87.2136 35.29 87.2114 35.2904 87.2091C35.2906 87.2071 35.2912 87.2052 35.2913 87.203L38.8953 59.1792H47.1915L50.7954 87.203C50.7958 87.2054 50.7964 87.2077 50.7966 87.21C50.7968 87.212 50.7968 87.2139 50.7972 87.2159C50.8453 87.5708 50.8696 87.929 50.8696 88.2805C50.8696 92.5883 47.3588 96.093 43.0435 96.093ZM50.8696 51.3668C51.9484 51.3668 52.8261 52.2429 52.8261 53.3199C52.8261 53.841 52.6224 54.3312 52.2524 54.7003C51.8825 55.0695 51.3916 55.273 50.8696 55.273H48.913H37.1739H35.2174C34.1386 55.273 33.2609 54.3968 33.2609 53.3199C33.2609 52.7988 33.4645 52.3084 33.8343 51.9394C34.2041 51.5701 34.6954 51.3668 35.2174 51.3668H50.8696Z" fill="black" fill-opacity="0.4"/>
<path d="M64.5653 7.8125H13.6958C12.6152 7.8125 11.7393 8.6871 11.7393 9.76561C11.7393 10.8441 12.6152 11.7187 13.6958 11.7187H64.5653C65.6457 11.7187 66.5219 10.8441 66.5219 9.76561C66.5219 8.6871 65.6457 7.8125 64.5653 7.8125Z" fill="black" fill-opacity="0.4"/>
</svg>
