<svg width="120" height="70" viewBox="0 0 120 70" fill="none" xmlns="http://www.w3.org/2000/svg">
<path d="M111.566 0H28.5321C27.5593 0 26.7706 0.758183 26.7706 1.69389C26.7706 2.62959 27.5593 3.38777 28.5321 3.38777H111.566C114.274 3.38777 116.477 5.50626 116.477 8.11032V44.1768C116.477 46.7808 114.274 48.8993 111.566 48.8993H107.348V37.8626C107.348 36.9269 106.559 36.1688 105.586 36.1688H14.4138C13.441 36.1688 12.6522 36.9269 12.6522 37.8626V48.8993H8.43436C5.72625 48.8993 3.52313 46.7808 3.52313 44.1768V8.11032C3.52313 5.50626 5.72625 3.38777 8.43436 3.38777H21.4859C22.4587 3.38777 23.2475 2.62959 23.2475 1.69389C23.2475 0.758183 22.4587 0 21.4859 0H8.43436C3.7836 0 0 3.63824 0 8.11032V44.1768C0 48.6489 3.7836 52.2871 8.43436 52.2871H26.7713C27.7441 52.2871 28.5329 51.5289 28.5329 50.5932C28.5329 49.6577 27.7441 48.8993 26.7713 48.8993H16.1754V45.9217H86.1825C87.1553 45.9217 87.944 45.1635 87.944 44.2278C87.944 43.2921 87.1553 42.5339 86.1825 42.5339H16.1754V39.5563H103.824V42.5339H93.2287C92.2559 42.5339 91.4671 43.2921 91.4671 44.2278C91.4671 45.1635 92.2559 45.9217 93.2287 45.9217H103.824V48.8993H33.8173C32.8445 48.8993 32.0557 49.6577 32.0557 50.5932C32.0557 51.5289 32.8445 52.2871 33.8173 52.2871H111.566C116.216 52.2871 120 48.6489 120 44.1768V8.11032C120 3.63847 116.216 0 111.566 0Z" fill="black" fill-opacity="0.4"/>
<path d="M105.589 13.7725C106.561 13.7725 107.35 13.0144 107.35 12.0787C107.35 11.1429 106.561 10.3848 105.589 10.3848H100.379C99.4059 10.3848 98.6172 11.1429 98.6172 12.0787C98.6172 13.0144 99.4059 13.7725 100.379 13.7725H105.589Z" fill="black" fill-opacity="0.4"/>
<path d="M92.3379 13.7725C93.3107 13.7725 94.0994 13.0144 94.0994 12.0787C94.0994 11.1429 93.3107 10.3848 92.3379 10.3848H58.9959C58.0231 10.3848 57.2344 11.1429 57.2344 12.0787C57.2344 13.0144 58.0231 13.7725 58.9959 13.7725H92.3379Z" fill="black" fill-opacity="0.4"/>
<path d="M33.1336 56.8193C32.1608 56.8193 31.3721 57.5775 31.3721 58.5132C31.3721 58.5636 31.3155 63.5852 26.4287 66.9251C25.6357 67.4669 25.4497 68.5245 26.0134 69.287C26.357 69.752 26.8996 69.9998 27.4508 69.9998C27.8039 69.9998 28.1604 69.8979 28.47 69.6863C34.8224 65.3446 34.8954 58.7899 34.8954 58.513C34.8952 57.5775 34.1065 56.8193 33.1336 56.8193Z" fill="black" fill-opacity="0.4"/>
<path d="M45.7498 56.8193C44.777 56.8193 43.9883 57.5775 43.9883 58.5132V68.3057C43.9883 69.2414 44.777 69.9996 45.7498 69.9996C46.7227 69.9996 47.5114 69.2414 47.5114 68.3057V58.5132C47.5114 57.5775 46.7227 56.8193 45.7498 56.8193Z" fill="black" fill-opacity="0.4"/>
<path d="M60.4959 56.8193C59.5231 56.8193 58.7344 57.5775 58.7344 58.5132V68.3057C58.7344 69.2414 59.5231 69.9996 60.4959 69.9996C61.4688 69.9996 62.2575 69.2414 62.2575 68.3057V58.5132C62.2575 57.5775 61.4688 56.8193 60.4959 56.8193Z" fill="black" fill-opacity="0.4"/>
<path d="M93.5681 66.9251C88.7471 63.6301 88.6273 58.7309 88.6247 58.5055C88.6205 57.5735 87.8334 56.8193 86.8631 56.8193C85.8903 56.8193 85.1016 57.5775 85.1016 58.5132C85.1016 58.7901 85.1746 65.3448 91.527 69.6865C91.8366 69.8982 92.1931 70 92.5462 70C93.0972 69.9998 93.64 69.7518 93.9836 69.2872C94.5471 68.5245 94.361 67.4669 93.5681 66.9251Z" fill="black" fill-opacity="0.4"/>
<path d="M74.2498 56.8193C73.277 56.8193 72.4883 57.5775 72.4883 58.5132V68.3057C72.4883 69.2414 73.277 69.9996 74.2498 69.9996C75.2227 69.9996 76.0114 69.2414 76.0114 68.3057V58.5132C76.0114 57.5775 75.2227 56.8193 74.2498 56.8193Z" fill="black" fill-opacity="0.4"/>
</svg>
