<svg width="100" height="100" viewBox="0 0 100 100" fill="none" xmlns="http://www.w3.org/2000/svg">
<path d="M96.7571 89.8183H95.7202V55.7404C95.7202 54.9543 95.0688 54.3172 94.265 54.3172C93.4612 54.3172 92.8098 54.9543 92.8098 55.7404V89.8183H87.8333V9.13711C87.8333 8.38477 87.2362 7.77051 86.4805 7.71895C86.4647 7.71777 86.449 7.71719 86.4332 7.7166C86.4148 7.71602 86.3968 7.71387 86.3783 7.71387H13.6219C13.6044 7.71387 13.5872 7.71582 13.5696 7.71641C13.5492 7.71719 13.5289 7.71777 13.5085 7.71934C13.4664 7.72246 13.425 7.72773 13.3841 7.73437C13.3711 7.73652 13.3581 7.73769 13.3454 7.74023C13.2888 7.75078 13.2335 7.76445 13.1796 7.78125C13.176 7.78242 13.1726 7.78398 13.169 7.78496C13.1189 7.80098 13.0704 7.81992 13.0228 7.84102C13.0101 7.84668 12.9977 7.85273 12.9851 7.85879C12.945 7.87793 12.9058 7.89883 12.8677 7.92148C12.8599 7.92598 12.8517 7.9293 12.8441 7.93418C12.8399 7.93691 12.8361 7.94004 12.8319 7.94277C12.7842 7.97305 12.7381 8.00508 12.6945 8.04023C12.6929 8.0416 12.6915 8.04297 12.6901 8.04414C12.6494 8.07754 12.6109 8.11328 12.5741 8.15078C12.5625 8.1625 12.5515 8.175 12.5404 8.18711C12.5134 8.21641 12.4878 8.24668 12.4635 8.27812C12.4537 8.29082 12.4437 8.30312 12.4345 8.31602C12.4048 8.35703 12.377 8.39941 12.3518 8.44355C12.3502 8.44629 12.3485 8.44883 12.3469 8.45156C12.3195 8.5002 12.2955 8.55078 12.274 8.60273C12.27 8.6125 12.2668 8.62246 12.263 8.63223C12.247 8.67344 12.2328 8.71543 12.2206 8.75859C12.2165 8.77324 12.2127 8.78809 12.2091 8.80293C12.1991 8.84316 12.1913 8.88398 12.1849 8.92539C12.1827 8.94023 12.1797 8.95488 12.1779 8.96973C12.1713 9.02461 12.1669 9.08027 12.1669 9.13691V89.8181H7.1904V55.7463C7.1904 54.9601 6.53898 54.323 5.73519 54.323C4.93139 54.323 4.27997 54.9601 4.27997 55.7463V89.8183H3.24313C1.45501 89.8183 0 91.2414 0 92.9902V96.8285C0 98.5773 1.45501 100 3.24313 100H96.7569C98.545 100 100 98.5773 100 96.8285V92.9902C100 91.2414 98.5454 89.8183 96.7571 89.8183ZM84.9179 11.3877V89.8183H82.9622L64.6593 83.1267V20.7885L84.9179 11.3877ZM79.911 10.5604L63.265 18.2848C62.3298 18.7187 61.7489 19.5834 61.7489 20.5412V83.3937C61.7489 84.4308 62.4332 85.3515 63.4926 85.7392L74.6505 89.8183H25.3445L36.5026 85.739C37.5618 85.3517 38.2462 84.4312 38.2462 83.3937V20.5414C38.2462 19.5838 37.6654 18.7191 36.7302 18.285L20.0838 10.5604H79.911ZM15.077 11.3877L35.3355 20.7885V83.1271L17.0326 89.8185H15.077V11.3877ZM96.7573 97.1541H3.24333C3.0598 97.1541 2.91043 97.008 2.91043 96.8285V92.9902C2.91043 92.8107 3.0598 92.6646 3.24333 92.6646H5.73519H13.6219H17.2958H82.699H86.3729H86.3783H94.2652H96.7571C96.9406 92.6646 97.09 92.8107 97.09 92.9902V96.8285C97.0902 97.008 96.9408 97.1541 96.7573 97.1541Z" fill="black" fill-opacity="0.4"/>
<path d="M91.955 0H8.04542C5.96914 0 4.28027 1.65195 4.28027 3.68262V48.8931C4.28027 49.6793 4.9317 50.3164 5.73549 50.3164C6.53928 50.3164 7.1907 49.6793 7.1907 48.8931V3.68262C7.1907 3.22148 7.57433 2.84629 8.04582 2.84629H91.9554C92.4269 2.84629 92.8105 3.22148 92.8105 3.68262V48.9681C92.8105 49.7543 93.4619 50.3914 94.2657 50.3914C95.0695 50.3914 95.7209 49.7543 95.7209 48.9681V3.68262C95.7205 1.65195 94.0315 0 91.955 0Z" fill="black" fill-opacity="0.4"/>
<path d="M80.1792 18.1699C79.9052 18.1699 79.632 18.2328 79.3891 18.3514L69.2276 23.3227C68.6499 23.6051 68.291 24.1668 68.291 24.7885V48.6391C68.2908 49.5578 69.084 50.3105 70.0586 50.3166L80.2079 50.3809C80.2111 50.3809 80.2171 50.3809 80.2203 50.3809C81.1872 50.3809 81.9737 49.634 81.9737 48.7156V19.8709C81.9737 18.933 81.1689 18.1699 80.1792 18.1699ZM79.063 47.5273L71.2008 47.4777V25.5395L79.063 21.6934V47.5273Z" fill="black" fill-opacity="0.4"/>
<path d="M80.2033 52.3926L70.0528 52.4924C69.0814 52.5025 68.291 53.2559 68.291 54.1715V79.2422C68.2908 79.9141 68.7108 80.5119 69.3626 80.7662L79.5229 84.7139C79.7316 84.7949 79.9519 84.8359 80.1784 84.8359C81.1683 84.8359 81.9737 84.0723 81.9737 83.1338V54.0566C81.9737 53.1391 81.1878 52.3926 80.2033 52.3926ZM79.0632 81.4725L71.201 78.4178V55.3275L79.0632 55.25V81.4725Z" fill="black" fill-opacity="0.4"/>
<path d="M29.9416 52.4924L19.7735 52.3926C18.8073 52.3926 18.0215 53.1391 18.0215 54.0566V83.1338C18.0213 84.0723 18.8267 84.8359 19.8166 84.8359C20.043 84.8359 20.2633 84.7947 20.4716 84.7139L30.6331 80.766C31.2838 80.5129 31.7039 79.9146 31.7039 79.2424V54.1715C31.7039 53.2559 30.9135 52.5025 29.9416 52.4924ZM28.7937 78.4182L20.9315 81.4727V55.2504L28.7937 55.3277V78.4182Z" fill="black" fill-opacity="0.4"/>
<path d="M30.7662 23.3227L20.6038 18.3514C20.3612 18.2328 20.088 18.1699 19.814 18.1699C18.8245 18.1699 18.0195 18.933 18.0195 19.8709V48.7158C18.0195 49.634 18.8061 50.381 19.7727 50.381C19.7759 50.381 19.7817 50.381 19.7849 50.381L29.9344 50.3168C30.9092 50.3107 31.7022 49.558 31.7022 48.6391V24.7885C31.7022 24.1674 31.3439 23.6059 30.7662 23.3227ZM28.792 47.4777L20.9298 47.5273V21.6934L28.792 25.5395V47.4777Z" fill="black" fill-opacity="0.4"/>
</svg>
