<svg width="70" height="105" viewBox="0 0 70 105" fill="none" xmlns="http://www.w3.org/2000/svg">
<path d="M68.399 0H1.60145C0.717199 0 0.000212955 0.690088 0.000212955 1.54116V60.9041C0.000212955 61.7552 0.717199 62.4453 1.60145 62.4453C2.48569 62.4453 3.20268 61.7554 3.20268 60.9041V3.08212H66.798V101.918H63.1847V81.0838C63.1847 80.2327 62.4677 79.5426 61.5835 79.5426C60.6992 79.5426 59.9822 80.2327 59.9822 81.0838V101.918H10.0182V9.64216H59.9822V74.9195C59.9822 75.7706 60.699 76.4607 61.5835 76.4607C62.4677 76.4607 63.1847 75.7706 63.1847 74.9195V8.101C63.1847 7.24992 62.4677 6.55983 61.5835 6.55983H8.41697C7.53272 6.55983 6.81573 7.24972 6.81573 8.101V101.918H3.20247V67.0685C3.20247 66.2175 2.48548 65.5274 1.60123 65.5274C0.716986 65.5274 0 66.2173 0 67.0685V103.459C0 104.31 0.716986 105 1.60123 105H68.3988C69.283 105 70 104.31 70 103.459V1.54116C70.0002 0.690088 69.2832 0 68.399 0V0Z" fill="black" fill-opacity="0.4"/>
<path d="M17.3141 34.3716C16.4299 34.3716 15.7129 35.0617 15.7129 35.9127V50.6562C15.7129 51.5073 16.4299 52.1974 17.3141 52.1974H52.6864C53.5706 52.1974 54.2876 51.5073 54.2876 50.6562V16.4611C54.2876 15.61 53.5706 14.9199 52.6864 14.9199H17.3141C16.4299 14.9199 15.7129 15.6098 15.7129 16.4611V29.7483C15.7129 30.5994 16.4299 31.2895 17.3141 31.2895C18.1984 31.2895 18.9154 30.5994 18.9154 29.7483V18.0022H51.0851V49.1151H18.9151V35.9125C18.9151 35.0615 18.1984 34.3716 17.3141 34.3716Z" fill="black" fill-opacity="0.4"/>
<path d="M15.7129 95.0996C15.7129 95.9507 16.4299 96.6407 17.3141 96.6407H52.6864C53.5706 96.6407 54.2876 95.9509 54.2876 95.0996V60.9044C54.2876 60.0534 53.5706 59.3633 52.6864 59.3633H17.3141C16.4299 59.3633 15.7129 60.0532 15.7129 60.9044V95.0996ZM18.9151 62.4456H51.0849V93.5584H18.9151V62.4456Z" fill="black" fill-opacity="0.4"/>
<path d="M58.5056 55.7803C58.5056 54.1762 57.1496 52.8711 55.483 52.8711C54.4048 52.8711 53.4592 53.4191 52.924 54.2392H49.1032C48.2189 54.2392 47.502 54.929 47.502 55.7803C47.502 56.6314 48.2189 57.3215 49.1032 57.3215H52.924C53.4592 58.1416 54.4046 58.6896 55.483 58.6896C57.1496 58.6896 58.5056 57.3844 58.5056 55.7803Z" fill="black" fill-opacity="0.4"/>
</svg>
