<svg width="100" height="100" viewBox="0 0 100 100" fill="none" xmlns="http://www.w3.org/2000/svg">
<path d="M93.3333 28.3333V26.6667H95C96.3261 26.6667 97.5978 26.1399 98.5355 25.2022C99.4732 24.2645 100 22.9927 100 21.6667V15C100 13.6739 99.4732 12.4021 98.5355 11.4645C97.5978 10.5268 96.3261 10 95 10H93.3333V8.33333C93.3307 6.12401 92.4519 4.00593 90.8896 2.4437C89.3274 0.88147 87.2093 0.00264643 85 0H15C12.7907 0.00264643 10.6726 0.88147 9.11037 2.4437C7.54814 4.00593 6.66931 6.12401 6.66667 8.33333V28.3333C6.66909 30.2537 7.33348 32.1145 8.54786 33.6021C9.76224 35.0897 11.4524 36.1132 13.3333 36.5V40H1.66667C1.22464 40 0.800716 40.1756 0.488155 40.4882C0.175595 40.8007 0 41.2246 0 41.6667V48.3333C0 48.7754 0.175595 49.1993 0.488155 49.5118C0.800716 49.8244 1.22464 50 1.66667 50H13.3333V83.3333H11.6667C10.3406 83.3333 9.06881 83.8601 8.13113 84.7978C7.19345 85.7355 6.66667 87.0072 6.66667 88.3333V95C6.66667 96.3261 7.19345 97.5978 8.13113 98.5355C9.06881 99.4732 10.3406 100 11.6667 100H88.3333C89.6594 100 90.9312 99.4732 91.8689 98.5355C92.8065 97.5978 93.3333 96.3261 93.3333 95V88.3333C93.3333 87.0072 92.8065 85.7355 91.8689 84.7978C90.9312 83.8601 89.6594 83.3333 88.3333 83.3333H86.6667V43.3333H93.3333V46.6667H91.6667C91.2246 46.6667 90.8007 46.8423 90.4882 47.1548C90.1756 47.4674 90 47.8913 90 48.3333V61.6667C90 62.1087 90.1756 62.5326 90.4882 62.8452C90.8007 63.1577 91.2246 63.3333 91.6667 63.3333H98.3333C98.7754 63.3333 99.1993 63.1577 99.5118 62.8452C99.8244 62.5326 100 62.1087 100 61.6667V48.3333C100 47.8913 99.8244 47.4674 99.5118 47.1548C99.1993 46.8423 98.7754 46.6667 98.3333 46.6667H96.6667V41.6667C96.6667 41.2246 96.4911 40.8007 96.1785 40.4882C95.866 40.1756 95.442 40 95 40H86.6667V36.5C88.5476 36.1132 90.2378 35.0897 91.4521 33.6021C92.6665 32.1145 93.3309 30.2537 93.3333 28.3333ZM95 13.3333C95.442 13.3333 95.866 13.5089 96.1785 13.8215C96.4911 14.134 96.6667 14.558 96.6667 15V21.6667C96.6667 22.1087 96.4911 22.5326 96.1785 22.8452C95.866 23.1577 95.442 23.3333 95 23.3333H93.3333V13.3333H95ZM96.6667 60H93.3333V50H96.6667V60ZM10 28.3333V8.33333C10 7.00725 10.5268 5.73548 11.4645 4.7978C12.4021 3.86012 13.6739 3.33333 15 3.33333H85C86.3261 3.33333 87.5978 3.86012 88.5355 4.7978C89.4732 5.73548 90 7.00725 90 8.33333V28.3333C90 29.6594 89.4732 30.9312 88.5355 31.8689C87.5978 32.8065 86.3261 33.3333 85 33.3333H15C13.6739 33.3333 12.4021 32.8065 11.4645 31.8689C10.5268 30.9312 10 29.6594 10 28.3333ZM48.3333 50H51.6667V53.3333H48.3333V50ZM38.3333 46.6667V36.6667H61.6667V46.6667H38.3333ZM16.6667 36.6667H35V40H16.6667V36.6667ZM3.33333 43.3333H35V46.6667H3.33333V43.3333ZM90 88.3333V95C90 95.442 89.8244 95.866 89.5118 96.1785C89.1993 96.4911 88.7754 96.6667 88.3333 96.6667H11.6667C11.2246 96.6667 10.8007 96.4911 10.4882 96.1785C10.1756 95.866 10 95.442 10 95V88.3333C10 87.8913 10.1756 87.4674 10.4882 87.1548C10.8007 86.8423 11.2246 86.6667 11.6667 86.6667H88.3333C88.7754 86.6667 89.1993 86.8423 89.5118 87.1548C89.8244 87.4674 90 87.8913 90 88.3333ZM38.4667 73.3333H61.5333C61.1348 76.1081 59.7493 78.6462 57.6309 80.4821C55.5125 82.318 52.8032 83.3286 50 83.3286C47.1968 83.3286 44.4875 82.318 42.3691 80.4821C40.2507 78.6462 38.8652 76.1081 38.4667 73.3333ZM65 71.6667V66.6667H68.3333C69.2174 66.6667 70.0652 67.0179 70.6904 67.643C71.3155 68.2681 71.6667 69.1159 71.6667 70C71.6667 70.8841 71.3155 71.7319 70.6904 72.357C70.0652 72.9821 69.2174 73.3333 68.3333 73.3333H64.9017C64.9656 72.7801 64.9984 72.2236 65 71.6667ZM61.6667 70H38.3333V66.6667H61.6667V70ZM83.3333 83.3333H59.4067C61.5641 81.5887 63.197 79.2814 64.125 76.6667H68.3333C70.1014 76.6667 71.7971 75.9643 73.0474 74.714C74.2976 73.4638 75 71.7681 75 70C75 68.2319 74.2976 66.5362 73.0474 65.286C71.7971 64.0357 70.1014 63.3333 68.3333 63.3333H36.6667C36.2246 63.3333 35.8007 63.5089 35.4882 63.8215C35.1756 64.134 35 64.558 35 65V71.6667C35.0006 73.9058 35.5033 76.1163 36.4714 78.1354C37.4394 80.1545 38.8479 81.9307 40.5933 83.3333H16.6667V50H45V55C45 55.442 45.1756 55.866 45.4882 56.1785C45.8007 56.4911 46.2246 56.6667 46.6667 56.6667H53.3333C53.7754 56.6667 54.1993 56.4911 54.5118 56.1785C54.8244 55.866 55 55.442 55 55V50H63.3333C63.7754 50 64.1993 49.8244 64.5118 49.5118C64.8244 49.1993 65 48.7754 65 48.3333V36.6667H69.9867C69.9867 38.0917 69.9867 40.1767 69.975 41.6667C69.975 42.1087 70.1506 42.5326 70.4632 42.8452C70.7757 43.1577 71.1996 43.3333 71.6417 43.3333H83.3333V83.3333ZM73.315 40C73.315 38.555 73.315 37.48 73.315 36.6667H83.3333V40H73.315Z" fill="black" fill-opacity="0.4"/>
<path d="M50.0007 30.0003C52.3081 30.0003 54.5637 29.3161 56.4823 28.0341C58.4009 26.7522 59.8962 24.9301 60.7792 22.7983C61.6623 20.6665 61.8933 18.3207 61.4431 16.0576C60.993 13.7945 59.8818 11.7157 58.2502 10.0841C56.6186 8.45247 54.5398 7.34133 52.2767 6.89117C50.0136 6.44101 47.6678 6.67205 45.536 7.55507C43.4042 8.43809 41.5821 9.93344 40.3002 11.852C39.0182 13.7706 38.334 16.0262 38.334 18.3337C38.3375 21.4268 39.5678 24.3922 41.755 26.5793C43.9421 28.7665 46.9075 29.9968 50.0007 30.0003ZM48.334 10.167V18.3337H51.6673V10.167C53.6907 10.58 55.4887 11.7296 56.7126 13.393C57.9366 15.0563 58.4994 17.1149 58.2918 19.1695C58.0842 21.2242 57.1211 23.1286 55.5892 24.5136C54.0573 25.8985 52.0658 26.6653 50.0007 26.6653C47.9355 26.6653 45.944 25.8985 44.4121 24.5136C42.8802 23.1286 41.9171 21.2242 41.7095 19.1695C41.502 17.1149 42.0647 15.0563 43.2887 13.393C44.5126 11.7296 46.3106 10.58 48.334 10.167Z" fill="black" fill-opacity="0.4"/>
<path d="M18.334 16.667C19.3229 16.667 20.2896 16.3737 21.1118 15.8243C21.9341 15.2749 22.5749 14.494 22.9534 13.5804C23.3318 12.6668 23.4308 11.6614 23.2379 10.6915C23.045 9.72164 22.5688 8.83072 21.8695 8.13146C21.1703 7.4322 20.2793 6.95599 19.3094 6.76307C18.3395 6.57014 17.3342 6.66916 16.4206 7.0476C15.5069 7.42603 14.726 8.0669 14.1766 8.88914C13.6272 9.71139 13.334 10.6781 13.334 11.667C13.334 12.9931 13.8608 14.2648 14.7984 15.2025C15.7361 16.1402 17.0079 16.667 18.334 16.667ZM18.334 10.0003C18.6636 10.0003 18.9859 10.0981 19.2599 10.2812C19.534 10.4643 19.7476 10.7246 19.8738 11.0292C19.9999 11.3337 20.0329 11.6688 19.9686 11.9921C19.9043 12.3154 19.7456 12.6124 19.5125 12.8455C19.2794 13.0786 18.9824 13.2373 18.6591 13.3016C18.3358 13.3659 18.0007 13.3329 17.6962 13.2068C17.3916 13.0806 17.1313 12.867 16.9482 12.5929C16.7651 12.3189 16.6673 11.9966 16.6673 11.667C16.6673 11.225 16.8429 10.801 17.1555 10.4885C17.468 10.1759 17.892 10.0003 18.334 10.0003Z" fill="black" fill-opacity="0.4"/>
<path d="M23.334 25C23.334 24.0111 23.0407 23.0444 22.4913 22.2222C21.9419 21.3999 21.161 20.759 20.2474 20.3806C19.3338 20.0022 18.3284 19.9031 17.3585 20.0961C16.3886 20.289 15.4977 20.7652 14.7985 21.4645C14.0992 22.1637 13.623 23.0546 13.4301 24.0245C13.2371 24.9945 13.3362 25.9998 13.7146 26.9134C14.093 27.8271 14.7339 28.6079 15.5561 29.1574C16.3784 29.7068 17.3451 30 18.334 30C19.6601 30 20.9318 29.4732 21.8695 28.5355C22.8072 27.5979 23.334 26.3261 23.334 25ZM16.6673 25C16.6673 24.6704 16.7651 24.3481 16.9482 24.0741C17.1313 23.8 17.3916 23.5863 17.6962 23.4602C18.0007 23.3341 18.3358 23.3011 18.6591 23.3654C18.9824 23.4297 19.2794 23.5884 19.5125 23.8215C19.7456 24.0546 19.9043 24.3515 19.9686 24.6749C20.0329 24.9982 19.9999 25.3333 19.8738 25.6378C19.7476 25.9424 19.534 26.2027 19.2599 26.3858C18.9859 26.5689 18.6636 26.6667 18.334 26.6667C17.892 26.6667 17.468 26.4911 17.1555 26.1785C16.8429 25.866 16.6673 25.442 16.6673 25Z" fill="black" fill-opacity="0.4"/>
<path d="M81.665 16.667C82.6539 16.667 83.6206 16.3737 84.4429 15.8243C85.2651 15.2749 85.906 14.494 86.2844 13.5804C86.6629 12.6668 86.7619 11.6614 86.569 10.6915C86.376 9.72164 85.8998 8.83072 85.2006 8.13146C84.5013 7.4322 83.6104 6.95599 82.6405 6.76307C81.6706 6.57014 80.6653 6.66916 79.7516 7.0476C78.838 7.42603 78.0571 8.0669 77.5077 8.88914C76.9583 9.71139 76.665 10.6781 76.665 11.667C76.665 12.9931 77.1918 14.2648 78.1295 15.2025C79.0672 16.1402 80.339 16.667 81.665 16.667ZM81.665 10.0003C81.9947 10.0003 82.3169 10.0981 82.591 10.2812C82.8651 10.4643 83.0787 10.7246 83.2048 11.0292C83.331 11.3337 83.364 11.6688 83.2997 11.9921C83.2354 12.3154 83.0766 12.6124 82.8436 12.8455C82.6105 13.0786 82.3135 13.2373 81.9902 13.3016C81.6669 13.3659 81.3318 13.3329 81.0272 13.2068C80.7227 13.0806 80.4624 12.867 80.2793 12.5929C80.0961 12.3189 79.9984 11.9966 79.9984 11.667C79.9984 11.225 80.174 10.801 80.4865 10.4885C80.7991 10.1759 81.223 10.0003 81.665 10.0003Z" fill="black" fill-opacity="0.4"/>
<path d="M81.665 30C82.6539 30 83.6206 29.7068 84.4429 29.1574C85.2651 28.6079 85.906 27.8271 86.2844 26.9134C86.6629 25.9998 86.7619 24.9945 86.569 24.0245C86.376 23.0546 85.8998 22.1637 85.2006 21.4645C84.5013 20.7652 83.6104 20.289 82.6405 20.0961C81.6706 19.9031 80.6653 20.0022 79.7516 20.3806C78.838 20.759 78.0571 21.3999 77.5077 22.2222C76.9583 23.0444 76.665 24.0111 76.665 25C76.665 26.3261 77.1918 27.5979 78.1295 28.5355C79.0672 29.4732 80.339 30 81.665 30ZM81.665 23.3333C81.9947 23.3333 82.3169 23.4311 82.591 23.6142C82.8651 23.7974 83.0787 24.0577 83.2048 24.3622C83.331 24.6667 83.364 25.0019 83.2997 25.3252C83.2354 25.6485 83.0766 25.9454 82.8436 26.1785C82.6105 26.4116 82.3135 26.5703 81.9902 26.6346C81.6669 26.699 81.3318 26.6659 81.0272 26.5398C80.7227 26.4137 80.4624 26.2 80.2793 25.926C80.0961 25.6519 79.9984 25.3296 79.9984 25C79.9984 24.558 80.174 24.1341 80.4865 23.8215C80.7991 23.5089 81.223 23.3333 81.665 23.3333Z" fill="black" fill-opacity="0.4"/>
<path d="M26.665 10H33.3317V13.3333H26.665V10Z" fill="black" fill-opacity="0.4"/>
<path d="M26.665 23.333H33.3317V26.6663H26.665V23.333Z" fill="black" fill-opacity="0.4"/>
<path d="M66.668 10H73.3346V13.3333H66.668V10Z" fill="black" fill-opacity="0.4"/>
<path d="M66.668 23.333H73.3346V26.6663H66.668V23.333Z" fill="black" fill-opacity="0.4"/>
</svg>
