<svg width="100" height="105" viewBox="0 0 100 105" fill="none" xmlns="http://www.w3.org/2000/svg">
<path d="M33.9284 28.0011H26.7855C23.8268 28.0011 21.4283 30.3516 21.4283 33.251C21.4283 36.1505 19.0779 38.5009 16.1784 38.5009H5.35679C2.73536 38.4945 0.496355 40.3528 0.0712223 42.8877C-0.0711932 43.7369 0.00403504 44.578 0.260513 45.3518C1.19692 48.1769 3.66061 50.6876 4.30526 53.5932C7.28453 67.0216 19.4633 76.9775 33.9284 77.0004H34.0357C36.9352 77.0004 39.2856 79.3509 39.2856 82.2503C39.2876 82.7148 39.3519 83.1685 39.4719 83.6023C40.2892 86.5568 42.8571 89.234 42.8571 92.2995V98.0001C42.8571 101.866 46.0551 105 50 105C53.9449 105 57.1429 101.866 57.1429 98.0001V92.2995C57.1429 89.234 59.7108 86.5568 60.5281 83.6023C60.6481 83.1685 60.7124 82.7148 60.7144 82.2503C60.7144 79.3509 63.0648 77.0004 65.9643 77.0004H66.0716C80.5367 76.9775 92.7155 67.0216 95.6947 53.5932C96.3394 50.6876 98.8031 48.1769 99.7395 45.3518C99.996 44.578 100.071 43.7369 99.9288 42.8877C99.5036 40.3528 97.2646 38.4945 94.6432 38.5009H83.8216C80.9221 38.5009 78.5717 36.1505 78.5717 33.251C78.5717 30.3516 76.1732 28.0011 73.2145 28.0011H66.0716C63.1129 28.0011 60.7144 30.3516 60.7144 33.251V35.8224C60.7144 37.3017 59.5151 38.5009 58.0358 38.5009C56.5564 38.5009 55.3572 37.3017 55.3572 35.8224V14.0013C55.353 9.96937 53.5771 6.13451 50.4833 3.47659C47.3896 0.818674 43.2776 -0.404813 39.1981 0.118752C31.9851 1.16471 26.6774 7.2835 26.7855 14.4283V15.7513C26.7855 17.6842 28.3845 19.2512 30.357 19.2512H33.9284C35.9009 19.2512 37.4999 17.6842 37.4999 15.7513V14.0013C37.4989 12.9476 37.9824 11.9495 38.8162 11.2841C39.65 10.6187 40.7454 10.3569 41.7981 10.5714C43.4993 10.9797 44.6822 12.4919 44.6428 14.2078V35.8224C44.6428 37.3017 43.4436 38.5009 41.9642 38.5009C40.4849 38.5009 39.2856 37.3017 39.2856 35.8224V33.251C39.2856 30.3516 36.8871 28.0011 33.9284 28.0011ZM24.9998 33.251C24.9998 32.2845 25.7993 31.5011 26.7855 31.5011H33.9284C34.9147 31.5011 35.7142 32.2845 35.7142 33.251C35.7142 36.1505 33.3637 38.5009 30.4642 38.5009H30.2497C27.3503 38.5009 24.9998 36.1505 24.9998 33.251ZM53.5715 98.0001C53.5715 99.9331 51.9725 101.5 50 101.5C48.0275 101.5 46.4285 99.9331 46.4285 98.0001V91.0717C46.4285 89.0992 48.0275 87.5003 50 87.5003C51.9725 87.5003 53.5715 89.0992 53.5715 91.0717V98.0001ZM57.1429 82.2503C57.1429 83.2168 56.3434 84.0003 55.3572 84.0003H44.6428C43.6566 84.0003 42.8571 83.2168 42.8571 82.2503C42.8571 79.3509 45.2076 77.0004 48.107 77.0004H51.893C54.7924 77.0004 57.1429 79.3509 57.1429 82.2503ZM66.0716 73.5005H33.9284C22.5256 73.4861 12.7053 66.4769 8.86411 56.5029C7.36554 52.6118 10.7435 49.0008 14.9132 49.0008H85.0868C89.2565 49.0008 92.6345 52.6118 91.1359 56.5029C87.2947 66.4769 77.4744 73.4861 66.0716 73.5005ZM96.4289 43.7509C96.4289 44.7174 95.6294 45.5009 94.6432 45.5009H5.35679C4.37056 45.5009 3.57106 44.7174 3.57106 43.7509C3.57106 42.7844 4.37056 42.0009 5.35679 42.0009H94.6432C95.6294 42.0009 96.4289 42.7844 96.4289 43.7509ZM64.2858 33.251C64.2858 32.2845 65.0853 31.5011 66.0716 31.5011H73.2145C74.2007 31.5011 75.0002 32.2845 75.0002 33.251C75.0002 36.1505 72.6497 38.5009 69.7503 38.5009H69.5358C66.6363 38.5009 64.2858 36.1505 64.2858 33.251ZM42.4803 7.13615C40.3805 6.72212 38.2019 7.25338 36.5449 8.58352C34.888 9.91367 33.9276 11.9023 33.9284 14.0013C33.9284 14.9678 33.145 15.7513 32.1785 15.7513H31.68C30.9493 15.7513 30.357 15.159 30.357 14.4283C30.2465 9.04315 34.2211 4.4097 39.6535 3.5907C42.7147 3.19541 45.8012 4.11152 48.1242 6.10484C50.4472 8.09816 51.7814 10.9755 51.7857 14.0013V36.7152C51.7857 37.7015 50.9862 38.5009 50 38.5009C49.0138 38.5009 48.2143 37.7015 48.2143 36.7152V14.2078C48.2704 10.8115 45.869 7.84997 42.4803 7.13615Z" fill="black" fill-opacity="0.4"/>
</svg>
