<svg width="14" height="8" viewBox="0 0 14 8" fill="none" xmlns="http://www.w3.org/2000/svg">
<path d="M0.240429 1.38927L6.43891 7.74722C6.49235 7.80065 6.54579 7.80065 6.54579 7.80065C6.59922 7.85408 6.65266 7.85408 6.65266 7.90751C6.70609 7.90751 6.75953 7.90751 6.81296 7.96094C6.8664 7.96094 6.91983 7.96094 6.97327 7.96094C7.0267 7.96094 7.08014 7.96094 7.13357 7.96094C7.18701 7.96094 7.24045 7.96094 7.29388 7.90751C7.34732 7.90751 7.40075 7.85408 7.45418 7.80065C7.50762 7.80065 7.56106 7.74722 7.56106 7.74722L13.7595 1.4427C14.0802 1.12214 14.0802 0.641282 13.7595 0.320713C13.5992 0.160428 13.3855 0.107 13.2252 0.107C13.0114 0.107 12.7977 0.213856 12.6374 0.320712L7.0267 6.03752L1.36257 0.267283C1.20226 0.106999 0.988523 0.00014239 0.774782 0.000142372C0.561042 0.000142353 0.400736 0.05357 0.24043 0.213855C-0.0801814 0.587852 -0.0801815 1.06871 0.240429 1.38927Z" fill="#9B9BBB"/>
</svg>
