<svg width="59" height="65" viewBox="0 0 59 65" fill="none" xmlns="http://www.w3.org/2000/svg">
<path d="M53.3685 48.9416C56.8929 44.3989 59.0187 38.6972 59.0187 32.5093C59.0187 25.9477 56.6505 19.9468 52.7345 15.2732L57.1726 11.497C50.9817 4.18752 41.9751 0 32.4276 0C14.5449 0 0 14.5815 0 32.5093C0 50.4372 14.5449 65.0187 32.4276 65.0187C42.5718 65.0187 51.9514 60.3825 58.1423 52.3253L53.5364 48.7734C53.4618 48.8108 53.4058 48.8668 53.3685 48.9416ZM43.4109 44.3802C43.2431 44.3241 43.0566 44.2867 42.8515 44.2867C41.9564 44.2867 41.2105 45.0158 41.2105 45.9318C41.2105 46.8292 41.9378 47.5769 42.8515 47.5769C43.0379 47.5769 43.2244 47.5395 43.4109 47.4835L48.2219 52.3066C46.6742 53.5591 44.9773 54.6434 43.1685 55.5033L24.1482 36.4351C24.2042 36.2669 24.2415 36.08 24.2415 35.8743C24.2415 35.6874 24.2042 35.5004 24.1482 35.3135L27.1505 32.285C27.3183 32.3411 27.5048 32.3785 27.7099 32.3785C27.8963 32.3785 28.0828 32.3411 28.2693 32.285L35.5231 39.5571C35.4671 39.7253 35.4299 39.9123 35.4299 40.1179C35.4299 41.0152 36.1571 41.763 37.0708 41.763C37.9659 41.763 38.7118 41.0339 38.7118 40.1179C38.7118 39.931 38.6745 39.744 38.6185 39.5571L55.6435 22.4892C56.7064 24.9756 57.3777 27.6488 57.6015 30.453L57.4523 30.3034L43.4109 44.3802ZM22.3208 55.8959L24.8382 53.3722L15.4959 44.0063L19.6169 39.8749L37.1827 57.4849C35.5977 57.8027 33.9754 57.9523 32.3158 57.9523C28.7541 57.9523 25.379 57.2232 22.3208 55.8959ZM37.6302 38.585C37.4624 38.5289 37.2759 38.4915 37.0708 38.4915C36.8657 38.4915 36.6979 38.5289 36.5114 38.585L29.2576 31.3129C29.3135 31.1447 29.3508 30.9577 29.3508 30.7521C29.3508 29.8361 28.6236 29.107 27.7099 29.107C26.7962 29.107 26.0689 29.8361 26.0689 30.7521C26.0689 30.939 26.1062 31.126 26.1621 31.3129L23.1599 34.3227C22.9921 34.2666 22.8056 34.2292 22.6005 34.2292C21.7054 34.2292 20.9596 34.9583 20.9596 35.8743C20.9596 36.7716 21.6868 37.5194 22.6005 37.5194C22.787 37.5194 22.9735 37.482 23.1599 37.4259L41.8072 56.1202C40.8189 56.5128 39.812 56.868 38.7677 57.1297L19.6169 37.8933L13.5193 44.0063L22.8616 53.3722L20.9596 55.279C16.0367 52.8113 12.0275 48.7921 9.56606 43.8568L26.9453 26.4337C27.1132 26.4898 27.2996 26.5272 27.5048 26.5272C27.6912 26.5272 27.8777 26.4898 28.0642 26.4337L35.318 33.7058C35.262 33.874 35.2247 34.061 35.2247 34.2666C35.2247 35.1639 35.952 35.9117 36.8657 35.9117C37.7608 35.9117 38.5067 35.1826 38.5067 34.2666C38.5067 34.0797 38.4694 33.8927 38.4134 33.7058L41.4156 30.6773C41.5835 30.7334 41.7699 30.7708 41.9751 30.7708C42.8701 30.7708 43.616 30.0417 43.616 29.1257C43.616 28.2284 42.8888 27.4806 41.9751 27.4806C41.7886 27.4806 41.6021 27.518 41.4156 27.5741L22.7683 8.87978C23.7566 8.4872 24.7636 8.13201 25.8078 7.87029L44.9959 27.1067L51.0749 21.0124L41.7326 11.6465L43.6347 9.73972C48.5575 12.2074 52.5667 16.2266 55.0282 21.1619L37.6302 38.585ZM6.91814 32.5093C6.91814 25.0316 10.1628 18.283 15.3094 13.6281L20.2137 18.5447C20.1577 18.713 20.1204 18.8999 20.1204 19.1056C20.1204 19.2925 20.1577 19.4794 20.2137 19.6664L6.93679 32.9767C6.91815 32.8085 6.91814 32.6589 6.91814 32.5093ZM7.16056 34.6966L21.202 20.6198C21.3698 20.6759 21.5563 20.7133 21.7614 20.7133C22.6565 20.7133 23.4023 19.9842 23.4023 19.0682C23.4023 18.1708 22.6751 17.4231 21.7614 17.4231C21.5749 17.4231 21.3884 17.4605 21.202 17.5165L16.3723 12.7121C17.92 11.4596 19.617 10.3753 21.4257 9.51539L40.446 28.5835C40.39 28.7518 40.3527 28.9387 40.3527 29.1444C40.3527 29.3313 40.39 29.5183 40.446 29.7052L37.4438 32.715C37.2759 32.6589 37.0895 32.6215 36.8843 32.6215C36.6979 32.6215 36.5114 32.6589 36.3249 32.715L29.0711 25.4429C29.1271 25.2747 29.1644 25.0877 29.1644 24.8821C29.1644 23.9848 28.4371 23.237 27.5234 23.237C26.6283 23.237 25.8824 23.9661 25.8824 24.8821C25.8824 25.069 25.9197 25.256 25.9757 25.4429L8.9507 42.5108C7.8878 40.0244 7.2165 37.3512 6.99273 34.547L7.16056 34.6966ZM42.2921 9.10411L39.7747 11.6278L49.117 20.9937L44.9959 25.1251L27.4302 7.5151C29.0152 7.1973 30.6375 7.04774 32.2971 7.04774C35.8401 7.04774 39.2153 7.79551 42.2921 9.10411ZM49.3034 51.3906L44.4178 46.474C44.4738 46.3057 44.5111 46.1188 44.5111 45.9131C44.5111 45.7075 44.4738 45.5393 44.4178 45.3523L57.6947 32.042C57.6947 32.1915 57.6947 32.3411 57.6947 32.4907C57.6761 39.9871 54.4501 46.7357 49.3034 51.3906ZM53.1821 49.1659C53.1075 49.2594 53.0515 49.3342 52.977 49.4277C53.0329 49.3529 53.1075 49.2594 53.1821 49.1659Z" fill="url(#paint0_linear)"/>
<defs>
<linearGradient id="paint0_linear" x1="29.5093" y1="0" x2="29.5093" y2="65.0187" gradientUnits="userSpaceOnUse">
<stop stop-color="#6DADFF"/>
<stop offset="0.854167" stop-color="#2684FE"/>
</linearGradient>
</defs>
</svg>
