<svg width="157" height="162" viewBox="0 0 157 162" fill="none" xmlns="http://www.w3.org/2000/svg">
<path d="M124.66 54.1416L124.669 54.1574L124.678 54.1729L136.635 74.3184C138.969 78.2514 138.969 83.1454 136.635 87.0784L124.678 107.224L124.669 107.239L124.66 107.255L113.192 127.683C110.953 131.671 106.715 134.118 102.141 134.063L78.7165 133.781L78.6984 133.78L78.6803 133.781L55.2553 134.063C50.6821 134.118 46.4438 131.671 44.2049 127.683L32.7369 107.255L32.728 107.239L32.7188 107.224L20.7618 87.0784C18.4274 83.1454 18.4274 78.2514 20.7618 74.3184L32.7188 54.1729L32.728 54.1574L32.7369 54.1416L44.2049 33.7138C46.4438 29.7257 50.6821 27.2787 55.2554 27.3338L78.6803 27.6161L78.6984 27.6163L78.7165 27.6161L102.141 27.3338C106.715 27.2787 110.953 29.7257 113.192 33.7138L124.66 54.1416Z" stroke="#9B9BBB" stroke-opacity="0.11" stroke-width="3"/>
</svg>
