<svg width="40" height="41" viewBox="0 0 40 41" fill="none" xmlns="http://www.w3.org/2000/svg">
<path d="M17.4853 40.2847C16.2081 40.2847 15.1134 39.4332 13.8362 38.2169L2.09824 26.4789C-0.699414 23.6812 -0.699414 21.9783 2.09824 19.2415L20.6479 0.691838C20.8912 0.448564 21.2561 0.326904 21.621 0.326904L37.373 1.90821C37.4338 1.90821 37.4947 1.90821 37.4947 1.90821C38.042 2.02985 38.4677 2.51637 38.4677 3.06374L39.9882 18.6941C40.049 19.059 39.8666 19.4239 39.6233 19.6672L21.1345 38.1561C19.8573 39.4333 18.7625 40.2847 17.4853 40.2847ZM21.9859 2.75965L3.86196 20.8836C2.0374 22.7081 2.0374 22.8906 3.86196 24.7152L15.6 36.4532C16.2082 37.0613 16.9988 37.7912 17.4853 37.7912C17.9719 37.7912 18.8233 37.0005 19.3707 36.4532L37.4947 18.3292L36.0958 4.15847L21.9859 2.75965Z" fill="white"/>
<path d="M7.45028 24.7152C7.26783 24.7152 7.14618 24.6543 7.02455 24.5327C5.44326 22.9514 5.80817 21.9783 7.207 20.5795L12.7415 15.045C12.9848 14.8017 13.3497 14.8017 13.5929 15.045C13.8362 15.2883 13.8362 15.6532 13.5929 15.8965L8.05847 21.431C6.96374 22.5257 6.90292 22.7082 7.87602 23.6813C8.1193 23.9245 8.1193 24.2894 7.87602 24.5327C7.8152 24.6543 7.63274 24.7152 7.45028 24.7152Z" fill="white"/>
<path d="M14.4444 14.9234C14.2619 14.9234 14.1403 14.8626 14.0186 14.7409C13.7754 14.4977 13.7754 14.1327 14.0186 13.8895L14.5052 13.4029C14.7485 13.1596 15.1134 13.1596 15.3567 13.4029C15.5999 13.6462 15.5999 14.0111 15.3567 14.2544L14.8701 14.7409C14.7485 14.8626 14.566 14.9234 14.4444 14.9234Z" fill="white"/>
<path d="M28.9193 16.2614C26.1216 16.2614 23.8713 14.0111 23.8713 11.2135C23.8713 8.41581 26.1216 6.16553 28.9193 6.16553C31.7169 6.16553 33.9672 8.41581 33.9672 11.2135C33.9672 14.0111 31.7169 16.2614 28.9193 16.2614ZM28.9193 8.59827C27.4596 8.59827 26.3041 9.75382 26.3041 11.2135C26.3041 12.6731 27.4596 13.8287 28.9193 13.8287C30.3789 13.8287 31.5345 12.6731 31.5345 11.2135C31.5345 9.75382 30.3181 8.59827 28.9193 8.59827Z" fill="white"/>
</svg>
