<svg width="37" height="40" viewBox="0 0 37 40" fill="none" xmlns="http://www.w3.org/2000/svg">
<path d="M18.4756 40C8.29267 40 0 31.7074 0 21.5245C0 11.3415 8.29267 3.04883 18.4756 3.04883C28.6585 3.04883 36.9512 11.3415 36.9512 21.5245C36.9512 31.7074 28.6585 40 18.4756 40ZM18.4756 5.48785C9.63413 5.48785 2.43902 12.683 2.43902 21.5245C2.43902 30.3659 9.63413 37.561 18.4756 37.561C27.3171 37.561 34.5122 30.3659 34.5122 21.5245C34.5122 12.683 27.3171 5.48785 18.4756 5.48785Z" fill="#2F89FE"/>
<path d="M11.8903 33.7805C11.7683 33.7805 11.7073 33.7805 11.5854 33.7195C7.19514 31.2195 4.51221 26.5853 4.51221 21.5853C4.51221 21.2195 4.75611 20.9756 5.12196 20.9756C5.48782 20.9756 5.73172 21.2195 5.73172 21.5853C5.73172 26.1585 8.23172 30.4268 12.1951 32.6829C12.5 32.8658 12.561 33.2317 12.439 33.5365C12.3171 33.6585 12.1342 33.7805 11.8903 33.7805Z" fill="#2F89FE"/>
<path d="M15.3659 35.4878C15.3049 35.4878 15.2439 35.4878 15.1829 35.4878C14.939 35.4268 14.6951 35.3658 14.3902 35.2439C14.0854 35.1219 13.9025 34.817 14.0244 34.4512C14.1464 34.1463 14.4512 33.9634 14.8171 34.0853C15.061 34.1463 15.3049 34.2073 15.5488 34.2682C15.8537 34.3292 16.0976 34.6951 15.9756 35C15.9146 35.3048 15.6707 35.4878 15.3659 35.4878Z" fill="#2F89FE"/>
<path d="M35.0609 9.81705C34.756 9.81705 34.4511 9.69508 34.2072 9.45118L31.0365 6.28047C30.5487 5.79267 30.5487 5.06093 31.0365 4.57313C31.5243 4.08532 32.256 4.08532 32.7438 4.57313L35.9146 7.74387C36.4024 8.23167 36.4024 8.96337 35.9146 9.45118C35.6707 9.69508 35.3658 9.81705 35.0609 9.81705Z" fill="#2F89FE"/>
<path d="M22.0122 26.4025C21.7073 26.4025 21.4024 26.2805 21.1585 26.0976L17.561 22.744C17.3171 22.5001 17.1342 22.1952 17.1342 21.8293V11.5244C17.1342 10.8537 17.6829 10.3049 18.3537 10.3049C19.0244 10.3049 19.5732 10.8537 19.5732 11.5244V21.2805L22.7439 24.2684C23.2317 24.7562 23.2927 25.4879 22.8049 25.9757C22.622 26.2805 22.3171 26.4025 22.0122 26.4025Z" fill="#2F89FE"/>
<path d="M18.4146 4.87805C17.7438 4.87805 17.1951 4.32927 17.1951 3.65853V1.21951C17.1951 0.54878 17.7438 0 18.4146 0C19.0853 0 19.6341 0.54878 19.6341 1.21951V3.65853C19.6341 4.32927 19.0853 4.87805 18.4146 4.87805Z" fill="#2F89FE"/>
</svg>
