<svg width="40" height="40" viewBox="0 0 40 40" fill="none" xmlns="http://www.w3.org/2000/svg">
<path d="M39.9941 26.875C39.9941 23.75 35.8697 21.25 30.6205 21.25C29.4956 21.25 28.4958 21.375 27.4959 21.625V17.5C27.4959 17.375 27.4959 17.375 27.4959 17.25C27.4959 17.125 27.4959 17 27.4959 16.875C27.4959 13.875 23.7465 11.5 18.7472 11.25V6.25C18.7472 6.125 18.7472 6.12498 18.7472 5.99998C18.7472 5.87498 18.7472 5.75 18.7472 5.625C18.7472 2.5 14.6228 0 9.37361 0C4.12439 0 0 2.5 0 5.625C0 5.75 0 5.87503 0 6.12503V6.25V28.125C0 31.25 4.12438 33.75 9.24862 33.75C10.4984 36 13.9979 37.5 18.1223 37.5C19.6221 37.5 20.9969 37.25 22.2467 36.875C23.7465 38.75 26.871 40 30.6205 40C35.8697 40 39.9941 37.5 39.9941 34.375V27.5C39.9941 27.375 39.9941 27.375 39.9941 27.25C39.9941 27.125 39.9941 27 39.9941 26.875ZM24.9963 16.875C24.9963 18.375 21.9967 20 18.1223 20C14.2479 20 11.2483 18.375 11.2483 16.875C11.2483 15.375 14.2479 13.75 18.1223 13.75C21.9967 13.75 24.9963 15.375 24.9963 16.875ZM9.37361 2.5C13.248 2.5 16.2476 4.125 16.2476 5.625C16.2476 7.125 13.248 8.75 9.37361 8.75C5.49918 8.75 2.49963 7.125 2.49963 5.625C2.49963 4.125 5.49918 2.5 9.37361 2.5ZM2.49963 28.125V9.49997C4.24937 10.625 6.62402 11.25 9.37361 11.25C12.1232 11.25 14.4978 10.625 16.2476 9.49997V11.375C11.8732 11.875 8.7487 14.125 8.7487 16.875C8.7487 17 8.7487 17.125 8.7487 17.375V17.5V31.25C5.24922 31 2.49963 29.5 2.49963 28.125ZM18.1223 35C14.2479 35 11.2483 33.375 11.2483 31.875V20.75C12.9981 21.875 15.3727 22.5 18.1223 22.5C20.8719 22.5 23.2465 21.875 24.9963 20.75V22.375C22.7466 23.375 21.2468 25 21.2468 26.875C21.2468 27 21.2468 27.125 21.2468 27.375V27.5V34.375C21.2468 34.5 21.2468 34.5 21.2468 34.625C20.372 34.875 19.3721 35 18.1223 35ZM37.4944 34.375C37.4944 35.875 34.4949 37.5 30.6205 37.5C26.746 37.5 23.7465 35.875 23.7465 34.375V30.75C25.4962 31.875 27.8709 32.5 30.6205 32.5C33.37 32.5 35.7447 31.875 37.4944 30.75V34.375ZM30.6205 30C26.746 30 23.7465 28.375 23.7465 26.875C23.7465 25.375 26.746 23.75 30.6205 23.75C34.4949 23.75 37.4944 25.375 37.4944 26.875C37.4944 28.375 34.6199 30 30.6205 30Z" fill="#2F89FE"/>
<path d="M4.99928 11.875C4.62434 11.875 4.37439 12.125 4.37439 12.5V27.5C4.37439 27.875 4.62434 28.125 4.99928 28.125C5.37421 28.125 5.62417 27.875 5.62417 27.5V12.5C5.62417 12.125 5.37421 11.875 4.99928 11.875Z" fill="#2F89FE"/>
<path d="M13.748 23.125C13.373 23.125 13.123 23.375 13.123 23.75V31.25C13.123 31.625 13.373 31.875 13.748 31.875C14.1229 31.875 14.3729 31.625 14.3729 31.25V23.75C14.3729 23.375 14.1229 23.125 13.748 23.125Z" fill="#2F89FE"/>
<path d="M26.2461 33.125C25.8712 33.125 25.6212 33.375 25.6212 33.75V35C25.6212 35.375 25.8712 35.625 26.2461 35.625C26.6211 35.625 26.871 35.375 26.871 35V33.75C26.871 33.375 26.6211 33.125 26.2461 33.125Z" fill="#2F89FE"/>
</svg>
