<svg width="36" height="42" viewBox="0 0 36 42" fill="none" xmlns="http://www.w3.org/2000/svg">
<path d="M17.2388 42C17.1134 42 17.1761 42 17.0507 41.9373C16.3612 41.7492 0 36.6716 0 26.0776V8.14925C0 7.4597 0.376117 6.89552 1.06567 6.89552C4.2 6.89552 6.64477 4.32537 6.70746 1.25373C6.70746 0.564179 7.20895 0 7.89851 0H26.5164C27.206 0 27.7701 0.564179 27.7701 1.25373C27.8328 4.38806 30.591 6.89552 33.6627 6.89552C34.3522 6.89552 35.1045 7.4597 35.1045 8.14925V26.0776C35.1045 35.3552 18.5552 41.6865 17.803 41.9373C17.6776 42 17.3642 42 17.2388 42ZM2.50746 9.2776V26.0776C2.50746 34.0388 15.1075 38.6149 17.5522 39.4298C22.1284 37.6119 32.597 32.1582 32.597 26.0776V9.2776C28.8358 8.71343 25.9522 6.20595 25.3881 2.44475H9.08955C8.46269 6.26863 5.64179 8.77611 2.50746 9.2776Z" fill="#2F89FE"/>
<path d="M11.0329 34.2895C10.9075 34.2895 10.8448 34.2895 10.7821 34.2268C8.40005 33.0358 6.51945 31.2805 5.39109 29.2745C5.20303 28.9611 5.32841 28.585 5.64184 28.397C5.95527 28.2089 6.33139 28.3342 6.51945 28.6477C7.52244 30.4656 9.21497 32.0328 11.3463 33.0985C11.6598 33.2238 11.7851 33.5999 11.5971 33.9134C11.4717 34.1641 11.2836 34.2895 11.0329 34.2895Z" fill="#2F89FE"/>
<path d="M4.82679 26.9553C4.57604 26.9553 4.3253 26.7672 4.19992 26.5165C4.07455 26.1403 4.01187 25.8896 4.01187 25.8896C3.94918 25.5762 4.19992 25.2 4.51336 25.1374C4.82679 25.0747 5.20291 25.3254 5.2656 25.6388C5.2656 25.6388 5.32828 25.8269 5.39097 26.1403C5.51634 26.4538 5.2656 26.8299 4.95217 26.8926C4.95217 26.9553 4.88948 26.9553 4.82679 26.9553Z" fill="#2F89FE"/>
<path d="M17.5522 40.7464C17.176 40.7464 16.9253 40.4956 16.9253 40.1195V1.25382C16.9253 0.877699 17.176 0.626953 17.5522 0.626953C17.9283 0.626953 18.179 0.877699 18.179 1.25382V40.1195C18.179 40.4329 17.8656 40.7464 17.5522 40.7464Z" fill="#2F89FE"/>
<path d="M33.4746 21.6268H0.877598C0.501479 21.6268 0.250732 21.376 0.250732 20.9999C0.250732 20.6238 0.501479 20.373 0.877598 20.373H33.4746C33.8507 20.373 34.1015 20.6238 34.1015 20.9999C34.1015 21.3133 33.8507 21.6268 33.4746 21.6268Z" fill="#2F89FE"/>
</svg>
