<svg width="38" height="38" viewBox="0 0 38 38" fill="none" xmlns="http://www.w3.org/2000/svg">
<path d="M7.38558 18.4639C7.80251 18.4639 8.15989 18.1067 8.15989 17.6897V0.833894C8.15989 0.416966 7.80251 0.0595703 7.38558 0.0595703C6.96865 0.0595703 6.61129 0.416966 6.61129 0.833894V17.6897C6.55173 18.1067 6.90909 18.4639 7.38558 18.4639Z" fill="#2F89FE"/>
<path d="M13.2821 11.6144C13.699 11.6144 14.0564 11.2571 14.0564 10.8402V0.833894C14.0564 0.416966 13.699 0.0595703 13.2821 0.0595703C12.8652 0.0595703 12.5078 0.416966 12.5078 0.833894V10.8402C12.5078 11.2571 12.8652 11.6144 13.2821 11.6144Z" fill="#2F89FE"/>
<path d="M19.2383 14.9499C19.6552 14.9499 20.0126 14.5925 20.0126 14.1756V0.774324C20.0126 0.357396 19.6552 0 19.2383 0C18.8213 0 18.464 0.357396 18.464 0.774324V14.1756C18.464 14.5925 18.8213 14.9499 19.2383 14.9499Z" fill="#2F89FE"/>
<path d="M25.1943 7.7429C25.6113 7.7429 25.9686 7.38565 25.9686 6.96872V0.833894C25.9686 0.416966 25.6113 0.0595703 25.1943 0.0595703C24.7774 0.0595703 24.42 0.416966 24.42 0.833894V6.96872C24.42 7.38565 24.7774 7.7429 25.1943 7.7429Z" fill="#2F89FE"/>
<path d="M37.047 11.0188C36.6301 11.0188 36.2727 11.3762 36.2727 11.7932V35.2603H31.9248V17.1537C31.9248 16.7367 31.5674 16.3793 31.1505 16.3793C30.7335 16.3793 30.3762 16.7367 30.3762 17.1537V35.2603H26.0282V25.5518C26.0282 25.1349 25.6708 24.7775 25.2539 24.7775C24.837 24.7775 24.4796 25.1349 24.4796 25.5518V35.2603H20.1317V29.4233C20.1317 29.0064 19.7743 28.649 19.3574 28.649C18.9404 28.649 18.5831 29.0064 18.5831 29.4233V35.2603H14.2351V28.0534C14.2351 27.6365 13.8777 27.2791 13.4608 27.2791C13.0439 27.2791 12.6865 27.6365 12.6865 28.0534V35.2603H8.33856V34.486C8.33856 34.0691 7.9812 33.7117 7.56427 33.7117C7.14734 33.7117 6.78997 34.0691 6.78997 34.486V35.2603H3.39499L13.9969 19.7744L20.1317 23.5863C20.6677 23.9437 21.3824 23.7649 21.7398 23.2289L35.0219 4.22892L35.558 7.02827C35.6771 7.62388 36.1536 7.9813 36.7492 7.9813C36.8088 7.9813 36.9279 7.9813 36.9875 7.9813C37.6426 7.86218 38.0596 7.20698 37.9405 6.61137L36.8683 1.13177C36.8088 0.833967 36.6301 0.536133 36.3919 0.357449C36.1536 0.178766 35.7962 0.119175 35.4984 0.178737L30.0188 1.25087C29.3636 1.36999 28.9467 2.02519 29.0658 2.6208C29.185 3.27597 29.8401 3.69281 30.4357 3.57369L32.9373 3.09732L20.4295 20.9657L14.2947 17.0942C13.7586 16.7368 13.0439 16.9154 12.6865 17.4515L2.38245 32.5801V1.31049C2.38245 0.655313 1.8464 0.119263 1.19122 0.119263C0.53605 0.119263 0 0.655313 0 1.31049V36.4516C0 36.4516 0 36.4515 0 36.511C0 36.5706 0 36.6302 0 36.6897C0 36.7493 0 36.7493 0 36.8088C0 36.8684 3.63444e-06 36.8684 0.0595648 36.9279C0.0595648 36.9875 0.11913 36.9876 0.11913 37.0472C0.11913 37.1067 0.178676 37.1067 0.178676 37.1663C0.178676 37.2258 0.238241 37.2258 0.238241 37.2854C0.238241 37.3449 0.297806 37.3449 0.297806 37.4044C0.357367 37.464 0.357374 37.464 0.416935 37.5235C0.416935 37.5235 0.476482 37.5236 0.476482 37.5832C0.536043 37.6427 0.595615 37.6428 0.655176 37.6428H0.714741C0.774302 37.6428 0.833852 37.7023 0.833852 37.7023H0.893417C0.952978 37.7023 1.01254 37.7023 1.13166 37.7023H36.7492C37.1662 37.7023 37.5831 37.464 37.7618 37.1066C37.9404 36.9875 38 36.7493 38 36.511V11.8528C37.8809 11.3763 37.5235 11.0188 37.047 11.0188Z" fill="#2F89FE"/>
</svg>
