<svg width="137" height="260" viewBox="0 0 137 260" fill="none" xmlns="http://www.w3.org/2000/svg">
<path d="M102.144 2.73904C101.806 1.92383 101.255 1.23149 100.558 0.745494C99.8614 0.259497 99.0489 0.000594373 98.2186 0H39.4467C38.6163 0.000674432 37.8038 0.259666 37.1071 0.745756C36.4104 1.23185 35.8594 1.92428 35.5203 2.7396L1.04002 85.8571C0.748261 86.5612 0.624758 87.3325 0.680742 88.101C0.736725 88.8694 0.970417 89.6106 1.36057 90.2572C1.75072 90.9038 2.28496 91.4353 2.9147 91.8032C3.54444 92.1712 4.24971 92.364 4.96639 92.3642H45.1104V130.198C42.7308 130.998 40.6966 132.689 39.3765 134.964C38.0563 137.239 37.5375 139.948 37.9141 142.599C38.2906 145.25 39.5377 147.668 41.4292 149.415C43.3207 151.162 45.7316 152.123 48.2249 152.123C50.7183 152.123 53.1292 151.162 55.0207 149.415C56.9122 147.668 58.1592 145.25 58.5358 142.599C58.9124 139.948 58.3936 137.239 57.0734 134.964C55.7532 132.689 53.7191 130.998 51.3395 130.198V92.3642H65.7181V253.3H40.5731C39.7471 253.3 38.9549 253.653 38.3708 254.281C37.7867 254.91 37.4586 255.762 37.4586 256.65C37.4586 257.539 37.7867 258.391 38.3708 259.019C38.9549 259.647 39.7471 260 40.5731 260H97.0922C97.9183 260 98.7104 259.647 99.2945 259.019C99.8786 258.391 100.207 257.539 100.207 256.65C100.207 255.762 99.8786 254.91 99.2945 254.281C98.7104 253.653 97.9183 253.3 97.0922 253.3H71.9472V92.3642H132.701C133.418 92.364 134.123 92.171 134.753 91.803C135.383 91.4349 135.917 90.9034 136.307 90.2567C136.697 89.61 136.931 88.8687 136.987 88.1001C137.043 87.3315 136.919 86.5601 136.627 85.856L102.144 2.73904ZM48.2249 145.423C47.3939 145.423 46.5816 145.158 45.8907 144.662C45.1997 144.165 44.6612 143.459 44.3432 142.633C44.0252 141.808 43.9421 140.899 44.1042 140.022C44.2664 139.146 44.6666 138.341 45.2542 137.709C45.8419 137.077 46.5905 136.646 47.4056 136.472C48.2206 136.298 49.0654 136.387 49.8331 136.729C50.6008 137.072 51.257 137.651 51.7186 138.394C52.1802 139.137 52.4265 140.011 52.4264 140.905C52.4255 142.103 51.9825 143.252 51.1947 144.099C50.407 144.946 49.3389 145.422 48.2249 145.423ZM7.93867 85.6645L40.6982 6.69965H96.9671L129.727 85.6645H7.93867Z" fill="white" fill-opacity="0.04"/>
</svg>
