<svg width="376" height="512" viewBox="0 0 376 512" fill="none" xmlns="http://www.w3.org/2000/svg">
<path d="M375.813 325.054C375.58 275.055 355.935 228.086 320.498 192.8C301.919 174.3 280.142 160.166 256.425 150.893V84.116H202.941V0H172.941V84.116H119.458V150.893C95.741 160.165 73.964 174.3 55.385 192.8C19.947 228.087 0.302 275.055 0.0699997 325.054L0 340.124H99.124C106.452 382.512 143.557 414.91 187.942 414.91C232.327 414.91 269.432 382.512 276.76 340.124H375.883L375.813 325.054ZM226.425 114.116V141.997C213.901 139.402 201.024 138.06 187.942 138.06C174.859 138.06 161.982 139.402 149.459 141.997V114.116H226.425ZM187.941 384.91C160.138 384.91 136.614 365.858 129.796 340.125H246.087C239.268 365.858 215.744 384.91 187.941 384.91ZM30.855 310.124C38.834 230.523 106.375 168.061 187.94 168.061C269.505 168.061 337.046 230.523 345.025 310.124H30.855Z" fill="white" fill-opacity="0.04"/>
<path d="M202.941 450.65H172.941V512H202.941V450.65Z" fill="white" fill-opacity="0.04"/>
<path d="M281.282 410.399L258.49 429.908L298.386 476.517L321.178 457.007L281.282 410.399Z" fill="white" fill-opacity="0.04"/>
<path d="M94.6016 410.422L54.7083 457.02L77.4947 476.528L117.388 429.929L94.6016 410.422Z" fill="white" fill-opacity="0.04"/>
</svg>
