<svg width="137" height="137" viewBox="0 0 137 137" fill="none" xmlns="http://www.w3.org/2000/svg">
<path d="M124.715 5.40069C123.968 2.22845 121.133 -0.0104158 117.873 3.64438e-05H83.0595C79.7995 -0.0104158 76.9638 2.22845 76.2175 5.40069L64.0919 60.2006C63.6487 62.199 64.14 64.2905 65.4287 65.8813C66.7687 67.5474 68.7954 68.5111 70.9339 68.4996H89.0497V82.1993H75.3499C74.0884 82.1993 73.0661 83.2215 73.0661 84.4831V86.7659C73.0818 97.5411 80.6158 106.844 91.1526 109.097C90.283 114.634 85.5199 118.717 79.9165 118.733H66.2158C59.9141 118.726 54.8072 113.619 54.7999 107.316V70.7834C54.78 57.7223 44.7616 46.8531 31.7465 45.7713C30.8612 41.2476 27.3472 37.697 22.8328 36.7636V31.9671C22.8203 20.6222 13.6276 11.4295 2.28381 11.417C1.02223 11.417 0 12.4392 0 13.6997V95.899C0 97.1606 1.02223 98.1828 2.28381 98.1828C13.6276 98.1703 22.8203 88.9776 22.8328 77.6327V72.8352C27.1883 71.9311 30.6229 68.5832 31.6399 64.2529C34.533 65.111 36.5221 67.7648 36.5336 70.7834V107.316C36.5514 123.702 49.8309 136.98 66.2158 136.999H79.9165C95.5802 136.974 108.53 124.787 109.506 109.153C120.172 107.009 127.85 97.6456 127.866 86.7659V84.4831C127.866 83.2215 126.844 82.1993 125.582 82.1993H111.882V68.4996H129.998C132.137 68.5111 134.162 67.5474 135.502 65.8813C136.791 64.2905 137.283 62.199 136.84 60.2006L124.715 5.40069ZM18.2663 77.6327C18.2569 85.5743 12.4256 92.3087 4.56657 93.4532V16.1466C12.4256 17.2911 18.2569 24.0244 18.2663 31.9671V77.6327ZM22.8328 68.1097V41.4901C25.5682 42.4611 27.3963 45.048 27.3994 47.9495V61.6492C27.3963 64.5518 25.5682 67.1377 22.8328 68.1097ZM79.9165 132.433H66.2158C52.3509 132.417 41.1158 121.181 41.1002 107.316V70.7834C41.0928 65.3608 37.2778 60.6887 31.966 59.5975V50.3682C42.3597 51.5409 50.2187 60.3239 50.2333 70.7834V107.316C50.2438 116.139 57.3931 123.289 66.2158 123.299H79.9165C87.856 123.285 94.5841 117.448 95.7182 109.59C95.7798 109.59 95.8384 109.6 95.899 109.6H104.917C103.726 122.522 92.894 132.415 79.9165 132.433ZM105.033 105.033H95.899C85.8157 105.021 77.6442 96.8502 77.6327 86.7659H123.299C123.288 96.8502 115.116 105.021 105.033 105.033ZM107.316 82.1993H93.6162V68.4996H107.316V82.1993ZM131.942 63.0237C131.467 63.6059 130.751 63.9414 129.998 63.933H78.2745L88.9807 21.103C89.2566 19.8916 88.5135 18.6823 87.3073 18.3813C86.1021 18.0803 84.8771 18.7983 84.551 19.9972L73.5668 63.933H70.9339C70.1813 63.9414 69.4654 63.6059 68.9898 63.0237C68.5686 62.5105 68.4076 61.8332 68.5518 61.1862L80.6774 6.38633C80.9523 5.30035 81.939 4.5457 83.0595 4.5666H117.873C118.993 4.5457 119.98 5.30035 120.255 6.38633L132.38 61.1862C132.525 61.8332 132.364 62.5105 131.942 63.0237Z" fill="white" fill-opacity="0.04"/>
</svg>
