<svg width="220" height="220" viewBox="0 0 220 220" fill="none" xmlns="http://www.w3.org/2000/svg">
<path d="M26.739 119.847C28.171 121.278 30.4925 121.278 31.9245 119.847L53.9242 97.8619C54.0099 97.7764 54.0907 97.6864 54.1676 97.593C54.2021 97.5511 54.2322 97.5066 54.2645 97.4638C54.3039 97.4114 54.3445 97.3599 54.3812 97.3053C54.4161 97.2534 54.4458 97.1997 54.4777 97.1464C54.507 97.0971 54.538 97.0491 54.5655 96.9984C54.5948 96.9438 54.6193 96.888 54.6455 96.8321C54.6704 96.7793 54.6966 96.7273 54.7193 96.6732C54.7416 96.619 54.7599 96.564 54.7796 96.509C54.8006 96.451 54.8224 96.3942 54.8408 96.3348C54.8574 96.2798 54.8696 96.2244 54.8836 96.1689C54.8989 96.1083 54.9159 96.0489 54.9281 95.9869C54.9408 95.9236 54.9482 95.8594 54.9574 95.7957C54.9653 95.7411 54.9757 95.6874 54.981 95.6324C55.0046 95.3923 55.0046 95.15 54.981 94.9099C54.9757 94.8545 54.9653 94.8012 54.9574 94.7466C54.9482 94.6829 54.9408 94.6187 54.9281 94.5554C54.9159 94.4938 54.8989 94.434 54.8836 94.3734C54.8696 94.3179 54.8574 94.262 54.8408 94.2075C54.8228 94.1481 54.8006 94.0913 54.7796 94.0333C54.7599 93.9783 54.742 93.9233 54.7193 93.8691C54.697 93.815 54.6704 93.763 54.6455 93.7102C54.6193 93.6548 54.5944 93.5985 54.5655 93.5439C54.5385 93.4932 54.5074 93.4448 54.4777 93.3959C54.4458 93.3426 54.4157 93.2889 54.3812 93.237C54.3445 93.1824 54.3039 93.1309 54.2645 93.0785C54.2322 93.0353 54.2021 92.9912 54.1676 92.9493C54.0142 92.7624 53.843 92.5913 53.656 92.4381C53.6141 92.4036 53.5695 92.3734 53.5263 92.3411C53.4738 92.3019 53.4223 92.2613 53.3681 92.225C53.3161 92.1901 53.262 92.16 53.2082 92.1281C53.1589 92.0989 53.1108 92.0679 53.0602 92.0408C53.0055 92.0115 52.9496 91.9871 52.8941 91.9609C52.8413 91.936 52.7893 91.9098 52.7351 91.8871C52.6805 91.8644 52.625 91.8465 52.57 91.8269C52.5123 91.8064 52.4555 91.7841 52.3966 91.7662C52.3411 91.7496 52.2852 91.7374 52.2293 91.723C52.1694 91.7077 52.11 91.6911 52.0488 91.6789C51.9842 91.6662 51.9191 91.6584 51.854 91.6492C51.8007 91.6418 51.7483 91.6313 51.6941 91.626C51.574 91.6143 51.453 91.6077 51.3324 91.6077C46.4817 91.6077 44.0533 85.7423 47.4844 82.3135L53.9247 75.8774C55.3567 74.4463 55.3567 72.1264 53.9247 70.6954C52.4927 69.2643 50.1713 69.2643 48.7393 70.6954L26.7395 92.6808C26.6538 92.7664 26.573 92.8563 26.4961 92.9497C26.4616 92.9916 26.4315 93.0362 26.3992 93.0789C26.3598 93.1313 26.3192 93.1828 26.2825 93.2374C26.2476 93.2894 26.2179 93.3431 26.186 93.3963C26.1567 93.4457 26.1257 93.4937 26.0982 93.5443C26.0689 93.5989 26.0444 93.6548 26.0182 93.7107C25.9933 93.7635 25.9671 93.8154 25.9444 93.8696C25.9221 93.9237 25.9038 93.9787 25.8841 94.0337C25.8632 94.0918 25.8413 94.1485 25.823 94.2079C25.8064 94.2629 25.7941 94.3183 25.7801 94.3738C25.7649 94.4345 25.7478 94.4938 25.7356 94.5558C25.7229 94.6191 25.7155 94.6833 25.7063 94.7471C25.6985 94.8016 25.688 94.8553 25.6827 94.9103C25.6591 95.1504 25.6591 95.3927 25.6827 95.6328C25.688 95.6883 25.6985 95.7416 25.7063 95.7961C25.7155 95.8599 25.7229 95.924 25.7356 95.9873C25.7478 96.0489 25.7649 96.1087 25.7801 96.1694C25.7941 96.2248 25.8064 96.2807 25.823 96.3353C25.8409 96.3947 25.8632 96.4514 25.8841 96.5095C25.9038 96.5645 25.9217 96.6195 25.9444 96.6736C25.9667 96.7277 25.9933 96.7797 26.0182 96.8325C26.0444 96.888 26.0693 96.9443 26.0982 96.9989C26.1253 97.0495 26.1563 97.098 26.186 97.1469C26.2179 97.2001 26.248 97.2538 26.2825 97.3058C26.3192 97.3603 26.3598 97.4118 26.3992 97.4642C26.4315 97.5075 26.4616 97.5516 26.4961 97.5935C26.6495 97.7803 26.8207 97.9514 27.0077 98.1047C27.0496 98.1392 27.0942 98.1693 27.1374 98.2016C27.1899 98.2409 27.2414 98.2815 27.2956 98.3177C27.3476 98.3526 27.4017 98.3828 27.4555 98.4146C27.5048 98.4439 27.5529 98.4749 27.6036 98.502C27.6577 98.5308 27.7136 98.5557 27.7691 98.5814C27.8224 98.6063 27.8744 98.6329 27.929 98.6556C27.9832 98.6779 28.0382 98.6962 28.0933 98.7159C28.1514 98.7368 28.2082 98.7587 28.2676 98.777C28.3231 98.7936 28.379 98.8058 28.4349 98.8202C28.4947 98.8355 28.5541 98.8521 28.6153 98.8643C28.68 98.877 28.7451 98.8848 28.8101 98.894C28.8634 98.9014 28.9159 98.9119 28.97 98.9171C29.0902 98.9289 29.2112 98.9355 29.3317 98.9355C34.1823 98.9355 36.6106 104.801 33.1796 108.229L26.739 114.666C25.307 116.096 25.307 118.416 26.739 119.847Z" fill="white" fill-opacity="0.4"/>
<path d="M135.667 117.304C133.642 117.304 132 118.944 132 120.968C132 128.406 130.438 132.906 127.186 137.442C126.751 138.049 124.494 140.987 123.9 141.846C122.85 143.367 122.091 144.811 121.612 146.313C121.545 146.522 121.354 146.667 121.135 146.667C120.876 146.667 120.661 146.464 120.648 146.205C120.478 142.712 120.81 139.811 121.58 136.101C121.566 136.169 121.956 134.314 122.06 133.797C122.241 132.894 122.373 132.141 122.475 131.4C123.025 127.381 122.572 123.841 120.699 119.513C119.894 117.655 117.736 116.801 115.878 117.605C114.019 118.408 113.164 120.565 113.968 122.422C115.301 125.502 115.581 127.691 115.209 130.406C115.131 130.977 115.023 131.591 114.869 132.358C114.774 132.833 114.392 134.647 114.4 134.612C113.569 138.612 113.173 141.922 113.289 145.728C113.305 146.238 112.9 146.666 112.389 146.666C112.089 146.666 111.806 146.516 111.65 146.259C110.435 144.263 109.975 142.352 109.925 139.903C109.908 139.068 109.926 138.391 109.997 136.725C110.318 129.206 109.604 125.017 105.758 118.996C104.668 117.291 102.401 116.79 100.694 117.879C98.9877 118.968 98.4871 121.234 99.5766 122.939C102.453 127.443 102.933 130.258 102.671 136.413C102.593 138.235 102.572 139.011 102.593 140.053C102.648 142.753 103.086 145.166 104.065 147.496C105.224 150.26 106.334 153.109 106.334 156.106V176.028C106.334 188.149 96.4618 198.014 84.3335 198.014H73.3336C61.2054 198.014 51.3334 188.149 51.3334 176.028C51.3334 171.902 55.412 168.582 57.5794 165.071C58.269 163.954 58.6668 162.638 58.6668 161.228V160.888C58.6668 152.981 65.0766 146.571 72.9834 146.571H73.3336C77.3832 146.571 80.6671 143.292 80.6671 139.242V51.2999C80.6671 47.2503 77.3832 43.9713 73.3336 43.9713C71.3087 43.9713 69.6672 42.3297 69.6672 40.3048V10.9927C69.6672 4.92358 64.7404 0 58.6673 0H21.9998C15.9267 0 10.9999 4.92358 10.9999 10.9927V40.3048C10.9999 42.3297 9.35835 43.9713 7.33341 43.9713C3.2838 43.9713 0 47.2503 0 51.2999V139.243C0 143.292 3.2838 146.572 7.33341 146.572H7.68365C15.5905 146.572 22.0002 152.981 22.0002 160.888V161.229C22.0002 162.638 22.3981 163.955 23.0876 165.072C25.2551 168.583 29.3336 171.902 29.3336 176.029C29.3336 200.276 49.0705 220 73.3336 220H84.3335C108.597 220 128.334 200.276 128.334 176.029V150.331C128.334 150.323 128.332 150.315 128.332 150.307C128.332 150.298 128.334 150.291 128.334 150.282C128.334 148.846 128.783 147.678 129.935 146.009C130.399 145.339 132.602 142.471 133.147 141.71C137.259 135.974 139.333 130 139.333 120.968C139.333 118.944 137.692 117.304 135.667 117.304ZM18.3333 10.9927C18.3333 8.97098 19.9772 7.32862 21.9998 7.32862H58.6664C60.6894 7.32862 62.3329 8.97142 62.3329 10.9927V29.6547C62.3329 37.5615 55.9231 43.9713 48.0163 43.9713H32.6499C24.743 43.9713 18.3333 37.5615 18.3333 29.6547V10.9927ZM7.33341 58.6333C7.33341 54.5832 10.6167 51.2999 14.6668 51.2999H66.0002C70.0504 51.2999 73.3336 54.5832 73.3336 58.6333V124.926C73.3336 132.833 66.9239 139.243 59.0171 139.243H55.0003H25.6667H21.65C13.7431 139.243 7.33341 132.833 7.33341 124.926V58.6333ZM44.0048 146.572C48.0523 146.572 51.3334 149.853 51.3334 153.9V157.562C51.3334 159.587 49.6919 161.229 47.6669 161.229H33.0001C30.9752 161.229 29.3336 159.587 29.3336 157.562V153.9C29.3336 149.853 32.6148 146.572 36.6623 146.572H44.0048ZM121.001 176.029C121 176.029 121 176.029 121 176.029C121 196.229 104.546 212.671 84.3335 212.671H73.3336C53.1201 212.671 36.667 196.229 36.667 176.029V172.224C36.667 170.199 38.3087 168.557 40.3337 168.557C42.3588 168.557 44.0005 170.199 44.0005 172.224V176.029C44.0005 192.197 57.1553 205.343 73.3341 205.343H84.334C100.512 205.343 113.668 192.197 113.668 176.029V157.662C113.668 155.637 115.309 153.995 117.334 153.995C119.359 153.995 121.001 155.637 121.001 157.662V176.028C121.001 176.029 121.001 176.029 121.001 176.029Z" fill="white" fill-opacity="0.4"/>
<path d="M176 0.0966797H154C129.736 0.0966797 110 19.8207 110 44.068V73.3309V73.3314V73.3318C110 74.7685 109.55 75.9359 108.398 77.6049C107.935 78.275 105.732 81.1433 105.186 81.9042C101.075 87.6398 99 93.6137 99 102.646C99 104.67 100.642 106.31 102.666 106.31C104.691 106.31 106.333 104.669 106.333 102.646C106.333 95.2081 107.896 90.708 111.147 86.1721C111.583 85.5644 113.839 82.6272 114.433 81.7676C115.471 80.2645 116.223 78.8371 116.703 77.3539C116.772 77.1419 116.967 76.9946 117.19 76.9946C117.455 76.9946 117.675 77.2019 117.688 77.4671C117.852 80.9354 117.519 83.825 116.754 87.5136C116.768 87.4468 116.377 89.3014 116.274 89.8183C116.093 90.7211 115.96 91.4737 115.859 92.2146C115.308 96.2336 115.762 99.7724 117.635 104.1C118.439 105.958 120.597 106.812 122.456 106.009C124.315 105.205 125.169 103.048 124.365 101.191C123.032 98.1121 122.752 95.9236 123.124 93.2091C123.203 92.6372 123.31 92.0238 123.464 91.2563C123.559 90.7818 123.941 88.9687 123.934 89.0028C124.76 85.0255 125.157 81.7294 125.047 77.9492C125.031 77.4298 125.444 76.9941 125.964 76.9941C126.271 76.9941 126.559 77.1483 126.718 77.4113C127.908 79.3861 128.359 81.2828 128.409 83.7068C128.426 84.5437 128.408 85.2212 128.337 86.8898C128.016 94.4087 128.73 98.5976 132.576 104.617C133.666 106.323 135.933 106.822 137.64 105.733C139.347 104.644 139.847 102.379 138.757 100.673C135.881 96.1716 135.401 93.3566 135.663 87.2015C135.741 85.3762 135.762 84.6 135.74 83.5557C135.685 80.8583 135.247 78.448 134.27 76.12C133.11 73.356 132 70.5061 132 67.5086V44.0667C132 31.9463 141.872 22.0808 154 22.0808H176C188.128 22.0808 198 31.9463 198 44.0667V216.288C198 218.312 199.642 219.952 201.667 219.952H216.334C218.359 219.952 220 218.312 220 216.288V44.068C220 19.8203 200.264 0.0966797 176 0.0966797ZM212.667 212.625C208.617 212.625 205.333 209.342 205.333 205.292V44.068C205.333 27.9002 192.178 14.7535 176 14.7535H153.999C137.821 14.7535 124.666 27.8998 124.666 44.068V66.0001C124.666 68.0252 123.024 69.6668 120.999 69.6668C118.974 69.6668 117.332 68.0252 117.332 66.0001V44.068C117.332 23.8677 133.786 7.4253 153.999 7.4253H175.999C196.213 7.4253 212.666 23.8681 212.666 44.068V212.624C212.666 212.625 212.666 212.625 212.667 212.625Z" fill="white" fill-opacity="0.4"/>
</svg>
