<svg width="40" height="40" viewBox="0 0 40 40" fill="none" xmlns="http://www.w3.org/2000/svg">
<path d="M37.8723 0H2.12766C0.952766 0 0 0.952766 0 2.12766V37.8723C0 39.0472 0.952766 40 2.12766 40H37.8723C39.0477 40 40 39.0472 40 37.8723V2.12766C40 0.952766 39.0477 0 37.8723 0ZM28.4809 9.09106L25.406 9.09234C22.9957 9.09234 22.5289 10.2379 22.5289 11.9191V15.626H28.2783L28.2766 21.4319H22.5289V36.3306H16.5328V21.4319H11.5191V15.626H16.5328V11.3443C16.5328 6.37532 19.5681 3.66936 24 3.66936L28.4809 3.6766V9.09106Z" fill="black" fill-opacity="0.4"/>
</svg>
