<svg width="154" height="203" viewBox="0 0 154 203" fill="none" xmlns="http://www.w3.org/2000/svg">
<path d="M131.488 81.093C121.512 70.6047 108.209 63.1861 93.3721 60.1163V50.907C93.3721 48.8605 92.6046 46.814 91.0698 45.5349C89.5349 44.2558 87.7442 43.2326 85.6977 43.2326H81.6047L81.3488 3.83721C81.3488 1.53488 79.5581 0 77.5116 0C75.2093 0 73.6744 1.7907 73.6744 3.83721L73.9302 43.2326H69.8372C67.7907 43.2326 65.7442 44 64.4651 45.5349C63.1861 47.0698 62.1628 48.8605 62.1628 50.907V59.8605C46.5581 63.1861 33 70.6047 22.5116 81.093C8.44186 95.1628 0 114.349 0 135.837C0 138.14 1.7907 139.674 3.83721 139.674H44.7674C45.7907 147.093 48.8605 153.744 53.9767 158.86C59.8605 164.744 68.0465 168.326 77 168.326C85.9535 168.326 94.1395 164.744 100.023 158.86C105.14 153.744 108.209 147.093 109.233 139.674H150.163C152.465 139.674 154 137.884 154 135.837C154 114.605 145.302 95.1628 131.488 81.093ZM69.5814 51.1628H85.4419V58.8372C85.1861 58.8372 85.1861 58.8372 84.9302 58.8372C84.4186 58.8372 84.1628 58.8372 83.6512 58.8372C81.6047 58.5814 79.3023 58.5814 77.2558 58.5814C75.2093 58.3256 73.1628 58.5814 71.1163 58.5814C70.6047 58.5814 70.093 58.5814 69.5814 58.8372V51.1628ZM94.6512 153.233C90.0465 157.837 83.907 160.395 77.2558 160.395C70.3488 160.395 64.2093 157.581 59.8605 153.233C56.2791 149.651 53.7209 145.047 52.9535 139.674H77.2558H101.814C100.791 144.791 98.4884 149.651 94.6512 153.233ZM105.907 131.744H77.2558H48.6047H7.93023C8.95349 114.093 16.3721 98.2326 28.1395 86.7209C38.8837 75.9768 52.9535 68.814 68.814 67.0233C69.3256 67.0233 70.093 66.7674 70.6046 66.7674C72.6512 66.5116 74.9535 66.5116 77 66.5116C79.3023 66.5116 81.3488 66.5116 83.6512 66.7674C84.1628 66.7674 84.9302 67.0233 85.4419 67.0233C101.302 68.814 115.372 75.9768 126.116 86.7209C137.884 98.4884 145.302 114.093 146.326 131.744H105.907Z" fill="black" fill-opacity="0.4"/>
<path d="M77.2571 173.699C74.9548 173.699 73.4199 175.49 73.4199 177.536V198.769C73.4199 201.071 75.2106 202.606 77.2571 202.606C79.5595 202.606 81.0943 200.815 81.0943 198.769V177.536C81.0943 175.234 79.5595 173.699 77.2571 173.699Z" fill="black" fill-opacity="0.4"/>
<path d="M112.305 188.279L101.561 169.86C100.538 168.07 97.9797 167.302 96.189 168.326C94.3983 169.349 93.6309 171.907 94.6541 173.698L105.398 192.116C106.422 193.907 108.98 194.674 110.77 193.651C112.561 192.628 113.329 190.07 112.305 188.279Z" fill="black" fill-opacity="0.4"/>
<path d="M133.789 163.977L115.371 153.233C113.58 152.21 111.022 152.722 109.998 154.768C108.975 156.559 109.487 159.117 111.533 160.14L129.952 170.884C131.743 171.908 134.301 171.396 135.324 169.35C136.347 167.559 135.836 165.001 133.789 163.977Z" fill="black" fill-opacity="0.4"/>
<path d="M44.508 154.769C43.4848 152.978 40.9266 152.21 39.1359 153.234L20.7173 163.978C18.9266 165.001 18.1592 167.559 19.1824 169.35C20.2057 171.141 22.7638 171.908 24.5545 170.885L42.9731 160.141C44.7638 158.862 45.5313 156.559 44.508 154.769Z" fill="black" fill-opacity="0.4"/>
<path d="M58.3288 168.326C56.5381 167.302 53.98 168.07 52.9567 169.86L42.2126 188.279C41.1893 190.07 41.7009 192.628 43.7474 193.651C45.5381 194.674 48.0963 194.163 49.1195 192.116L59.8637 173.698C60.887 171.907 60.3753 169.349 58.3288 168.326Z" fill="black" fill-opacity="0.4"/>
</svg>
