<svg width="65" height="110" viewBox="0 0 65 110" fill="none" xmlns="http://www.w3.org/2000/svg">
<path d="M48.3817 1.15882C48.2201 0.813929 47.9574 0.521015 47.6253 0.315401C47.2932 0.109787 46.9059 0.000251466 46.51 0H18.4889C18.093 0.000285337 17.7056 0.109859 17.3735 0.315512C17.0413 0.521166 16.7786 0.81412 16.6169 1.15906L0.177558 36.3242C0.0384559 36.622 -0.020427 36.9484 0.00626446 37.2735C0.032956 37.5986 0.144375 37.9122 0.33039 38.1858C0.516405 38.4593 0.771116 38.6842 1.07136 38.8398C1.37161 38.9955 1.70786 39.0771 2.04956 39.0771H21.1893V55.0836C20.0547 55.4224 19.0849 56.1379 18.4555 57.1003C17.826 58.0628 17.5787 59.2087 17.7582 60.3302C17.9378 61.4518 18.5323 62.4749 19.4342 63.2141C20.336 63.9533 21.4854 64.3597 22.6742 64.3597C23.863 64.3597 25.0124 63.9533 25.9142 63.2141C26.8161 62.4749 27.4106 61.4518 27.5902 60.3302C27.7697 59.2087 27.5224 58.0628 26.8929 57.1003C26.2635 56.1379 25.2937 55.4224 24.1591 55.0836V39.0771H31.0145V107.166H19.026C18.6322 107.166 18.2545 107.315 17.976 107.581C17.6975 107.846 17.5411 108.207 17.5411 108.583C17.5411 108.959 17.6975 109.319 17.976 109.585C18.2545 109.851 18.6322 110 19.026 110H45.9729C46.3668 110 46.7445 109.851 47.0229 109.585C47.3014 109.319 47.4579 108.959 47.4579 108.583C47.4579 108.207 47.3014 107.846 47.0229 107.581C46.7445 107.315 46.3668 107.166 45.9729 107.166H33.9844V39.0771H62.9504C63.2921 39.0771 63.6284 38.9954 63.9286 38.8397C64.2289 38.684 64.4836 38.4591 64.6696 38.1855C64.8557 37.9119 64.9671 37.5983 64.9937 37.2731C65.0204 36.948 64.9615 36.6216 64.8223 36.3237L48.3817 1.15882ZM22.6742 61.5252C22.278 61.5252 21.8907 61.413 21.5613 61.203C21.2318 60.9929 20.9751 60.6943 20.8235 60.3449C20.6719 59.9956 20.6322 59.6111 20.7095 59.2403C20.7869 58.8694 20.9777 58.5287 21.2578 58.2614C21.538 57.994 21.895 57.8119 22.2836 57.7382C22.6721 57.6645 23.0749 57.7023 23.4409 57.8471C23.807 57.9918 24.1198 58.2369 24.3399 58.5513C24.56 58.8658 24.6774 59.2354 24.6774 59.6136C24.6769 60.1205 24.4657 60.6065 24.0901 60.9649C23.7146 61.3233 23.2053 61.5248 22.6742 61.5252ZM3.46667 36.2427L19.0856 2.83447H45.9133L61.5322 36.2427H3.46667Z" fill="black" fill-opacity="0.4"/>
</svg>
