<svg width="47" height="50" viewBox="0 0 47 50" fill="none" xmlns="http://www.w3.org/2000/svg">
<path d="M38.5119 30.3617L29.2782 35.9758C28.8583 35.2644 28.1981 34.7472 27.4305 34.5283L16.9147 31.56C15.1307 31.0516 13.2287 31.2987 11.6153 32.2484L7.90961 34.4167V32.5C7.90961 32.279 7.82628 32.0671 7.67794 31.9108C7.52961 31.7545 7.32842 31.6667 7.11865 31.6667H0.790961C0.581185 31.6667 0.380001 31.7545 0.231667 31.9108C0.0833331 32.0671 0 32.279 0 32.5V49.1666C0 49.3876 0.0833331 49.5996 0.231667 49.7558C0.380001 49.9121 0.581185 49.9999 0.790961 49.9999H7.11865C7.32842 49.9999 7.52961 49.9121 7.67794 49.7558C7.82628 49.5996 7.90961 49.3876 7.90961 49.1666V46.8774C9.12612 47.8246 10.5993 48.335 12.112 48.3333H19.6752C20.9151 48.3326 22.1334 47.9914 23.21 47.3433L41.6789 36.1367C42.1594 35.8446 42.5579 35.4236 42.8338 34.9166C43.1098 34.4095 43.2533 33.8345 43.2497 33.25C43.2492 32.666 43.103 32.0924 42.8259 31.5866C42.5487 31.0808 42.1503 30.6606 41.6704 30.3681C41.1906 30.0756 40.6463 29.9211 40.092 29.9199C39.5376 29.9188 38.9928 30.0711 38.5119 30.3617ZM6.32769 48.3333H1.58192V33.3334H6.32769V48.3333ZM40.8856 34.6942L22.423 45.8983C21.5859 46.4014 20.6389 46.6662 19.6752 46.6666H12.112C11.3846 46.6687 10.6641 46.5187 9.99219 46.2253C9.32025 45.9319 8.71025 45.501 8.19752 44.9575L7.90961 44.6541V36.3208L12.3833 33.7025C13.6381 32.9639 15.1175 32.7718 16.505 33.1675L27.0208 36.1358C27.225 36.189 27.417 36.2846 27.5857 36.4169C27.7544 36.5492 27.8964 36.7157 28.0033 36.9065C28.1103 37.0973 28.18 37.3086 28.2085 37.5282C28.2369 37.7477 28.2235 37.9711 28.1691 38.1851C28.1147 38.3991 28.0203 38.5996 27.8915 38.7747C27.7626 38.9499 27.6019 39.0962 27.4188 39.2051C27.2356 39.3141 27.0337 39.3834 26.8248 39.4091C26.6159 39.4349 26.4042 39.4165 26.2022 39.355L19.2551 37.3942C19.1548 37.3658 19.0502 37.3586 18.9472 37.3728C18.8442 37.3871 18.7448 37.4226 18.6549 37.4773C18.5649 37.532 18.486 37.6049 18.4228 37.6917C18.3595 37.7785 18.3131 37.8776 18.2862 37.9833C18.2593 38.089 18.2524 38.1993 18.266 38.3078C18.2795 38.4163 18.3132 38.521 18.3652 38.6158C18.4171 38.7106 18.4862 38.7936 18.5686 38.8603C18.651 38.9269 18.7451 38.9758 18.8454 39.0042C18.8454 39.0042 26.339 41.0833 26.6166 41.0833C27.0437 41.0883 27.4672 41.0007 27.8607 40.8258C28.2542 40.6509 28.6093 40.3926 28.904 40.0668C29.1986 39.7411 29.4264 39.3549 29.5733 38.9324C29.7201 38.5099 29.7829 38.06 29.7575 37.6108L39.3005 31.8067C39.6622 31.588 40.0912 31.5285 40.4942 31.6414C40.8973 31.7542 41.2418 32.0302 41.4527 32.4092C41.5929 32.6651 41.6671 32.9553 41.6678 33.2509C41.67 33.5428 41.5987 33.8301 41.4613 34.0836C41.3239 34.3371 41.1253 34.5478 40.8856 34.6942Z" fill="black" fill-opacity="0.4"/>
<path d="M28.4749 33.3329C30.3522 33.3329 32.1873 32.7464 33.7481 31.6476C35.309 30.5488 36.5256 28.987 37.2439 27.1598C37.9623 25.3325 38.1503 23.3219 37.7841 21.3821C37.4178 19.4423 36.5139 17.6604 35.1864 16.2619C33.859 14.8634 32.1678 13.911 30.3266 13.5252C28.4854 13.1393 26.577 13.3373 24.8427 14.0942C23.1083 14.8511 21.626 16.1328 20.583 17.7773C19.5401 19.4218 18.9834 21.3551 18.9834 23.3329C18.9861 25.9842 19.987 28.5261 21.7664 30.4008C23.5458 32.2755 25.9584 33.33 28.4749 33.3329ZM28.4749 14.9997C30.0393 14.9997 31.5685 15.4884 32.8693 16.4041C34.17 17.3198 35.1838 18.6212 35.7824 20.1439C36.3811 21.6666 36.5377 23.3422 36.2325 24.9587C35.9273 26.5752 35.174 28.06 34.0679 29.2255C32.9617 30.3909 31.5523 31.1846 30.018 31.5061C28.4837 31.8276 26.8933 31.6626 25.448 31.0319C24.0028 30.4012 22.7674 29.3331 21.8983 27.9627C21.0292 26.5923 20.5653 24.9811 20.5653 23.3329C20.5676 21.1236 21.4017 19.0054 22.8845 17.4431C24.3674 15.8808 26.3779 15.0021 28.4749 14.9997Z" fill="black" fill-opacity="0.4"/>
<path d="M11.8641 10.8333C11.6543 10.8333 11.4531 10.7455 11.3048 10.5892C11.1565 10.4329 11.0731 10.221 11.0731 9.99995C11.0731 9.77894 10.9898 9.56698 10.8415 9.4107C10.6931 9.25442 10.4919 9.16663 10.2822 9.16663C10.0724 9.16663 9.87121 9.25442 9.72288 9.4107C9.57454 9.56698 9.49121 9.77894 9.49121 9.99995C9.49324 10.5152 9.64631 11.0171 9.92947 11.4372C10.2126 11.8572 10.6121 12.1749 11.0731 12.3466V13.3333C11.0731 13.5543 11.1565 13.7662 11.3048 13.9225C11.4531 14.0788 11.6543 14.1666 11.8641 14.1666C12.0739 14.1666 12.2751 14.0788 12.4234 13.9225C12.5717 13.7662 12.6551 13.5543 12.6551 13.3333V12.3466C13.1824 12.1509 13.6269 11.7649 13.91 11.257C14.1931 10.7491 14.2964 10.152 14.2017 9.57147C14.107 8.99097 13.8203 8.46453 13.3924 8.08538C12.9646 7.70623 12.4232 7.49885 11.8641 7.49997C11.7077 7.49997 11.5547 7.45109 11.4247 7.35953C11.2946 7.26796 11.1932 7.13781 11.1333 6.98554C11.0735 6.83327 11.0578 6.66572 11.0883 6.50407C11.1188 6.34242 11.1942 6.19393 11.3048 6.07739C11.4154 5.96085 11.5564 5.88148 11.7098 5.84932C11.8632 5.81717 12.0223 5.83367 12.1668 5.89675C12.3113 5.95982 12.4348 6.06663 12.5218 6.20367C12.6087 6.34071 12.6551 6.50182 12.6551 6.66664C12.6551 6.88765 12.7384 7.09961 12.8867 7.25589C13.0351 7.41217 13.2362 7.49997 13.446 7.49997C13.6558 7.49997 13.857 7.41217 14.0053 7.25589C14.1536 7.09961 14.237 6.88765 14.237 6.66664C14.2349 6.15143 14.0819 5.64946 13.7987 5.2294C13.5155 4.80935 13.1161 4.49172 12.6551 4.31999V3.33333C12.6551 3.11232 12.5717 2.90036 12.4234 2.74408C12.2751 2.5878 12.0739 2.5 11.8641 2.5C11.6543 2.5 11.4531 2.5878 11.3048 2.74408C11.1565 2.90036 11.0731 3.11232 11.0731 3.33333V4.31999C10.5458 4.51567 10.1012 4.90166 9.81816 5.40959C9.53508 5.91752 9.43176 6.51462 9.5265 7.09512C9.62123 7.67562 9.90791 8.20207 10.3358 8.58121C10.7636 8.96036 11.305 9.16774 11.8641 9.16663C12.0739 9.16663 12.2751 9.25442 12.4234 9.4107C12.5717 9.56698 12.6551 9.77894 12.6551 9.99995C12.6551 10.221 12.5717 10.4329 12.4234 10.5892C12.2751 10.7455 12.0739 10.8333 11.8641 10.8333Z" fill="black" fill-opacity="0.4"/>
<path d="M11.8647 16.6666C13.4291 16.6666 14.9583 16.1778 16.259 15.2622C17.5598 14.3465 18.5736 13.045 19.1722 11.5223C19.7709 9.99959 19.9275 8.32404 19.6223 6.70754C19.3171 5.09104 18.5638 3.6062 17.4576 2.44077C16.3514 1.27534 14.9421 0.481667 13.4078 0.160125C11.8735 -0.161416 10.2831 0.00361068 8.83781 0.634337C7.39252 1.26506 6.15721 2.33316 5.28809 3.70356C4.41897 5.07396 3.95508 6.68512 3.95508 8.33329C3.95738 10.5427 4.79145 12.6609 6.27429 14.2231C7.75713 15.7854 9.76763 16.6641 11.8647 16.6666ZM11.8647 1.66666C13.1162 1.66666 14.3396 2.05765 15.3802 2.79019C16.4207 3.52273 17.2318 4.56391 17.7107 5.78208C18.1896 7.00025 18.3149 8.34068 18.0708 9.63388C17.8266 10.9271 17.224 12.115 16.339 13.0473C15.4541 13.9796 14.3266 14.6146 13.0992 14.8718C11.8717 15.129 10.5994 14.997 9.44319 14.4924C8.28695 13.9879 7.2987 13.1334 6.60341 12.0371C5.90811 10.9407 5.537 9.65182 5.537 8.33329C5.53888 6.5658 6.20615 4.87127 7.39242 3.62146C8.57868 2.37166 10.1871 1.66865 11.8647 1.66666Z" fill="black" fill-opacity="0.4"/>
<path d="M28.4744 27.4996C28.0548 27.4996 27.6525 27.324 27.3558 27.0114C27.0591 26.6989 26.8925 26.275 26.8925 25.8329C26.8925 25.6119 26.8091 25.4 26.6608 25.2437C26.5125 25.0874 26.3113 24.9996 26.1015 24.9996C25.8917 24.9996 25.6905 25.0874 25.5422 25.2437C25.3939 25.4 25.3105 25.6119 25.3105 25.8329C25.3132 26.5698 25.5475 27.2849 25.9768 27.8666C26.4061 28.4483 27.0063 28.8637 27.6834 29.0479V29.9996C27.6834 30.2206 27.7668 30.4326 27.9151 30.5888C28.0634 30.7451 28.2646 30.8329 28.4744 30.8329C28.6842 30.8329 28.8854 30.7451 29.0337 30.5888C29.182 30.4326 29.2654 30.2206 29.2654 29.9996V29.0479C30.0101 28.846 30.6594 28.3646 31.0912 27.6941C31.523 27.0236 31.7077 26.2101 31.6106 25.4063C31.5135 24.6025 31.1413 23.8637 30.5639 23.3285C29.9864 22.7934 29.2435 22.4986 28.4744 22.4996C28.1615 22.4996 27.8557 22.4019 27.5955 22.2187C27.3354 22.0356 27.1326 21.7753 27.0129 21.4708C26.8932 21.1662 26.8618 20.8311 26.9229 20.5078C26.9839 20.1845 27.1346 19.8876 27.3558 19.6545C27.577 19.4214 27.8589 19.2627 28.1658 19.1983C28.4726 19.134 28.7907 19.167 29.0798 19.2932C29.3688 19.4193 29.6159 19.633 29.7897 19.907C29.9635 20.1811 30.0563 20.5033 30.0563 20.833C30.0563 21.054 30.1396 21.2659 30.288 21.4222C30.4363 21.5785 30.6375 21.6663 30.8473 21.6663C31.057 21.6663 31.2582 21.5785 31.4066 21.4222C31.5549 21.2659 31.6382 21.054 31.6382 20.833C31.6356 20.0961 31.4013 19.381 30.972 18.7993C30.5427 18.2176 29.9425 17.8022 29.2654 17.618V16.6663C29.2654 16.4453 29.182 16.2334 29.0337 16.0771C28.8854 15.9208 28.6842 15.833 28.4744 15.833C28.2646 15.833 28.0634 15.9208 27.9151 16.0771C27.7668 16.2334 27.6834 16.4453 27.6834 16.6663V17.618C26.9386 17.82 26.2894 18.3014 25.8576 18.9719C25.4258 19.6423 25.2411 20.4558 25.3382 21.2596C25.4353 22.0634 25.8075 22.8022 26.3849 23.3374C26.9623 23.8726 27.7053 24.1673 28.4744 24.1663C28.8939 24.1663 29.2963 24.3419 29.593 24.6544C29.8896 24.967 30.0563 25.3909 30.0563 25.8329C30.0563 26.275 29.8896 26.6989 29.593 27.0114C29.2963 27.324 28.8939 27.4996 28.4744 27.4996Z" fill="black" fill-opacity="0.4"/>
<path d="M40.3394 0C39.0879 0 37.8645 0.390991 36.8239 1.12353C35.7834 1.85607 34.9723 2.89725 34.4934 4.11542C34.0145 5.33358 33.8892 6.67402 34.1333 7.96722C34.3775 9.26042 34.9801 10.4483 35.8651 11.3806C36.75 12.313 37.8775 12.9479 39.1049 13.2052C40.3324 13.4624 41.6047 13.3304 42.7609 12.8258C43.9171 12.3212 44.9054 11.4667 45.6007 10.3704C46.296 9.27408 46.6671 7.98516 46.6671 6.66662C46.6652 4.89914 45.9979 3.20461 44.8117 1.9548C43.6254 0.704997 42.017 0.00198508 40.3394 0ZM40.3394 9.16661C40.1296 9.16661 39.9284 9.07881 39.7801 8.92253C39.6318 8.76625 39.5484 8.55429 39.5484 8.33328C39.5484 8.11227 39.4651 7.90031 39.3168 7.74403C39.1684 7.58775 38.9673 7.49995 38.7575 7.49995C38.5477 7.49995 38.3465 7.58775 38.1982 7.74403C38.0499 7.90031 37.9665 8.11227 37.9665 8.33328C37.9686 8.84849 38.1216 9.35047 38.4048 9.77052C38.688 10.1906 39.0874 10.5082 39.5484 10.6799V11.5916C38.4431 11.3957 37.4394 10.7935 36.7155 9.8919C35.9916 8.99027 35.5944 7.84755 35.5944 6.66662C35.5944 5.4857 35.9916 4.34298 36.7155 3.44135C37.4394 2.53972 38.4431 1.93752 39.5484 1.74166V2.65332C39.0211 2.849 38.5766 3.23499 38.2935 3.74292C38.0104 4.25085 37.9071 4.84795 38.0018 5.42845C38.0965 6.00895 38.3832 6.53539 38.8111 6.91454C39.2389 7.29369 39.7803 7.50107 40.3394 7.49995C40.5492 7.49995 40.7504 7.58775 40.8987 7.74403C41.047 7.90031 41.1304 8.11227 41.1304 8.33328C41.1304 8.55429 41.047 8.76625 40.8987 8.92253C40.7504 9.07881 40.5492 9.16661 40.3394 9.16661ZM41.1304 11.5916V10.6799C41.6577 10.4843 42.1023 10.0983 42.3853 9.59033C42.6684 9.0824 42.7717 8.4853 42.677 7.9048C42.5823 7.3243 42.2956 6.79786 41.8677 6.41871C41.4399 6.03956 40.8985 5.83218 40.3394 5.8333C40.183 5.8333 40.03 5.78442 39.9 5.69286C39.7699 5.60129 39.6685 5.47114 39.6087 5.31887C39.5488 5.1666 39.5331 4.99904 39.5636 4.83739C39.5942 4.67574 39.6695 4.52726 39.7801 4.41072C39.8907 4.29417 40.0317 4.21481 40.1851 4.18265C40.3385 4.1505 40.4976 4.167 40.6421 4.23007C40.7866 4.29315 40.9102 4.39996 40.9971 4.537C41.084 4.67404 41.1304 4.83515 41.1304 4.99997C41.1304 5.22098 41.2137 5.43294 41.362 5.58922C41.5104 5.7455 41.7116 5.8333 41.9213 5.8333C42.1311 5.8333 42.3323 5.7455 42.4806 5.58922C42.629 5.43294 42.7123 5.22098 42.7123 4.99997C42.7103 4.48475 42.5572 3.98278 42.274 3.56273C41.9909 3.14267 41.5914 2.82505 41.1304 2.65332V1.74166C42.2357 1.93752 43.2395 2.53972 43.9633 3.44135C44.6872 4.34298 45.0844 5.4857 45.0844 6.66662C45.0844 7.84755 44.6872 8.99027 43.9633 9.8919C43.2395 10.7935 42.2357 11.3957 41.1304 11.5916Z" fill="black" fill-opacity="0.4"/>
</svg>
