<svg width="137" height="141" viewBox="0 0 137 141" fill="none" xmlns="http://www.w3.org/2000/svg">
<path d="M31.6158 59.1221C32.5868 58.6779 33.4043 57.9558 33.9649 57.047C34.5255 56.1382 34.8041 55.0836 34.7653 54.0166C34.7265 52.9495 34.3722 51.9179 33.7471 51.0522C33.1221 50.1865 32.2543 49.5256 31.2537 49.1531C30.253 48.7805 29.1643 48.7131 28.1253 48.9593C27.0863 49.2055 26.1436 49.7543 25.4165 50.5362C24.6894 51.3182 24.2105 52.2982 24.0403 53.3523C23.8702 54.4064 24.0164 55.4873 24.4606 56.4583C25.0562 57.7604 26.1447 58.7726 27.4865 59.2721C28.8284 59.7717 30.3138 59.7177 31.6158 59.1221ZM28.6215 52.5761C28.9452 52.428 29.3055 52.3793 29.6569 52.436C30.0082 52.4927 30.3349 52.6523 30.5956 52.8947C30.8562 53.1371 31.0391 53.4513 31.1212 53.7976C31.2033 54.144 31.1808 54.5069 31.0566 54.8404C30.9324 55.174 30.7121 55.4632 30.4236 55.6716C30.135 55.88 29.7911 55.9981 29.4354 56.011C29.0797 56.0239 28.7282 55.9311 28.4253 55.7442C28.1224 55.5573 27.8816 55.2848 27.7336 54.9612C27.5351 54.5271 27.5171 54.032 27.6836 53.5847C27.8501 53.1374 28.1875 52.7746 28.6215 52.5761Z" fill="black" fill-opacity="0.4"/>
<path d="M37.6046 72.2149C38.5756 71.7707 39.3931 71.0486 39.9537 70.1398C40.5143 69.231 40.7928 68.1764 40.7541 67.1093C40.7153 66.0423 40.361 65.0107 39.7359 64.145C39.1108 63.2793 38.2431 62.6184 37.2424 62.2458C36.2417 61.8733 35.1531 61.8059 34.1141 62.0521C33.0751 62.2983 32.1324 62.847 31.4053 63.629C30.6782 64.4109 30.1992 65.3909 30.0291 66.4451C29.8589 67.4992 30.0052 68.5801 30.4494 69.5511C31.045 70.8532 32.1334 71.8653 33.4753 72.3649C34.8172 72.8644 36.3025 72.8105 37.6046 72.2149ZM34.6103 65.6689C34.9339 65.5208 35.2943 65.472 35.6456 65.5288C35.997 65.5855 36.3237 65.7451 36.5843 65.9875C36.845 66.2299 37.0279 66.5441 37.11 66.8904C37.192 67.2368 37.1696 67.5996 37.0454 67.9332C36.9212 68.2668 36.7009 68.556 36.4123 68.7644C36.1238 68.9727 35.7799 69.0908 35.4242 69.1038C35.0685 69.1167 34.717 69.0238 34.4141 68.837C34.1111 68.6501 33.8704 68.3776 33.7224 68.0539C33.5238 67.6199 33.5058 67.1248 33.6724 66.6775C33.8389 66.2302 34.1763 65.8674 34.6103 65.6689Z" fill="black" fill-opacity="0.4"/>
<path d="M49.5814 98.3975C50.5524 97.9533 51.3699 97.2312 51.9305 96.3224C52.4911 95.4136 52.7696 94.359 52.7309 93.292C52.6921 92.2249 52.3378 91.1933 51.7127 90.3276C51.0876 89.4619 50.2199 88.801 49.2192 88.4285C48.2185 88.0559 47.1299 87.9885 46.0909 88.2347C45.0519 88.4809 44.1092 89.0297 43.3821 89.8116C42.655 90.5935 42.1761 91.5735 42.0059 92.6277C41.8357 93.6818 41.982 94.7627 42.4262 95.7337C43.0218 97.0358 44.1102 98.0479 45.4521 98.5475C46.794 99.047 48.2793 98.9931 49.5814 98.3975ZM46.5871 91.8515C46.9108 91.7034 47.2711 91.6547 47.6224 91.7114C47.9738 91.7681 48.3005 91.9277 48.5611 92.1701C48.8218 92.4125 49.0047 92.7267 49.0868 93.073C49.1688 93.4194 49.1464 93.7823 49.0222 94.1158C48.898 94.4494 48.6777 94.7386 48.3891 94.947C48.1006 95.1553 47.7567 95.2734 47.401 95.2864C47.0453 95.2993 46.6938 95.2065 46.3909 95.0196C46.0879 94.8327 45.8472 94.5602 45.6992 94.2366C45.5006 93.8025 45.4826 93.3074 45.6492 92.8601C45.8157 92.4128 46.1531 92.05 46.5871 91.8515Z" fill="black" fill-opacity="0.4"/>
<path d="M55.5702 111.49C56.5412 111.046 57.3587 110.324 57.9193 109.415C58.4799 108.506 58.7584 107.452 58.7196 106.385C58.6809 105.318 58.3265 104.286 57.7015 103.42C57.0764 102.555 56.2087 101.894 55.208 101.521C54.2073 101.149 53.1186 101.081 52.0796 101.327C51.0406 101.574 50.098 102.122 49.3709 102.904C48.6437 103.686 48.1648 104.666 47.9947 105.72C47.8245 106.775 47.9708 107.855 48.4149 108.826C49.0105 110.129 50.099 111.141 51.4409 111.64C52.7827 112.14 54.2681 112.086 55.5702 111.49ZM52.5759 104.944C52.8995 104.796 53.2598 104.747 53.6112 104.804C53.9626 104.861 54.2892 105.021 54.5499 105.263C54.8105 105.505 54.9935 105.819 55.0755 106.166C55.1576 106.512 55.1351 106.875 55.0109 107.209C54.8868 107.542 54.6665 107.831 54.3779 108.04C54.0893 108.248 53.7455 108.366 53.3898 108.379C53.0341 108.392 52.6826 108.299 52.3796 108.112C52.0767 107.925 51.836 107.653 51.6879 107.329C51.4894 106.895 51.4714 106.4 51.6379 105.953C51.8044 105.506 52.1418 105.143 52.5759 104.944Z" fill="black" fill-opacity="0.4"/>
<path d="M61.559 124.582C62.53 124.138 63.3475 123.416 63.908 122.507C64.4686 121.598 64.7472 120.544 64.7084 119.477C64.6696 118.409 64.3153 117.378 63.6903 116.512C63.0652 115.646 62.1974 114.986 61.1968 114.613C60.1961 114.24 59.1074 114.173 58.0684 114.419C57.0294 114.665 56.0867 115.214 55.3596 115.996C54.6325 116.778 54.1536 117.758 53.9834 118.812C53.8133 119.866 53.9595 120.947 54.4037 121.918C54.9993 123.22 56.0878 124.233 57.4296 124.732C58.7715 125.232 60.2569 125.178 61.559 124.582ZM58.5646 118.036C58.8883 117.888 59.2486 117.839 59.6 117.896C59.9514 117.953 60.278 118.112 60.5387 118.355C60.7993 118.597 60.9822 118.911 61.0643 119.258C61.1464 119.604 61.1239 119.967 60.9997 120.3C60.8755 120.634 60.6552 120.923 60.3667 121.132C60.0781 121.34 59.7342 121.458 59.3785 121.471C59.0229 121.484 58.6713 121.391 58.3684 121.204C58.0655 121.017 57.8248 120.745 57.6767 120.421C57.4782 119.987 57.4602 119.492 57.6267 119.045C57.7932 118.597 58.1306 118.235 58.5646 118.036Z" fill="black" fill-opacity="0.4"/>
<path d="M43.5929 85.3057C44.5639 84.8615 45.3814 84.1394 45.942 83.2306C46.5026 82.3218 46.7811 81.2672 46.7423 80.2002C46.7036 79.1331 46.3493 78.1015 45.7242 77.2358C45.0991 76.3701 44.2314 75.7092 43.2307 75.3367C42.23 74.9641 41.1413 74.8967 40.1023 75.1429C39.0633 75.3891 38.1207 75.9379 37.3936 76.7198C36.6664 77.5017 36.1875 78.4817 36.0174 79.5359C35.8472 80.59 35.9935 81.6709 36.4376 82.6419C37.0333 83.944 38.1217 84.9561 39.4636 85.4557C40.8055 85.9552 42.2908 85.9013 43.5929 85.3057ZM40.5986 78.7597C40.9222 78.6116 41.2825 78.5629 41.6339 78.6196C41.9853 78.6763 42.312 78.8359 42.5726 79.0783C42.8333 79.3207 43.0162 79.6349 43.0982 79.9812C43.1803 80.3276 43.1578 80.6905 43.0337 81.024C42.9095 81.3576 42.6892 81.6468 42.4006 81.8552C42.112 82.0635 41.7682 82.1817 41.4125 82.1946C41.0568 82.2075 40.7053 82.1147 40.4023 81.9278C40.0994 81.7409 39.8587 81.4684 39.7106 81.1448C39.5121 80.7107 39.4941 80.2156 39.6606 79.7683C39.8272 79.321 40.1645 78.9582 40.5986 78.7597Z" fill="black" fill-opacity="0.4"/>
<path d="M58.0073 134.122L71.0993 128.133C71.5333 127.935 71.8707 127.572 72.0372 127.125C72.2037 126.677 72.1857 126.182 71.9872 125.748L35.3066 45.5598L45.1256 41.0683L75.8175 108.165C76.0161 108.599 76.379 108.936 76.8263 109.103L95.9069 116.206C96.3542 116.372 96.8493 116.355 97.2833 116.156L110.375 110.167C110.809 109.969 111.147 109.606 111.313 109.159L118.416 90.078C118.583 89.6308 118.565 89.1357 118.367 88.7017L80.9374 6.87669C80.7389 6.44266 80.3761 6.10528 79.9288 5.93876C79.4815 5.77225 78.9863 5.79024 78.5523 5.98877L65.4603 11.9774C65.0263 12.176 64.6889 12.5388 64.5224 12.9861C64.3559 13.4334 64.3739 13.9285 64.5724 14.3625L101.253 94.551L91.434 99.0425L54.7534 18.854C54.5549 18.42 54.192 18.0826 53.7448 17.9161C53.2975 17.7496 52.8023 17.7676 52.3683 17.9661L26.1843 29.9434C25.7504 30.142 25.4131 30.5049 25.2466 30.9522L18.1433 50.0328C17.9767 50.4801 17.9946 50.9751 18.1931 51.4092L55.6222 133.234C55.8207 133.668 56.1836 134.006 56.6308 134.172C57.0781 134.339 57.5733 134.321 58.0073 134.122ZM102.28 88.1444L68.594 14.5019L78.413 10.0104L114.784 89.5214L109.456 103.832L102.28 88.1444ZM92.9311 102.316L102.75 97.824L107.242 107.643L97.4226 112.135L92.9311 102.316ZM76.0962 100.122L42.41 26.4792L52.229 21.9877L93.0911 111.318L78.7806 105.99L76.0962 100.122ZM29.318 32.4678L39.137 27.9763L43.6285 37.7953L33.8095 42.2868L29.318 32.4678ZM54.4037 121.918L21.776 50.5895L27.1035 36.279L67.9656 125.609L58.1466 130.101L54.4037 121.918Z" fill="black" fill-opacity="0.4"/>
<path d="M109.436 90.8086C110.407 90.3644 111.224 89.6423 111.785 88.7335C112.345 87.8248 112.624 86.7702 112.585 85.7031C112.546 84.636 112.192 83.6044 111.567 82.7387C110.942 81.873 110.074 81.2121 109.073 80.8396C108.073 80.4671 106.984 80.3996 105.945 80.6458C104.906 80.892 103.963 81.4408 103.236 82.2227C102.509 83.0047 102.03 83.9847 101.86 85.0388C101.69 86.0929 101.836 87.1738 102.28 88.1449C102.876 89.4469 103.964 90.4591 105.306 90.9586C106.648 91.4582 108.134 91.4042 109.436 90.8086ZM106.441 84.2626C106.765 84.1146 107.125 84.0658 107.477 84.1225C107.828 84.1792 108.155 84.3389 108.415 84.5812C108.676 84.8236 108.859 85.1378 108.941 85.4842C109.023 85.8305 109.001 86.1934 108.876 86.527C108.752 86.8605 108.532 87.1498 108.243 87.3581C107.955 87.5665 107.611 87.6846 107.255 87.6975C106.9 87.7104 106.548 87.6176 106.245 87.4307C105.942 87.2439 105.701 86.9714 105.553 86.6477C105.355 86.2137 105.337 85.7185 105.503 85.2713C105.67 84.824 106.007 84.4611 106.441 84.2626Z" fill="black" fill-opacity="0.4"/>
<path d="M103.447 77.7158C104.418 77.2717 105.235 76.5495 105.796 75.6408C106.357 74.732 106.635 73.6774 106.596 72.6103C106.558 71.5432 106.203 70.5116 105.578 69.6459C104.953 68.7802 104.085 68.1193 103.085 67.7468C102.084 67.3743 100.995 67.3068 99.9563 67.553C98.9173 67.7992 97.9747 68.348 97.2476 69.13C96.5204 69.9119 96.0415 70.8919 95.8714 71.946C95.7012 73.0002 95.8475 74.0811 96.2916 75.0521C96.8873 76.3542 97.9757 77.3663 99.3176 77.8659C100.659 78.3654 102.145 78.3114 103.447 77.7158ZM100.453 71.1698C100.776 71.0218 101.137 70.973 101.488 71.0297C101.839 71.0865 102.166 71.2461 102.427 71.4885C102.687 71.7308 102.87 72.0451 102.952 72.3914C103.034 72.7377 103.012 73.1006 102.888 73.4342C102.763 73.7677 102.543 74.057 102.255 74.2653C101.966 74.4737 101.622 74.5918 101.266 74.6047C100.911 74.6177 100.559 74.5248 100.256 74.3379C99.9534 74.1511 99.7127 73.8786 99.5646 73.5549C99.3661 73.1209 99.3481 72.6258 99.5146 72.1785C99.6812 71.7312 100.019 71.3684 100.453 71.1698Z" fill="black" fill-opacity="0.4"/>
<path d="M91.4694 51.5322C92.4404 51.0881 93.2579 50.3659 93.8185 49.4572C94.379 48.5484 94.6576 47.4938 94.6188 46.4267C94.58 45.3597 94.2257 44.328 93.6007 43.4623C92.9756 42.5966 92.1078 41.9357 91.1072 41.5632C90.1065 41.1907 89.0178 41.1233 87.9788 41.3695C86.9398 41.6156 85.9971 42.1644 85.27 42.9464C84.5429 43.7283 84.064 44.7083 83.8938 45.7624C83.7237 46.8166 83.8699 47.8975 84.3141 48.8685C84.9097 50.1706 85.9982 51.1827 87.3401 51.6823C88.6819 52.1818 90.1673 52.1278 91.4694 51.5322ZM88.475 44.9862C88.7987 44.8382 89.159 44.7894 89.5104 44.8461C89.8617 44.9029 90.1884 45.0625 90.4491 45.3049C90.7097 45.5473 90.8926 45.8615 90.9747 46.2078C91.0568 46.5541 91.0343 46.917 90.9101 47.2506C90.7859 47.5842 90.5656 47.8734 90.2771 48.0818C89.9885 48.2901 89.6446 48.4082 89.2889 48.4211C88.9333 48.4341 88.5817 48.3412 88.2788 48.1544C87.9759 47.9675 87.7352 47.695 87.5871 47.3713C87.3886 46.9373 87.3706 46.4422 87.5371 45.9949C87.7036 45.5476 88.041 45.1848 88.475 44.9862Z" fill="black" fill-opacity="0.4"/>
<path d="M85.4806 38.4404C86.4516 37.9963 87.2691 37.2741 87.8297 36.3654C88.3903 35.4566 88.6688 34.402 88.63 33.3349C88.5913 32.2679 88.2369 31.2362 87.6119 30.3705C86.9868 29.5049 86.1191 28.844 85.1184 28.4714C84.1177 28.0989 83.029 28.0315 81.99 28.2777C80.951 28.5239 80.0084 29.0726 79.2813 29.8546C78.5541 30.6365 78.0752 31.6165 77.9051 32.6706C77.7349 33.7248 77.8812 34.8057 78.3253 35.7767C78.9209 37.0788 80.0094 38.0909 81.3513 38.5905C82.6932 39.09 84.1785 39.0361 85.4806 38.4404ZM82.4863 31.8944C82.8099 31.7464 83.1702 31.6976 83.5216 31.7544C83.873 31.8111 84.1996 31.9707 84.4603 32.2131C84.7209 32.4555 84.9039 32.7697 84.9859 33.116C85.068 33.4623 85.0455 33.8252 84.9213 34.1588C84.7972 34.4924 84.5769 34.7816 84.2883 34.99C83.9997 35.1983 83.6559 35.3164 83.3002 35.3293C82.9445 35.3423 82.593 35.2494 82.29 35.0626C81.9871 34.8757 81.7464 34.6032 81.5983 34.2795C81.3998 33.8455 81.3818 33.3504 81.5483 32.9031C81.7148 32.4558 82.0522 32.093 82.4863 31.8944Z" fill="black" fill-opacity="0.4"/>
<path d="M79.4923 25.3486C80.4633 24.9045 81.2808 24.1823 81.8414 23.2736C82.402 22.3648 82.6805 21.3102 82.6418 20.2431C82.603 19.1761 82.2487 18.1444 81.6236 17.2788C80.9985 16.4131 80.1308 15.7522 79.1301 15.3796C78.1294 15.0071 77.0408 14.9397 76.0018 15.1859C74.9628 15.4321 74.0201 15.9808 73.293 16.7628C72.5659 17.5447 72.0869 18.5247 71.9168 19.5788C71.7466 20.633 71.8929 21.7139 72.3371 22.6849C72.9327 23.987 74.0211 24.9991 75.363 25.4987C76.7049 25.9982 78.1902 25.9443 79.4923 25.3486ZM76.498 18.8026C76.8216 18.6546 77.1819 18.6058 77.5333 18.6626C77.8847 18.7193 78.2114 18.8789 78.472 19.1213C78.7327 19.3637 78.9156 19.6779 78.9977 20.0242C79.0797 20.3705 79.0572 20.7334 78.9331 21.067C78.8089 21.4006 78.5886 21.6898 78.3 21.8982C78.0115 22.1065 77.6676 22.2246 77.3119 22.2375C76.9562 22.2505 76.6047 22.1576 76.3017 21.9708C75.9988 21.7839 75.7581 21.5114 75.6101 21.1877C75.4115 20.7537 75.3935 20.2586 75.56 19.8113C75.7266 19.364 76.0639 19.0012 76.498 18.8026Z" fill="black" fill-opacity="0.4"/>
<path d="M97.4581 64.624C98.4291 64.1799 99.2466 63.4577 99.8072 62.549C100.368 61.6402 100.646 60.5856 100.608 59.5185C100.569 58.4514 100.214 57.4198 99.5894 56.5541C98.9644 55.6884 98.0966 55.0275 97.0959 54.655C96.0953 54.2825 95.0066 54.215 93.9676 54.4612C92.9286 54.7074 91.9859 55.2562 91.2588 56.0382C90.5317 56.8201 90.0528 57.8001 89.8826 58.8542C89.7125 59.9084 89.8587 60.9893 90.3029 61.9603C90.8985 63.2624 91.987 64.2745 93.3288 64.7741C94.6707 65.2736 96.156 65.2196 97.4581 64.624ZM94.4638 58.078C94.7875 57.93 95.1478 57.8812 95.4991 57.9379C95.8505 57.9947 96.1772 58.1543 96.4378 58.3967C96.6985 58.639 96.8814 58.9533 96.9635 59.2996C97.0455 59.6459 97.0231 60.0088 96.8989 60.3424C96.7747 60.6759 96.5544 60.9652 96.2658 61.1735C95.9773 61.3819 95.6334 61.5 95.2777 61.5129C94.922 61.5259 94.5705 61.433 94.2676 61.2461C93.9646 61.0593 93.7239 60.7868 93.5759 60.4631C93.3773 60.0291 93.3594 59.534 93.5259 59.0867C93.6924 58.6394 94.0298 58.2766 94.4638 58.078Z" fill="black" fill-opacity="0.4"/>
<path d="M83.2516 102.786C84.2226 102.342 85.0401 101.62 85.6007 100.711C86.1613 99.8023 86.4398 98.7477 86.401 97.6806C86.3623 96.6136 86.0079 95.582 85.3829 94.7163C84.7578 93.8506 83.8901 93.1897 82.8894 92.8171C81.8887 92.4446 80.8 92.3772 79.761 92.6234C78.722 92.8696 77.7794 93.4183 77.0523 94.2003C76.3251 94.9822 75.8462 95.9622 75.6761 97.0163C75.5059 98.0705 75.6522 99.1514 76.0963 100.122C76.6919 101.424 77.7804 102.437 79.1223 102.936C80.4641 103.436 81.9495 103.382 83.2516 102.786ZM80.2573 96.2401C80.5809 96.0921 80.9412 96.0433 81.2926 96.1001C81.644 96.1568 81.9706 96.3164 82.2313 96.5588C82.4919 96.8012 82.6749 97.1154 82.7569 97.4617C82.839 97.808 82.8165 98.1709 82.6923 98.5045C82.5682 98.8381 82.3479 99.1273 82.0593 99.3357C81.7707 99.544 81.4269 99.6621 81.0712 99.675C80.7155 99.688 80.3639 99.5951 80.061 99.4083C79.7581 99.2214 79.5174 98.9489 79.3693 98.6252C79.1708 98.1912 79.1528 97.6961 79.3193 97.2488C79.4858 96.8015 79.8232 96.4387 80.2573 96.2401Z" fill="black" fill-opacity="0.4"/>
<path d="M77.2628 89.6934C78.2338 89.2492 79.0513 88.5271 79.6119 87.6183C80.1725 86.7095 80.451 85.6549 80.4123 84.5879C80.3735 83.5208 80.0192 82.4892 79.3941 81.6235C78.769 80.7578 77.9013 80.0969 76.9006 79.7244C75.8999 79.3518 74.8113 79.2844 73.7723 79.5306C72.7333 79.7768 71.7906 80.3256 71.0635 81.1075C70.3364 81.8894 69.8574 82.8694 69.6873 83.9236C69.5171 84.9777 69.6634 86.0586 70.1076 87.0296C70.7032 88.3317 71.7916 89.3438 73.1335 89.8434C74.4754 90.3429 75.9607 90.289 77.2628 89.6934ZM74.2685 83.1474C74.5922 82.9993 74.9525 82.9506 75.3038 83.0073C75.6552 83.064 75.9819 83.2236 76.2425 83.466C76.5032 83.7084 76.6861 84.0226 76.7682 84.3689C76.8502 84.7153 76.8278 85.0782 76.7036 85.4117C76.5794 85.7453 76.3591 86.0345 76.0705 86.2429C75.782 86.4512 75.4381 86.5693 75.0824 86.5823C74.7267 86.5952 74.3752 86.5023 74.0723 86.3155C73.7693 86.1286 73.5286 85.8561 73.3806 85.5325C73.182 85.0984 73.164 84.6033 73.3306 84.156C73.4971 83.7087 73.8345 83.3459 74.2685 83.1474Z" fill="black" fill-opacity="0.4"/>
<path d="M65.2853 63.5088C66.2563 63.0646 67.0738 62.3425 67.6344 61.4337C68.195 60.525 68.4735 59.4704 68.4347 58.4033C68.396 57.3362 68.0416 56.3046 67.4166 55.4389C66.7915 54.5732 65.9238 53.9123 64.9231 53.5398C63.9224 53.1672 62.8337 53.0998 61.7947 53.346C60.7557 53.5922 59.8131 54.141 59.0859 54.9229C58.3588 55.7049 57.8799 56.6849 57.7098 57.739C57.5396 58.7931 57.6859 59.874 58.13 60.8451C58.7256 62.1471 59.8141 63.1593 61.156 63.6588C62.4978 64.1584 63.9832 64.1044 65.2853 63.5088ZM62.2909 56.9628C62.6146 56.8147 62.9749 56.766 63.3263 56.8227C63.6777 56.8794 64.0043 57.0391 64.265 57.2814C64.5256 57.5238 64.7086 57.838 64.7906 58.1844C64.8727 58.5307 64.8502 58.8936 64.726 59.2272C64.6019 59.5607 64.3816 59.85 64.093 60.0583C63.8044 60.2667 63.4606 60.3848 63.1049 60.3977C62.7492 60.4106 62.3976 60.3178 62.0947 60.1309C61.7918 59.9441 61.5511 59.6716 61.403 59.3479C61.2045 58.9139 61.1865 58.4187 61.353 57.9714C61.5195 57.5242 61.8569 57.1613 62.2909 56.9628Z" fill="black" fill-opacity="0.4"/>
<path d="M59.2967 50.417C60.2678 49.9728 61.0852 49.2507 61.6458 48.3419C62.2064 47.4332 62.485 46.3786 62.4462 45.3115C62.4074 44.2444 62.0531 43.2128 61.428 42.3471C60.803 41.4814 59.9352 40.8205 58.9346 40.448C57.9339 40.0754 56.8452 40.008 55.8062 40.2542C54.7672 40.5004 53.8245 41.0492 53.0974 41.8311C52.3703 42.6131 51.8914 43.5931 51.7212 44.6472C51.5511 45.7013 51.6973 46.7822 52.1415 47.7533C52.7371 49.0553 53.8256 50.0675 55.1674 50.567C56.5093 51.0666 57.9947 51.0126 59.2967 50.417ZM56.3024 43.871C56.6261 43.7229 56.9864 43.6742 57.3378 43.7309C57.6891 43.7876 58.0158 43.9473 58.2765 44.1896C58.5371 44.432 58.72 44.7462 58.8021 45.0926C58.8842 45.4389 58.8617 45.8018 58.7375 46.1354C58.6133 46.4689 58.393 46.7582 58.1045 46.9665C57.8159 47.1749 57.472 47.293 57.1163 47.3059C56.7607 47.3188 56.4091 47.226 56.1062 47.0391C55.8033 46.8523 55.5626 46.5798 55.4145 46.2561C55.216 45.8221 55.198 45.3269 55.3645 44.8797C55.531 44.4324 55.8684 44.0695 56.3024 43.871Z" fill="black" fill-opacity="0.4"/>
<path d="M53.3085 37.3262C54.2795 36.882 55.097 36.1599 55.6576 35.2511C56.2182 34.3423 56.4967 33.2877 56.4579 32.2207C56.4191 31.1536 56.0648 30.122 55.4398 29.2563C54.8147 28.3906 53.947 27.7297 52.9463 27.3572C51.9456 26.9846 50.8569 26.9172 49.8179 27.1634C48.7789 27.4096 47.8363 27.9584 47.1091 28.7403C46.382 29.5223 45.9031 30.5023 45.7329 31.5564C45.5628 32.6105 45.7091 33.6914 46.1532 34.6624C46.7488 35.9645 47.8373 36.9767 49.1792 37.4762C50.521 37.9758 52.0064 37.9218 53.3085 37.3262ZM50.3141 30.7802C50.6378 30.6321 50.9981 30.5834 51.3495 30.6401C51.7009 30.6968 52.0275 30.8565 52.2882 31.0988C52.5488 31.3412 52.7318 31.6554 52.8138 32.0018C52.8959 32.3481 52.8734 32.711 52.7492 33.0445C52.6251 33.3781 52.4048 33.6673 52.1162 33.8757C51.8276 34.0841 51.4837 34.2022 51.1281 34.2151C50.7724 34.228 50.4208 34.1352 50.1179 33.9483C49.815 33.7614 49.5743 33.4889 49.4262 33.1653C49.2277 32.7312 49.2097 32.2361 49.3762 31.7888C49.5427 31.3415 49.8801 30.9787 50.3141 30.7802Z" fill="black" fill-opacity="0.4"/>
<path d="M71.274 76.6016C72.2451 76.1574 73.0625 75.4353 73.6231 74.5265C74.1837 73.6177 74.4623 72.5631 74.4235 71.4961C74.3847 70.429 74.0304 69.3974 73.4053 68.5317C72.7803 67.666 71.9125 67.0051 70.9119 66.6326C69.9112 66.26 68.8225 66.1926 67.7835 66.4388C66.7445 66.685 65.8018 67.2338 65.0747 68.0157C64.3476 68.7976 63.8687 69.7776 63.6985 70.8318C63.5284 71.8859 63.6746 72.9668 64.1188 73.9378C64.7144 75.2399 65.8029 76.252 67.1447 76.7516C68.4866 77.2511 69.972 77.1972 71.274 76.6016ZM68.2797 70.0556C68.6034 69.9075 68.9637 69.8588 69.3151 69.9155C69.6664 69.9722 69.9931 70.1318 70.2538 70.3742C70.5144 70.6166 70.6973 70.9308 70.7794 71.2771C70.8615 71.6235 70.839 71.9864 70.7148 72.3199C70.5906 72.6535 70.3703 72.9427 70.0818 73.1511C69.7932 73.3594 69.4493 73.4775 69.0936 73.4905C68.7379 73.5034 68.3864 73.4106 68.0835 73.2237C67.7806 73.0368 67.5399 72.7643 67.3918 72.4407C67.1933 72.0066 67.1753 71.5115 67.3418 71.0642C67.5083 70.6169 67.8457 70.2541 68.2797 70.0556Z" fill="black" fill-opacity="0.4"/>
<path d="M34.0884 34.2451L37.3614 32.748L38.8585 36.021L35.5855 37.5181L34.0884 34.2451Z" fill="black" fill-opacity="0.4"/>
<path d="M97.7012 104.092L100.974 102.595L102.471 105.868L99.1983 107.365L97.7012 104.092Z" fill="black" fill-opacity="0.4"/>
<path d="M21.7092 89.3799L29.8917 85.637L31.3889 88.91L23.2064 92.6529L21.7092 89.3799Z" fill="black" fill-opacity="0.4"/>
<path d="M19.22 82.207L19.986 78.6903L28.7778 80.6055L28.0117 84.1222L19.22 82.207Z" fill="black" fill-opacity="0.4"/>
<path d="M27.001 99.2393L31.3012 91.3354L34.4628 93.0555L30.1625 100.959L27.001 99.2393Z" fill="black" fill-opacity="0.4"/>
<path d="M105.171 51.2012L113.353 47.4583L114.851 50.7313L106.668 54.4742L105.171 51.2012Z" fill="black" fill-opacity="0.4"/>
<path d="M102.105 47.0869L106.405 39.1831L109.567 40.9032L105.266 48.807L102.105 47.0869Z" fill="black" fill-opacity="0.4"/>
<path d="M107.782 59.5068L108.548 55.9901L117.34 57.9053L116.574 61.422L107.782 59.5068Z" fill="black" fill-opacity="0.4"/>
</svg>
