<svg width="50" height="28" viewBox="0 0 50 28" fill="none" xmlns="http://www.w3.org/2000/svg">
<path d="M36.3283 0C28.79 0 22.6567 6.2808 22.6567 14C22.6567 19.0728 18.6267 23.2 13.6725 23.2C8.71833 23.2 4.6875 19.0728 4.6875 14C4.6875 8.9272 8.7175 4.8 13.6717 4.8C15.46 4.8 17.1867 5.336 18.665 6.3504C19.1592 6.6904 19.6208 7.0792 20.0358 7.5064C20.92 8.4152 22.4642 8.4184 23.35 7.5136C24.2658 6.58 24.2692 5.0576 23.3575 4.1192C22.7242 3.4688 22.0233 2.8776 21.275 2.364C19.0217 0.8176 16.3933 0.000800323 13.6717 0.000800323C6.13333 3.23464e-07 0 6.2808 0 14C0 21.7192 6.13333 28 13.6717 28C21.21 28 27.3433 21.7192 27.3433 14C27.3433 8.9272 31.3733 4.8 36.3275 4.8C41.2817 4.8 45.3125 8.9272 45.3125 14C45.3125 19.0728 41.2825 23.2 36.3283 23.2C33.9292 23.2 31.6733 22.244 29.9767 20.5072C29.0917 19.6008 27.5475 19.6008 26.6617 20.5072C26.2192 20.9608 25.9758 21.5632 25.9758 22.204C25.9758 22.8456 26.22 23.4488 26.6625 23.9008C29.2442 26.5448 32.6775 28 36.3283 28C43.8667 28 50 21.7192 50 14C50 6.2808 43.8667 0 36.3283 0Z" fill="white" fill-opacity="0.3"/>
</svg>
