<svg width="47" height="50" viewBox="0 0 47 50" fill="none" xmlns="http://www.w3.org/2000/svg">
<path d="M37.0157 39.8626C36.6169 39.5374 36.047 39.619 35.7424 40.044C35.4377 40.4692 35.5139 41.0773 35.9125 41.4023L37.4648 42.6678C37.6289 42.8016 37.823 42.8669 38.016 42.8669C38.2644 42.8669 38.5111 42.7586 38.6896 42.5484L41.6567 39.0539C41.9935 38.6572 41.9651 38.0445 41.5932 37.6853C41.2214 37.3261 40.6469 37.3565 40.3102 37.753L37.9041 40.5869L37.0157 39.8626Z" fill="black" fill-opacity="0.4"/>
<path d="M46.6602 34.6905C46.6499 34.1964 46.2926 33.7901 45.8312 33.7471C43.6703 33.5456 41.0112 31.9973 39.0565 29.8028C38.885 29.6104 38.6471 29.5014 38.3982 29.5013C38.3981 29.5013 38.398 29.5013 38.3979 29.5013C38.1492 29.5013 37.9113 29.6101 37.7398 29.8023C36.8624 30.786 35.844 31.6394 34.793 32.3003C32.9488 30.1043 30.679 28.4864 28.0187 27.468C27.9955 27.458 27.9721 27.4491 27.9481 27.4411C27.7409 27.3629 27.5313 27.2882 27.3194 27.217C29.5692 24.8236 31.0825 21.6783 31.0825 18.8567V17.3344C32.146 16.8405 32.8919 15.7082 32.8919 14.3931C32.8919 13.027 32.0858 11.8586 30.9546 11.3988C30.4877 6.56384 27.2942 2.49942 22.9074 1.15476C22.7778 0.496183 22.2292 0 21.574 0H18.2823C17.6503 0 17.119 0.461981 16.9656 1.08567C14.8078 1.69948 12.8369 3.00966 11.3591 4.83122C9.85925 6.68012 8.92654 8.98905 8.68964 11.3993C7.55791 11.8594 6.75156 13.0275 6.75156 14.3932C6.75156 15.7088 7.49851 16.8414 8.56347 17.335V18.8568C8.56347 21.6758 10.0771 24.8223 12.3268 27.2173C12.1211 27.2863 11.9173 27.3585 11.7159 27.4343C11.6763 27.4463 11.6378 27.4611 11.6003 27.4786C8.6227 28.6244 6.13678 30.521 4.18997 33.14C2.31766 35.659 0.986633 38.7697 0.233963 42.3865C-0.033913 43.6791 -0.235388 45.3034 0.590859 46.4008C1.39794 47.4727 2.84205 47.6101 4.01012 47.6101H9.95218C10.4539 47.6101 10.8605 47.1762 10.8605 46.6411C10.8605 46.1061 10.4539 45.6722 9.95218 45.6722H4.01012C2.92344 45.6722 2.24962 45.5091 2.00736 45.1873C1.75075 44.8464 1.75093 44.0448 2.00763 42.8056C2.95169 38.2699 5.26003 32.7194 10.8217 29.917C10.6506 33.1903 12.3134 35.3299 13.3703 36.6878C13.532 36.8958 13.7678 37.0221 14.0208 37.0365C14.2736 37.0515 14.5209 36.9521 14.7025 36.7637L19.8218 31.4532L24.9436 36.7639C25.1136 36.94 25.3408 37.038 25.5767 37.038C25.593 37.038 25.6093 37.0375 25.6257 37.0365C25.8787 37.022 26.1146 36.8954 26.2763 36.6872C27.3317 35.328 28.992 33.1872 28.8225 29.9208C30.436 30.7372 31.8616 31.8291 33.0875 33.1893C32.3555 33.4915 31.6357 33.6846 30.9645 33.7472C30.5034 33.7901 30.1464 34.1962 30.1355 34.6898C30.0595 38.154 30.6008 40.6359 32.0653 43.5408C32.0776 43.5654 32.5725 44.5117 33.3436 45.6724H18.1759C17.6742 45.6724 17.2675 46.1063 17.2675 46.6413C17.2675 47.1764 17.6742 47.6103 18.1759 47.6103H34.7863C35.8814 48.9012 37.173 50 38.3978 50C41.3529 50 44.6979 43.6054 44.73 43.5415C46.1921 40.6361 46.7332 38.1546 46.6602 34.6905ZM29.1005 11.1897H24.0992C23.1543 8.55681 22.9756 6.38576 22.9435 3.19869C26.2199 4.43474 28.6017 7.51842 29.1005 11.1897ZM18.736 1.93784H21.1201C21.1259 5.68833 21.215 8.22845 22.1668 11.1897H17.6912C18.6414 8.22835 18.7304 5.68794 18.736 1.93784ZM16.9136 3.12224C16.8836 6.35126 16.7099 8.53569 15.7592 11.1898H10.5451C11.0632 7.47075 13.5695 4.30345 16.9136 3.12224ZM9.75742 13.1275H15.8342C15.8877 13.1738 15.9395 13.1797 15.9829 13.1275H29.8886C30.5429 13.1275 31.0752 13.6952 31.0752 14.3932C31.0752 15.0927 30.5429 15.6617 29.8886 15.6617H9.75742C9.10177 15.6617 8.56828 15.0927 8.56828 14.3932C8.56828 13.6953 9.10168 13.1275 9.75742 13.1275ZM10.3802 18.8568V17.5994H29.2657V18.8568C29.2657 22.5509 25.9106 27.1197 22.0856 28.6342C20.412 29.2976 19.2237 29.297 17.5462 28.632C13.7288 27.1113 10.3802 22.5434 10.3802 18.8568ZM14.1501 34.6335C13.2099 33.3243 12.3047 31.6055 12.7398 29.1104C13.1404 28.9724 13.5545 28.8466 13.9838 28.7352C14.8998 29.452 15.8877 30.04 16.9119 30.448C17.2415 30.5786 17.5587 30.6862 17.869 30.7758L14.1501 34.6335ZM25.495 34.6329L21.7738 30.7746C22.0801 30.686 22.3931 30.5797 22.7181 30.4508C23.7474 30.0433 24.7401 29.4542 25.6604 28.735C26.0844 28.8451 26.4991 28.9698 26.9037 29.1095C27.3398 31.6011 26.4349 33.3217 25.495 34.6329ZM43.129 42.6255C42.0548 44.764 39.5391 48.062 38.3978 48.062C37.2566 48.062 34.7409 44.764 33.666 42.6241C32.4656 40.2433 31.973 38.2579 31.9463 35.5546C32.9262 35.3557 33.9464 34.9656 34.9496 34.4208C34.9848 34.4045 35.0192 34.3852 35.0529 34.3637C36.2243 33.7142 37.3699 32.8547 38.3975 31.8332C40.3321 33.7584 42.6874 35.1161 44.8487 35.5547C44.8201 38.2584 44.3275 40.2441 43.129 42.6255Z" fill="black" fill-opacity="0.4"/>
<path d="M14.0646 45.6719C13.5629 45.6719 13.1562 46.1058 13.1562 46.6408C13.1562 47.1758 13.5629 47.6097 14.0646 47.6097H14.0698C14.5715 47.6097 14.9755 47.1758 14.9755 46.6408C14.9755 46.1058 14.5663 45.6719 14.0646 45.6719Z" fill="black" fill-opacity="0.4"/>
</svg>
