<svg width="49" height="25" viewBox="0 0 49 25" fill="none" xmlns="http://www.w3.org/2000/svg">
<path d="M37.7237 0.0417906C37.4248 0.0185936 37.1258 0.00668735 36.9005 0.0101772C36.8097 -0.000600192 27.3171 -0.718681 23.5165 12.2068C20.1944 23.5062 12.4985 23.0033 12.0916 22.9727C11.9397 22.9727 11.7869 22.9693 11.634 22.9619C6.20766 22.7132 1.95617 18.118 1.95617 12.5004C1.95617 6.72581 6.50279 2.02749 12.0916 2.02749C15.556 2.02749 18.7453 3.82772 20.6232 6.84323L22.268 5.74969C20.029 2.15323 16.2246 0.006174 12.0916 0.006174C5.42448 0.00627664 0 5.61102 0 12.5004C0 19.2022 5.07192 24.6847 11.5462 24.9812C11.7267 24.9891 11.9072 24.9935 12.0047 24.9901C12.0142 24.9912 12.1288 25 12.3295 25C14.0363 25 21.9873 24.3604 25.3886 12.794C28.7107 1.49458 36.4085 1.99793 36.8135 2.02749C37.0705 2.02749 37.3264 2.03786 37.5786 2.05716C42.8331 2.46177 46.9489 7.04861 46.9489 12.5004C46.9489 18.275 42.4023 22.9728 36.8135 22.9728C33.3491 22.9728 30.1606 21.1727 28.2828 18.1571L26.6381 19.2506C28.877 22.8471 32.6806 24.9941 36.8135 24.9941C43.4806 24.9941 48.9051 19.3893 48.9051 12.5005C48.9051 5.99654 43.9935 0.523898 37.7237 0.0417906Z" fill="black" fill-opacity="0.4"/>
</svg>
