<svg width="40" height="40" viewBox="0 0 40 40" fill="none" xmlns="http://www.w3.org/2000/svg">
<path fill-rule="evenodd" clip-rule="evenodd" d="M2 0C0.895431 0 0 0.895431 0 2V38C0 39.1046 0.895431 40 2 40H38C39.1046 40 40 39.1046 40 38V2C40 0.895431 39.1046 0 38 0H2ZM33.6159 8.51069C34.791 8.51069 35.7436 7.5581 35.7436 6.38303C35.7436 5.20796 34.791 4.25537 33.6159 4.25537C32.4409 4.25537 31.4883 5.20796 31.4883 6.38303C31.4883 7.5581 32.4409 8.51069 33.6159 8.51069ZM20 32C26.6274 32 32 26.6274 32 20C32 13.3726 26.6274 8 20 8C13.3726 8 8 13.3726 8 20C8 26.6274 13.3726 32 20 32ZM20 26C23.3137 26 26 23.3137 26 20C26 16.6863 23.3137 14 20 14C16.6863 14 14 16.6863 14 20C14 23.3137 16.6863 26 20 26Z" fill="white" fill-opacity="0.4"/>
</svg>
