<svg width="102" height="102" viewBox="0 0 102 102" fill="none" xmlns="http://www.w3.org/2000/svg">
<g filter="url(#filter0_d)">
<path d="M85.1968 4.99995C88.8787 4.99995 91.8635 7.98471 91.8635 11.6666V82.661C91.8635 84.9759 89.9868 86.8525 87.6719 86.8525C86.2713 86.8525 84.9633 86.153 84.1857 84.9881L79.3485 77.7414C76.1749 71.8353 75.1072 64.7861 77.1755 59.2177C77.1794 59.2073 77.1855 59.1978 77.1934 59.1899C77.2006 59.1827 77.2064 59.174 77.2103 59.1647C77.933 57.436 78.4308 56.2132 78.8498 54.6969C80.8689 47.5599 80.2338 39.6969 76.4784 32.6629C73.664 27.3978 69.4885 23.3474 64.6101 20.6694C62.697 19.6246 60.6759 18.7922 58.5876 18.1876C53.9397 16.8418 50.9679 21.9125 53.2506 26.1791L60.5102 39.7478C61.6418 41.8628 61.6035 44.4731 60.0166 46.2718C58.1068 48.4367 55.7803 50.2962 53.0817 51.7354C49.1801 53.8339 44.972 54.7871 40.8319 54.697C40.8294 54.697 40.827 54.6979 40.8252 54.6997C40.821 54.704 40.8137 54.703 40.8108 54.6976L31.7225 37.7169C29.4377 33.4479 23.5663 33.1106 22.1102 37.7284C21.4571 39.7996 21.0294 41.9408 20.8357 44.1111C20.3592 49.6476 21.4257 55.3664 24.251 60.6316C28.0065 67.6542 34.2017 72.5449 41.2478 74.8256C44.0322 75.6288 44.4003 75.4282 45.9002 75.9336C45.9073 75.936 45.915 75.9373 45.9224 75.9373C45.9299 75.9373 45.9374 75.9385 45.9445 75.941C47.8224 76.582 49.6298 77.442 51.3228 78.5083C55.7109 81.2721 52.8973 86.8525 47.7113 86.8525H16.6667C12.9848 86.8525 10 83.8678 10 80.1859V11.6666C10 7.98472 12.9848 4.99995 16.6667 4.99995H85.1968Z" fill="white"/>
</g>
<defs>
<filter id="filter0_d" x="0" y="0" width="101.863" height="101.853" filterUnits="userSpaceOnUse" color-interpolation-filters="sRGB">
<feFlood flood-opacity="0" result="BackgroundImageFix"/>
<feColorMatrix in="SourceAlpha" type="matrix" values="0 0 0 0 0 0 0 0 0 0 0 0 0 0 0 0 0 0 127 0"/>
<feOffset dy="5"/>
<feGaussianBlur stdDeviation="5"/>
<feColorMatrix type="matrix" values="0 0 0 0 0 0 0 0 0 0 0 0 0 0 0 0 0 0 0.25 0"/>
<feBlend mode="normal" in2="BackgroundImageFix" result="effect1_dropShadow"/>
<feBlend mode="normal" in="SourceGraphic" in2="effect1_dropShadow" result="shape"/>
</filter>
</defs>
</svg>
