<svg width="69" height="131" viewBox="0 0 69 131" fill="none" xmlns="http://www.w3.org/2000/svg">
<path d="M51.1287 1.38005C50.9579 0.969315 50.6803 0.620482 50.3294 0.375614C49.9784 0.130747 49.5691 0.000299473 49.1507 0H19.5387C19.1203 0.00033981 18.7109 0.130832 18.3599 0.375746C18.0089 0.620661 17.7312 0.969543 17.5604 1.38034L0.18764 43.2588C0.0406394 43.6135 -0.0215868 44.0021 0.00662015 44.3893C0.0348271 44.7765 0.152572 45.15 0.349148 45.4758C0.545725 45.8015 0.814898 46.0693 1.13219 46.2547C1.44948 46.4401 1.80483 46.5373 2.16593 46.5373H22.3923V65.5996C21.1934 66.003 20.1685 66.8551 19.5033 68.0013C18.8382 69.1476 18.5768 70.5122 18.7665 71.8478C18.9562 73.1835 19.5845 74.4019 20.5376 75.2822C21.4906 76.1626 22.7053 76.6466 23.9616 76.6466C25.2178 76.6466 26.4326 76.1626 27.3856 75.2822C28.3386 74.4019 28.9669 73.1835 29.1567 71.8478C29.3464 70.5122 29.085 69.1476 28.4199 68.0013C27.7547 66.8551 26.7298 66.003 25.5308 65.5996V46.5373H32.7755V127.624H20.1062C19.69 127.624 19.2909 127.802 18.9966 128.119C18.7023 128.435 18.537 128.865 18.537 129.312C18.537 129.76 18.7023 130.189 18.9966 130.506C19.2909 130.822 19.69 131 20.1062 131H48.5832C48.9994 131 49.3985 130.822 49.6928 130.506C49.9871 130.189 50.1524 129.76 50.1524 129.312C50.1524 128.865 49.9871 128.435 49.6928 128.119C49.3985 127.802 48.9994 127.624 48.5832 127.624H35.9139V46.5373H66.5245C66.8857 46.5372 67.241 46.44 67.5584 46.2546C67.8757 46.0691 68.1449 45.8013 68.3414 45.4755C68.538 45.1496 68.6558 44.7761 68.6839 44.3889C68.7121 44.0017 68.6499 43.613 68.5028 43.2582L51.1287 1.38005ZM23.9616 73.2709C23.5429 73.2709 23.1336 73.1374 22.7855 72.8872C22.4373 72.637 22.166 72.2814 22.0058 71.8653C21.8456 71.4492 21.8037 70.9914 21.8854 70.5498C21.9671 70.1081 22.1687 69.7024 22.4648 69.384C22.7609 69.0656 23.1381 68.8488 23.5488 68.7609C23.9594 68.6731 24.3851 68.7182 24.7719 68.8906C25.1587 69.063 25.4893 69.3549 25.7218 69.7293C25.9544 70.1038 26.0785 70.544 26.0785 70.9943C26.078 71.598 25.8548 72.1768 25.4579 72.6036C25.061 73.0305 24.5228 73.2705 23.9616 73.2709ZM3.6635 43.1617L20.1693 3.37559H48.5201L65.0259 43.1617H3.6635Z" fill="white" fill-opacity="0.04"/>
</svg>
