<svg width="50" height="50" viewBox="0 0 50 50" fill="none" xmlns="http://www.w3.org/2000/svg">
<path d="M4.48358 1.97106C4.75595 0.813304 5.79087 -0.00380138 6.98067 1.33007e-05H19.6862C20.876 -0.00380138 21.911 0.813304 22.1833 1.97106L26.6087 21.9711C26.7705 22.7004 26.5912 23.4638 26.1208 24.0443C25.6318 24.6524 24.8921 25.0041 24.1117 24.9999H17.5V29.9998H22.4999C22.9604 29.9998 23.3335 30.3729 23.3335 30.8333V31.6665C23.3277 35.599 20.5781 38.9941 16.7325 39.8165C17.0499 41.8372 18.7883 43.3276 20.8333 43.3333H25.8336C28.1335 43.3306 29.9973 41.4668 30 39.1665V25.8334C30.0072 21.0666 33.6636 17.0997 38.4137 16.7049C38.7368 15.0539 40.0193 13.7581 41.6668 13.4174V11.6668C41.6714 7.52638 45.0264 4.17137 49.1665 4.16679C49.6269 4.16679 50 4.53987 50 4.99992V34.9997C50 35.4602 49.6269 35.8332 49.1665 35.8332C45.0264 35.8287 41.6714 32.4737 41.6668 28.3332V26.5823C40.0772 26.2523 38.8237 25.0304 38.4526 23.45C37.3967 23.7632 36.6707 24.7318 36.6665 25.8334V39.1665C36.6601 45.1468 31.8135 49.993 25.8336 49.9998H20.8333C15.1166 49.9907 10.3902 45.5428 10.0343 39.8371C6.14144 39.0544 3.33917 35.6372 3.33345 31.6665V30.8333C3.33345 30.3729 3.70653 29.9998 4.16696 29.9998H9.16686V24.9999H2.55526C1.77477 25.0041 1.03548 24.6524 0.54644 24.0443C0.0760918 23.4638 -0.10358 22.7004 0.0581627 21.9711L4.48358 1.97106ZM43.3335 28.3332C43.3369 31.2316 45.4651 33.6894 48.3334 34.1071V5.89294C45.4651 6.31064 43.3369 8.76806 43.3335 11.6668V28.3332ZM41.6668 24.8576V15.1424C40.6685 15.4968 40.0013 16.4409 40.0002 17.4999V22.4998C40.0013 23.5591 40.6685 24.5029 41.6668 24.8576ZM20.8333 48.3332H25.8336C30.8938 48.3275 34.9942 44.2267 34.9999 39.1665V25.8334C35.0026 23.8544 36.3949 22.1492 38.3336 21.751V18.3826C34.5402 18.8106 31.672 22.0161 31.6666 25.8334V39.1665C31.6628 42.3865 29.0536 44.9961 25.8336 44.9999H20.8333C17.9357 44.9946 15.4802 42.8645 15.0663 39.9966C15.0438 39.9966 15.0224 40 15.0003 40H11.709C12.1438 44.7161 16.097 48.3267 20.8333 48.3332ZM11.6666 38.3334H15.0003C18.6803 38.3288 21.6626 35.3469 21.6668 31.6665H5.00008C5.00428 35.3469 7.9866 38.3288 11.6666 38.3334ZM10.8335 29.9998H15.8334V24.9999H10.8335V29.9998ZM1.84572 23.0014C2.01929 23.2139 2.2806 23.3363 2.55526 23.3333H21.4326L17.5252 7.70186C17.4245 7.25974 17.6957 6.81838 18.1359 6.70852C18.5758 6.59865 19.0229 6.86072 19.1419 7.29827L23.1507 23.3333H24.1117C24.3863 23.3363 24.6476 23.2139 24.8212 23.0014C24.9749 22.8141 25.0337 22.5669 24.981 22.3308L20.5556 2.33078C20.4553 1.93444 20.0952 1.65902 19.6862 1.66665H6.98067C6.57174 1.65902 6.21163 1.93444 6.1113 2.33078L1.68589 22.3308C1.63324 22.5669 1.69199 22.8141 1.84572 23.0014Z" fill="white" fill-opacity="0.04"/>
</svg>
