<svg width="235" height="250" viewBox="0 0 235 250" fill="none" xmlns="http://www.w3.org/2000/svg">
<path d="M117.486 250C116.514 250 115.727 249.214 115.727 248.244V242.977C115.727 242.006 116.514 241.222 117.486 241.222C118.46 241.222 119.246 242.006 119.246 242.977V248.244C119.246 249.214 118.46 250 117.486 250Z" fill="white" fill-opacity="0.4"/>
<path d="M43.07 177.457C42.0975 177.457 41.3105 176.671 41.3105 175.701V170.434C41.3105 169.463 42.0975 168.679 43.07 168.679C44.0433 168.679 44.8294 169.463 44.8294 170.434V175.701C44.8294 176.671 44.0433 177.457 43.07 177.457Z" fill="white" fill-opacity="0.4"/>
<path d="M192.393 162.851C191.42 162.851 190.634 162.066 190.634 161.096V155.829C190.634 154.858 191.42 154.073 192.393 154.073C193.366 154.073 194.152 154.858 194.152 155.829V161.096C194.152 162.066 193.366 162.851 192.393 162.851Z" fill="white" fill-opacity="0.4"/>
<path d="M129.909 244.932C129.458 244.932 129.007 244.76 128.665 244.418L124.933 240.694C124.244 240.007 124.244 238.898 124.933 238.211C125.621 237.525 126.732 237.525 127.421 238.211L131.153 241.935C131.841 242.622 131.841 243.731 131.153 244.418C130.807 244.76 130.357 244.932 129.909 244.932Z" fill="white" fill-opacity="0.4"/>
<path d="M55.4918 172.388C55.0416 172.388 54.5906 172.216 54.2478 171.874L50.5159 168.15C49.8277 167.463 49.8277 166.354 50.5159 165.667C51.204 164.981 52.3157 164.981 53.0038 165.667L56.7358 169.391C57.4239 170.078 57.4239 171.187 56.7358 171.874C56.3904 172.216 55.9402 172.388 55.4918 172.388Z" fill="white" fill-opacity="0.4"/>
<path d="M204.815 157.782C204.364 157.782 203.913 157.61 203.571 157.268L199.839 153.544C199.15 152.858 199.15 151.748 199.839 151.062C200.527 150.375 201.638 150.375 202.327 151.062L206.059 154.786C206.747 155.472 206.747 156.581 206.059 157.268C205.713 157.61 205.263 157.782 204.815 157.782Z" fill="white" fill-opacity="0.4"/>
<path d="M105.062 244.827C104.612 244.827 104.162 244.654 103.818 244.312C103.13 243.627 103.13 242.516 103.818 241.83L107.547 238.106C108.235 237.42 109.346 237.42 110.035 238.106C110.723 238.791 110.723 239.902 110.035 240.589L106.306 244.312C105.963 244.654 105.512 244.827 105.062 244.827Z" fill="white" fill-opacity="0.4"/>
<path d="M30.6453 172.283C30.1952 172.283 29.745 172.11 29.4014 171.768C28.7132 171.084 28.7132 169.973 29.4014 169.286L33.1299 165.562C33.818 164.876 34.9297 164.876 35.6178 165.562C36.306 166.247 36.306 167.358 35.6178 168.045L31.8893 171.768C31.5465 172.11 31.0955 172.283 30.6453 172.283Z" fill="white" fill-opacity="0.4"/>
<path d="M179.969 157.677C179.518 157.677 179.068 157.505 178.725 157.163C178.036 156.478 178.036 155.367 178.725 154.68L182.453 150.957C183.141 150.271 184.253 150.271 184.941 150.957C185.629 151.642 185.629 152.753 184.941 153.439L181.213 157.163C180.87 157.505 180.419 157.677 179.969 157.677Z" fill="white" fill-opacity="0.4"/>
<path d="M231.083 0H3.91667C2.8779 0 1.88168 0.410359 1.14716 1.1408C0.412647 1.87125 0 2.86194 0 3.89494V19.4747C0 20.5077 0.412647 21.4984 1.14716 22.2289C1.88168 22.9593 2.8779 23.3697 3.91667 23.3697H39.1667V85.6887H27.4167C26.5658 85.6888 25.738 85.9644 25.0587 86.4739C24.3793 86.9834 23.8853 87.699 23.6513 88.5126L7.98461 143.042C7.81788 143.621 7.78876 144.232 7.89953 144.825C8.01031 145.417 8.25796 145.976 8.62298 146.458C8.98801 146.939 9.46043 147.33 10.0031 147.599C10.5457 147.868 11.1437 148.008 11.75 148.008H23.8961C24.7992 152.406 27.2022 156.358 30.6985 159.197C34.1948 162.035 38.5698 163.586 43.0833 163.586C47.5969 163.586 51.9718 162.035 55.4681 159.197C58.9644 156.358 61.3674 152.406 62.2706 148.008H74.4167C75.023 148.008 75.621 147.868 76.1636 147.599C76.7062 147.33 77.1787 146.939 77.5437 146.458C77.9087 145.976 78.1564 145.417 78.2671 144.825C78.3779 144.232 78.3488 143.621 78.1821 143.042L62.5154 88.5126C62.2814 87.699 61.7873 86.9834 61.108 86.4739C60.4286 85.9644 59.6009 85.6888 58.75 85.6887H47V23.3697H113.583V155.798H101.833C100.982 155.798 100.155 156.073 99.4754 156.583C98.796 157.092 98.3019 157.808 98.068 158.622L82.4013 213.151C82.2346 213.73 82.2054 214.341 82.3162 214.934C82.427 215.526 82.6746 216.085 83.0396 216.567C83.4047 217.048 83.8771 217.439 84.4197 217.708C84.9624 217.977 85.5604 218.117 86.1667 218.117H98.3127C99.2159 222.515 101.619 226.467 105.115 229.306C108.612 232.144 112.986 233.695 117.5 233.695C122.014 233.695 126.388 232.144 129.885 229.306C133.381 226.467 135.784 222.515 136.687 218.117H148.833C149.44 218.117 150.038 217.977 150.58 217.708C151.123 217.439 151.595 217.048 151.96 216.567C152.325 216.085 152.573 215.526 152.684 214.934C152.795 214.341 152.765 213.73 152.599 213.151L136.932 158.622C136.698 157.808 136.204 157.092 135.525 156.583C134.845 156.073 134.018 155.798 133.167 155.798H121.417V23.3697H188V70.109H176.25C175.399 70.109 174.571 70.3847 173.892 70.8941C173.213 71.4036 172.719 72.1193 172.485 72.9328L156.818 127.462C156.651 128.042 156.622 128.652 156.733 129.245C156.844 129.838 157.091 130.397 157.456 130.878C157.821 131.359 158.294 131.75 158.836 132.019C159.379 132.288 159.977 132.428 160.583 132.428H172.729C173.633 136.826 176.036 140.778 179.532 143.617C183.028 146.455 187.403 148.006 191.917 148.006C196.43 148.006 200.805 146.455 204.301 143.617C207.798 140.778 210.201 136.826 211.104 132.428H223.25C223.856 132.428 224.454 132.288 224.997 132.019C225.54 131.75 226.012 131.359 226.377 130.878C226.742 130.397 226.99 129.838 227.1 129.245C227.211 128.652 227.182 128.042 227.015 127.462L211.349 72.9328C211.115 72.1193 210.621 71.4036 209.941 70.8941C209.262 70.3847 208.434 70.109 207.583 70.109H195.833V23.3697H231.083C232.122 23.3697 233.118 22.9593 233.853 22.2289C234.587 21.4984 235 20.5077 235 19.4747V3.89494C235 2.86194 234.587 1.87125 233.853 1.1408C233.118 0.410359 232.122 0 231.083 0ZM43.0833 155.798C40.6614 155.79 38.3011 155.038 36.3265 153.643C34.352 152.248 32.86 150.28 32.0555 148.008H54.1117C53.307 150.28 51.815 152.248 49.8404 153.643C47.8657 155.038 45.5054 155.79 43.0833 155.798ZM55.7954 93.4786L69.2246 140.218H16.942L30.3713 93.4786H55.7954ZM117.5 225.907C115.078 225.899 112.718 225.147 110.743 223.752C108.769 222.357 107.277 220.389 106.472 218.117H128.528C127.724 220.389 126.232 222.357 124.257 223.752C122.282 225.147 119.922 225.899 117.5 225.907ZM130.212 163.588L143.641 210.327H91.3587L104.788 163.588H130.212ZM191.917 140.218C189.495 140.211 187.134 139.458 185.16 138.063C183.185 136.668 181.693 134.7 180.889 132.428H202.945C202.14 134.7 200.648 136.668 198.674 138.063C196.699 139.458 194.339 140.211 191.917 140.218ZM204.629 77.8989L218.058 124.638H165.775L179.205 77.8989H204.629ZM227.167 15.5798H7.83333V7.78989H227.167V15.5798Z" fill="white" fill-opacity="0.4"/>
</svg>
