<svg width="20" height="20" viewBox="0 0 20 20" fill="none" xmlns="http://www.w3.org/2000/svg">
<path d="M17.0279 14.8791C15.2505 13.1495 15.2302 10.3269 15.3378 7.84911C15.445 5.38303 14.313 2.91568 12.1054 1.38335C8.64744 -1.01686 3.85924 -0.214493 1.41102 3.17619C-1.0372 6.5663 -0.218783 11.26 3.23972 13.6602C4.64716 14.6371 6.31313 15.0999 7.96783 15.0377C10.2076 14.9535 12.6836 15.0792 14.2888 16.6434L17.2305 19.5102C17.8413 20.1405 18.8574 20.1657 19.5003 19.567C20.1432 18.9688 20.169 17.9726 19.5588 17.3423C19.5395 17.3222 19.5208 17.3038 19.5003 17.2849L17.0279 14.8791ZM7.66757 12.3818C4.93505 12.3824 2.71966 10.2122 2.71791 7.53326C2.71732 4.85433 4.93095 2.68238 7.66406 2.68124C10.3931 2.68009 12.6073 4.84687 12.6126 7.52237C12.6172 10.2019 10.4048 12.3773 7.67108 12.3818C7.66991 12.3818 7.66933 12.3818 7.66757 12.3818Z" fill="black"/>
</svg>
