<svg width="50" height="50" viewBox="0 0 50 50" fill="none" xmlns="http://www.w3.org/2000/svg">
<path d="M25 50C18.3223 50 12.0442 47.3995 7.32227 42.6777C2.60049 37.9558 0 31.6777 0 25C0 18.3223 2.60049 12.0442 7.32227 7.32227C12.0442 2.60049 18.3223 0 25 0C31.6777 0 37.9558 2.60049 42.6777 7.32227C47.3995 12.0442 50 18.3223 50 25C50 31.6777 47.3995 37.9558 42.6777 42.6777C37.9558 47.3995 31.6777 50 25 50ZM25 2.92969C19.1048 2.92969 13.5625 5.22539 9.39395 9.39395C5.22539 13.5625 2.92969 19.1048 2.92969 25C2.92969 30.8952 5.22539 36.4375 9.39395 40.6061C13.5625 44.7746 19.1048 47.0703 25 47.0703C30.8952 47.0703 36.4375 44.7746 40.6061 40.6061C44.7746 36.4375 47.0703 30.8952 47.0703 25C47.0703 19.1048 44.7746 13.5625 40.6061 9.39395C36.4375 5.22539 30.8952 2.92969 25 2.92969Z" fill="white" fill-opacity="0.4"/>
<path d="M23.5352 5.86328H26.4648V9.77266H23.5352V5.86328Z" fill="white" fill-opacity="0.4"/>
<path d="M34.7266 13.1992L37.4905 10.4353L39.5618 12.5066L36.7979 15.2705L34.7266 13.1992Z" fill="white" fill-opacity="0.4"/>
<path d="M40.2278 23.5352H44.1372V26.4648H40.2278V23.5352Z" fill="white" fill-opacity="0.4"/>
<path d="M34.7266 36.8027L36.7979 34.7314L39.5618 37.4954L37.4905 39.5667L34.7266 36.8027Z" fill="white" fill-opacity="0.4"/>
<path d="M23.5352 40.2285H26.4648V44.1379H23.5352V40.2285Z" fill="white" fill-opacity="0.4"/>
<path d="M10.4297 37.4941L13.1936 34.7302L15.2649 36.8015L12.501 39.5654L10.4297 37.4941Z" fill="white" fill-opacity="0.4"/>
<path d="M5.85938 23.5352H9.76875V26.4648H5.85938V23.5352Z" fill="white" fill-opacity="0.4"/>
<path d="M10.4297 12.5039L12.501 10.4326L15.2649 13.1965L13.1936 15.2678L10.4297 12.5039Z" fill="white" fill-opacity="0.4"/>
<path d="M35.341 26.465H23.5352V14.6592H26.4648V23.5354H35.341V26.465Z" fill="white" fill-opacity="0.4"/>
</svg>
