<svg width="44" height="50" viewBox="0 0 44 50" fill="none" xmlns="http://www.w3.org/2000/svg">
<path d="M43.699 13.5663L43.6974 13.5274C43.6751 13.0471 43.6602 12.539 43.6512 11.9736C43.6093 9.21677 41.3574 6.93635 38.5242 6.78223C32.6172 6.46142 28.0476 4.58688 24.1431 0.883196L24.1098 0.852297C22.8363 -0.284099 20.9152 -0.284099 19.6413 0.852297L19.608 0.883196C15.7036 4.58688 11.134 6.46142 5.22693 6.78261C2.39415 6.93635 0.141876 9.21677 0.0999347 11.974C0.0913113 12.5355 0.0760243 13.0437 0.0536819 13.5274L0.0513301 13.6178C-0.0635177 19.4798 -0.206196 26.7754 2.30164 33.3973C3.6806 37.0388 5.76903 40.2043 8.50852 42.8063C11.6286 45.7695 15.7153 48.122 20.655 49.7982C20.8157 49.8528 20.9827 49.897 21.1528 49.9302C21.3927 49.9767 21.6341 50 21.8756 50C22.117 50 22.3589 49.9767 22.5984 49.9302C22.7685 49.897 22.9366 49.8524 23.0981 49.7974C28.0319 48.1182 32.1143 45.7645 35.2316 42.8017C37.97 40.1989 40.0584 37.0327 41.4385 33.3905C43.9558 26.7487 43.8135 19.4394 43.699 13.5663ZM38.61 32.3754C35.965 39.3547 30.5656 44.1479 22.1033 47.028C22.0731 47.0379 22.041 47.0467 22.0077 47.0532C21.9202 47.0699 21.8313 47.0699 21.7427 47.0528C21.7098 47.0463 21.6776 47.0379 21.6478 47.028C13.1765 44.1532 7.77358 39.3627 5.13051 32.383C2.81905 26.2791 2.94997 19.582 3.0656 13.6739L3.06638 13.641C3.0899 13.1333 3.10558 12.6015 3.1142 12.0171C3.13302 10.793 4.1349 9.7802 5.39509 9.71192C8.73783 9.53034 11.6745 8.90167 14.3728 7.79007C17.0676 6.68 19.461 5.11521 21.689 3.00645C21.8023 2.91337 21.9493 2.91299 22.0621 3.00645C24.2905 5.11521 26.6839 6.68 29.3783 7.79007C32.0766 8.90167 35.0133 9.53034 38.3564 9.71192C39.6166 9.7802 40.6185 10.793 40.6369 12.0175C40.6459 12.605 40.6616 13.1367 40.6851 13.641C40.8004 19.5561 40.9282 26.2585 38.61 32.3754Z" fill="white" fill-opacity="0.4"/>
<path d="M21.8729 12.54C14.8127 12.54 9.06909 18.1301 9.06909 25.0008C9.06909 31.8718 14.8127 37.4619 21.8729 37.4619C28.9327 37.4619 34.6767 31.8718 34.6767 25.0008C34.6767 18.1301 28.9327 12.54 21.8729 12.54ZM21.8729 34.5276C16.475 34.5276 12.0838 30.254 12.0838 25.0008C12.0838 19.7475 16.475 15.4739 21.8729 15.4739C27.2704 15.4739 31.6617 19.7475 31.6617 25.0008C31.6617 30.254 27.2704 34.5276 21.8729 34.5276Z" fill="white" fill-opacity="0.4"/>
<path d="M25.5575 21.1322L19.6104 26.9198L17.9963 25.3489C17.4076 24.776 16.4531 24.776 15.8644 25.3489C15.276 25.9219 15.276 26.8508 15.8644 27.4234L18.5447 30.0319C18.839 30.3183 19.2247 30.4614 19.6104 30.4614C19.9962 30.4614 20.3819 30.3183 20.6762 30.0319L27.6894 23.2066C28.2778 22.6336 28.2778 21.7047 27.6894 21.1322C27.1007 20.5588 26.1462 20.5588 25.5575 21.1322Z" fill="white" fill-opacity="0.4"/>
</svg>
