<svg width="234" height="304" viewBox="0 0 234 304" fill="none" xmlns="http://www.w3.org/2000/svg">
<path d="M199.885 124.281C184.792 108.207 164.668 96.837 142.223 92.1324V78.0185C142.223 74.8821 141.062 71.7456 138.74 69.7854C136.418 67.8251 133.709 66.2569 130.613 66.2569H124.421L124.034 5.88079C124.034 2.35232 121.325 0 118.229 0C114.746 0 112.424 2.74437 112.424 5.88079L112.811 66.2569H106.619C103.523 66.2569 100.427 67.4331 98.4923 69.7854C96.5573 72.1377 95.0094 74.8821 95.0094 78.0185V91.7403C71.4028 96.837 50.8921 108.207 35.0254 124.281C13.7407 145.844 0.969971 175.248 0.969971 208.18C0.969971 211.708 3.67892 214.061 6.77487 214.061H68.6938C70.2418 225.43 74.8857 235.624 82.6256 243.465C91.5264 252.482 103.91 257.971 117.455 257.971C131 257.971 143.384 252.482 152.284 243.465C160.024 235.624 164.668 225.43 166.216 214.061H228.135C231.618 214.061 233.94 211.316 233.94 208.18C233.94 175.64 220.782 145.844 199.885 124.281ZM106.232 78.4105H130.226V90.1721C129.839 90.1721 129.839 90.1721 129.452 90.1721C128.678 90.1721 128.291 90.1721 127.517 90.1721C124.421 89.7801 120.938 89.7801 117.842 89.7801C114.746 89.388 111.65 89.7801 108.554 89.7801C107.78 89.7801 107.006 89.7801 106.232 90.1721V78.4105ZM144.158 234.84C137.192 241.897 127.904 245.817 117.842 245.817C107.393 245.817 98.1053 241.504 91.5264 234.84C86.1085 229.351 82.2386 222.294 81.0776 214.061H117.842H154.993C153.445 221.902 149.962 229.351 144.158 234.84ZM161.185 201.907H117.842H74.4987H12.9668C14.5147 174.856 25.7375 150.548 43.5392 132.906C59.793 116.44 81.0776 105.462 105.071 102.718C105.845 102.718 107.006 102.326 107.78 102.326C110.876 101.934 114.359 101.934 117.455 101.934C120.938 101.934 124.034 101.934 127.517 102.326C128.291 102.326 129.452 102.718 130.226 102.718C154.219 105.462 175.504 116.44 191.758 132.906C209.559 150.94 220.782 174.856 222.33 201.907H161.185Z" fill="white" fill-opacity="0.04"/>
<path d="M111.396 259.698C107.913 259.698 105.591 262.443 105.591 265.579V298.119C105.591 301.648 108.3 304 111.396 304C114.879 304 117.201 301.256 117.201 298.119V265.579C117.201 262.051 114.879 259.698 111.396 259.698Z" fill="white" fill-opacity="0.04"/>
<path d="M164.414 282.041L148.161 253.814C146.613 251.069 142.743 249.893 140.034 251.461C137.325 253.029 136.164 256.95 137.712 259.694L153.966 287.922C155.514 290.666 159.384 291.843 162.092 290.274C164.801 288.706 165.962 284.786 164.414 282.041Z" fill="white" fill-opacity="0.04"/>
<path d="M196.912 244.797L169.048 228.331C166.339 226.763 162.469 227.547 160.921 230.683C159.373 233.428 160.147 237.348 163.243 238.916L191.107 255.383C193.816 256.951 197.686 256.167 199.234 253.03C200.782 250.286 200.008 246.365 196.912 244.797Z" fill="white" fill-opacity="0.04"/>
<path d="M61.8571 230.686C60.3092 227.941 56.4392 226.765 53.7303 228.333L25.8667 244.799C23.1578 246.368 21.9968 250.288 23.5448 253.033C25.0928 255.777 28.9627 256.953 31.6716 255.385L59.5352 238.919C62.2441 236.958 63.4051 233.43 61.8571 230.686Z" fill="white" fill-opacity="0.04"/>
<path d="M82.7594 251.461C80.0505 249.893 76.1805 251.069 74.6326 253.814L58.3788 282.041C56.8309 284.786 57.6049 288.706 60.7008 290.274C63.4098 291.843 67.2797 291.059 68.8277 287.922L85.0814 259.694C86.6294 256.95 85.8554 253.029 82.7594 251.461Z" fill="white" fill-opacity="0.04"/>
</svg>
