<svg width="100" height="100" viewBox="0 0 100 100" fill="none" xmlns="http://www.w3.org/2000/svg">
<path d="M82.4219 0H17.5781C7.88555 0 0 7.88555 0 17.5781V82.4219C0 92.1145 7.88555 100 17.5781 100H82.4219C92.1145 100 100 92.1145 100 82.4219V17.5781C100 7.88555 92.1145 0 82.4219 0ZM96.0938 82.4219C96.0938 89.9605 89.9605 96.0938 82.4219 96.0938H17.5781C10.0395 96.0938 3.90625 89.9605 3.90625 82.4219V17.5781C3.90625 10.0395 10.0395 3.90625 17.5781 3.90625H82.4219C89.9605 3.90625 96.0938 10.0395 96.0938 17.5781V82.4219Z" fill="black" fill-opacity="0.4"/>
<path d="M51.3807 9.55664C51.0176 9.19316 50.5137 8.98438 50 8.98438C49.4863 8.98438 48.9824 9.19316 48.6191 9.55664C48.2559 9.92012 48.0469 10.4238 48.0469 10.9375C48.0469 11.4512 48.2557 11.9551 48.6191 12.3182C48.9824 12.6816 49.4863 12.8906 50 12.8906C50.5137 12.8906 51.0176 12.6816 51.3807 12.3182C51.7441 11.9551 51.9531 11.4512 51.9531 10.9375C51.9531 10.4238 51.7441 9.91992 51.3807 9.55664Z" fill="black" fill-opacity="0.4"/>
<path d="M81.25 8.98438H59.7576C58.6791 8.98438 57.8045 9.85898 57.8045 10.9375C57.8045 12.016 58.6791 12.8906 59.7576 12.8906H81.25C84.4809 12.8906 87.1094 15.5191 87.1094 18.75V81.25C87.1094 84.4809 84.4809 87.1094 81.25 87.1094H18.75C15.5191 87.1094 12.8906 84.4809 12.8906 81.25V18.75C12.8906 15.5191 15.5191 12.8906 18.75 12.8906H40.633C41.7115 12.8906 42.5861 12.016 42.5861 10.9375C42.5861 9.85898 41.7115 8.98438 40.633 8.98438H18.75C13.3652 8.98438 8.98438 13.3652 8.98438 18.75V81.25C8.98438 86.6348 13.3652 91.0156 18.75 91.0156H81.25C86.6348 91.0156 91.0156 86.6348 91.0156 81.25V18.75C91.0156 13.3652 86.6348 8.98438 81.25 8.98438Z" fill="black" fill-opacity="0.4"/>
<path d="M70.9613 29.5318C70.8806 29.4494 70.7996 29.3674 70.7179 29.2855C69.956 28.5221 68.7197 28.5205 67.9556 29.282C67.1919 30.0438 67.1904 31.2805 67.9521 32.0443C68.0246 32.117 68.0968 32.1898 68.1683 32.2631C68.5511 32.6545 69.058 32.8508 69.5652 32.8508C70.0576 32.8508 70.5507 32.6656 70.9306 32.2939C71.7017 31.5398 71.7156 30.3033 70.9613 29.5318Z" fill="black" fill-opacity="0.4"/>
<path d="M75.8836 36.2615C75.3778 35.3089 74.1957 34.947 73.2426 35.4529C72.2901 35.9589 71.9282 37.1413 72.434 38.0939C77.7002 48.0081 75.8996 60.0079 67.9537 67.954C63.4998 72.4079 57.7893 74.8568 51.953 75.3031V72.2007C51.953 71.1222 51.0783 70.2476 49.9998 70.2476C48.9213 70.2476 48.0467 71.1222 48.0467 72.2007V75.3031C42.2102 74.8568 36.4996 72.4077 32.0459 67.954C22.1461 58.0542 22.1461 41.946 32.0459 32.0462C36.4563 27.6357 42.153 25.1181 48.0467 24.6636V27.7995C48.0467 28.8781 48.9213 29.7527 49.9998 29.7527C51.0783 29.7527 51.953 28.8781 51.953 27.7995V24.6646C55.2305 24.9199 58.4953 25.8175 61.5629 27.387C62.5229 27.8786 63.6998 27.4982 64.1912 26.5378C64.6826 25.5777 64.3024 24.4009 63.342 23.9095C57.8701 21.1099 51.7496 20.113 45.6416 21.0273C39.409 21.9601 33.7524 24.8154 29.2836 29.2839C17.8612 40.707 17.8612 59.2933 29.2838 70.7161C34.9953 76.4277 42.4975 79.2833 49.9998 79.2833C57.5022 79.2833 65.0043 76.4277 70.7158 70.7163C75.2403 66.1917 78.1063 60.4605 79.0041 54.1423C79.8719 48.0337 78.7639 41.6835 75.8836 36.2615Z" fill="black" fill-opacity="0.4"/>
<path d="M40.2422 44.1406C37.0113 44.1406 34.3828 46.7691 34.3828 50C34.3828 53.2309 37.0113 55.8594 40.2422 55.8594C43.473 55.8594 46.1016 53.2309 46.1016 50C46.1016 46.7691 43.473 44.1406 40.2422 44.1406ZM40.2422 51.9531C39.1652 51.9531 38.2891 51.077 38.2891 50C38.2891 48.923 39.1652 48.0469 40.2422 48.0469C41.3191 48.0469 42.1953 48.923 42.1953 50C42.1953 51.077 41.3191 51.9531 40.2422 51.9531Z" fill="black" fill-opacity="0.4"/>
<path d="M59.7578 44.1406C56.527 44.1406 53.8984 46.7691 53.8984 50C53.8984 53.2309 56.527 55.8594 59.7578 55.8594C62.9887 55.8594 65.6172 53.2309 65.6172 50C65.6172 46.7691 62.9887 44.1406 59.7578 44.1406ZM59.7578 51.9531C58.6809 51.9531 57.8047 51.077 57.8047 50C57.8047 48.923 58.6809 48.0469 59.7578 48.0469C60.8348 48.0469 61.7109 48.923 61.7109 50C61.7109 51.077 60.8348 51.9531 59.7578 51.9531Z" fill="black" fill-opacity="0.4"/>
</svg>
