<svg width="85" height="100" viewBox="0 0 85 100" fill="none" xmlns="http://www.w3.org/2000/svg">
<path d="M83.0971 51.4963C82.2248 51.4963 81.5182 52.2029 81.5182 53.0752V95.8947C81.5182 96.417 81.0932 96.8422 80.5707 96.8422H4.10527C3.58301 96.8422 3.15781 96.4172 3.15781 95.8947V4.10527C3.15781 3.58301 3.58281 3.15781 4.10527 3.15781H80.5707C81.093 3.15781 81.5182 3.58281 81.5182 4.10527V47.9178C81.518 48.79 82.225 49.4967 83.0969 49.4967C83.9691 49.4967 84.6758 48.79 84.6758 47.9178V4.10527C84.6758 1.8416 82.8342 0 80.5707 0H4.10527C1.8416 0 0 1.8416 0 4.10527V95.8947C0 98.1584 1.8416 100 4.10527 100H80.5707C82.8344 100 84.676 98.1584 84.676 95.8947V53.0752C84.6762 52.2029 83.9693 51.4963 83.0971 51.4963Z" fill="black" fill-opacity="0.4"/>
<path d="M27.0969 91.8406H74.8104C75.6826 91.8406 76.3893 91.1338 76.3893 90.2617V81.6893C77.9303 81.0631 79.0209 79.552 79.0209 77.7887V69.5785C79.0209 67.8154 77.9305 66.3041 76.3893 65.6779V34.3229C77.9301 33.6967 79.0207 32.1855 79.0207 30.4225V22.2123C79.0207 20.4492 77.9303 18.9381 76.3891 18.3117V9.73906C76.3891 8.8668 75.6822 8.16016 74.8102 8.16016H9.86602C8.99375 8.16016 8.28711 8.8668 8.28711 9.73906V90.2611C8.28711 91.1334 8.99395 91.84 9.86602 91.84H21.9395C22.8117 91.84 23.5184 91.1334 23.5184 90.2611C23.5184 89.3889 22.8117 88.6822 21.9395 88.6822H11.4449V11.3182H73.2313V18.3092C73.2197 18.3139 73.2088 18.3197 73.1973 18.3246C73.1678 18.3369 73.1395 18.351 73.1102 18.3639C73.0246 18.4018 72.9408 18.442 72.8586 18.4854C72.8242 18.5035 72.7902 18.5217 72.7563 18.5408C72.673 18.5875 72.592 18.6371 72.5125 18.6891C72.4887 18.7047 72.4641 18.7189 72.4406 18.7352C72.34 18.8037 72.2428 18.8766 72.1488 18.9535C72.1275 18.9709 72.1076 18.9896 72.0867 19.0076C72.0141 19.0695 71.9434 19.1336 71.8752 19.2C71.8475 19.227 71.8205 19.2543 71.7936 19.282C71.7297 19.3477 71.6686 19.4152 71.6092 19.485C71.5883 19.5094 71.5664 19.5332 71.5461 19.5582C71.4695 19.6523 71.3965 19.7494 71.3277 19.8498C71.315 19.8684 71.3041 19.8877 71.292 19.9062C71.2369 19.9902 71.1844 20.0762 71.1352 20.1639C71.1162 20.1975 71.0983 20.2316 71.0805 20.266C71.0387 20.3461 70.9992 20.4277 70.9623 20.5107C70.9481 20.543 70.933 20.5746 70.9193 20.6072C70.8723 20.7211 70.8287 20.8369 70.7916 20.9557C70.7873 20.9693 70.7842 20.9834 70.7803 20.9973C70.7482 21.1031 70.7209 21.2107 70.6971 21.3197C70.6889 21.3578 70.6818 21.3963 70.6748 21.4348C70.6578 21.5256 70.644 21.617 70.6326 21.7098C70.6279 21.748 70.6229 21.7859 70.6193 21.8244C70.6076 21.9525 70.5996 22.0816 70.5996 22.2129V30.423C70.5996 30.5543 70.6076 30.6834 70.6193 30.8115C70.6229 30.85 70.6279 30.8879 70.6326 30.9262C70.6438 31.0188 70.6576 31.1103 70.6748 31.2012C70.682 31.2396 70.6889 31.2779 70.6971 31.3162C70.7207 31.4252 70.7482 31.533 70.7803 31.6387C70.7846 31.6523 70.7875 31.6666 70.7916 31.6803C70.8289 31.799 70.8723 31.9148 70.9193 32.0287C70.9328 32.0613 70.9481 32.093 70.9623 32.1252C70.9992 32.2082 71.0383 32.2898 71.0805 32.3699C71.0984 32.4043 71.1162 32.4383 71.1352 32.4721C71.1844 32.5602 71.2367 32.6459 71.292 32.7297C71.3043 32.7482 71.3154 32.7678 71.3277 32.7861C71.3961 32.8867 71.4692 32.9836 71.5461 33.0777C71.5666 33.1027 71.5883 33.1264 71.6092 33.151C71.6686 33.2207 71.7299 33.2883 71.7936 33.3539C71.8205 33.3816 71.8477 33.409 71.8752 33.4359C71.9436 33.5025 72.0141 33.5664 72.0867 33.6283C72.1076 33.6463 72.1275 33.665 72.1488 33.6824C72.243 33.7592 72.3402 33.832 72.4406 33.9008C72.4641 33.9168 72.4887 33.9313 72.5125 33.9469C72.592 33.9988 72.673 34.0484 72.7563 34.0951C72.7902 34.1141 72.8242 34.1324 72.8586 34.1504C72.9408 34.1936 73.025 34.234 73.1102 34.2719C73.1393 34.2848 73.1678 34.2988 73.1973 34.3111C73.2086 34.316 73.2195 34.3217 73.2313 34.3266V65.6756C73.2197 65.6803 73.2088 65.6861 73.1973 65.691C73.1678 65.7033 73.1395 65.7174 73.1102 65.7303C73.0246 65.7682 72.9408 65.8084 72.8586 65.8518C72.8242 65.8699 72.7902 65.8883 72.7563 65.9072C72.673 65.9539 72.5918 66.0037 72.5123 66.0557C72.4887 66.0713 72.4643 66.0855 72.441 66.1016C72.3404 66.1703 72.243 66.2432 72.149 66.3201C72.1279 66.3373 72.108 66.3561 72.0873 66.3738C72.0145 66.4357 71.9438 66.5 71.8754 66.5666C71.8479 66.5936 71.8207 66.6209 71.7939 66.6484C71.7301 66.7141 71.6688 66.7818 71.6092 66.8516C71.5883 66.876 71.5666 66.8996 71.5465 66.9244C71.4699 67.0186 71.3967 67.1156 71.3281 67.2162C71.3156 67.2346 71.3047 67.2537 71.2926 67.2723C71.2371 67.3564 71.1848 67.4424 71.1356 67.5307C71.1168 67.5643 71.0988 67.5982 71.0811 67.6324C71.0389 67.7127 70.9998 67.7943 70.9627 67.8775C70.9484 67.9098 70.9334 67.9414 70.9199 67.974C70.8729 68.0879 70.8293 68.2037 70.7922 68.3225C70.7879 68.3361 70.785 68.3502 70.7809 68.3639C70.7488 68.4697 70.7213 68.5773 70.6977 68.6865C70.6895 68.7246 70.6824 68.7629 70.6754 68.8016C70.6584 68.8924 70.6445 68.9838 70.6332 69.0766C70.6285 69.1148 70.6234 69.1527 70.6199 69.1912C70.6082 69.3193 70.6002 69.4484 70.6002 69.5797V77.7898C70.6002 77.9211 70.608 78.0502 70.6199 78.1783C70.6234 78.2168 70.6285 78.2547 70.6332 78.293C70.6443 78.3856 70.6582 78.4771 70.6754 78.568C70.6826 78.6064 70.6895 78.6447 70.6977 78.6832C70.7213 78.7922 70.7488 78.8998 70.7809 79.0057C70.7852 79.0193 70.7881 79.0336 70.7922 79.0473C70.8295 79.166 70.8729 79.2818 70.9199 79.3957C70.9334 79.4283 70.9484 79.46 70.9627 79.4922C70.9996 79.5754 71.0389 79.657 71.0811 79.7373C71.099 79.7715 71.1168 79.8055 71.1356 79.8391C71.1848 79.9273 71.2373 80.0135 71.2926 80.0975C71.3049 80.116 71.3158 80.1352 71.3281 80.1535C71.3965 80.2541 71.4697 80.3512 71.5465 80.4453C71.5668 80.4701 71.5885 80.4938 71.6092 80.5182C71.6688 80.5881 71.7303 80.6559 71.7941 80.7217C71.8209 80.7492 71.8479 80.7764 71.8754 80.8031C71.944 80.8699 72.0149 80.934 72.0879 80.9961C72.1088 81.0139 72.1285 81.0322 72.1496 81.0496C72.2438 81.1266 72.3412 81.1994 72.4416 81.2682C72.465 81.2842 72.4895 81.2984 72.5129 81.3141C72.5924 81.366 72.6736 81.4158 72.7568 81.4625C72.7908 81.4814 72.8248 81.4998 72.8592 81.518C72.9414 81.5613 73.0258 81.6016 73.1111 81.6395C73.1402 81.6524 73.1684 81.6662 73.1977 81.6783C73.2092 81.6832 73.2201 81.6889 73.2318 81.6937V88.6842H27.0971C26.2248 88.6842 25.5182 89.391 25.5182 90.2631C25.5182 91.1352 26.2246 91.8406 27.0969 91.8406ZM73.7576 22.2125C73.7576 21.632 74.2299 21.1598 74.8102 21.1598C75.3904 21.1598 75.8627 21.632 75.8627 22.2123V30.4225C75.8627 31.0029 75.3904 31.475 74.8102 31.475C74.2299 31.475 73.7576 31.0027 73.7576 30.4225V22.2125ZM73.7576 69.5783C73.7576 68.9979 74.2299 68.5258 74.8102 68.5258C75.3904 68.5258 75.8627 68.998 75.8627 69.5783V77.7885C75.8627 78.3689 75.3904 78.841 74.8102 78.841C74.2299 78.841 73.7576 78.3688 73.7576 77.7885V69.5783Z" fill="black" fill-opacity="0.4"/>
<path d="M56.9498 65.4268H27.7254C26.8531 65.4268 26.1465 66.1334 26.1465 67.0057C26.1465 67.8779 26.8533 68.5846 27.7254 68.5846H56.9498C57.8221 68.5846 58.5287 67.8779 58.5287 67.0057C58.5287 66.1334 57.8221 65.4268 56.9498 65.4268Z" fill="black" fill-opacity="0.4"/>
<path d="M56.9498 72.1035H27.7254C26.8531 72.1035 26.1465 72.8102 26.1465 73.6824C26.1465 74.5547 26.8533 75.2613 27.7254 75.2613H56.9498C57.8221 75.2613 58.5287 74.5547 58.5287 73.6824C58.5287 72.8104 57.8221 72.1035 56.9498 72.1035Z" fill="black" fill-opacity="0.4"/>
<path d="M56.9498 78.7812H27.7254C26.8531 78.7812 26.1465 79.4881 26.1465 80.3602C26.1465 81.2322 26.8533 81.9391 27.7254 81.9391H56.9498C57.8221 81.9391 58.5287 81.2322 58.5287 80.3602C58.5287 79.4881 57.8221 78.7812 56.9498 78.7812Z" fill="black" fill-opacity="0.4"/>
<path d="M62.0499 55.5785C62.9222 55.5785 63.6288 54.8719 63.6288 53.9996C63.6288 53.6703 63.5281 53.3645 63.3556 53.1113L43.7017 19.4162C43.4187 18.9313 42.8993 18.6328 42.3376 18.6328C41.7759 18.6328 41.2566 18.9311 40.9736 19.4162L21.2658 53.2041C20.981 53.6926 20.979 54.2961 21.2605 54.7861C21.5421 55.2764 22.0642 55.5787 22.6298 55.5787H62.046C62.047 55.5783 62.0486 55.5783 62.0499 55.5785ZM25.3786 52.4207L42.3378 23.3457L59.297 52.4207H25.3786Z" fill="black" fill-opacity="0.4"/>
<path d="M40.4338 35.173L37.8859 41.6993C37.6963 42.1855 37.7588 42.7335 38.0529 43.1642C38.3473 43.5948 38.8351 43.8527 39.3566 43.8527H41.7881L40.4572 46.906C40.1088 47.7054 40.4742 48.6359 41.2736 48.9843C41.4791 49.0739 41.693 49.1163 41.9037 49.1163C42.5127 49.1163 43.093 48.7618 43.3519 48.1679L45.6463 42.9048C45.8592 42.4167 45.8115 41.8542 45.5197 41.4087C45.2279 40.9632 44.7312 40.6948 44.1988 40.6948H41.6682L43.3752 36.3218C43.6924 35.5095 43.291 34.5939 42.4785 34.2767C41.666 33.9591 40.7508 34.3611 40.4338 35.173Z" fill="black" fill-opacity="0.4"/>
<path d="M18.8427 68.8408C16.1726 68.8408 14.0005 71.0129 14.0005 73.683C14.0005 76.3531 16.1726 78.5252 18.8427 78.5252C21.5128 78.5252 23.6849 76.3531 23.6849 73.683C23.6849 71.0129 21.5128 68.8408 18.8427 68.8408ZM18.8427 75.3672C17.914 75.3672 17.1585 74.6115 17.1585 73.683C17.1585 72.7543 17.9142 71.9988 18.8427 71.9988C19.7714 71.9988 20.5269 72.7545 20.5269 73.683C20.5269 74.6115 19.7716 75.3672 18.8427 75.3672Z" fill="black" fill-opacity="0.4"/>
</svg>
