<svg width="71" height="100" viewBox="0 0 71 100" fill="none" xmlns="http://www.w3.org/2000/svg">
<path d="M1.46484 24.1211C2.27356 24.1211 2.92969 23.4657 2.92969 22.6562V18.7012C2.92969 17.8917 2.27356 17.2363 1.46484 17.2363C0.656128 17.2363 0 17.8917 0 18.7012V22.6562C0 23.4657 0.656128 24.1211 1.46484 24.1211Z" fill="black" fill-opacity="0.4"/>
<path d="M68.6523 86.0352C67.8436 86.0352 67.1875 86.6906 67.1875 87.5001V94.629C67.1875 95.9756 66.0927 97.0704 64.7461 97.0704H5.37109C4.02451 97.0704 2.92969 95.9756 2.92969 94.629V28.8735C2.92969 28.0648 2.27356 27.4087 1.46484 27.4087C0.656128 27.4087 0 28.0648 0 28.8735V94.629C0 97.5907 2.40936 100 5.37109 100H64.7461C67.7078 100 70.1172 97.5907 70.1172 94.629V87.5001C70.1172 86.6906 69.4611 86.0352 68.6523 86.0352Z" fill="black" fill-opacity="0.4"/>
<path d="M64.7461 0H5.37109C2.40936 0 0 2.40936 0 5.37109V12.5C0 13.3095 0.656128 13.9648 1.46484 13.9648C2.27356 13.9648 2.92969 13.3095 2.92969 12.5V5.37109C2.92969 4.02451 4.02451 2.92969 5.37109 2.92969H64.7461C66.0927 2.92969 67.1875 4.02451 67.1875 5.37109V81.1852C67.1875 81.9939 67.8436 82.65 68.6523 82.65C69.4611 82.65 70.1172 81.9939 70.1172 81.1852V5.37109C70.1172 2.40936 67.7078 0 64.7461 0Z" fill="black" fill-opacity="0.4"/>
<path d="M62.793 94.1406C63.6017 94.1406 64.2578 93.4853 64.2578 92.6758V7.32422C64.2578 6.51474 63.6017 5.85938 62.793 5.85938H7.32422C6.5155 5.85938 5.85938 6.51474 5.85938 7.32422V92.6758C5.85938 93.4853 6.5155 94.1406 7.32422 94.1406H62.793ZM8.78906 8.78906H61.3281V91.2109H8.78906V8.78906Z" fill="black" fill-opacity="0.4"/>
<path d="M35.0586 50.8789C24.5583 50.8789 16.0156 59.4215 16.0156 69.9219C16.0156 80.4222 24.5583 88.9648 35.0586 88.9648C45.5589 88.9648 54.1016 80.4222 54.1016 69.9219C54.1016 59.4215 45.5589 50.8789 35.0586 50.8789ZM35.0586 86.0352C26.1734 86.0352 18.9453 78.8063 18.9453 69.9219C18.9453 61.0374 26.1734 53.8086 35.0586 53.8086C43.9438 53.8086 51.1719 61.0374 51.1719 69.9219C51.1719 78.8063 43.9438 86.0352 35.0586 86.0352Z" fill="black" fill-opacity="0.4"/>
<path d="M55.1758 15.1855H54.5898C53.7811 15.1855 53.125 15.8409 53.125 16.6504C53.125 17.4599 53.7811 18.1152 54.5898 18.1152H55.1758C55.9845 18.1152 56.6406 17.4599 56.6406 16.6504C56.6406 15.8409 55.9845 15.1855 55.1758 15.1855Z" fill="black" fill-opacity="0.4"/>
<path d="M55.1758 22.2168H54.5898C53.7811 22.2168 53.125 22.8722 53.125 23.6816C53.125 24.4911 53.7811 25.1465 54.5898 25.1465H55.1758C55.9845 25.1465 56.6406 24.4911 56.6406 23.6816C56.6406 22.8722 55.9845 22.2168 55.1758 22.2168Z" fill="black" fill-opacity="0.4"/>
<path d="M49.5117 21.7285H50.0977C50.9064 21.7285 51.5625 21.0732 51.5625 20.2637C51.5625 19.4542 50.9064 18.7988 50.0977 18.7988H49.5117C48.703 18.7988 48.0469 19.4542 48.0469 20.2637C48.0469 21.0732 48.703 21.7285 49.5117 21.7285Z" fill="black" fill-opacity="0.4"/>
<path d="M49.5117 28.9551H50.0977C50.9064 28.9551 51.5625 28.2997 51.5625 27.4902C51.5625 26.6808 50.9064 26.0254 50.0977 26.0254H49.5117C48.703 26.0254 48.0469 26.6808 48.0469 27.4902C48.0469 28.2997 48.703 28.9551 49.5117 28.9551Z" fill="black" fill-opacity="0.4"/>
<path d="M49.5117 35.791H50.0977C50.9064 35.791 51.5625 35.1357 51.5625 34.3262C51.5625 33.5167 50.9064 32.8613 50.0977 32.8613H49.5117C48.703 32.8613 48.0469 33.5167 48.0469 34.3262C48.0469 35.1357 48.703 35.791 49.5117 35.791Z" fill="black" fill-opacity="0.4"/>
<path d="M49.5117 42.8223H50.0977C50.9064 42.8223 51.5625 42.1669 51.5625 41.3574C51.5625 40.5479 50.9064 39.8926 50.0977 39.8926H49.5117C48.703 39.8926 48.0469 40.5479 48.0469 41.3574C48.0469 42.1669 48.703 42.8223 49.5117 42.8223Z" fill="black" fill-opacity="0.4"/>
<path d="M55.1758 29.248H54.5898C53.7811 29.248 53.125 29.9034 53.125 30.7129C53.125 31.5224 53.7811 32.1777 54.5898 32.1777H55.1758C55.9845 32.1777 56.6406 31.5224 56.6406 30.7129C56.6406 29.9034 55.9845 29.248 55.1758 29.248Z" fill="black" fill-opacity="0.4"/>
<path d="M55.1758 36.2793H54.5898C53.7811 36.2793 53.125 36.9347 53.125 37.7441C53.125 38.5536 53.7811 39.209 54.5898 39.209H55.1758C55.9845 39.209 56.6406 38.5536 56.6406 37.7441C56.6406 36.9347 55.9845 36.2793 55.1758 36.2793Z" fill="black" fill-opacity="0.4"/>
<path d="M55.1758 43.3105H54.5898C53.7811 43.3105 53.125 43.9659 53.125 44.7754C53.125 45.5849 53.7811 46.2402 54.5898 46.2402H55.1758C55.9845 46.2402 56.6406 45.5849 56.6406 44.7754C56.6406 43.9659 55.9845 43.3105 55.1758 43.3105Z" fill="black" fill-opacity="0.4"/>
<path d="M44.8242 18.1152H45.4102C46.2189 18.1152 46.875 17.4599 46.875 16.6504C46.875 15.8409 46.2189 15.1855 45.4102 15.1855H44.8242C44.0155 15.1855 43.3594 15.8409 43.3594 16.6504C43.3594 17.4599 44.0155 18.1152 44.8242 18.1152Z" fill="black" fill-opacity="0.4"/>
<path d="M44.8242 25.1465H45.4102C46.2189 25.1465 46.875 24.4911 46.875 23.6816C46.875 22.8722 46.2189 22.2168 45.4102 22.2168H44.8242C44.0155 22.2168 43.3594 22.8722 43.3594 23.6816C43.3594 24.4911 44.0155 25.1465 44.8242 25.1465Z" fill="black" fill-opacity="0.4"/>
<path d="M39.7461 21.7285H40.332C41.1407 21.7285 41.7969 21.0732 41.7969 20.2637C41.7969 19.4542 41.1407 18.7988 40.332 18.7988H39.7461C38.9374 18.7988 38.2812 19.4542 38.2812 20.2637C38.2812 21.0732 38.9374 21.7285 39.7461 21.7285Z" fill="black" fill-opacity="0.4"/>
<path d="M39.7461 28.9551H40.332C41.1407 28.9551 41.7969 28.2997 41.7969 27.4902C41.7969 26.6808 41.1407 26.0254 40.332 26.0254H39.7461C38.9374 26.0254 38.2812 26.6808 38.2812 27.4902C38.2812 28.2997 38.9374 28.9551 39.7461 28.9551Z" fill="black" fill-opacity="0.4"/>
<path d="M39.7461 35.791H40.332C41.1407 35.791 41.7969 35.1357 41.7969 34.3262C41.7969 33.5167 41.1407 32.8613 40.332 32.8613H39.7461C38.9374 32.8613 38.2812 33.5167 38.2812 34.3262C38.2812 35.1357 38.9374 35.791 39.7461 35.791Z" fill="black" fill-opacity="0.4"/>
<path d="M39.7461 42.8223H40.332C41.1407 42.8223 41.7969 42.1669 41.7969 41.3574C41.7969 40.5479 41.1407 39.8926 40.332 39.8926H39.7461C38.9374 39.8926 38.2812 40.5479 38.2812 41.3574C38.2812 42.1669 38.9374 42.8223 39.7461 42.8223Z" fill="black" fill-opacity="0.4"/>
<path d="M44.8242 32.1777H45.4102C46.2189 32.1777 46.875 31.5224 46.875 30.7129C46.875 29.9034 46.2189 29.248 45.4102 29.248H44.8242C44.0155 29.248 43.3594 29.9034 43.3594 30.7129C43.3594 31.5224 44.0155 32.1777 44.8242 32.1777Z" fill="black" fill-opacity="0.4"/>
<path d="M44.8242 39.209H45.4102C46.2189 39.209 46.875 38.5536 46.875 37.7441C46.875 36.9347 46.2189 36.2793 45.4102 36.2793H44.8242C44.0155 36.2793 43.3594 36.9347 43.3594 37.7441C43.3594 38.5536 44.0155 39.209 44.8242 39.209Z" fill="black" fill-opacity="0.4"/>
<path d="M44.8242 46.2402H45.4102C46.2189 46.2402 46.875 45.5849 46.875 44.7754C46.875 43.9659 46.2189 43.3105 45.4102 43.3105H44.8242C44.0155 43.3105 43.3594 43.9659 43.3594 44.7754C43.3594 45.5849 44.0155 46.2402 44.8242 46.2402Z" fill="black" fill-opacity="0.4"/>
<path d="M35.0586 18.1152H35.6445C36.4532 18.1152 37.1094 17.4599 37.1094 16.6504C37.1094 15.8409 36.4532 15.1855 35.6445 15.1855H35.0586C34.2499 15.1855 33.5938 15.8409 33.5938 16.6504C33.5938 17.4599 34.2499 18.1152 35.0586 18.1152Z" fill="black" fill-opacity="0.4"/>
<path d="M35.0586 25.1465H35.6445C36.4532 25.1465 37.1094 24.4911 37.1094 23.6816C37.1094 22.8722 36.4532 22.2168 35.6445 22.2168H35.0586C34.2499 22.2168 33.5938 22.8722 33.5938 23.6816C33.5938 24.4911 34.2499 25.1465 35.0586 25.1465Z" fill="black" fill-opacity="0.4"/>
<path d="M29.9805 21.7285H30.5664C31.3751 21.7285 32.0312 21.0732 32.0312 20.2637C32.0312 19.4542 31.3751 18.7988 30.5664 18.7988H29.9805C29.1718 18.7988 28.5156 19.4542 28.5156 20.2637C28.5156 21.0732 29.1718 21.7285 29.9805 21.7285Z" fill="black" fill-opacity="0.4"/>
<path d="M29.9805 28.9551H30.5664C31.3751 28.9551 32.0312 28.2997 32.0312 27.4902C32.0312 26.6808 31.3751 26.0254 30.5664 26.0254H29.9805C29.1718 26.0254 28.5156 26.6808 28.5156 27.4902C28.5156 28.2997 29.1718 28.9551 29.9805 28.9551Z" fill="black" fill-opacity="0.4"/>
<path d="M29.9805 35.791H30.5664C31.3751 35.791 32.0312 35.1357 32.0312 34.3262C32.0312 33.5167 31.3751 32.8613 30.5664 32.8613H29.9805C29.1718 32.8613 28.5156 33.5167 28.5156 34.3262C28.5156 35.1357 29.1718 35.791 29.9805 35.791Z" fill="black" fill-opacity="0.4"/>
<path d="M29.9805 42.8223H30.5664C31.3751 42.8223 32.0312 42.1669 32.0312 41.3574C32.0312 40.5479 31.3751 39.8926 30.5664 39.8926H29.9805C29.1718 39.8926 28.5156 40.5479 28.5156 41.3574C28.5156 42.1669 29.1718 42.8223 29.9805 42.8223Z" fill="black" fill-opacity="0.4"/>
<path d="M35.0586 32.1777H35.6445C36.4532 32.1777 37.1094 31.5224 37.1094 30.7129C37.1094 29.9034 36.4532 29.248 35.6445 29.248H35.0586C34.2499 29.248 33.5938 29.9034 33.5938 30.7129C33.5938 31.5224 34.2499 32.1777 35.0586 32.1777Z" fill="black" fill-opacity="0.4"/>
<path d="M35.0586 39.209H35.6445C36.4532 39.209 37.1094 38.5536 37.1094 37.7441C37.1094 36.9347 36.4532 36.2793 35.6445 36.2793H35.0586C34.2499 36.2793 33.5938 36.9347 33.5938 37.7441C33.5938 38.5536 34.2499 39.209 35.0586 39.209Z" fill="black" fill-opacity="0.4"/>
<path d="M35.0586 46.2402H35.6445C36.4532 46.2402 37.1094 45.5849 37.1094 44.7754C37.1094 43.9659 36.4532 43.3105 35.6445 43.3105H35.0586C34.2499 43.3105 33.5938 43.9659 33.5938 44.7754C33.5938 45.5849 34.2499 46.2402 35.0586 46.2402Z" fill="black" fill-opacity="0.4"/>
<path d="M25.293 18.1152H25.8789C26.6876 18.1152 27.3438 17.4599 27.3438 16.6504C27.3438 15.8409 26.6876 15.1855 25.8789 15.1855H25.293C24.4843 15.1855 23.8281 15.8409 23.8281 16.6504C23.8281 17.4599 24.4843 18.1152 25.293 18.1152Z" fill="black" fill-opacity="0.4"/>
<path d="M25.293 25.1465H25.8789C26.6876 25.1465 27.3438 24.4911 27.3438 23.6816C27.3438 22.8722 26.6876 22.2168 25.8789 22.2168H25.293C24.4843 22.2168 23.8281 22.8722 23.8281 23.6816C23.8281 24.4911 24.4843 25.1465 25.293 25.1465Z" fill="black" fill-opacity="0.4"/>
<path d="M20.2148 21.7285H20.8008C21.6095 21.7285 22.2656 21.0732 22.2656 20.2637C22.2656 19.4542 21.6095 18.7988 20.8008 18.7988H20.2148C19.4061 18.7988 18.75 19.4542 18.75 20.2637C18.75 21.0732 19.4061 21.7285 20.2148 21.7285Z" fill="black" fill-opacity="0.4"/>
<path d="M20.2148 28.9551H20.8008C21.6095 28.9551 22.2656 28.2997 22.2656 27.4902C22.2656 26.6808 21.6095 26.0254 20.8008 26.0254H20.2148C19.4061 26.0254 18.75 26.6808 18.75 27.4902C18.75 28.2997 19.4061 28.9551 20.2148 28.9551Z" fill="black" fill-opacity="0.4"/>
<path d="M20.2148 35.791H20.8008C21.6095 35.791 22.2656 35.1357 22.2656 34.3262C22.2656 33.5167 21.6095 32.8613 20.8008 32.8613H20.2148C19.4061 32.8613 18.75 33.5167 18.75 34.3262C18.75 35.1357 19.4061 35.791 20.2148 35.791Z" fill="black" fill-opacity="0.4"/>
<path d="M20.2148 42.8223H20.8008C21.6095 42.8223 22.2656 42.1669 22.2656 41.3574C22.2656 40.5479 21.6095 39.8926 20.8008 39.8926H20.2148C19.4061 39.8926 18.75 40.5479 18.75 41.3574C18.75 42.1669 19.4061 42.8223 20.2148 42.8223Z" fill="black" fill-opacity="0.4"/>
<path d="M25.293 32.1777H25.8789C26.6876 32.1777 27.3438 31.5224 27.3438 30.7129C27.3438 29.9034 26.6876 29.248 25.8789 29.248H25.293C24.4843 29.248 23.8281 29.9034 23.8281 30.7129C23.8281 31.5224 24.4843 32.1777 25.293 32.1777Z" fill="black" fill-opacity="0.4"/>
<path d="M25.293 39.209H25.8789C26.6876 39.209 27.3438 38.5536 27.3438 37.7441C27.3438 36.9347 26.6876 36.2793 25.8789 36.2793H25.293C24.4843 36.2793 23.8281 36.9347 23.8281 37.7441C23.8281 38.5536 24.4843 39.209 25.293 39.209Z" fill="black" fill-opacity="0.4"/>
<path d="M25.293 46.2402H25.8789C26.6876 46.2402 27.3438 45.5849 27.3438 44.7754C27.3438 43.9659 26.6876 43.3105 25.8789 43.3105H25.293C24.4843 43.3105 23.8281 43.9659 23.8281 44.7754C23.8281 45.5849 24.4843 46.2402 25.293 46.2402Z" fill="black" fill-opacity="0.4"/>
<path d="M14.9414 18.2129H15.5273C16.3361 18.2129 16.9922 17.5575 16.9922 16.748C16.9922 15.9386 16.3361 15.2832 15.5273 15.2832H14.9414C14.1327 15.2832 13.4766 15.9386 13.4766 16.748C13.4766 17.5575 14.1327 18.2129 14.9414 18.2129Z" fill="black" fill-opacity="0.4"/>
<path d="M14.9414 25.2441H15.5273C16.3361 25.2441 16.9922 24.5888 16.9922 23.7793C16.9922 22.9698 16.3361 22.3145 15.5273 22.3145H14.9414C14.1327 22.3145 13.4766 22.9698 13.4766 23.7793C13.4766 24.5888 14.1327 25.2441 14.9414 25.2441Z" fill="black" fill-opacity="0.4"/>
<path d="M14.9414 32.2754H15.5273C16.3361 32.2754 16.9922 31.62 16.9922 30.8105C16.9922 30.0011 16.3361 29.3457 15.5273 29.3457H14.9414C14.1327 29.3457 13.4766 30.0011 13.4766 30.8105C13.4766 31.62 14.1327 32.2754 14.9414 32.2754Z" fill="black" fill-opacity="0.4"/>
<path d="M14.9414 39.3066H15.5273C16.3361 39.3066 16.9922 38.6513 16.9922 37.8418C16.9922 37.0323 16.3361 36.377 15.5273 36.377H14.9414C14.1327 36.377 13.4766 37.0323 13.4766 37.8418C13.4766 38.6513 14.1327 39.3066 14.9414 39.3066Z" fill="black" fill-opacity="0.4"/>
<path d="M16.9922 44.873C16.9922 44.0636 16.3361 43.4082 15.5273 43.4082H14.9414C14.1327 43.4082 13.4766 44.0636 13.4766 44.873C13.4766 45.6825 14.1327 46.3379 14.9414 46.3379H15.5273C16.3361 46.3379 16.9922 45.6825 16.9922 44.873Z" fill="black" fill-opacity="0.4"/>
<path d="M43.3594 72.1786V65.4297C43.3594 60.8528 39.6355 57.1289 35.0586 57.1289C30.4817 57.1289 26.7578 60.8528 26.7578 65.4297V72.1786C25.1701 72.7112 24.0234 74.2126 24.0234 75.9766C24.0234 78.1845 25.8194 79.9805 28.0273 79.9805H42.0898C44.2978 79.9805 46.0938 78.1845 46.0938 75.9766C46.0938 74.2126 44.9471 72.7104 43.3594 72.1786ZM42.0898 77.0508H28.0273C27.4353 77.0508 26.9531 76.5686 26.9531 75.9766C26.9531 75.3845 27.4353 74.9023 28.0273 74.9023C28.9429 74.9023 29.6875 74.1577 29.6875 73.2422V65.4297C29.6875 62.468 32.0969 60.0586 35.0586 60.0586C38.0203 60.0586 40.4297 62.468 40.4297 65.4297V73.2422C40.4297 74.1577 41.1743 74.9023 42.0898 74.9023C42.6819 74.9023 43.1641 75.3845 43.1641 75.9766C43.1641 76.5686 42.6819 77.0508 42.0898 77.0508Z" fill="black" fill-opacity="0.4"/>
</svg>
