<svg width="149" height="100" viewBox="0 0 149 100" fill="none" xmlns="http://www.w3.org/2000/svg">
<path d="M143.767 89.1295C143.767 92.7253 140.842 95.651 137.245 95.651H136.521V60.1442C136.521 54.1505 131.645 49.2744 125.651 49.2744H123.29V53.6228H125.651C129.248 53.6228 132.172 56.5484 132.172 60.1442V95.651H97.1007V60.1442C97.1007 56.5484 100.026 53.6228 103.622 53.6228H118.943V49.2744H103.622C97.6284 49.2744 92.7523 54.1505 92.7523 60.1442V95.651H35.7964V99.9993H137.245C143.239 99.9993 148.115 95.1232 148.115 89.1295V62.0494H143.767V89.1295Z" fill="black" fill-opacity="0.4"/>
<path d="M137.245 0H96.2925V4.34837H137.245C140.842 4.34837 143.766 7.27402 143.766 10.8698V57.7017H148.115V10.8698C148.115 4.87609 143.239 0 137.245 0Z" fill="black" fill-opacity="0.4"/>
<path d="M4.34837 10.8698C4.34837 7.27402 7.27289 4.34837 10.8698 4.34837H91.9463V0H10.8698C4.87609 0 0 4.87609 0 10.8698V17.5777H4.34837V10.8698Z" fill="black" fill-opacity="0.4"/>
<path d="M4.34837 89.1309V21.9268H0V89.1309C0 95.1246 4.87609 100.001 10.8698 100.001H31.4488V95.6524H10.8698C7.27289 95.6524 4.34837 92.7267 4.34837 89.1309Z" fill="black" fill-opacity="0.4"/>
<path d="M85.5079 11.5947H11.5947V68.1167H85.5079V11.5947ZM63.7683 63.7683H59.4211V57.5362H55.0727V63.7683H42.0299V57.5362H37.6815V63.7683H33.3343V58.6956C33.3343 52.529 37.0306 46.9783 42.6175 44.6075C44.325 45.7251 46.3624 46.3771 48.5513 46.3771C50.7086 46.3771 52.7189 45.7432 54.4117 44.655C60.0471 47.0043 63.7683 52.5234 63.7683 58.6956V63.7683ZM42.0299 35.5074V31.1601C42.0299 27.5644 44.9556 24.6387 48.5513 24.6387C52.1471 24.6387 55.0727 27.5644 55.0727 31.1601V35.5074C55.0727 39.1042 52.1471 42.0299 48.5513 42.0299C44.9556 42.0299 42.0299 39.1042 42.0299 35.5074ZM81.1596 63.7683H68.1167V58.6956C68.1167 51.3572 64.0283 44.7363 57.6831 41.3926C58.7804 39.6953 59.4211 37.6748 59.4211 35.5074V31.1601C59.4211 25.1664 54.545 20.2903 48.5513 20.2903C42.5576 20.2903 37.6815 25.1664 37.6815 31.1601V35.5074C37.6815 37.6522 38.3087 39.6512 39.3845 41.3372C33.0687 44.699 28.9859 51.3595 28.9859 58.6956V63.7683H15.9431V15.9431H81.1596V63.7683Z" fill="black" fill-opacity="0.4"/>
<path d="M22.4644 72.4639C18.0686 72.4639 14.4932 76.0404 14.4932 80.4351C14.4932 84.8298 18.0686 88.4064 22.4644 88.4064H36.9571C41.3518 88.4064 44.9283 84.8298 44.9283 80.4351C44.9283 76.0404 41.3518 72.4639 36.9571 72.4639H22.4644ZM40.58 80.4351C40.58 82.433 38.955 84.058 36.9571 84.058H22.4644C20.4665 84.058 18.8415 82.433 18.8415 80.4351C18.8415 78.4372 20.4665 76.8122 22.4644 76.8122H36.9571C38.955 76.8122 40.58 78.4372 40.58 80.4351Z" fill="black" fill-opacity="0.4"/>
<path d="M60.1475 72.4639C55.7517 72.4639 52.1763 76.0404 52.1763 80.4351C52.1763 84.8298 55.7517 88.4064 60.1475 88.4064H74.6402C79.036 88.4064 82.6114 84.8298 82.6114 80.4351C82.6114 76.0404 79.036 72.4639 74.6402 72.4639H60.1475ZM78.2631 80.4351C78.2631 82.433 76.6381 84.058 74.6402 84.058H60.1475C58.1496 84.058 56.5246 82.433 56.5246 80.4351C56.5246 78.4372 58.1496 76.8122 60.1475 76.8122H74.6402C76.6381 76.8122 78.2631 78.4372 78.2631 80.4351Z" fill="black" fill-opacity="0.4"/>
<path d="M124.203 28.9854H134.638V33.3337H124.203V28.9854Z" fill="black" fill-opacity="0.4"/>
<path d="M109.42 28.9854H119.855V33.3337H109.42V28.9854Z" fill="black" fill-opacity="0.4"/>
<path d="M94.6377 28.9854H105.072V33.3337H94.6377V28.9854Z" fill="black" fill-opacity="0.4"/>
<path d="M124.203 37.6816H134.638V42.03H124.203V37.6816Z" fill="black" fill-opacity="0.4"/>
<path d="M109.42 37.6816H119.855V42.03H109.42V37.6816Z" fill="black" fill-opacity="0.4"/>
<path d="M94.6377 37.6816H105.072V42.03H94.6377V37.6816Z" fill="black" fill-opacity="0.4"/>
<path d="M94.6377 20.2891H105.072V24.6374H94.6377V20.2891Z" fill="black" fill-opacity="0.4"/>
<path d="M109.42 20.2891H119.855V24.6374H109.42V20.2891Z" fill="black" fill-opacity="0.4"/>
<path d="M124.203 20.2891H134.638V24.6374H124.203V20.2891Z" fill="black" fill-opacity="0.4"/>
<path d="M94.6377 11.5947H105.072V15.9431H94.6377V11.5947Z" fill="black" fill-opacity="0.4"/>
<path d="M109.42 11.5947H119.855V15.9431H109.42V11.5947Z" fill="black" fill-opacity="0.4"/>
<path d="M124.203 11.5947H134.638V15.9431H124.203V11.5947Z" fill="black" fill-opacity="0.4"/>
<path d="M121.16 86.9561H125.508V91.3044H121.16V86.9561Z" fill="black" fill-opacity="0.4"/>
<path d="M112.464 86.9561H116.812V91.3044H112.464V86.9561Z" fill="black" fill-opacity="0.4"/>
<path d="M103.768 86.9561H108.116V91.3044H103.768V86.9561Z" fill="black" fill-opacity="0.4"/>
</svg>
