<svg width="115" height="120" viewBox="0 0 115 120" fill="none" xmlns="http://www.w3.org/2000/svg">
<path d="M57.4938 120C57.0179 120 56.6328 119.623 56.6328 119.157V116.629C56.6328 116.163 57.0179 115.786 57.4938 115.786C57.9701 115.786 58.3548 116.163 58.3548 116.629V119.157C58.3548 119.623 57.9701 120 57.4938 120Z" fill="black" fill-opacity="0.4"/>
<path d="M21.0768 85.1792C20.6009 85.1792 20.2158 84.8023 20.2158 84.3365V81.8085C20.2158 81.3423 20.6009 80.9658 21.0768 80.9658C21.5531 80.9658 21.9378 81.3423 21.9378 81.8085V84.3365C21.9378 84.8023 21.5531 85.1792 21.0768 85.1792Z" fill="black" fill-opacity="0.4"/>
<path d="M94.1496 78.1685C93.6737 78.1685 93.2886 77.7916 93.2886 77.3258V74.7978C93.2886 74.3316 93.6737 73.9551 94.1496 73.9551C94.6259 73.9551 95.0106 74.3316 95.0106 74.7978V77.3258C95.0106 77.7916 94.6259 78.1685 94.1496 78.1685Z" fill="black" fill-opacity="0.4"/>
<path d="M63.5724 117.568C63.3521 117.568 63.1313 117.485 62.9636 117.321L61.1373 115.534C60.8006 115.204 60.8006 114.671 61.1373 114.342C61.4741 114.012 62.0181 114.012 62.3548 114.342L64.1811 116.129C64.5179 116.459 64.5179 116.991 64.1811 117.321C64.0121 117.485 63.7918 117.568 63.5724 117.568Z" fill="black" fill-opacity="0.4"/>
<path d="M27.1558 82.7465C26.9356 82.7465 26.7148 82.6638 26.5471 82.4996L24.7208 80.7122C24.3841 80.3826 24.3841 79.8502 24.7208 79.5206C25.0576 79.191 25.6016 79.191 25.9383 79.5206L27.7646 81.308C28.1014 81.6376 28.1014 82.17 27.7646 82.4996C27.5956 82.6638 27.3753 82.7465 27.1558 82.7465Z" fill="black" fill-opacity="0.4"/>
<path d="M100.229 75.7358C100.008 75.7358 99.7876 75.6531 99.6198 75.4889L97.7936 73.7015C97.4568 73.3719 97.4568 72.8395 97.7936 72.5099C98.1303 72.1803 98.6743 72.1803 99.0111 72.5099L100.837 74.2973C101.174 74.6269 101.174 75.1593 100.837 75.4889C100.668 75.6531 100.448 75.7358 100.229 75.7358Z" fill="black" fill-opacity="0.4"/>
<path d="M51.4131 117.517C51.1928 117.517 50.9725 117.434 50.8043 117.27C50.4676 116.941 50.4676 116.408 50.8043 116.078L52.6289 114.291C52.9657 113.962 53.5097 113.962 53.8464 114.291C54.1832 114.62 54.1832 115.153 53.8464 115.482L52.0218 117.27C51.8541 117.434 51.6334 117.517 51.4131 117.517Z" fill="black" fill-opacity="0.4"/>
<path d="M14.9966 82.6959C14.7763 82.6959 14.556 82.6132 14.3878 82.449C14.0511 82.1203 14.0511 81.587 14.3878 81.2574L16.2124 79.47C16.5492 79.1409 17.0932 79.1409 17.4299 79.47C17.7667 79.7988 17.7667 80.332 17.4299 80.6616L15.6053 82.449C15.4376 82.6132 15.2169 82.6959 14.9966 82.6959Z" fill="black" fill-opacity="0.4"/>
<path d="M88.0693 75.6852C87.849 75.6852 87.6287 75.6025 87.4606 75.4383C87.1238 75.1095 87.1238 74.5763 87.4606 74.2467L89.2852 72.4593C89.6219 72.1301 90.1659 72.1301 90.5027 72.4593C90.8394 72.788 90.8394 73.3213 90.5027 73.6509L88.6781 75.4383C88.5103 75.6025 88.2896 75.6852 88.0693 75.6852Z" fill="black" fill-opacity="0.4"/>
<path d="M113.083 0H1.91667C1.40833 0 0.920823 0.196973 0.561379 0.547586C0.201934 0.898199 0 1.37373 0 1.86958V9.34788C0 9.84372 0.201934 10.3193 0.561379 10.6699C0.920823 11.0205 1.40833 11.2175 1.91667 11.2175H19.1667V41.1307H13.4167C13.0003 41.1307 12.5952 41.263 12.2628 41.5075C11.9303 41.7521 11.6885 42.0956 11.574 42.4861L3.90736 68.6602C3.82577 68.9384 3.81152 69.2314 3.86573 69.5159C3.91994 69.8004 4.04113 70.0688 4.21976 70.2999C4.39839 70.531 4.62957 70.7184 4.89512 70.8475C5.16066 70.9767 5.4533 71.0439 5.75 71.0439H11.6938C12.1358 73.1548 13.3117 75.052 15.0227 76.4145C16.7336 77.777 18.8746 78.5212 21.0833 78.5212C23.2921 78.5212 25.433 77.777 27.144 76.4145C28.8549 75.052 30.0309 73.1548 30.4728 71.0439H36.4167C36.7134 71.0439 37.006 70.9767 37.2715 70.8475C37.5371 70.7184 37.7683 70.531 37.9469 70.2999C38.1255 70.0688 38.2467 69.8004 38.3009 69.5159C38.3551 69.2314 38.3409 68.9384 38.2593 68.6602L30.5926 42.4861C30.4781 42.0956 30.2364 41.7521 29.9039 41.5075C29.5714 41.263 29.1664 41.1307 28.75 41.1307H23V11.2175H55.5833V74.783H49.8333C49.4169 74.7831 49.0119 74.9154 48.6794 75.1599C48.347 75.4045 48.1052 75.748 47.9907 76.1385L40.324 102.313C40.2424 102.591 40.2282 102.884 40.2824 103.168C40.3366 103.453 40.4578 103.721 40.6364 103.952C40.8151 104.183 41.0462 104.371 41.3118 104.5C41.5773 104.629 41.87 104.696 42.1667 104.696H48.1105C48.5525 106.807 49.7284 108.704 51.4394 110.067C53.1503 111.429 55.2913 112.174 57.5 112.174C59.7087 112.174 61.8497 111.429 63.5606 110.067C65.2716 108.704 66.4475 106.807 66.8895 104.696H72.8333C73.13 104.696 73.4227 104.629 73.6882 104.5C73.9538 104.371 74.185 104.183 74.3636 103.952C74.5422 103.721 74.6634 103.453 74.7176 103.168C74.7718 102.884 74.7576 102.591 74.676 102.313L67.0093 76.1385C66.8948 75.748 66.653 75.4045 66.3206 75.1599C65.9881 74.9154 65.5831 74.7831 65.1667 74.783H59.4167V11.2175H92V33.6524H86.25C85.8336 33.6524 85.4285 33.7847 85.0961 34.0292C84.7636 34.2738 84.5219 34.6173 84.4074 35.0078L76.7407 61.1819C76.6591 61.4601 76.6449 61.7531 76.6991 62.0376C76.7533 62.3221 76.8745 62.5905 77.0531 62.8216C77.2317 63.0527 77.4629 63.2401 77.7284 63.3692C77.994 63.4984 78.2866 63.5656 78.5833 63.5656H84.5272C84.9691 65.6765 86.1451 67.5737 87.856 68.9362C89.567 70.2987 91.7079 71.0429 93.9167 71.0429C96.1254 71.0429 98.2663 70.2987 99.9773 68.9362C101.688 67.5737 102.864 65.6765 103.306 63.5656H109.25C109.547 63.5656 109.839 63.4984 110.105 63.3692C110.37 63.2401 110.602 63.0527 110.78 62.8216C110.959 62.5905 111.08 62.3221 111.134 62.0376C111.188 61.7531 111.174 61.4601 111.093 61.1819L103.426 35.0078C103.311 34.6173 103.07 34.2738 102.737 34.0292C102.405 33.7847 102 33.6524 101.583 33.6524H95.8333V11.2175H113.083C113.592 11.2175 114.079 11.0205 114.439 10.6699C114.798 10.3193 115 9.84372 115 9.34788V1.86958C115 1.37373 114.798 0.898199 114.439 0.547586C114.079 0.196973 113.592 0 113.083 0ZM21.0833 74.783C19.8981 74.7795 18.7431 74.4182 17.7768 73.7487C16.8105 73.0792 16.0804 72.1343 15.6867 71.0439H26.4802C26.0864 72.1344 25.3563 73.0792 24.39 73.7487C23.4237 74.4182 22.2686 74.7795 21.0833 74.783ZM27.3041 44.8698L33.8759 67.3047H8.29078L14.8626 44.8698H27.3041ZM57.5 108.435C56.3148 108.432 55.1597 108.071 54.1935 107.401C53.2272 106.732 52.4971 105.787 52.1034 104.696H62.8969C62.5031 105.787 61.7729 106.732 60.8066 107.401C59.8403 108.071 58.6852 108.432 57.5 108.435ZM63.7208 78.5222L70.2925 100.957H44.7074L51.2792 78.5222H63.7208ZM93.9167 67.3047C92.7314 67.3012 91.5764 66.9399 90.6101 66.2704C89.6439 65.6009 88.9138 64.656 88.5201 63.5656H99.3135C98.9198 64.6561 98.1896 65.6009 97.2233 66.2704C96.257 66.9399 95.1019 67.3012 93.9167 67.3047ZM100.137 37.3915L106.709 59.8264H81.1241L87.6959 37.3915H100.137ZM111.167 7.4783H3.83333V3.73915H111.167V7.4783Z" fill="black" fill-opacity="0.4"/>
</svg>
