<svg width="73" height="100" viewBox="0 0 73 100" fill="none" xmlns="http://www.w3.org/2000/svg">
<path d="M65.1367 0H7.32422C3.28555 0 0 3.28555 0 7.32422V12.474C0 13.2832 0.655859 13.9389 1.46484 13.9389C2.27383 13.9389 2.92969 13.2832 2.92969 12.474V7.32422C2.92969 4.90117 4.90098 2.92969 7.32422 2.92969H65.1367C67.56 2.92969 69.5312 4.90117 69.5312 7.32422V92.6758C69.5312 95.0988 67.56 97.0703 65.1367 97.0703H7.32422C4.90098 97.0703 2.92969 95.0988 2.92969 92.6758V18.724C2.92969 17.9148 2.27383 17.2592 1.46484 17.2592C0.655859 17.2592 0 17.9148 0 18.724V92.6758C0 96.7145 3.28555 100 7.32422 100H65.1367C69.1754 100 72.4609 96.7145 72.4609 92.6758V7.32422C72.4609 3.28555 69.1754 0 65.1367 0Z" fill="black" fill-opacity="0.4"/>
<path d="M23.4348 94.1406H65.1367C65.9457 94.1406 66.6016 93.485 66.6016 92.6758V7.32422C66.6016 6.51504 65.9457 5.85938 65.1367 5.85938H7.32422C6.51523 5.85938 5.85938 6.51504 5.85938 7.32422V92.6758C5.85938 93.485 6.51523 94.1406 7.32422 94.1406H16.8213C17.6303 94.1406 18.2861 93.485 18.2861 92.6758C18.2861 91.8666 17.6303 91.2109 16.8213 91.2109H8.78906V8.78906H63.6719V91.2109H23.4348C22.6258 91.2109 21.9699 91.8666 21.9699 92.6758C21.9699 93.485 22.6258 94.1406 23.4348 94.1406Z" fill="black" fill-opacity="0.4"/>
<path d="M50.9766 32.6705C51.7855 32.6705 52.4414 32.0148 52.4414 31.2057V27.9297C52.4414 25.6143 50.5576 23.7305 48.2422 23.7305H23.2422C20.9268 23.7305 19.043 25.6143 19.043 27.9297V72.0703C19.043 74.3857 20.9268 76.2695 23.2422 76.2695H48.2422C50.5576 76.2695 52.4414 74.3857 52.4414 72.0703V37.5C52.4414 36.6908 51.7855 36.0352 50.9766 36.0352C50.1676 36.0352 49.5117 36.6908 49.5117 37.5V48.5352H21.9727V27.9297C21.9727 27.2297 22.5422 26.6602 23.2422 26.6602H48.2422C48.9422 26.6602 49.5117 27.2297 49.5117 27.9297V31.2057C49.5117 32.0148 50.1676 32.6705 50.9766 32.6705ZM49.5117 51.4648V72.0703C49.5117 72.7703 48.9422 73.3398 48.2422 73.3398H23.2422C22.5422 73.3398 21.9727 72.7703 21.9727 72.0703V51.4648H49.5117Z" fill="black" fill-opacity="0.4"/>
<path d="M34.2773 33.5938V41.4062C34.2773 42.2154 34.9332 42.8711 35.7422 42.8711C36.5512 42.8711 37.207 42.2154 37.207 41.4062V33.5938C37.207 32.7846 36.5512 32.1289 35.7422 32.1289C34.9332 32.1289 34.2773 32.7846 34.2773 33.5938Z" fill="black" fill-opacity="0.4"/>
<path d="M35.7422 68.6523C39.027 68.6523 41.6992 65.9799 41.6992 62.6953C41.6992 59.4107 39.027 56.7383 35.7422 56.7383C32.4574 56.7383 29.7852 59.4107 29.7852 62.6953C29.7852 65.9799 32.4574 68.6523 35.7422 68.6523ZM35.7422 59.668C37.4115 59.668 38.7695 61.026 38.7695 62.6953C38.7695 64.3646 37.4115 65.7227 35.7422 65.7227C34.0729 65.7227 32.7148 64.3646 32.7148 62.6953C32.7148 61.026 34.0729 59.668 35.7422 59.668Z" fill="black" fill-opacity="0.4"/>
</svg>
