<svg width="63" height="100" viewBox="0 0 63 100" fill="none" xmlns="http://www.w3.org/2000/svg">
<path d="M31.2124 87.6768C30.4034 87.6768 29.7476 88.3326 29.7476 89.1416V98.5355C29.7476 99.3445 30.4034 100 31.2124 100C32.0214 100 32.6772 99.3445 32.6772 98.5355V89.1416C32.6772 88.3326 32.0216 87.6768 31.2124 87.6768Z" fill="black" fill-opacity="0.4"/>
<path d="M54.6975 42.2725H54.5967V31.2121C54.5967 29.541 53.2373 28.1816 51.5662 28.1816H48.435C46.7639 28.1816 45.4045 29.541 45.4045 31.2121V42.2725H45.3037C43.6326 42.2725 42.2732 43.6318 42.2732 45.3029V56.2148C42.2732 57.1682 42.1711 57.3059 41.6043 58.0705C41.4215 58.3172 41.1939 58.624 40.9426 59.0012L33.6756 69.9037C32.6621 71.4242 31.8402 73.0441 31.2127 74.7313C30.5852 73.0441 29.7633 71.4242 28.7498 69.9037L21.4828 59.0012C21.2314 58.6242 21.0039 58.3172 20.8211 58.0705C20.2543 57.3059 20.1521 57.1682 20.1521 56.2148V45.3029C20.1521 43.6318 18.7928 42.2725 17.1217 42.2725H17.0209V31.2121C17.0209 29.541 15.6615 28.1816 13.9904 28.1816H10.8592C9.18809 28.1816 7.82871 29.541 7.82871 31.2121V42.2725H7.72793C6.05684 42.2725 4.69727 43.6318 4.69727 45.3029V56.2111C4.69727 60.8373 6.01992 63.6682 8.625 67.5764L15.892 78.4791C16.7625 79.7852 17.2227 81.3051 17.2227 82.8746V98.535C17.2227 99.3439 17.8785 99.9998 18.6875 99.9998C19.4965 99.9998 20.1523 99.3439 20.1523 98.535V82.8744C20.1523 80.7246 19.5221 78.6428 18.3297 76.8541L11.0627 65.9514C8.73477 62.4588 7.62695 60.1103 7.62695 56.2109V45.3027C7.62695 45.2471 7.67227 45.202 7.72793 45.202H17.1219C17.1775 45.202 17.2227 45.2471 17.2227 45.3027V56.2146C17.2227 58.0426 17.6957 58.7736 18.4678 59.815C18.648 60.0582 18.8346 60.3098 19.0453 60.6258L26.3123 71.5283C28.56 74.9008 29.748 78.8254 29.748 82.8779C29.748 83.6869 30.4039 84.3428 31.2129 84.3428C32.0219 84.3428 32.6777 83.6869 32.6777 82.8779C32.6777 78.8252 33.8658 74.9006 36.1135 71.5283L43.3805 60.6258C43.5912 60.3096 43.7775 60.0582 43.958 59.815C44.7299 58.7736 45.2031 58.0426 45.2031 56.2146V45.3027C45.2031 45.2471 45.2482 45.202 45.3039 45.202H54.6978C54.7535 45.202 54.7988 45.2471 54.7988 45.3027V56.2109C54.7988 60.1103 53.691 62.4588 51.3631 65.9514L44.0961 76.8539C42.9039 78.6428 42.2734 80.7244 42.2734 82.8744V98.535C42.2734 99.3439 42.9293 99.9998 43.7383 99.9998C44.5473 99.9998 45.2031 99.3439 45.2031 98.535V82.8744C45.2031 81.3049 45.6633 79.785 46.5338 78.4789L53.8008 67.5762C56.4057 63.668 57.7285 60.8371 57.7285 56.2109V45.3027C57.7279 43.6318 56.3684 42.2725 54.6975 42.2725ZM14.0914 42.2725H10.7586V31.2121C10.7586 31.1564 10.8037 31.1113 10.8594 31.1113H13.9906C14.0463 31.1113 14.0914 31.1564 14.0914 31.2121V42.2725ZM51.667 42.2725H48.3342V31.2121C48.3342 31.1564 48.3793 31.1113 48.435 31.1113H51.5662C51.6219 31.1113 51.667 31.1564 51.667 31.2121V42.2725Z" fill="black" fill-opacity="0.4"/>
<path d="M12.4246 0C5.57363 0 0 5.57363 0 12.4244C0 19.2752 5.57363 24.8488 12.4244 24.8488C19.2754 24.8488 24.8488 19.2752 24.8488 12.4244C24.8488 5.57363 19.2754 0 12.4246 0ZM12.4246 21.9191C7.18926 21.9191 2.92988 17.6598 2.92988 12.4244C2.92988 7.18906 7.18926 2.92969 12.4246 2.92969C17.66 2.92969 21.9193 7.18906 21.9193 12.4244C21.9193 17.6598 17.66 21.9191 12.4246 21.9191Z" fill="black" fill-opacity="0.4"/>
<path d="M50.0001 0C43.1493 0 37.5757 5.57363 37.5757 12.4244C37.5757 19.2752 43.1493 24.8488 50.0001 24.8488C56.8511 24.8488 62.4245 19.2752 62.4245 12.4244C62.4245 5.57363 56.8513 0 50.0001 0ZM50.0001 21.9191C44.7647 21.9191 40.5054 17.6598 40.5054 12.4244C40.5054 7.18906 44.7647 2.92969 50.0001 2.92969C55.2356 2.92969 59.4948 7.18906 59.4948 12.4244C59.4948 17.6598 55.2358 21.9191 50.0001 21.9191Z" fill="black" fill-opacity="0.4"/>
<path d="M17.1223 10.9598H13.8902V7.72754C13.8902 6.91855 13.2344 6.2627 12.4254 6.2627C11.6164 6.2627 10.9605 6.91855 10.9605 7.72754V10.9596H7.72852C6.91953 10.9596 6.26367 11.6154 6.26367 12.4244C6.26367 13.2334 6.91953 13.8893 7.72852 13.8893H10.9605V17.1213C10.9605 17.9303 11.6164 18.5861 12.4254 18.5861C13.2344 18.5861 13.8902 17.9305 13.8902 17.1215V13.8895H17.1223C17.9313 13.8895 18.5871 13.2336 18.5871 12.4246C18.5871 11.6156 17.9311 10.9598 17.1223 10.9598Z" fill="black" fill-opacity="0.4"/>
<path d="M54.6972 10.9595H45.3032C44.4942 10.9595 43.8384 11.6153 43.8384 12.4243C43.8384 13.2333 44.4942 13.8892 45.3032 13.8892H54.6972C55.5062 13.8892 56.162 13.2333 56.162 12.4243C56.162 11.6153 55.5064 10.9595 54.6972 10.9595Z" fill="black" fill-opacity="0.4"/>
</svg>
